%TF.GenerationSoftware,KiCad,Pcbnew,9.0.7*%
%TF.CreationDate,2026-04-10T15:11:02+03:00*%
%TF.ProjectId,esp,6573702e-6b69-4636-9164-5f7063625858,rev?*%
%TF.SameCoordinates,Original*%
%TF.FileFunction,Copper,L2,Bot*%
%TF.FilePolarity,Positive*%
%FSLAX46Y46*%
G04 Gerber Fmt 4.6, Leading zero omitted, Abs format (unit mm)*
G04 Created by KiCad (PCBNEW 9.0.7) date 2026-04-10 15:11:02*
%MOMM*%
%LPD*%
G01*
G04 APERTURE LIST*
%TA.AperFunction,WasherPad*%
%ADD10O,1.473200X3.073400*%
%TD*%
%TA.AperFunction,ComponentPad*%
%ADD11R,2.159000X2.159000*%
%TD*%
%TA.AperFunction,ComponentPad*%
%ADD12C,2.159000*%
%TD*%
%TA.AperFunction,WasherPad*%
%ADD13O,2.108200X0.990600*%
%TD*%
%TA.AperFunction,WasherPad*%
%ADD14O,1.803400X0.990600*%
%TD*%
%TA.AperFunction,ComponentPad*%
%ADD15R,1.700000X1.700000*%
%TD*%
%TA.AperFunction,ComponentPad*%
%ADD16C,1.700000*%
%TD*%
%TA.AperFunction,ViaPad*%
%ADD17C,0.600000*%
%TD*%
%TA.AperFunction,ViaPad*%
%ADD18C,0.500000*%
%TD*%
%TA.AperFunction,Conductor*%
%ADD19C,0.400000*%
%TD*%
%TA.AperFunction,Conductor*%
%ADD20C,0.300000*%
%TD*%
%TA.AperFunction,Conductor*%
%ADD21C,0.250000*%
%TD*%
G04 APERTURE END LIST*
D10*
%TO.P,SW1,*%
%TO.N,*%
X92700000Y-93800000D03*
X109299958Y-93800000D03*
D11*
%TO.P,SW1,1,1*%
%TO.N,unconnected-(SW1-Pad1)*%
X97000001Y-95100000D03*
D12*
%TO.P,SW1,2,2*%
%TO.N,/BAT*%
X101000001Y-95100000D03*
%TO.P,SW1,3,3*%
%TO.N,Net-(Q2-D)*%
X105000000Y-95100000D03*
%TO.P,SW1,4,4*%
%TO.N,Net-(D2-A)*%
X105000000Y-92500000D03*
%TO.P,SW1,5,5*%
%TO.N,/USB_VBUS*%
X101000001Y-92500000D03*
%TO.P,SW1,6,6*%
%TO.N,unconnected-(SW1-Pad6)*%
X97000001Y-92500000D03*
%TD*%
D13*
%TO.P,J2,*%
%TO.N,*%
X89160800Y-34679998D03*
D14*
X84980800Y-34679998D03*
D13*
X89160800Y-43320002D03*
D14*
X84980800Y-43320002D03*
%TD*%
D15*
%TO.P,J1,1,Pin_1*%
%TO.N,Net-(J1-Pin_1)*%
X154500000Y-85775000D03*
D16*
%TO.P,J1,2,Pin_2*%
%TO.N,+3.3V*%
X154500000Y-83235000D03*
%TD*%
D15*
%TO.P,J3,1,Pin_1*%
%TO.N,/IO35*%
X107000000Y-41600000D03*
D16*
%TO.P,J3,2,Pin_2*%
%TO.N,/IO36*%
X107000000Y-44140000D03*
%TO.P,J3,3,Pin_3*%
%TO.N,/IO37*%
X107000000Y-46680000D03*
%TO.P,J3,4,Pin_4*%
%TO.N,/IO38*%
X107000000Y-49220000D03*
%TO.P,J3,5,Pin_5*%
%TO.N,/IO39*%
X107000000Y-51760000D03*
%TO.P,J3,6,Pin_6*%
%TO.N,/IO40*%
X107000000Y-54300000D03*
%TO.P,J3,7,Pin_7*%
%TO.N,/IO41*%
X107000000Y-56840000D03*
%TO.P,J3,8,Pin_8*%
%TO.N,/IO42*%
X107000000Y-59380000D03*
%TO.P,J3,9,Pin_9*%
%TO.N,/IO43*%
X107000000Y-61920000D03*
%TO.P,J3,10,Pin_10*%
%TO.N,/IO44*%
X107000000Y-64460000D03*
%TO.P,J3,11,Pin_11*%
%TO.N,GND*%
X107000000Y-67000000D03*
%TO.P,J3,12,Pin_12*%
X107000000Y-69540000D03*
%TO.P,J3,13,Pin_13*%
%TO.N,/BAT*%
X107000000Y-72080000D03*
%TO.P,J3,14,Pin_14*%
X107000000Y-74620000D03*
%TO.P,J3,15,Pin_15*%
%TO.N,+3.3V*%
X107000000Y-77160000D03*
%TO.P,J3,16,Pin_16*%
X107000000Y-79700000D03*
%TD*%
D17*
%TO.N,GND*%
X140500000Y-97000000D03*
X132750000Y-30000000D03*
X145000000Y-34000000D03*
X164250000Y-43500000D03*
X157000000Y-98000000D03*
X161000000Y-27000000D03*
X165000000Y-78000000D03*
X99000000Y-30000000D03*
X139250000Y-42000000D03*
X155045074Y-68021758D03*
X132500000Y-85850000D03*
X106000000Y-36000000D03*
X109800000Y-79200000D03*
X154000000Y-37250000D03*
X111100000Y-47700000D03*
X104000000Y-30000000D03*
X165500000Y-47500000D03*
X103450000Y-75000000D03*
X147000000Y-80000000D03*
X91750000Y-43000000D03*
X111500000Y-37750000D03*
X121000000Y-83000000D03*
X156000000Y-30000000D03*
X83500000Y-90000000D03*
X112750000Y-43500000D03*
X137500000Y-30000000D03*
X166000000Y-34000000D03*
X161250000Y-62500000D03*
X89000000Y-27000000D03*
X103450000Y-65000000D03*
X141000000Y-74000000D03*
X144000000Y-62000000D03*
X165500000Y-52500000D03*
X125000000Y-59000000D03*
X115750000Y-46500000D03*
X166000000Y-89000000D03*
X126600000Y-40900000D03*
X114000000Y-30000000D03*
X125000000Y-64000000D03*
X121000000Y-70000000D03*
X151800000Y-61500000D03*
X83500000Y-80000000D03*
X121000000Y-51000000D03*
X129000000Y-64000000D03*
X138000000Y-26500000D03*
X152750000Y-47250000D03*
X83500000Y-70000000D03*
X110800000Y-88000000D03*
X151000000Y-73000000D03*
X162500000Y-45750000D03*
X108000000Y-86000000D03*
X154200000Y-50300000D03*
X112400000Y-46400000D03*
X117500000Y-38000000D03*
X104000000Y-27000000D03*
X109000000Y-30000000D03*
X151000000Y-27000000D03*
X152750000Y-94250000D03*
X165500000Y-40500000D03*
X161000000Y-92000000D03*
X99000000Y-47000000D03*
X129000000Y-51000000D03*
X136500000Y-34250000D03*
X141000000Y-70000000D03*
X148855808Y-41491350D03*
X134500000Y-97000000D03*
X143000000Y-43000000D03*
X131000000Y-67000000D03*
X129000000Y-55000000D03*
X161000000Y-30000000D03*
X115500000Y-40750000D03*
X110000000Y-69000000D03*
X109400000Y-62800000D03*
X151000000Y-30000000D03*
X85000000Y-37000000D03*
X137000000Y-49000000D03*
X92000000Y-36000000D03*
X159000000Y-73000000D03*
X155000000Y-78000000D03*
X93000000Y-87000000D03*
X113000000Y-90000000D03*
X156500000Y-41500000D03*
X101250000Y-40500000D03*
X162250000Y-37250000D03*
X137000000Y-67000000D03*
X120500000Y-90500000D03*
X140000000Y-51000000D03*
X150500000Y-37000000D03*
X97000000Y-44000000D03*
X103450000Y-85000000D03*
X152500000Y-41500000D03*
X121000000Y-76000000D03*
X156648920Y-53000084D03*
X151250000Y-53500000D03*
X133000000Y-64000000D03*
X90000000Y-98000000D03*
X158500000Y-34000000D03*
X131000000Y-70000000D03*
X158250000Y-45750000D03*
X157750000Y-37250000D03*
X103450000Y-55000000D03*
X133000000Y-39000000D03*
X109000000Y-27000000D03*
X83500000Y-46500000D03*
X97000000Y-87000000D03*
X113000000Y-98000000D03*
X147000000Y-68000000D03*
X141000000Y-80000000D03*
X116000000Y-70000000D03*
X89000000Y-30000000D03*
X114000000Y-83000000D03*
X110000000Y-71000000D03*
X147000000Y-47000000D03*
X83500000Y-60000000D03*
X144000000Y-56000000D03*
X138000000Y-57000000D03*
X154400000Y-61500000D03*
X129900000Y-77500000D03*
X131250000Y-36000000D03*
X110000000Y-49300000D03*
X85000000Y-41000000D03*
X118500000Y-44000000D03*
X147000000Y-37000000D03*
X143950000Y-84850000D03*
X116950000Y-96850000D03*
X122500000Y-97000000D03*
X102000000Y-45000000D03*
X156000000Y-27000000D03*
X114000000Y-76000000D03*
X94000000Y-30000000D03*
X159250000Y-83500000D03*
X146000000Y-30000000D03*
X162750000Y-55250000D03*
X129000000Y-97000000D03*
X163000000Y-68000000D03*
X121000000Y-55000000D03*
X116250000Y-59250000D03*
X121000000Y-59000000D03*
X99000000Y-27000000D03*
X141000000Y-27000000D03*
X109300455Y-52824734D03*
X118500000Y-32500000D03*
X165250000Y-58500000D03*
X129000000Y-59000000D03*
X112750000Y-35000000D03*
X151000000Y-87000000D03*
X134500000Y-46500000D03*
X109250000Y-40250000D03*
X113000000Y-61000000D03*
X113000000Y-66000000D03*
X126600000Y-43900000D03*
X125000000Y-51000000D03*
X124500000Y-90500000D03*
X121000000Y-64000000D03*
X94000000Y-27000000D03*
X89000000Y-87000000D03*
X147000000Y-97000000D03*
X150500000Y-34000000D03*
X110323596Y-56441009D03*
X110000000Y-67000000D03*
X165250000Y-62500000D03*
X146000000Y-27000000D03*
X114000000Y-28000000D03*
X129000000Y-44000000D03*
X161000000Y-52250000D03*
X101000000Y-36000000D03*
X160000000Y-41500000D03*
X83500000Y-50000000D03*
D18*
%TO.N,+3.3V*%
X102500000Y-81000000D03*
D17*
X147250000Y-51250000D03*
X147250000Y-55500000D03*
D18*
X108250000Y-83000000D03*
D17*
%TO.N,Net-(U10-BV)*%
X87750000Y-45000000D03*
X121304968Y-42000000D03*
X118000000Y-40250000D03*
X89250000Y-46500000D03*
%TO.N,/I2C_CLK*%
X152600000Y-43500000D03*
X155750000Y-43500000D03*
%TO.N,/BAROMETER_INT*%
X150500000Y-38600000D03*
X155900000Y-38600000D03*
%TO.N,/IMU_INT*%
X154000000Y-59250000D03*
X152500000Y-59250000D03*
%TD*%
D19*
%TO.N,+3.3V*%
X102500000Y-81000000D02*
X104500000Y-83000000D01*
X104500000Y-83000000D02*
X108250000Y-83000000D01*
D20*
X147250000Y-55500000D02*
X147250000Y-51250000D01*
D19*
%TO.N,Net-(U10-BV)*%
X119750000Y-42000000D02*
X118000000Y-40250000D01*
X87750000Y-45000000D02*
X89250000Y-46500000D01*
X121304968Y-42000000D02*
X119750000Y-42000000D01*
D21*
%TO.N,/I2C_CLK*%
X152600000Y-43500000D02*
X155750000Y-43500000D01*
%TO.N,/BAROMETER_INT*%
X150500000Y-38600000D02*
X155900000Y-38600000D01*
%TO.N,/IMU_INT*%
X152500000Y-59250000D02*
X154000000Y-59250000D01*
%TD*%
%TA.AperFunction,Conductor*%
%TO.N,GND*%
G36*
X121943045Y-25520185D02*
G01*
X121988800Y-25572989D01*
X122000006Y-25624500D01*
X122000006Y-30219930D01*
X127999994Y-30219930D01*
X127999994Y-28135258D01*
X162999500Y-28135258D01*
X162999500Y-28364741D01*
X163024446Y-28554215D01*
X163029452Y-28592238D01*
X163029453Y-28592240D01*
X163088842Y-28813887D01*
X163176650Y-29025876D01*
X163176657Y-29025890D01*
X163291392Y-29224617D01*
X163431081Y-29406661D01*
X163431089Y-29406670D01*
X163593330Y-29568911D01*
X163593338Y-29568918D01*
X163775382Y-29708607D01*
X163775385Y-29708608D01*
X163775388Y-29708611D01*
X163974112Y-29823344D01*
X163974117Y-29823346D01*
X163974123Y-29823349D01*
X164065480Y-29861190D01*
X164186113Y-29911158D01*
X164407762Y-29970548D01*
X164635266Y-30000500D01*
X164635273Y-30000500D01*
X164864727Y-30000500D01*
X164864734Y-30000500D01*
X165092238Y-29970548D01*
X165313887Y-29911158D01*
X165525888Y-29823344D01*
X165724612Y-29708611D01*
X165906661Y-29568919D01*
X165906665Y-29568914D01*
X165906670Y-29568911D01*
X166068911Y-29406670D01*
X166068914Y-29406665D01*
X166068919Y-29406661D01*
X166208611Y-29224612D01*
X166323344Y-29025888D01*
X166411158Y-28813887D01*
X166470548Y-28592238D01*
X166500500Y-28364734D01*
X166500500Y-28135266D01*
X166470548Y-27907762D01*
X166411158Y-27686113D01*
X166323344Y-27474112D01*
X166208611Y-27275388D01*
X166208608Y-27275385D01*
X166208607Y-27275382D01*
X166068918Y-27093338D01*
X166068911Y-27093330D01*
X165906670Y-26931089D01*
X165906661Y-26931081D01*
X165724617Y-26791392D01*
X165525890Y-26676657D01*
X165525876Y-26676650D01*
X165313887Y-26588842D01*
X165092238Y-26529452D01*
X165054215Y-26524446D01*
X164864741Y-26499500D01*
X164864734Y-26499500D01*
X164635266Y-26499500D01*
X164635258Y-26499500D01*
X164418715Y-26528009D01*
X164407762Y-26529452D01*
X164314076Y-26554554D01*
X164186112Y-26588842D01*
X163974123Y-26676650D01*
X163974109Y-26676657D01*
X163775382Y-26791392D01*
X163593338Y-26931081D01*
X163431081Y-27093338D01*
X163291392Y-27275382D01*
X163176657Y-27474109D01*
X163176650Y-27474123D01*
X163088842Y-27686112D01*
X163029453Y-27907759D01*
X163029451Y-27907770D01*
X162999500Y-28135258D01*
X127999994Y-28135258D01*
X127999994Y-25624500D01*
X128019679Y-25557461D01*
X128072483Y-25511706D01*
X128123994Y-25500500D01*
X167375500Y-25500500D01*
X167442539Y-25520185D01*
X167488294Y-25572989D01*
X167499500Y-25624500D01*
X167499500Y-99375500D01*
X167479815Y-99442539D01*
X167427011Y-99488294D01*
X167375500Y-99499500D01*
X82624500Y-99499500D01*
X82557461Y-99479815D01*
X82511706Y-99427011D01*
X82500500Y-99375500D01*
X82500500Y-96635258D01*
X83499500Y-96635258D01*
X83499500Y-96864741D01*
X83524446Y-97054215D01*
X83529452Y-97092238D01*
X83529453Y-97092240D01*
X83588842Y-97313887D01*
X83676650Y-97525876D01*
X83676657Y-97525890D01*
X83791392Y-97724617D01*
X83931081Y-97906661D01*
X83931089Y-97906670D01*
X84093330Y-98068911D01*
X84093338Y-98068918D01*
X84275382Y-98208607D01*
X84275385Y-98208608D01*
X84275388Y-98208611D01*
X84474112Y-98323344D01*
X84474117Y-98323346D01*
X84474123Y-98323349D01*
X84565480Y-98361190D01*
X84686113Y-98411158D01*
X84907762Y-98470548D01*
X85135266Y-98500500D01*
X85135273Y-98500500D01*
X85364727Y-98500500D01*
X85364734Y-98500500D01*
X85592238Y-98470548D01*
X85813887Y-98411158D01*
X86025888Y-98323344D01*
X86224612Y-98208611D01*
X86406661Y-98068919D01*
X86406665Y-98068914D01*
X86406670Y-98068911D01*
X86568911Y-97906670D01*
X86568914Y-97906665D01*
X86568919Y-97906661D01*
X86708611Y-97724612D01*
X86823344Y-97525888D01*
X86911158Y-97313887D01*
X86970548Y-97092238D01*
X87000500Y-96864734D01*
X87000500Y-96635266D01*
X86970548Y-96407762D01*
X86911158Y-96186113D01*
X86823344Y-95974112D01*
X86708611Y-95775388D01*
X86708608Y-95775385D01*
X86708607Y-95775382D01*
X86568918Y-95593338D01*
X86568911Y-95593330D01*
X86406670Y-95431089D01*
X86406661Y-95431081D01*
X86224617Y-95291392D01*
X86025890Y-95176657D01*
X86025876Y-95176650D01*
X85813887Y-95088842D01*
X85762156Y-95074981D01*
X85592238Y-95029452D01*
X85554215Y-95024446D01*
X85364741Y-94999500D01*
X85364734Y-94999500D01*
X85135266Y-94999500D01*
X85135258Y-94999500D01*
X84918715Y-95028009D01*
X84907762Y-95029452D01*
X84814076Y-95054554D01*
X84686112Y-95088842D01*
X84474123Y-95176650D01*
X84474109Y-95176657D01*
X84275382Y-95291392D01*
X84093338Y-95431081D01*
X83931081Y-95593338D01*
X83791392Y-95775382D01*
X83676657Y-95974109D01*
X83676650Y-95974123D01*
X83588842Y-96186112D01*
X83529453Y-96407759D01*
X83529451Y-96407770D01*
X83499500Y-96635258D01*
X82500500Y-96635258D01*
X82500500Y-92902538D01*
X91462900Y-92902538D01*
X91462900Y-94697462D01*
X91493362Y-94889788D01*
X91553535Y-95074981D01*
X91641938Y-95248482D01*
X91756393Y-95406016D01*
X91894084Y-95543707D01*
X92051618Y-95658162D01*
X92225119Y-95746565D01*
X92410312Y-95806738D01*
X92602638Y-95837200D01*
X92602639Y-95837200D01*
X92797361Y-95837200D01*
X92797362Y-95837200D01*
X92989688Y-95806738D01*
X93174881Y-95746565D01*
X93348382Y-95658162D01*
X93505916Y-95543707D01*
X93643607Y-95406016D01*
X93758062Y-95248482D01*
X93846465Y-95074981D01*
X93906638Y-94889788D01*
X93937100Y-94697462D01*
X93937100Y-92902538D01*
X93906638Y-92710212D01*
X93846465Y-92525019D01*
X93770358Y-92375651D01*
X95420001Y-92375651D01*
X95420001Y-92624348D01*
X95458906Y-92869985D01*
X95535755Y-93106507D01*
X95535756Y-93106510D01*
X95648666Y-93328104D01*
X95704197Y-93404537D01*
X95727677Y-93470343D01*
X95711851Y-93538397D01*
X95678190Y-93576688D01*
X95562956Y-93662952D01*
X95562953Y-93662955D01*
X95476707Y-93778164D01*
X95476703Y-93778171D01*
X95426409Y-93913017D01*
X95420002Y-93972616D01*
X95420002Y-93972623D01*
X95420001Y-93972635D01*
X95420001Y-96227370D01*
X95420002Y-96227376D01*
X95426409Y-96286983D01*
X95476703Y-96421828D01*
X95476707Y-96421835D01*
X95562953Y-96537044D01*
X95562956Y-96537047D01*
X95678165Y-96623293D01*
X95678172Y-96623297D01*
X95813018Y-96673591D01*
X95813017Y-96673591D01*
X95819945Y-96674335D01*
X95872628Y-96680000D01*
X98127373Y-96679999D01*
X98186984Y-96673591D01*
X98321832Y-96623296D01*
X98437047Y-96537046D01*
X98523297Y-96421831D01*
X98573592Y-96286983D01*
X98580001Y-96227373D01*
X98580000Y-93972628D01*
X98573592Y-93913017D01*
X98566607Y-93894290D01*
X98523298Y-93778171D01*
X98523294Y-93778164D01*
X98437048Y-93662955D01*
X98321810Y-93576687D01*
X98279940Y-93520753D01*
X98274956Y-93451062D01*
X98295804Y-93404537D01*
X98351338Y-93328101D01*
X98464245Y-93106510D01*
X98541096Y-92869984D01*
X98580001Y-92624349D01*
X98580001Y-92375651D01*
X99420001Y-92375651D01*
X99420001Y-92624348D01*
X99458906Y-92869985D01*
X99535755Y-93106507D01*
X99535756Y-93106510D01*
X99648666Y-93328104D01*
X99794838Y-93529294D01*
X99794842Y-93529299D01*
X99970699Y-93705156D01*
X99971358Y-93705719D01*
X99971538Y-93705995D01*
X99974145Y-93708602D01*
X99973597Y-93709149D01*
X100009544Y-93764231D01*
X100010034Y-93834099D01*
X99973919Y-93891172D01*
X99974145Y-93891398D01*
X99973142Y-93892400D01*
X99972674Y-93893141D01*
X99971358Y-93894281D01*
X99970699Y-93894843D01*
X99794842Y-94070700D01*
X99794838Y-94070705D01*
X99648666Y-94271895D01*
X99535756Y-94493489D01*
X99535755Y-94493492D01*
X99458906Y-94730014D01*
X99420001Y-94975651D01*
X99420001Y-95224348D01*
X99458906Y-95469985D01*
X99535755Y-95706507D01*
X99535756Y-95706510D01*
X99648666Y-95928104D01*
X99794838Y-96129294D01*
X99794842Y-96129299D01*
X99970701Y-96305158D01*
X99970706Y-96305162D01*
X100111920Y-96407759D01*
X100171900Y-96451337D01*
X100308075Y-96520722D01*
X100393490Y-96564244D01*
X100393493Y-96564245D01*
X100511754Y-96602669D01*
X100630017Y-96641095D01*
X100875652Y-96680000D01*
X100875653Y-96680000D01*
X101124349Y-96680000D01*
X101124350Y-96680000D01*
X101369985Y-96641095D01*
X101606511Y-96564244D01*
X101828102Y-96451337D01*
X102029302Y-96305157D01*
X102205158Y-96129301D01*
X102351338Y-95928101D01*
X102464245Y-95706510D01*
X102541096Y-95469984D01*
X102580001Y-95224349D01*
X102580001Y-94975651D01*
X102541096Y-94730016D01*
X102464245Y-94493490D01*
X102464245Y-94493489D01*
X102425145Y-94416754D01*
X102351338Y-94271899D01*
X102332662Y-94246194D01*
X102205163Y-94070705D01*
X102205159Y-94070700D01*
X102029305Y-93894846D01*
X102029302Y-93894843D01*
X102029298Y-93894840D01*
X102028654Y-93894290D01*
X102028475Y-93894016D01*
X102025857Y-93891398D01*
X102026407Y-93890847D01*
X101990461Y-93835783D01*
X101989963Y-93765915D01*
X102026079Y-93708824D01*
X102025857Y-93708602D01*
X102026846Y-93707612D01*
X102027317Y-93706869D01*
X102028654Y-93705710D01*
X102029290Y-93705165D01*
X102029302Y-93705157D01*
X102205158Y-93529301D01*
X102351338Y-93328101D01*
X102464245Y-93106510D01*
X102541096Y-92869984D01*
X102580001Y-92624349D01*
X102580001Y-92375651D01*
X103420000Y-92375651D01*
X103420000Y-92624348D01*
X103458905Y-92869985D01*
X103535754Y-93106507D01*
X103535755Y-93106510D01*
X103648665Y-93328104D01*
X103794837Y-93529294D01*
X103794841Y-93529299D01*
X103970698Y-93705156D01*
X103971357Y-93705719D01*
X103971537Y-93705995D01*
X103974144Y-93708602D01*
X103973596Y-93709149D01*
X104009543Y-93764231D01*
X104010033Y-93834099D01*
X103973918Y-93891172D01*
X103974144Y-93891398D01*
X103973141Y-93892400D01*
X103972673Y-93893141D01*
X103971357Y-93894281D01*
X103970698Y-93894843D01*
X103794841Y-94070700D01*
X103794837Y-94070705D01*
X103648665Y-94271895D01*
X103535755Y-94493489D01*
X103535754Y-94493492D01*
X103458905Y-94730014D01*
X103420000Y-94975651D01*
X103420000Y-95224348D01*
X103458905Y-95469985D01*
X103535754Y-95706507D01*
X103535755Y-95706510D01*
X103648665Y-95928104D01*
X103794837Y-96129294D01*
X103794841Y-96129299D01*
X103970700Y-96305158D01*
X103970705Y-96305162D01*
X104111919Y-96407759D01*
X104171899Y-96451337D01*
X104308074Y-96520722D01*
X104393489Y-96564244D01*
X104393492Y-96564245D01*
X104511753Y-96602669D01*
X104630016Y-96641095D01*
X104875651Y-96680000D01*
X104875652Y-96680000D01*
X105124348Y-96680000D01*
X105124349Y-96680000D01*
X105369984Y-96641095D01*
X105387949Y-96635258D01*
X162999500Y-96635258D01*
X162999500Y-96864741D01*
X163024446Y-97054215D01*
X163029452Y-97092238D01*
X163029453Y-97092240D01*
X163088842Y-97313887D01*
X163176650Y-97525876D01*
X163176657Y-97525890D01*
X163291392Y-97724617D01*
X163431081Y-97906661D01*
X163431089Y-97906670D01*
X163593330Y-98068911D01*
X163593338Y-98068918D01*
X163775382Y-98208607D01*
X163775385Y-98208608D01*
X163775388Y-98208611D01*
X163974112Y-98323344D01*
X163974117Y-98323346D01*
X163974123Y-98323349D01*
X164065480Y-98361190D01*
X164186113Y-98411158D01*
X164407762Y-98470548D01*
X164635266Y-98500500D01*
X164635273Y-98500500D01*
X164864727Y-98500500D01*
X164864734Y-98500500D01*
X165092238Y-98470548D01*
X165313887Y-98411158D01*
X165525888Y-98323344D01*
X165724612Y-98208611D01*
X165906661Y-98068919D01*
X165906665Y-98068914D01*
X165906670Y-98068911D01*
X166068911Y-97906670D01*
X166068914Y-97906665D01*
X166068919Y-97906661D01*
X166208611Y-97724612D01*
X166323344Y-97525888D01*
X166411158Y-97313887D01*
X166470548Y-97092238D01*
X166500500Y-96864734D01*
X166500500Y-96635266D01*
X166470548Y-96407762D01*
X166411158Y-96186113D01*
X166323344Y-95974112D01*
X166208611Y-95775388D01*
X166208608Y-95775385D01*
X166208607Y-95775382D01*
X166068918Y-95593338D01*
X166068911Y-95593330D01*
X165906670Y-95431089D01*
X165906661Y-95431081D01*
X165724617Y-95291392D01*
X165525890Y-95176657D01*
X165525876Y-95176650D01*
X165313887Y-95088842D01*
X165262156Y-95074981D01*
X165092238Y-95029452D01*
X165054215Y-95024446D01*
X164864741Y-94999500D01*
X164864734Y-94999500D01*
X164635266Y-94999500D01*
X164635258Y-94999500D01*
X164418715Y-95028009D01*
X164407762Y-95029452D01*
X164314076Y-95054554D01*
X164186112Y-95088842D01*
X163974123Y-95176650D01*
X163974109Y-95176657D01*
X163775382Y-95291392D01*
X163593338Y-95431081D01*
X163431081Y-95593338D01*
X163291392Y-95775382D01*
X163176657Y-95974109D01*
X163176650Y-95974123D01*
X163088842Y-96186112D01*
X163029453Y-96407759D01*
X163029451Y-96407770D01*
X162999500Y-96635258D01*
X105387949Y-96635258D01*
X105606510Y-96564244D01*
X105828101Y-96451337D01*
X106029301Y-96305157D01*
X106205157Y-96129301D01*
X106351337Y-95928101D01*
X106464244Y-95706510D01*
X106541095Y-95469984D01*
X106580000Y-95224349D01*
X106580000Y-94975651D01*
X106541095Y-94730016D01*
X106464244Y-94493490D01*
X106464244Y-94493489D01*
X106425144Y-94416754D01*
X106351337Y-94271899D01*
X106332661Y-94246194D01*
X106205162Y-94070705D01*
X106205158Y-94070700D01*
X106029304Y-93894846D01*
X106029301Y-93894843D01*
X106029297Y-93894840D01*
X106028653Y-93894290D01*
X106028474Y-93894016D01*
X106025856Y-93891398D01*
X106026406Y-93890847D01*
X105990460Y-93835783D01*
X105989962Y-93765915D01*
X106026078Y-93708824D01*
X106025856Y-93708602D01*
X106026845Y-93707612D01*
X106027316Y-93706869D01*
X106028653Y-93705710D01*
X106029289Y-93705165D01*
X106029301Y-93705157D01*
X106205157Y-93529301D01*
X106351337Y-93328101D01*
X106464244Y-93106510D01*
X106530518Y-92902538D01*
X108062858Y-92902538D01*
X108062858Y-94697462D01*
X108093320Y-94889788D01*
X108153493Y-95074981D01*
X108241896Y-95248482D01*
X108356351Y-95406016D01*
X108494042Y-95543707D01*
X108651576Y-95658162D01*
X108825077Y-95746565D01*
X109010270Y-95806738D01*
X109202596Y-95837200D01*
X109202597Y-95837200D01*
X109397319Y-95837200D01*
X109397320Y-95837200D01*
X109589646Y-95806738D01*
X109774839Y-95746565D01*
X109948340Y-95658162D01*
X110105874Y-95543707D01*
X110243565Y-95406016D01*
X110358020Y-95248482D01*
X110446423Y-95074981D01*
X110506596Y-94889788D01*
X110537058Y-94697462D01*
X110537058Y-92902538D01*
X110506596Y-92710212D01*
X110446423Y-92525019D01*
X110358020Y-92351518D01*
X110243565Y-92193984D01*
X110105874Y-92056293D01*
X109948340Y-91941838D01*
X109774839Y-91853435D01*
X109589646Y-91793262D01*
X109589644Y-91793261D01*
X109589642Y-91793261D01*
X109455358Y-91771992D01*
X109397320Y-91762800D01*
X109202596Y-91762800D01*
X109158011Y-91769861D01*
X109010273Y-91793261D01*
X108825074Y-91853436D01*
X108651575Y-91941838D01*
X108494039Y-92056295D01*
X108356353Y-92193981D01*
X108241896Y-92351517D01*
X108153494Y-92525016D01*
X108093319Y-92710215D01*
X108068014Y-92869982D01*
X108062858Y-92902538D01*
X106530518Y-92902538D01*
X106541095Y-92869984D01*
X106580000Y-92624349D01*
X106580000Y-92375651D01*
X106541095Y-92130016D01*
X106464244Y-91893490D01*
X106464244Y-91893489D01*
X106413174Y-91793261D01*
X106351337Y-91671899D01*
X106332661Y-91646194D01*
X106205162Y-91470705D01*
X106205158Y-91470700D01*
X106029299Y-91294841D01*
X106029294Y-91294837D01*
X105828104Y-91148665D01*
X105828103Y-91148664D01*
X105828101Y-91148663D01*
X105757109Y-91112490D01*
X105606510Y-91035755D01*
X105606507Y-91035754D01*
X105369985Y-90958905D01*
X105247166Y-90939452D01*
X105124349Y-90920000D01*
X104875651Y-90920000D01*
X104793772Y-90932968D01*
X104630014Y-90958905D01*
X104393492Y-91035754D01*
X104393489Y-91035755D01*
X104171895Y-91148665D01*
X103970705Y-91294837D01*
X103970700Y-91294841D01*
X103794841Y-91470700D01*
X103794837Y-91470705D01*
X103648665Y-91671895D01*
X103535755Y-91893489D01*
X103535754Y-91893492D01*
X103458905Y-92130014D01*
X103420000Y-92375651D01*
X102580001Y-92375651D01*
X102541096Y-92130016D01*
X102464245Y-91893490D01*
X102464245Y-91893489D01*
X102413175Y-91793261D01*
X102351338Y-91671899D01*
X102332662Y-91646194D01*
X102205163Y-91470705D01*
X102205159Y-91470700D01*
X102029300Y-91294841D01*
X102029295Y-91294837D01*
X101828105Y-91148665D01*
X101828104Y-91148664D01*
X101828102Y-91148663D01*
X101757110Y-91112490D01*
X101606511Y-91035755D01*
X101606508Y-91035754D01*
X101369986Y-90958905D01*
X101247167Y-90939452D01*
X101124350Y-90920000D01*
X100875652Y-90920000D01*
X100793773Y-90932968D01*
X100630015Y-90958905D01*
X100393493Y-91035754D01*
X100393490Y-91035755D01*
X100171896Y-91148665D01*
X99970706Y-91294837D01*
X99970701Y-91294841D01*
X99794842Y-91470700D01*
X99794838Y-91470705D01*
X99648666Y-91671895D01*
X99535756Y-91893489D01*
X99535755Y-91893492D01*
X99458906Y-92130014D01*
X99420001Y-92375651D01*
X98580001Y-92375651D01*
X98541096Y-92130016D01*
X98464245Y-91893490D01*
X98464245Y-91893489D01*
X98413175Y-91793261D01*
X98351338Y-91671899D01*
X98332662Y-91646194D01*
X98205163Y-91470705D01*
X98205159Y-91470700D01*
X98029300Y-91294841D01*
X98029295Y-91294837D01*
X97828105Y-91148665D01*
X97828104Y-91148664D01*
X97828102Y-91148663D01*
X97757110Y-91112490D01*
X97606511Y-91035755D01*
X97606508Y-91035754D01*
X97369986Y-90958905D01*
X97247167Y-90939452D01*
X97124350Y-90920000D01*
X96875652Y-90920000D01*
X96793773Y-90932968D01*
X96630015Y-90958905D01*
X96393493Y-91035754D01*
X96393490Y-91035755D01*
X96171896Y-91148665D01*
X95970706Y-91294837D01*
X95970701Y-91294841D01*
X95794842Y-91470700D01*
X95794838Y-91470705D01*
X95648666Y-91671895D01*
X95535756Y-91893489D01*
X95535755Y-91893492D01*
X95458906Y-92130014D01*
X95420001Y-92375651D01*
X93770358Y-92375651D01*
X93758062Y-92351518D01*
X93643607Y-92193984D01*
X93505916Y-92056293D01*
X93348382Y-91941838D01*
X93174881Y-91853435D01*
X92989688Y-91793262D01*
X92989686Y-91793261D01*
X92989684Y-91793261D01*
X92855400Y-91771992D01*
X92797362Y-91762800D01*
X92602638Y-91762800D01*
X92558053Y-91769861D01*
X92410315Y-91793261D01*
X92225116Y-91853436D01*
X92051617Y-91941838D01*
X91894081Y-92056295D01*
X91756395Y-92193981D01*
X91641938Y-92351517D01*
X91553536Y-92525016D01*
X91493361Y-92710215D01*
X91468056Y-92869982D01*
X91462900Y-92902538D01*
X82500500Y-92902538D01*
X82500500Y-81073920D01*
X101749499Y-81073920D01*
X101778340Y-81218907D01*
X101778343Y-81218917D01*
X101834912Y-81355488D01*
X101834919Y-81355501D01*
X101917048Y-81478415D01*
X101917051Y-81478419D01*
X102021580Y-81582948D01*
X102021588Y-81582954D01*
X102144494Y-81665077D01*
X102144497Y-81665078D01*
X102144505Y-81665084D01*
X102144511Y-81665086D01*
X102144512Y-81665087D01*
X102172797Y-81676803D01*
X102213026Y-81703683D01*
X104053453Y-83544111D01*
X104053454Y-83544112D01*
X104168192Y-83620777D01*
X104275168Y-83665087D01*
X104295672Y-83673580D01*
X104295676Y-83673580D01*
X104295677Y-83673581D01*
X104431004Y-83700500D01*
X104431007Y-83700500D01*
X107955342Y-83700500D01*
X108002794Y-83709939D01*
X108031082Y-83721656D01*
X108031087Y-83721658D01*
X108031091Y-83721658D01*
X108031092Y-83721659D01*
X108176079Y-83750500D01*
X108176082Y-83750500D01*
X108323920Y-83750500D01*
X108421462Y-83731096D01*
X108468913Y-83721658D01*
X108605495Y-83665084D01*
X108728416Y-83582951D01*
X108832951Y-83478416D01*
X108915084Y-83355495D01*
X108971658Y-83218913D01*
X108980286Y-83175536D01*
X108989600Y-83128713D01*
X153149500Y-83128713D01*
X153149500Y-83341286D01*
X153181624Y-83544112D01*
X153182754Y-83551243D01*
X153238125Y-83721658D01*
X153248444Y-83753414D01*
X153344951Y-83942820D01*
X153469890Y-84114786D01*
X153583430Y-84228326D01*
X153616915Y-84289649D01*
X153611931Y-84359341D01*
X153570059Y-84415274D01*
X153539083Y-84432189D01*
X153407669Y-84481203D01*
X153407664Y-84481206D01*
X153292455Y-84567452D01*
X153292452Y-84567455D01*
X153206206Y-84682664D01*
X153206202Y-84682671D01*
X153155908Y-84817517D01*
X153149501Y-84877116D01*
X153149501Y-84877123D01*
X153149500Y-84877135D01*
X153149500Y-86672870D01*
X153149501Y-86672876D01*
X153155908Y-86732483D01*
X153206202Y-86867328D01*
X153206206Y-86867335D01*
X153292452Y-86982544D01*
X153292455Y-86982547D01*
X153407664Y-87068793D01*
X153407671Y-87068797D01*
X153542517Y-87119091D01*
X153542516Y-87119091D01*
X153549444Y-87119835D01*
X153602127Y-87125500D01*
X155397872Y-87125499D01*
X155457483Y-87119091D01*
X155592331Y-87068796D01*
X155707546Y-86982546D01*
X155793796Y-86867331D01*
X155844091Y-86732483D01*
X155850500Y-86672873D01*
X155850499Y-84877128D01*
X155844091Y-84817517D01*
X155793796Y-84682669D01*
X155793795Y-84682668D01*
X155793793Y-84682664D01*
X155707547Y-84567455D01*
X155707544Y-84567452D01*
X155592335Y-84481206D01*
X155592328Y-84481202D01*
X155460917Y-84432189D01*
X155404983Y-84390318D01*
X155380566Y-84324853D01*
X155395418Y-84256580D01*
X155416563Y-84228332D01*
X155530104Y-84114792D01*
X155655051Y-83942816D01*
X155751557Y-83753412D01*
X155817246Y-83551243D01*
X155850500Y-83341287D01*
X155850500Y-83128713D01*
X155817246Y-82918757D01*
X155751557Y-82716588D01*
X155655051Y-82527184D01*
X155655049Y-82527181D01*
X155655048Y-82527179D01*
X155530109Y-82355213D01*
X155379786Y-82204890D01*
X155207820Y-82079951D01*
X155018414Y-81983444D01*
X155018413Y-81983443D01*
X155018412Y-81983443D01*
X154816243Y-81917754D01*
X154816241Y-81917753D01*
X154816240Y-81917753D01*
X154654957Y-81892208D01*
X154606287Y-81884500D01*
X154393713Y-81884500D01*
X154345042Y-81892208D01*
X154183760Y-81917753D01*
X153981585Y-81983444D01*
X153792179Y-82079951D01*
X153620213Y-82204890D01*
X153469890Y-82355213D01*
X153344951Y-82527179D01*
X153248444Y-82716585D01*
X153182753Y-82918760D01*
X153149500Y-83128713D01*
X108989600Y-83128713D01*
X108995382Y-83099649D01*
X109000500Y-83073920D01*
X109000500Y-82926079D01*
X108971659Y-82781092D01*
X108971658Y-82781091D01*
X108971658Y-82781087D01*
X108944942Y-82716588D01*
X108915087Y-82644511D01*
X108915080Y-82644498D01*
X108832951Y-82521584D01*
X108832948Y-82521580D01*
X108728419Y-82417051D01*
X108728415Y-82417048D01*
X108605501Y-82334919D01*
X108605488Y-82334912D01*
X108468917Y-82278343D01*
X108468907Y-82278340D01*
X108323920Y-82249500D01*
X108323918Y-82249500D01*
X108176082Y-82249500D01*
X108176080Y-82249500D01*
X108031092Y-82278340D01*
X108031082Y-82278343D01*
X108002794Y-82290061D01*
X107955342Y-82299500D01*
X104841519Y-82299500D01*
X104774480Y-82279815D01*
X104753838Y-82263181D01*
X103203683Y-80713026D01*
X103176803Y-80672797D01*
X103165087Y-80644512D01*
X103165086Y-80644511D01*
X103165084Y-80644505D01*
X103121844Y-80579792D01*
X103082954Y-80521588D01*
X103082948Y-80521580D01*
X102978419Y-80417051D01*
X102978415Y-80417048D01*
X102855501Y-80334919D01*
X102855488Y-80334912D01*
X102718917Y-80278343D01*
X102718907Y-80278340D01*
X102573920Y-80249500D01*
X102573918Y-80249500D01*
X102426082Y-80249500D01*
X102426080Y-80249500D01*
X102281092Y-80278340D01*
X102281082Y-80278343D01*
X102144511Y-80334912D01*
X102144498Y-80334919D01*
X102021584Y-80417048D01*
X102021580Y-80417051D01*
X101917051Y-80521580D01*
X101917048Y-80521584D01*
X101834919Y-80644498D01*
X101834912Y-80644511D01*
X101778343Y-80781082D01*
X101778340Y-80781092D01*
X101749500Y-80926079D01*
X101749500Y-80926082D01*
X101749500Y-81073918D01*
X101749500Y-81073920D01*
X101749499Y-81073920D01*
X82500500Y-81073920D01*
X82500500Y-44921153D01*
X86949500Y-44921153D01*
X86949500Y-45078846D01*
X86980261Y-45233489D01*
X86980264Y-45233501D01*
X87040602Y-45379172D01*
X87040609Y-45379185D01*
X87128210Y-45510288D01*
X87128213Y-45510292D01*
X87239707Y-45621786D01*
X87239711Y-45621789D01*
X87370814Y-45709390D01*
X87370827Y-45709397D01*
X87515187Y-45769192D01*
X87555416Y-45796072D01*
X88453927Y-46694584D01*
X88480807Y-46734812D01*
X88540604Y-46879176D01*
X88540609Y-46879185D01*
X88628210Y-47010288D01*
X88628213Y-47010292D01*
X88739707Y-47121786D01*
X88739711Y-47121789D01*
X88870814Y-47209390D01*
X88870827Y-47209397D01*
X89016498Y-47269735D01*
X89016503Y-47269737D01*
X89171153Y-47300499D01*
X89171156Y-47300500D01*
X89171158Y-47300500D01*
X89328844Y-47300500D01*
X89328845Y-47300499D01*
X89483497Y-47269737D01*
X89629179Y-47209394D01*
X89760289Y-47121789D01*
X89871789Y-47010289D01*
X89959394Y-46879179D01*
X90019737Y-46733497D01*
X90050500Y-46578842D01*
X90050500Y-46421158D01*
X90050500Y-46421155D01*
X90050499Y-46421153D01*
X90019738Y-46266510D01*
X90019737Y-46266503D01*
X90019735Y-46266498D01*
X89959397Y-46120827D01*
X89959390Y-46120814D01*
X89871789Y-45989711D01*
X89871786Y-45989707D01*
X89760292Y-45878213D01*
X89760288Y-45878210D01*
X89629185Y-45790609D01*
X89629176Y-45790604D01*
X89484812Y-45730807D01*
X89444584Y-45703927D01*
X88546072Y-44805416D01*
X88519192Y-44765187D01*
X88459397Y-44620827D01*
X88459390Y-44620814D01*
X88383750Y-44507611D01*
X88362872Y-44440933D01*
X88381357Y-44373553D01*
X88433335Y-44326863D01*
X88499015Y-44315318D01*
X88503918Y-44315801D01*
X88503922Y-44315802D01*
X88503926Y-44315802D01*
X89817680Y-44315802D01*
X89817681Y-44315801D01*
X90010064Y-44277534D01*
X90191288Y-44202468D01*
X90354385Y-44093490D01*
X90493088Y-43954787D01*
X90602066Y-43791690D01*
X90677132Y-43610466D01*
X90715400Y-43418080D01*
X90715400Y-43221924D01*
X90715400Y-43221921D01*
X90715399Y-43221919D01*
X90677132Y-43029538D01*
X90602066Y-42848314D01*
X90602064Y-42848311D01*
X90602062Y-42848307D01*
X90493088Y-42685217D01*
X90493085Y-42685213D01*
X90354388Y-42546516D01*
X90354384Y-42546513D01*
X90191294Y-42437539D01*
X90191284Y-42437534D01*
X90010064Y-42362470D01*
X90010056Y-42362468D01*
X89817681Y-42324202D01*
X89817678Y-42324202D01*
X89295423Y-42324202D01*
X89228384Y-42304517D01*
X89182629Y-42251713D01*
X89172685Y-42182555D01*
X89188035Y-42138204D01*
X89195048Y-42126055D01*
X89201927Y-42114141D01*
X89241501Y-41966450D01*
X89241501Y-41813548D01*
X89201927Y-41665857D01*
X89125477Y-41533441D01*
X89017359Y-41425323D01*
X89017358Y-41425322D01*
X89017355Y-41425320D01*
X88884945Y-41348874D01*
X88884944Y-41348873D01*
X88848020Y-41338979D01*
X88737252Y-41309299D01*
X88584350Y-41309299D01*
X88495735Y-41333043D01*
X88436657Y-41348873D01*
X88436656Y-41348874D01*
X88304246Y-41425320D01*
X88304241Y-41425324D01*
X88196126Y-41533439D01*
X88196122Y-41533444D01*
X88119676Y-41665854D01*
X88119675Y-41665855D01*
X88099888Y-41739702D01*
X88080101Y-41813548D01*
X88080101Y-41966450D01*
X88109781Y-42077218D01*
X88119675Y-42114142D01*
X88119676Y-42114143D01*
X88200188Y-42253595D01*
X88197851Y-42254944D01*
X88218268Y-42307732D01*
X88204241Y-42376179D01*
X88155435Y-42426177D01*
X88142159Y-42432628D01*
X88130313Y-42437535D01*
X88130305Y-42437539D01*
X87967215Y-42546513D01*
X87967211Y-42546516D01*
X87828514Y-42685213D01*
X87828511Y-42685217D01*
X87719537Y-42848307D01*
X87719532Y-42848317D01*
X87644468Y-43029537D01*
X87644466Y-43029545D01*
X87606200Y-43221919D01*
X87606200Y-43418084D01*
X87644466Y-43610458D01*
X87644468Y-43610466D01*
X87719532Y-43791686D01*
X87719537Y-43791696D01*
X87828511Y-43954786D01*
X87828514Y-43954790D01*
X87861543Y-43987819D01*
X87895028Y-44049142D01*
X87890044Y-44118834D01*
X87848172Y-44174767D01*
X87782708Y-44199184D01*
X87773862Y-44199500D01*
X87671155Y-44199500D01*
X87516510Y-44230261D01*
X87516498Y-44230264D01*
X87370827Y-44290602D01*
X87370814Y-44290609D01*
X87239711Y-44378210D01*
X87239707Y-44378213D01*
X87128213Y-44489707D01*
X87128210Y-44489711D01*
X87040609Y-44620814D01*
X87040602Y-44620827D01*
X86980264Y-44766498D01*
X86980261Y-44766510D01*
X86949500Y-44921153D01*
X82500500Y-44921153D01*
X82500500Y-43221919D01*
X83578600Y-43221919D01*
X83578600Y-43418084D01*
X83616866Y-43610458D01*
X83616868Y-43610466D01*
X83691932Y-43791686D01*
X83691937Y-43791696D01*
X83800911Y-43954786D01*
X83800914Y-43954790D01*
X83939611Y-44093487D01*
X83939615Y-44093490D01*
X84102705Y-44202464D01*
X84102709Y-44202466D01*
X84102712Y-44202468D01*
X84283936Y-44277534D01*
X84473889Y-44315318D01*
X84476317Y-44315801D01*
X84476320Y-44315802D01*
X84476322Y-44315802D01*
X85485280Y-44315802D01*
X85485281Y-44315801D01*
X85677664Y-44277534D01*
X85858888Y-44202468D01*
X86021985Y-44093490D01*
X86160688Y-43954787D01*
X86269666Y-43791690D01*
X86344732Y-43610466D01*
X86383000Y-43418080D01*
X86383000Y-43221924D01*
X86383000Y-43221921D01*
X86382999Y-43221919D01*
X86344732Y-43029538D01*
X86269666Y-42848314D01*
X86269664Y-42848311D01*
X86269662Y-42848307D01*
X86160688Y-42685217D01*
X86160685Y-42685213D01*
X86021988Y-42546516D01*
X86021984Y-42546513D01*
X85858894Y-42437539D01*
X85858884Y-42437534D01*
X85677664Y-42362470D01*
X85677656Y-42362468D01*
X85485281Y-42324202D01*
X85485278Y-42324202D01*
X84476322Y-42324202D01*
X84476319Y-42324202D01*
X84283943Y-42362468D01*
X84283935Y-42362470D01*
X84102715Y-42437534D01*
X84102705Y-42437539D01*
X83939615Y-42546513D01*
X83939611Y-42546516D01*
X83800914Y-42685213D01*
X83800911Y-42685217D01*
X83691937Y-42848307D01*
X83691932Y-42848317D01*
X83616868Y-43029537D01*
X83616866Y-43029545D01*
X83578600Y-43221919D01*
X82500500Y-43221919D01*
X82500500Y-40702135D01*
X105649500Y-40702135D01*
X105649500Y-42497870D01*
X105649501Y-42497876D01*
X105655908Y-42557483D01*
X105706202Y-42692328D01*
X105706206Y-42692335D01*
X105792452Y-42807544D01*
X105792455Y-42807547D01*
X105907664Y-42893793D01*
X105907671Y-42893797D01*
X106039082Y-42942810D01*
X106095016Y-42984681D01*
X106119433Y-43050145D01*
X106104582Y-43118418D01*
X106083431Y-43146673D01*
X105969889Y-43260215D01*
X105844951Y-43432179D01*
X105748444Y-43621585D01*
X105682753Y-43823760D01*
X105649500Y-44033713D01*
X105649500Y-44246287D01*
X105656520Y-44290609D01*
X105660433Y-44315318D01*
X105682754Y-44456243D01*
X105693628Y-44489711D01*
X105748444Y-44658414D01*
X105844951Y-44847820D01*
X105969890Y-45019786D01*
X106120213Y-45170109D01*
X106292182Y-45295050D01*
X106300946Y-45299516D01*
X106351742Y-45347491D01*
X106368536Y-45415312D01*
X106345998Y-45481447D01*
X106300946Y-45520484D01*
X106292182Y-45524949D01*
X106120213Y-45649890D01*
X105969890Y-45800213D01*
X105844951Y-45972179D01*
X105748444Y-46161585D01*
X105682753Y-46363760D01*
X105649500Y-46573713D01*
X105649500Y-46786286D01*
X105682753Y-46996239D01*
X105748444Y-47198414D01*
X105844951Y-47387820D01*
X105969890Y-47559786D01*
X106120213Y-47710109D01*
X106292182Y-47835050D01*
X106300946Y-47839516D01*
X106351742Y-47887491D01*
X106368536Y-47955312D01*
X106345998Y-48021447D01*
X106300946Y-48060484D01*
X106292182Y-48064949D01*
X106120213Y-48189890D01*
X105969890Y-48340213D01*
X105844951Y-48512179D01*
X105748444Y-48701585D01*
X105682753Y-48903760D01*
X105649500Y-49113713D01*
X105649500Y-49326286D01*
X105682753Y-49536239D01*
X105748444Y-49738414D01*
X105844951Y-49927820D01*
X105969890Y-50099786D01*
X106120213Y-50250109D01*
X106292182Y-50375050D01*
X106300946Y-50379516D01*
X106351742Y-50427491D01*
X106368536Y-50495312D01*
X106345998Y-50561447D01*
X106300946Y-50600484D01*
X106292182Y-50604949D01*
X106120213Y-50729890D01*
X105969890Y-50880213D01*
X105844951Y-51052179D01*
X105748444Y-51241585D01*
X105682753Y-51443760D01*
X105649500Y-51653713D01*
X105649500Y-51866286D01*
X105682753Y-52076239D01*
X105748444Y-52278414D01*
X105844951Y-52467820D01*
X105969890Y-52639786D01*
X106120213Y-52790109D01*
X106292182Y-52915050D01*
X106300946Y-52919516D01*
X106351742Y-52967491D01*
X106368536Y-53035312D01*
X106345998Y-53101447D01*
X106300946Y-53140484D01*
X106292182Y-53144949D01*
X106120213Y-53269890D01*
X105969890Y-53420213D01*
X105844951Y-53592179D01*
X105748444Y-53781585D01*
X105682753Y-53983760D01*
X105649500Y-54193713D01*
X105649500Y-54406286D01*
X105682753Y-54616239D01*
X105748444Y-54818414D01*
X105844951Y-55007820D01*
X105969890Y-55179786D01*
X106120213Y-55330109D01*
X106292182Y-55455050D01*
X106300946Y-55459516D01*
X106351742Y-55507491D01*
X106368536Y-55575312D01*
X106345998Y-55641447D01*
X106300946Y-55680484D01*
X106292182Y-55684949D01*
X106120213Y-55809890D01*
X105969890Y-55960213D01*
X105844951Y-56132179D01*
X105748444Y-56321585D01*
X105682753Y-56523760D01*
X105649500Y-56733713D01*
X105649500Y-56946286D01*
X105682753Y-57156239D01*
X105748444Y-57358414D01*
X105844951Y-57547820D01*
X105969890Y-57719786D01*
X106120213Y-57870109D01*
X106292182Y-57995050D01*
X106300946Y-57999516D01*
X106351742Y-58047491D01*
X106368536Y-58115312D01*
X106345998Y-58181447D01*
X106300946Y-58220484D01*
X106292182Y-58224949D01*
X106120213Y-58349890D01*
X105969890Y-58500213D01*
X105844951Y-58672179D01*
X105748444Y-58861585D01*
X105682753Y-59063760D01*
X105665743Y-59171158D01*
X105649500Y-59273713D01*
X105649500Y-59486287D01*
X105682754Y-59696243D01*
X105747394Y-59895185D01*
X105748444Y-59898414D01*
X105844951Y-60087820D01*
X105969890Y-60259786D01*
X106120213Y-60410109D01*
X106292182Y-60535050D01*
X106300946Y-60539516D01*
X106351742Y-60587491D01*
X106368536Y-60655312D01*
X106345998Y-60721447D01*
X106300946Y-60760484D01*
X106292182Y-60764949D01*
X106120213Y-60889890D01*
X105969890Y-61040213D01*
X105844951Y-61212179D01*
X105748444Y-61401585D01*
X105682753Y-61603760D01*
X105649500Y-61813713D01*
X105649500Y-62026286D01*
X105682753Y-62236239D01*
X105748444Y-62438414D01*
X105844951Y-62627820D01*
X105969890Y-62799786D01*
X106120213Y-62950109D01*
X106292182Y-63075050D01*
X106300946Y-63079516D01*
X106351742Y-63127491D01*
X106368536Y-63195312D01*
X106345998Y-63261447D01*
X106300946Y-63300484D01*
X106292182Y-63304949D01*
X106120213Y-63429890D01*
X105969890Y-63580213D01*
X105844951Y-63752179D01*
X105748444Y-63941585D01*
X105682753Y-64143760D01*
X105649500Y-64353713D01*
X105649500Y-64566286D01*
X105682753Y-64776239D01*
X105748444Y-64978414D01*
X105844951Y-65167820D01*
X105969890Y-65339786D01*
X106120213Y-65490109D01*
X106292179Y-65615048D01*
X106292181Y-65615049D01*
X106292184Y-65615051D01*
X106301493Y-65619794D01*
X106352290Y-65667766D01*
X106369087Y-65735587D01*
X106346552Y-65801722D01*
X106301505Y-65840760D01*
X106292446Y-65845376D01*
X106292440Y-65845380D01*
X106238282Y-65884727D01*
X106238282Y-65884728D01*
X106870591Y-66517037D01*
X106807007Y-66534075D01*
X106692993Y-66599901D01*
X106599901Y-66692993D01*
X106534075Y-66807007D01*
X106517037Y-66870591D01*
X105884728Y-66238282D01*
X105884727Y-66238282D01*
X105845380Y-66292439D01*
X105748904Y-66481782D01*
X105683242Y-66683869D01*
X105683242Y-66683872D01*
X105650000Y-66893753D01*
X105650000Y-67106246D01*
X105683242Y-67316127D01*
X105683242Y-67316130D01*
X105748904Y-67518217D01*
X105845375Y-67707550D01*
X105884728Y-67761716D01*
X106517037Y-67129408D01*
X106534075Y-67192993D01*
X106599901Y-67307007D01*
X106692993Y-67400099D01*
X106807007Y-67465925D01*
X106870591Y-67482962D01*
X106269971Y-68083581D01*
X106348711Y-68200895D01*
X106349920Y-68204729D01*
X106352844Y-68207491D01*
X106360343Y-68237778D01*
X106369727Y-68267529D01*
X106368671Y-68271408D01*
X106369638Y-68275312D01*
X106359573Y-68304844D01*
X106351383Y-68334947D01*
X106348397Y-68337640D01*
X106347100Y-68341447D01*
X106302051Y-68380483D01*
X106292440Y-68385380D01*
X106238282Y-68424727D01*
X106238282Y-68424728D01*
X106870591Y-69057037D01*
X106807007Y-69074075D01*
X106692993Y-69139901D01*
X106599901Y-69232993D01*
X106534075Y-69347007D01*
X106517037Y-69410591D01*
X105884728Y-68778282D01*
X105884727Y-68778282D01*
X105845380Y-68832439D01*
X105748904Y-69021782D01*
X105683242Y-69223869D01*
X105683242Y-69223872D01*
X105650000Y-69433753D01*
X105650000Y-69646246D01*
X105683242Y-69856127D01*
X105683242Y-69856130D01*
X105748904Y-70058217D01*
X105845375Y-70247550D01*
X105884728Y-70301716D01*
X106517037Y-69669408D01*
X106534075Y-69732993D01*
X106599901Y-69847007D01*
X106692993Y-69940099D01*
X106807007Y-70005925D01*
X106870590Y-70022962D01*
X106238282Y-70655269D01*
X106238282Y-70655270D01*
X106292452Y-70694626D01*
X106292451Y-70694626D01*
X106301495Y-70699234D01*
X106352292Y-70747208D01*
X106369087Y-70815029D01*
X106346550Y-70881164D01*
X106301499Y-70920202D01*
X106292182Y-70924949D01*
X106120213Y-71049890D01*
X105969890Y-71200213D01*
X105844951Y-71372179D01*
X105748444Y-71561585D01*
X105682753Y-71763760D01*
X105649500Y-71973713D01*
X105649500Y-72186286D01*
X105682753Y-72396239D01*
X105748444Y-72598414D01*
X105844951Y-72787820D01*
X105969890Y-72959786D01*
X106120213Y-73110109D01*
X106292182Y-73235050D01*
X106300946Y-73239516D01*
X106351742Y-73287491D01*
X106368536Y-73355312D01*
X106345998Y-73421447D01*
X106300946Y-73460484D01*
X106292182Y-73464949D01*
X106120213Y-73589890D01*
X105969890Y-73740213D01*
X105844951Y-73912179D01*
X105748444Y-74101585D01*
X105682753Y-74303760D01*
X105649500Y-74513713D01*
X105649500Y-74726286D01*
X105682753Y-74936239D01*
X105748444Y-75138414D01*
X105844951Y-75327820D01*
X105969890Y-75499786D01*
X106120213Y-75650109D01*
X106292182Y-75775050D01*
X106300946Y-75779516D01*
X106351742Y-75827491D01*
X106368536Y-75895312D01*
X106345998Y-75961447D01*
X106300946Y-76000484D01*
X106292182Y-76004949D01*
X106120213Y-76129890D01*
X105969890Y-76280213D01*
X105844951Y-76452179D01*
X105748444Y-76641585D01*
X105682753Y-76843760D01*
X105649500Y-77053713D01*
X105649500Y-77266286D01*
X105682753Y-77476239D01*
X105748444Y-77678414D01*
X105844951Y-77867820D01*
X105969890Y-78039786D01*
X106120213Y-78190109D01*
X106292182Y-78315050D01*
X106300946Y-78319516D01*
X106351742Y-78367491D01*
X106368536Y-78435312D01*
X106345998Y-78501447D01*
X106300946Y-78540484D01*
X106292182Y-78544949D01*
X106120213Y-78669890D01*
X105969890Y-78820213D01*
X105844951Y-78992179D01*
X105748444Y-79181585D01*
X105682753Y-79383760D01*
X105649500Y-79593713D01*
X105649500Y-79806286D01*
X105682753Y-80016239D01*
X105748444Y-80218414D01*
X105844951Y-80407820D01*
X105969890Y-80579786D01*
X106120213Y-80730109D01*
X106292179Y-80855048D01*
X106292181Y-80855049D01*
X106292184Y-80855051D01*
X106481588Y-80951557D01*
X106683757Y-81017246D01*
X106893713Y-81050500D01*
X106893714Y-81050500D01*
X107106286Y-81050500D01*
X107106287Y-81050500D01*
X107316243Y-81017246D01*
X107518412Y-80951557D01*
X107707816Y-80855051D01*
X107809613Y-80781092D01*
X107879786Y-80730109D01*
X107879788Y-80730106D01*
X107879792Y-80730104D01*
X108030104Y-80579792D01*
X108030106Y-80579788D01*
X108030109Y-80579786D01*
X108155048Y-80407820D01*
X108155047Y-80407820D01*
X108155051Y-80407816D01*
X108251557Y-80218412D01*
X108317246Y-80016243D01*
X108350500Y-79806287D01*
X108350500Y-79593713D01*
X108317246Y-79383757D01*
X108251557Y-79181588D01*
X108155051Y-78992184D01*
X108155049Y-78992181D01*
X108155048Y-78992179D01*
X108030109Y-78820213D01*
X107879786Y-78669890D01*
X107707820Y-78544951D01*
X107707115Y-78544591D01*
X107699054Y-78540485D01*
X107648259Y-78492512D01*
X107631463Y-78424692D01*
X107653999Y-78358556D01*
X107699054Y-78319515D01*
X107707816Y-78315051D01*
X107729789Y-78299086D01*
X107879786Y-78190109D01*
X107879788Y-78190106D01*
X107879792Y-78190104D01*
X108030104Y-78039792D01*
X108030106Y-78039788D01*
X108030109Y-78039786D01*
X108155048Y-77867820D01*
X108155047Y-77867820D01*
X108155051Y-77867816D01*
X108251557Y-77678412D01*
X108317246Y-77476243D01*
X108350500Y-77266287D01*
X108350500Y-77053713D01*
X108317246Y-76843757D01*
X108251557Y-76641588D01*
X108155051Y-76452184D01*
X108155049Y-76452181D01*
X108155048Y-76452179D01*
X108030109Y-76280213D01*
X107879786Y-76129890D01*
X107707820Y-76004951D01*
X107707115Y-76004591D01*
X107699054Y-76000485D01*
X107648259Y-75952512D01*
X107631463Y-75884692D01*
X107653999Y-75818556D01*
X107699054Y-75779515D01*
X107707816Y-75775051D01*
X107729789Y-75759086D01*
X107879786Y-75650109D01*
X107879788Y-75650106D01*
X107879792Y-75650104D01*
X108030104Y-75499792D01*
X108030106Y-75499788D01*
X108030109Y-75499786D01*
X108155048Y-75327820D01*
X108155047Y-75327820D01*
X108155051Y-75327816D01*
X108251557Y-75138412D01*
X108317246Y-74936243D01*
X108350500Y-74726287D01*
X108350500Y-74513713D01*
X108317246Y-74303757D01*
X108251557Y-74101588D01*
X108155051Y-73912184D01*
X108155049Y-73912181D01*
X108155048Y-73912179D01*
X108030109Y-73740213D01*
X107879786Y-73589890D01*
X107707820Y-73464951D01*
X107707115Y-73464591D01*
X107699054Y-73460485D01*
X107648259Y-73412512D01*
X107631463Y-73344692D01*
X107653999Y-73278556D01*
X107699054Y-73239515D01*
X107707816Y-73235051D01*
X107729789Y-73219086D01*
X107879786Y-73110109D01*
X107879788Y-73110106D01*
X107879792Y-73110104D01*
X108030104Y-72959792D01*
X108030106Y-72959788D01*
X108030109Y-72959786D01*
X108155048Y-72787820D01*
X108155047Y-72787820D01*
X108155051Y-72787816D01*
X108251557Y-72598412D01*
X108317246Y-72396243D01*
X108350500Y-72186287D01*
X108350500Y-71973713D01*
X108317246Y-71763757D01*
X108251557Y-71561588D01*
X108155051Y-71372184D01*
X108155049Y-71372181D01*
X108155048Y-71372179D01*
X108030109Y-71200213D01*
X107879786Y-71049890D01*
X107707817Y-70924949D01*
X107698504Y-70920204D01*
X107647707Y-70872230D01*
X107630912Y-70804409D01*
X107653449Y-70738274D01*
X107698507Y-70699232D01*
X107707555Y-70694622D01*
X107761716Y-70655270D01*
X107761717Y-70655270D01*
X107129408Y-70022962D01*
X107192993Y-70005925D01*
X107307007Y-69940099D01*
X107400099Y-69847007D01*
X107465925Y-69732993D01*
X107482962Y-69669409D01*
X108115270Y-70301717D01*
X108115270Y-70301716D01*
X108154622Y-70247554D01*
X108251095Y-70058217D01*
X108316757Y-69856130D01*
X108316757Y-69856127D01*
X108350000Y-69646246D01*
X108350000Y-69433753D01*
X108316757Y-69223872D01*
X108316757Y-69223869D01*
X108251095Y-69021782D01*
X108154624Y-68832449D01*
X108115270Y-68778282D01*
X108115269Y-68778282D01*
X107482962Y-69410590D01*
X107465925Y-69347007D01*
X107400099Y-69232993D01*
X107307007Y-69139901D01*
X107192993Y-69074075D01*
X107129409Y-69057037D01*
X107761716Y-68424728D01*
X107707550Y-68385375D01*
X107697954Y-68380486D01*
X107647157Y-68332512D01*
X107630361Y-68264692D01*
X107652897Y-68198556D01*
X107697954Y-68159514D01*
X107707554Y-68154622D01*
X107761716Y-68115270D01*
X107761717Y-68115270D01*
X107129408Y-67482962D01*
X107192993Y-67465925D01*
X107307007Y-67400099D01*
X107400099Y-67307007D01*
X107465925Y-67192993D01*
X107482962Y-67129409D01*
X108115270Y-67761717D01*
X108115270Y-67761716D01*
X108154622Y-67707554D01*
X108251095Y-67518217D01*
X108316757Y-67316130D01*
X108316757Y-67316127D01*
X108350000Y-67106246D01*
X108350000Y-66893753D01*
X108316757Y-66683872D01*
X108316757Y-66683869D01*
X108251095Y-66481782D01*
X108154624Y-66292449D01*
X108115270Y-66238282D01*
X108115269Y-66238282D01*
X107482962Y-66870590D01*
X107465925Y-66807007D01*
X107400099Y-66692993D01*
X107307007Y-66599901D01*
X107192993Y-66534075D01*
X107129409Y-66517037D01*
X107761716Y-65884728D01*
X107707547Y-65845373D01*
X107707547Y-65845372D01*
X107698500Y-65840763D01*
X107647706Y-65792788D01*
X107630912Y-65724966D01*
X107653451Y-65658832D01*
X107698508Y-65619793D01*
X107707816Y-65615051D01*
X107787007Y-65557515D01*
X107879786Y-65490109D01*
X107879788Y-65490106D01*
X107879792Y-65490104D01*
X108030104Y-65339792D01*
X108030106Y-65339788D01*
X108030109Y-65339786D01*
X108155048Y-65167820D01*
X108155047Y-65167820D01*
X108155051Y-65167816D01*
X108251557Y-64978412D01*
X108317246Y-64776243D01*
X108350500Y-64566287D01*
X108350500Y-64353713D01*
X108317246Y-64143757D01*
X108251557Y-63941588D01*
X108155051Y-63752184D01*
X108155049Y-63752181D01*
X108155048Y-63752179D01*
X108030109Y-63580213D01*
X107879786Y-63429890D01*
X107707820Y-63304951D01*
X107707115Y-63304591D01*
X107699054Y-63300485D01*
X107648259Y-63252512D01*
X107631463Y-63184692D01*
X107653999Y-63118556D01*
X107699054Y-63079515D01*
X107707816Y-63075051D01*
X107729789Y-63059086D01*
X107879786Y-62950109D01*
X107879788Y-62950106D01*
X107879792Y-62950104D01*
X108030104Y-62799792D01*
X108030106Y-62799788D01*
X108030109Y-62799786D01*
X108155048Y-62627820D01*
X108155047Y-62627820D01*
X108155051Y-62627816D01*
X108251557Y-62438412D01*
X108317246Y-62236243D01*
X108350500Y-62026287D01*
X108350500Y-61813713D01*
X108317246Y-61603757D01*
X108251557Y-61401588D01*
X108155051Y-61212184D01*
X108155049Y-61212181D01*
X108155048Y-61212179D01*
X108030109Y-61040213D01*
X107879786Y-60889890D01*
X107707820Y-60764951D01*
X107707115Y-60764591D01*
X107699054Y-60760485D01*
X107648259Y-60712512D01*
X107631463Y-60644692D01*
X107653999Y-60578556D01*
X107699054Y-60539515D01*
X107707816Y-60535051D01*
X107729789Y-60519086D01*
X107879786Y-60410109D01*
X107879788Y-60410106D01*
X107879792Y-60410104D01*
X108030104Y-60259792D01*
X108030106Y-60259788D01*
X108030109Y-60259786D01*
X108155048Y-60087820D01*
X108155047Y-60087820D01*
X108155051Y-60087816D01*
X108251557Y-59898412D01*
X108317246Y-59696243D01*
X108350500Y-59486287D01*
X108350500Y-59273713D01*
X108334256Y-59171153D01*
X151699500Y-59171153D01*
X151699500Y-59328846D01*
X151730261Y-59483489D01*
X151730264Y-59483501D01*
X151790602Y-59629172D01*
X151790609Y-59629185D01*
X151878210Y-59760288D01*
X151878213Y-59760292D01*
X151989707Y-59871786D01*
X151989711Y-59871789D01*
X152120814Y-59959390D01*
X152120827Y-59959397D01*
X152266498Y-60019735D01*
X152266503Y-60019737D01*
X152421153Y-60050499D01*
X152421156Y-60050500D01*
X152421158Y-60050500D01*
X152578844Y-60050500D01*
X152578845Y-60050499D01*
X152733497Y-60019737D01*
X152879179Y-59959394D01*
X152973459Y-59896398D01*
X153040136Y-59875520D01*
X153042350Y-59875500D01*
X153457650Y-59875500D01*
X153524689Y-59895185D01*
X153526541Y-59896398D01*
X153620821Y-59959394D01*
X153620823Y-59959395D01*
X153620827Y-59959397D01*
X153766498Y-60019735D01*
X153766503Y-60019737D01*
X153921153Y-60050499D01*
X153921156Y-60050500D01*
X153921158Y-60050500D01*
X154078844Y-60050500D01*
X154078845Y-60050499D01*
X154233497Y-60019737D01*
X154379179Y-59959394D01*
X154510289Y-59871789D01*
X154621789Y-59760289D01*
X154709394Y-59629179D01*
X154769737Y-59483497D01*
X154800500Y-59328842D01*
X154800500Y-59171158D01*
X154800500Y-59171155D01*
X154800499Y-59171153D01*
X154769738Y-59016510D01*
X154769737Y-59016503D01*
X154769735Y-59016498D01*
X154709397Y-58870827D01*
X154709390Y-58870814D01*
X154621789Y-58739711D01*
X154621786Y-58739707D01*
X154510292Y-58628213D01*
X154510288Y-58628210D01*
X154379185Y-58540609D01*
X154379172Y-58540602D01*
X154233501Y-58480264D01*
X154233489Y-58480261D01*
X154078845Y-58449500D01*
X154078842Y-58449500D01*
X153921158Y-58449500D01*
X153921155Y-58449500D01*
X153766510Y-58480261D01*
X153766498Y-58480264D01*
X153620827Y-58540602D01*
X153620815Y-58540609D01*
X153526541Y-58603602D01*
X153459864Y-58624480D01*
X153457650Y-58624500D01*
X153042350Y-58624500D01*
X152975311Y-58604815D01*
X152973459Y-58603602D01*
X152879184Y-58540609D01*
X152879172Y-58540602D01*
X152733501Y-58480264D01*
X152733489Y-58480261D01*
X152578845Y-58449500D01*
X152578842Y-58449500D01*
X152421158Y-58449500D01*
X152421155Y-58449500D01*
X152266510Y-58480261D01*
X152266498Y-58480264D01*
X152120827Y-58540602D01*
X152120814Y-58540609D01*
X151989711Y-58628210D01*
X151989707Y-58628213D01*
X151878213Y-58739707D01*
X151878210Y-58739711D01*
X151790609Y-58870814D01*
X151790602Y-58870827D01*
X151730264Y-59016498D01*
X151730261Y-59016510D01*
X151699500Y-59171153D01*
X108334256Y-59171153D01*
X108317246Y-59063757D01*
X108251557Y-58861588D01*
X108155051Y-58672184D01*
X108155049Y-58672181D01*
X108155048Y-58672179D01*
X108030109Y-58500213D01*
X107879786Y-58349890D01*
X107707820Y-58224951D01*
X107707115Y-58224591D01*
X107699054Y-58220485D01*
X107648259Y-58172512D01*
X107631463Y-58104692D01*
X107653999Y-58038556D01*
X107699054Y-57999515D01*
X107707816Y-57995051D01*
X107729789Y-57979086D01*
X107879786Y-57870109D01*
X107879788Y-57870106D01*
X107879792Y-57870104D01*
X108030104Y-57719792D01*
X108030106Y-57719788D01*
X108030109Y-57719786D01*
X108155048Y-57547820D01*
X108155047Y-57547820D01*
X108155051Y-57547816D01*
X108251557Y-57358412D01*
X108317246Y-57156243D01*
X108350500Y-56946287D01*
X108350500Y-56733713D01*
X108317246Y-56523757D01*
X108251557Y-56321588D01*
X108155051Y-56132184D01*
X108155049Y-56132181D01*
X108155048Y-56132179D01*
X108030109Y-55960213D01*
X107879786Y-55809890D01*
X107707820Y-55684951D01*
X107707115Y-55684591D01*
X107699054Y-55680485D01*
X107648259Y-55632512D01*
X107631463Y-55564692D01*
X107653999Y-55498556D01*
X107699054Y-55459515D01*
X107707816Y-55455051D01*
X107754473Y-55421153D01*
X107879786Y-55330109D01*
X107879788Y-55330106D01*
X107879792Y-55330104D01*
X108030104Y-55179792D01*
X108030106Y-55179788D01*
X108030109Y-55179786D01*
X108155048Y-55007820D01*
X108155047Y-55007820D01*
X108155051Y-55007816D01*
X108251557Y-54818412D01*
X108317246Y-54616243D01*
X108350500Y-54406287D01*
X108350500Y-54193713D01*
X108317246Y-53983757D01*
X108251557Y-53781588D01*
X108155051Y-53592184D01*
X108155049Y-53592181D01*
X108155048Y-53592179D01*
X108030109Y-53420213D01*
X107879786Y-53269890D01*
X107707820Y-53144951D01*
X107707115Y-53144591D01*
X107699054Y-53140485D01*
X107648259Y-53092512D01*
X107631463Y-53024692D01*
X107653999Y-52958556D01*
X107699054Y-52919515D01*
X107707816Y-52915051D01*
X107729789Y-52899086D01*
X107879786Y-52790109D01*
X107879788Y-52790106D01*
X107879792Y-52790104D01*
X108030104Y-52639792D01*
X108030106Y-52639788D01*
X108030109Y-52639786D01*
X108155048Y-52467820D01*
X108155047Y-52467820D01*
X108155051Y-52467816D01*
X108251557Y-52278412D01*
X108317246Y-52076243D01*
X108350500Y-51866287D01*
X108350500Y-51653713D01*
X108317246Y-51443757D01*
X108251557Y-51241588D01*
X108215669Y-51171153D01*
X146449500Y-51171153D01*
X146449500Y-51328846D01*
X146480261Y-51483489D01*
X146480264Y-51483501D01*
X146540602Y-51629172D01*
X146540606Y-51629179D01*
X146578602Y-51686044D01*
X146599480Y-51752721D01*
X146599500Y-51754935D01*
X146599500Y-54995064D01*
X146579815Y-55062103D01*
X146578603Y-55063954D01*
X146540608Y-55120817D01*
X146540602Y-55120828D01*
X146480264Y-55266498D01*
X146480261Y-55266510D01*
X146449500Y-55421153D01*
X146449500Y-55578846D01*
X146480261Y-55733489D01*
X146480264Y-55733501D01*
X146540602Y-55879172D01*
X146540609Y-55879185D01*
X146628210Y-56010288D01*
X146628213Y-56010292D01*
X146739707Y-56121786D01*
X146739711Y-56121789D01*
X146870814Y-56209390D01*
X146870827Y-56209397D01*
X147016498Y-56269735D01*
X147016503Y-56269737D01*
X147171153Y-56300499D01*
X147171156Y-56300500D01*
X147171158Y-56300500D01*
X147328844Y-56300500D01*
X147328845Y-56300499D01*
X147483497Y-56269737D01*
X147629179Y-56209394D01*
X147760289Y-56121789D01*
X147871789Y-56010289D01*
X147959394Y-55879179D01*
X148019737Y-55733497D01*
X148050500Y-55578842D01*
X148050500Y-55421158D01*
X148050500Y-55421155D01*
X148050499Y-55421153D01*
X148019738Y-55266510D01*
X148019737Y-55266503D01*
X147959394Y-55120821D01*
X147921396Y-55063953D01*
X147900520Y-54997276D01*
X147900500Y-54995064D01*
X147900500Y-51754935D01*
X147920185Y-51687896D01*
X147921366Y-51686090D01*
X147959394Y-51629179D01*
X148019737Y-51483497D01*
X148050500Y-51328842D01*
X148050500Y-51171158D01*
X148050500Y-51171155D01*
X148050499Y-51171153D01*
X148019738Y-51016510D01*
X148019737Y-51016503D01*
X148019735Y-51016498D01*
X147959397Y-50870827D01*
X147959390Y-50870814D01*
X147871789Y-50739711D01*
X147871786Y-50739707D01*
X147760292Y-50628213D01*
X147760288Y-50628210D01*
X147629185Y-50540609D01*
X147629172Y-50540602D01*
X147483501Y-50480264D01*
X147483489Y-50480261D01*
X147328845Y-50449500D01*
X147328842Y-50449500D01*
X147171158Y-50449500D01*
X147171155Y-50449500D01*
X147016510Y-50480261D01*
X147016498Y-50480264D01*
X146870827Y-50540602D01*
X146870814Y-50540609D01*
X146739711Y-50628210D01*
X146739707Y-50628213D01*
X146628213Y-50739707D01*
X146628210Y-50739711D01*
X146540609Y-50870814D01*
X146540602Y-50870827D01*
X146480264Y-51016498D01*
X146480261Y-51016510D01*
X146449500Y-51171153D01*
X108215669Y-51171153D01*
X108155051Y-51052184D01*
X108155049Y-51052181D01*
X108155048Y-51052179D01*
X108030109Y-50880213D01*
X107879786Y-50729890D01*
X107707820Y-50604951D01*
X107707115Y-50604591D01*
X107699054Y-50600485D01*
X107648259Y-50552512D01*
X107631463Y-50484692D01*
X107653999Y-50418556D01*
X107699054Y-50379515D01*
X107707816Y-50375051D01*
X107729789Y-50359086D01*
X107879786Y-50250109D01*
X107879788Y-50250106D01*
X107879792Y-50250104D01*
X108030104Y-50099792D01*
X108030106Y-50099788D01*
X108030109Y-50099786D01*
X108155048Y-49927820D01*
X108155047Y-49927820D01*
X108155051Y-49927816D01*
X108251557Y-49738412D01*
X108317246Y-49536243D01*
X108350500Y-49326287D01*
X108350500Y-49113713D01*
X108317246Y-48903757D01*
X108251557Y-48701588D01*
X108155051Y-48512184D01*
X108155049Y-48512181D01*
X108155048Y-48512179D01*
X108030109Y-48340213D01*
X107879786Y-48189890D01*
X107707820Y-48064951D01*
X107707115Y-48064591D01*
X107699054Y-48060485D01*
X107648259Y-48012512D01*
X107631463Y-47944692D01*
X107653999Y-47878556D01*
X107699054Y-47839515D01*
X107707816Y-47835051D01*
X107729789Y-47819086D01*
X107879786Y-47710109D01*
X107879788Y-47710106D01*
X107879792Y-47710104D01*
X108030104Y-47559792D01*
X108030106Y-47559788D01*
X108030109Y-47559786D01*
X108155048Y-47387820D01*
X108155047Y-47387820D01*
X108155051Y-47387816D01*
X108251557Y-47198412D01*
X108317246Y-46996243D01*
X108350500Y-46786287D01*
X108350500Y-46573713D01*
X108317246Y-46363757D01*
X108251557Y-46161588D01*
X108155051Y-45972184D01*
X108155049Y-45972181D01*
X108155048Y-45972179D01*
X108030109Y-45800213D01*
X107879786Y-45649890D01*
X107707820Y-45524951D01*
X107707115Y-45524591D01*
X107699054Y-45520485D01*
X107648259Y-45472512D01*
X107631463Y-45404692D01*
X107653999Y-45338556D01*
X107699054Y-45299515D01*
X107707816Y-45295051D01*
X107792533Y-45233501D01*
X107879786Y-45170109D01*
X107879788Y-45170106D01*
X107879792Y-45170104D01*
X108030104Y-45019792D01*
X108030106Y-45019788D01*
X108030109Y-45019786D01*
X108155048Y-44847820D01*
X108155047Y-44847820D01*
X108155051Y-44847816D01*
X108251557Y-44658412D01*
X108317246Y-44456243D01*
X108350500Y-44246287D01*
X108350500Y-44033713D01*
X108317246Y-43823757D01*
X108251557Y-43621588D01*
X108155051Y-43432184D01*
X108155050Y-43432182D01*
X108147037Y-43421153D01*
X151799500Y-43421153D01*
X151799500Y-43578846D01*
X151830261Y-43733489D01*
X151830264Y-43733501D01*
X151890602Y-43879172D01*
X151890609Y-43879185D01*
X151978210Y-44010288D01*
X151978213Y-44010292D01*
X152089707Y-44121786D01*
X152089711Y-44121789D01*
X152220814Y-44209390D01*
X152220827Y-44209397D01*
X152309889Y-44246287D01*
X152366503Y-44269737D01*
X152521153Y-44300499D01*
X152521156Y-44300500D01*
X152521158Y-44300500D01*
X152678844Y-44300500D01*
X152678845Y-44300499D01*
X152833497Y-44269737D01*
X152979179Y-44209394D01*
X153073459Y-44146398D01*
X153140136Y-44125520D01*
X153142350Y-44125500D01*
X155207650Y-44125500D01*
X155274689Y-44145185D01*
X155276541Y-44146398D01*
X155370821Y-44209394D01*
X155370823Y-44209395D01*
X155370827Y-44209397D01*
X155459889Y-44246287D01*
X155516503Y-44269737D01*
X155671153Y-44300499D01*
X155671156Y-44300500D01*
X155671158Y-44300500D01*
X155828844Y-44300500D01*
X155828845Y-44300499D01*
X155983497Y-44269737D01*
X156129179Y-44209394D01*
X156260289Y-44121789D01*
X156371789Y-44010289D01*
X156459394Y-43879179D01*
X156519737Y-43733497D01*
X156550500Y-43578842D01*
X156550500Y-43421158D01*
X156550500Y-43421155D01*
X156550499Y-43421153D01*
X156519738Y-43266510D01*
X156519737Y-43266503D01*
X156519735Y-43266498D01*
X156459397Y-43120827D01*
X156459390Y-43120814D01*
X156371789Y-42989711D01*
X156371786Y-42989707D01*
X156260292Y-42878213D01*
X156260288Y-42878210D01*
X156129185Y-42790609D01*
X156129172Y-42790602D01*
X155983501Y-42730264D01*
X155983489Y-42730261D01*
X155828845Y-42699500D01*
X155828842Y-42699500D01*
X155671158Y-42699500D01*
X155671155Y-42699500D01*
X155516510Y-42730261D01*
X155516498Y-42730264D01*
X155370827Y-42790602D01*
X155370815Y-42790609D01*
X155276541Y-42853602D01*
X155209864Y-42874480D01*
X155207650Y-42874500D01*
X153142350Y-42874500D01*
X153075311Y-42854815D01*
X153073459Y-42853602D01*
X152979184Y-42790609D01*
X152979172Y-42790602D01*
X152833501Y-42730264D01*
X152833489Y-42730261D01*
X152678845Y-42699500D01*
X152678842Y-42699500D01*
X152521158Y-42699500D01*
X152521155Y-42699500D01*
X152366510Y-42730261D01*
X152366498Y-42730264D01*
X152220827Y-42790602D01*
X152220814Y-42790609D01*
X152089711Y-42878210D01*
X152089707Y-42878213D01*
X151978213Y-42989707D01*
X151978210Y-42989711D01*
X151890609Y-43120814D01*
X151890602Y-43120827D01*
X151830264Y-43266498D01*
X151830261Y-43266510D01*
X151799500Y-43421153D01*
X108147037Y-43421153D01*
X108030109Y-43260213D01*
X107916569Y-43146673D01*
X107883084Y-43085350D01*
X107888068Y-43015658D01*
X107929940Y-42959725D01*
X107960915Y-42942810D01*
X108092331Y-42893796D01*
X108207546Y-42807546D01*
X108293796Y-42692331D01*
X108344091Y-42557483D01*
X108350500Y-42497873D01*
X108350499Y-40702128D01*
X108344091Y-40642517D01*
X108339118Y-40629185D01*
X108293797Y-40507671D01*
X108293793Y-40507664D01*
X108207547Y-40392455D01*
X108207544Y-40392452D01*
X108092335Y-40306206D01*
X108092328Y-40306202D01*
X108025421Y-40281248D01*
X107957482Y-40255908D01*
X107957483Y-40255908D01*
X107897883Y-40249501D01*
X107897881Y-40249500D01*
X107897873Y-40249500D01*
X107897864Y-40249500D01*
X106102129Y-40249500D01*
X106102123Y-40249501D01*
X106042516Y-40255908D01*
X105907671Y-40306202D01*
X105907664Y-40306206D01*
X105792455Y-40392452D01*
X105792452Y-40392455D01*
X105706206Y-40507664D01*
X105706202Y-40507671D01*
X105655908Y-40642517D01*
X105649501Y-40702116D01*
X105649501Y-40702123D01*
X105649500Y-40702135D01*
X82500500Y-40702135D01*
X82500500Y-40171153D01*
X117199500Y-40171153D01*
X117199500Y-40328846D01*
X117230261Y-40483489D01*
X117230264Y-40483501D01*
X117290602Y-40629172D01*
X117290609Y-40629185D01*
X117378210Y-40760288D01*
X117378213Y-40760292D01*
X117489707Y-40871786D01*
X117489711Y-40871789D01*
X117620814Y-40959390D01*
X117620827Y-40959397D01*
X117765185Y-41019191D01*
X117805414Y-41046071D01*
X119303453Y-42544111D01*
X119303454Y-42544112D01*
X119418192Y-42620777D01*
X119545667Y-42673578D01*
X119545672Y-42673580D01*
X119545676Y-42673580D01*
X119545677Y-42673581D01*
X119681003Y-42700500D01*
X119681006Y-42700500D01*
X119681007Y-42700500D01*
X120879652Y-42700500D01*
X120927104Y-42709939D01*
X121071466Y-42769735D01*
X121071471Y-42769737D01*
X121226121Y-42800499D01*
X121226124Y-42800500D01*
X121226126Y-42800500D01*
X121383812Y-42800500D01*
X121383813Y-42800499D01*
X121538465Y-42769737D01*
X121684147Y-42709394D01*
X121815257Y-42621789D01*
X121926757Y-42510289D01*
X122014362Y-42379179D01*
X122074705Y-42233497D01*
X122105468Y-42078842D01*
X122105468Y-41921158D01*
X122105468Y-41921155D01*
X122105467Y-41921153D01*
X122074706Y-41766510D01*
X122074705Y-41766503D01*
X122074703Y-41766498D01*
X122014365Y-41620827D01*
X122014358Y-41620814D01*
X121926757Y-41489711D01*
X121926754Y-41489707D01*
X121815260Y-41378213D01*
X121815256Y-41378210D01*
X121684153Y-41290609D01*
X121684140Y-41290602D01*
X121538469Y-41230264D01*
X121538457Y-41230261D01*
X121383813Y-41199500D01*
X121383810Y-41199500D01*
X121226126Y-41199500D01*
X121226123Y-41199500D01*
X121071478Y-41230261D01*
X121071466Y-41230264D01*
X120927104Y-41290061D01*
X120879652Y-41299500D01*
X120091519Y-41299500D01*
X120024480Y-41279815D01*
X120003838Y-41263181D01*
X118796071Y-40055414D01*
X118769191Y-40015185D01*
X118709397Y-39870827D01*
X118709390Y-39870814D01*
X118621789Y-39739711D01*
X118621786Y-39739707D01*
X118510292Y-39628213D01*
X118510288Y-39628210D01*
X118379185Y-39540609D01*
X118379172Y-39540602D01*
X118233501Y-39480264D01*
X118233489Y-39480261D01*
X118078845Y-39449500D01*
X118078842Y-39449500D01*
X117921158Y-39449500D01*
X117921155Y-39449500D01*
X117766510Y-39480261D01*
X117766498Y-39480264D01*
X117620827Y-39540602D01*
X117620814Y-39540609D01*
X117489711Y-39628210D01*
X117489707Y-39628213D01*
X117378213Y-39739707D01*
X117378210Y-39739711D01*
X117290609Y-39870814D01*
X117290602Y-39870827D01*
X117230264Y-40016498D01*
X117230261Y-40016510D01*
X117199500Y-40171153D01*
X82500500Y-40171153D01*
X82500500Y-38521153D01*
X149699500Y-38521153D01*
X149699500Y-38678846D01*
X149730261Y-38833489D01*
X149730264Y-38833501D01*
X149790602Y-38979172D01*
X149790609Y-38979185D01*
X149878210Y-39110288D01*
X149878213Y-39110292D01*
X149989707Y-39221786D01*
X149989711Y-39221789D01*
X150120814Y-39309390D01*
X150120827Y-39309397D01*
X150266498Y-39369735D01*
X150266503Y-39369737D01*
X150421153Y-39400499D01*
X150421156Y-39400500D01*
X150421158Y-39400500D01*
X150578844Y-39400500D01*
X150578845Y-39400499D01*
X150733497Y-39369737D01*
X150879179Y-39309394D01*
X150973459Y-39246398D01*
X151040136Y-39225520D01*
X151042350Y-39225500D01*
X155357650Y-39225500D01*
X155424689Y-39245185D01*
X155426541Y-39246398D01*
X155520821Y-39309394D01*
X155520823Y-39309395D01*
X155520827Y-39309397D01*
X155666498Y-39369735D01*
X155666503Y-39369737D01*
X155821153Y-39400499D01*
X155821156Y-39400500D01*
X155821158Y-39400500D01*
X155978844Y-39400500D01*
X155978845Y-39400499D01*
X156133497Y-39369737D01*
X156279179Y-39309394D01*
X156410289Y-39221789D01*
X156521789Y-39110289D01*
X156609394Y-38979179D01*
X156669737Y-38833497D01*
X156700500Y-38678842D01*
X156700500Y-38521158D01*
X156700500Y-38521155D01*
X156700499Y-38521153D01*
X156669738Y-38366510D01*
X156669737Y-38366503D01*
X156669735Y-38366498D01*
X156609397Y-38220827D01*
X156609390Y-38220814D01*
X156521789Y-38089711D01*
X156521786Y-38089707D01*
X156410292Y-37978213D01*
X156410288Y-37978210D01*
X156279185Y-37890609D01*
X156279172Y-37890602D01*
X156133501Y-37830264D01*
X156133489Y-37830261D01*
X155978845Y-37799500D01*
X155978842Y-37799500D01*
X155821158Y-37799500D01*
X155821155Y-37799500D01*
X155666510Y-37830261D01*
X155666498Y-37830264D01*
X155520827Y-37890602D01*
X155520815Y-37890609D01*
X155426541Y-37953602D01*
X155359864Y-37974480D01*
X155357650Y-37974500D01*
X151042350Y-37974500D01*
X150975311Y-37954815D01*
X150973459Y-37953602D01*
X150879184Y-37890609D01*
X150879172Y-37890602D01*
X150733501Y-37830264D01*
X150733489Y-37830261D01*
X150578845Y-37799500D01*
X150578842Y-37799500D01*
X150421158Y-37799500D01*
X150421155Y-37799500D01*
X150266510Y-37830261D01*
X150266498Y-37830264D01*
X150120827Y-37890602D01*
X150120814Y-37890609D01*
X149989711Y-37978210D01*
X149989707Y-37978213D01*
X149878213Y-38089707D01*
X149878210Y-38089711D01*
X149790609Y-38220814D01*
X149790602Y-38220827D01*
X149730264Y-38366498D01*
X149730261Y-38366510D01*
X149699500Y-38521153D01*
X82500500Y-38521153D01*
X82500500Y-34581915D01*
X83578600Y-34581915D01*
X83578600Y-34778080D01*
X83616866Y-34970454D01*
X83616868Y-34970462D01*
X83691932Y-35151682D01*
X83691937Y-35151692D01*
X83800911Y-35314782D01*
X83800914Y-35314786D01*
X83939611Y-35453483D01*
X83939615Y-35453486D01*
X84102705Y-35562460D01*
X84102709Y-35562462D01*
X84102712Y-35562464D01*
X84283936Y-35637530D01*
X84476317Y-35675797D01*
X84476320Y-35675798D01*
X84476322Y-35675798D01*
X85485280Y-35675798D01*
X85485281Y-35675797D01*
X85677664Y-35637530D01*
X85858888Y-35562464D01*
X86021985Y-35453486D01*
X86160688Y-35314783D01*
X86269666Y-35151686D01*
X86344732Y-34970462D01*
X86383000Y-34778076D01*
X86383000Y-34581920D01*
X86383000Y-34581917D01*
X86382999Y-34581915D01*
X87606200Y-34581915D01*
X87606200Y-34778080D01*
X87644466Y-34970454D01*
X87644468Y-34970462D01*
X87719532Y-35151682D01*
X87719537Y-35151692D01*
X87828511Y-35314782D01*
X87828514Y-35314786D01*
X87967211Y-35453483D01*
X87967215Y-35453486D01*
X88130305Y-35562460D01*
X88130309Y-35562462D01*
X88130312Y-35562464D01*
X88136023Y-35564829D01*
X88142153Y-35567369D01*
X88196557Y-35611211D01*
X88218621Y-35677505D01*
X88201341Y-35745204D01*
X88198213Y-35749825D01*
X88119676Y-35885856D01*
X88119675Y-35885857D01*
X88099888Y-35959704D01*
X88080101Y-36033550D01*
X88080101Y-36186452D01*
X88109781Y-36297220D01*
X88119675Y-36334144D01*
X88119676Y-36334145D01*
X88196122Y-36466555D01*
X88196124Y-36466558D01*
X88196125Y-36466559D01*
X88304243Y-36574677D01*
X88436659Y-36651127D01*
X88584350Y-36690701D01*
X88584353Y-36690701D01*
X88737249Y-36690701D01*
X88737252Y-36690701D01*
X88884943Y-36651127D01*
X89017359Y-36574677D01*
X89125477Y-36466559D01*
X89201927Y-36334143D01*
X89241501Y-36186452D01*
X89241501Y-36033550D01*
X89201927Y-35885859D01*
X89200000Y-35882521D01*
X89188035Y-35861796D01*
X89171564Y-35793896D01*
X89194417Y-35727869D01*
X89249339Y-35684680D01*
X89295423Y-35675798D01*
X89817680Y-35675798D01*
X89817681Y-35675797D01*
X90010064Y-35637530D01*
X90191288Y-35562464D01*
X90354385Y-35453486D01*
X90493088Y-35314783D01*
X90602066Y-35151686D01*
X90677132Y-34970462D01*
X90715400Y-34778076D01*
X90715400Y-34581920D01*
X90715400Y-34581917D01*
X90715399Y-34581915D01*
X90677133Y-34389541D01*
X90677132Y-34389534D01*
X90602066Y-34208310D01*
X90602064Y-34208307D01*
X90602062Y-34208303D01*
X90493088Y-34045213D01*
X90493085Y-34045209D01*
X90354388Y-33906512D01*
X90354384Y-33906509D01*
X90191294Y-33797535D01*
X90191284Y-33797530D01*
X90010064Y-33722466D01*
X90010056Y-33722464D01*
X89817681Y-33684198D01*
X89817678Y-33684198D01*
X88503922Y-33684198D01*
X88503919Y-33684198D01*
X88311543Y-33722464D01*
X88311535Y-33722466D01*
X88130315Y-33797530D01*
X88130305Y-33797535D01*
X87967215Y-33906509D01*
X87967211Y-33906512D01*
X87828514Y-34045209D01*
X87828511Y-34045213D01*
X87719537Y-34208303D01*
X87719532Y-34208313D01*
X87644468Y-34389533D01*
X87644466Y-34389541D01*
X87606200Y-34581915D01*
X86382999Y-34581915D01*
X86344733Y-34389541D01*
X86344732Y-34389534D01*
X86269666Y-34208310D01*
X86269664Y-34208307D01*
X86269662Y-34208303D01*
X86160688Y-34045213D01*
X86160685Y-34045209D01*
X86021988Y-33906512D01*
X86021984Y-33906509D01*
X85858894Y-33797535D01*
X85858884Y-33797530D01*
X85677664Y-33722466D01*
X85677656Y-33722464D01*
X85485281Y-33684198D01*
X85485278Y-33684198D01*
X84476322Y-33684198D01*
X84476319Y-33684198D01*
X84283943Y-33722464D01*
X84283935Y-33722466D01*
X84102715Y-33797530D01*
X84102705Y-33797535D01*
X83939615Y-33906509D01*
X83939611Y-33906512D01*
X83800914Y-34045209D01*
X83800911Y-34045213D01*
X83691937Y-34208303D01*
X83691932Y-34208313D01*
X83616868Y-34389533D01*
X83616866Y-34389541D01*
X83578600Y-34581915D01*
X82500500Y-34581915D01*
X82500500Y-28135258D01*
X83499500Y-28135258D01*
X83499500Y-28364741D01*
X83524446Y-28554215D01*
X83529452Y-28592238D01*
X83529453Y-28592240D01*
X83588842Y-28813887D01*
X83676650Y-29025876D01*
X83676657Y-29025890D01*
X83791392Y-29224617D01*
X83931081Y-29406661D01*
X83931089Y-29406670D01*
X84093330Y-29568911D01*
X84093338Y-29568918D01*
X84275382Y-29708607D01*
X84275385Y-29708608D01*
X84275388Y-29708611D01*
X84474112Y-29823344D01*
X84474117Y-29823346D01*
X84474123Y-29823349D01*
X84565480Y-29861190D01*
X84686113Y-29911158D01*
X84907762Y-29970548D01*
X85135266Y-30000500D01*
X85135273Y-30000500D01*
X85364727Y-30000500D01*
X85364734Y-30000500D01*
X85592238Y-29970548D01*
X85813887Y-29911158D01*
X86025888Y-29823344D01*
X86224612Y-29708611D01*
X86406661Y-29568919D01*
X86406665Y-29568914D01*
X86406670Y-29568911D01*
X86568911Y-29406670D01*
X86568914Y-29406665D01*
X86568919Y-29406661D01*
X86708611Y-29224612D01*
X86823344Y-29025888D01*
X86911158Y-28813887D01*
X86970548Y-28592238D01*
X87000500Y-28364734D01*
X87000500Y-28135266D01*
X86970548Y-27907762D01*
X86911158Y-27686113D01*
X86823344Y-27474112D01*
X86708611Y-27275388D01*
X86708608Y-27275385D01*
X86708607Y-27275382D01*
X86568918Y-27093338D01*
X86568911Y-27093330D01*
X86406670Y-26931089D01*
X86406661Y-26931081D01*
X86224617Y-26791392D01*
X86025890Y-26676657D01*
X86025876Y-26676650D01*
X85813887Y-26588842D01*
X85592238Y-26529452D01*
X85554215Y-26524446D01*
X85364741Y-26499500D01*
X85364734Y-26499500D01*
X85135266Y-26499500D01*
X85135258Y-26499500D01*
X84918715Y-26528009D01*
X84907762Y-26529452D01*
X84814076Y-26554554D01*
X84686112Y-26588842D01*
X84474123Y-26676650D01*
X84474109Y-26676657D01*
X84275382Y-26791392D01*
X84093338Y-26931081D01*
X83931081Y-27093338D01*
X83791392Y-27275382D01*
X83676657Y-27474109D01*
X83676650Y-27474123D01*
X83588842Y-27686112D01*
X83529453Y-27907759D01*
X83529451Y-27907770D01*
X83499500Y-28135258D01*
X82500500Y-28135258D01*
X82500500Y-25624500D01*
X82520185Y-25557461D01*
X82572989Y-25511706D01*
X82624500Y-25500500D01*
X121876006Y-25500500D01*
X121943045Y-25520185D01*
G37*
%TD.AperFunction*%
%TD*%
M02*
