%TF.GenerationSoftware,KiCad,Pcbnew,9.0.7*%
%TF.CreationDate,2026-04-10T15:11:02+03:00*%
%TF.ProjectId,esp,6573702e-6b69-4636-9164-5f7063625858,rev?*%
%TF.SameCoordinates,Original*%
%TF.FileFunction,Legend,Top*%
%TF.FilePolarity,Positive*%
%FSLAX46Y46*%
G04 Gerber Fmt 4.6, Leading zero omitted, Abs format (unit mm)*
G04 Created by KiCad (PCBNEW 9.0.7) date 2026-04-10 15:11:02*
%MOMM*%
%LPD*%
G01*
G04 APERTURE LIST*
%ADD10C,0.150000*%
%ADD11C,0.152400*%
%ADD12C,0.508000*%
%ADD13C,0.120000*%
%ADD14C,0.000000*%
G04 APERTURE END LIST*
D10*
X92166667Y-89307200D02*
X92309524Y-89354819D01*
X92309524Y-89354819D02*
X92547619Y-89354819D01*
X92547619Y-89354819D02*
X92642857Y-89307200D01*
X92642857Y-89307200D02*
X92690476Y-89259580D01*
X92690476Y-89259580D02*
X92738095Y-89164342D01*
X92738095Y-89164342D02*
X92738095Y-89069104D01*
X92738095Y-89069104D02*
X92690476Y-88973866D01*
X92690476Y-88973866D02*
X92642857Y-88926247D01*
X92642857Y-88926247D02*
X92547619Y-88878628D01*
X92547619Y-88878628D02*
X92357143Y-88831009D01*
X92357143Y-88831009D02*
X92261905Y-88783390D01*
X92261905Y-88783390D02*
X92214286Y-88735771D01*
X92214286Y-88735771D02*
X92166667Y-88640533D01*
X92166667Y-88640533D02*
X92166667Y-88545295D01*
X92166667Y-88545295D02*
X92214286Y-88450057D01*
X92214286Y-88450057D02*
X92261905Y-88402438D01*
X92261905Y-88402438D02*
X92357143Y-88354819D01*
X92357143Y-88354819D02*
X92595238Y-88354819D01*
X92595238Y-88354819D02*
X92738095Y-88402438D01*
X93071429Y-88354819D02*
X93309524Y-89354819D01*
X93309524Y-89354819D02*
X93500000Y-88640533D01*
X93500000Y-88640533D02*
X93690476Y-89354819D01*
X93690476Y-89354819D02*
X93928572Y-88354819D01*
X94833333Y-89354819D02*
X94261905Y-89354819D01*
X94547619Y-89354819D02*
X94547619Y-88354819D01*
X94547619Y-88354819D02*
X94452381Y-88497676D01*
X94452381Y-88497676D02*
X94357143Y-88592914D01*
X94357143Y-88592914D02*
X94261905Y-88640533D01*
X84334066Y-38454819D02*
X84334066Y-39169104D01*
X84334066Y-39169104D02*
X84286447Y-39311961D01*
X84286447Y-39311961D02*
X84191209Y-39407200D01*
X84191209Y-39407200D02*
X84048352Y-39454819D01*
X84048352Y-39454819D02*
X83953114Y-39454819D01*
X84762638Y-38550057D02*
X84810257Y-38502438D01*
X84810257Y-38502438D02*
X84905495Y-38454819D01*
X84905495Y-38454819D02*
X85143590Y-38454819D01*
X85143590Y-38454819D02*
X85238828Y-38502438D01*
X85238828Y-38502438D02*
X85286447Y-38550057D01*
X85286447Y-38550057D02*
X85334066Y-38645295D01*
X85334066Y-38645295D02*
X85334066Y-38740533D01*
X85334066Y-38740533D02*
X85286447Y-38883390D01*
X85286447Y-38883390D02*
X84715019Y-39454819D01*
X84715019Y-39454819D02*
X85334066Y-39454819D01*
X123807142Y-79304819D02*
X123473809Y-78828628D01*
X123235714Y-79304819D02*
X123235714Y-78304819D01*
X123235714Y-78304819D02*
X123616666Y-78304819D01*
X123616666Y-78304819D02*
X123711904Y-78352438D01*
X123711904Y-78352438D02*
X123759523Y-78400057D01*
X123759523Y-78400057D02*
X123807142Y-78495295D01*
X123807142Y-78495295D02*
X123807142Y-78638152D01*
X123807142Y-78638152D02*
X123759523Y-78733390D01*
X123759523Y-78733390D02*
X123711904Y-78781009D01*
X123711904Y-78781009D02*
X123616666Y-78828628D01*
X123616666Y-78828628D02*
X123235714Y-78828628D01*
X124759523Y-79304819D02*
X124188095Y-79304819D01*
X124473809Y-79304819D02*
X124473809Y-78304819D01*
X124473809Y-78304819D02*
X124378571Y-78447676D01*
X124378571Y-78447676D02*
X124283333Y-78542914D01*
X124283333Y-78542914D02*
X124188095Y-78590533D01*
X125140476Y-78400057D02*
X125188095Y-78352438D01*
X125188095Y-78352438D02*
X125283333Y-78304819D01*
X125283333Y-78304819D02*
X125521428Y-78304819D01*
X125521428Y-78304819D02*
X125616666Y-78352438D01*
X125616666Y-78352438D02*
X125664285Y-78400057D01*
X125664285Y-78400057D02*
X125711904Y-78495295D01*
X125711904Y-78495295D02*
X125711904Y-78590533D01*
X125711904Y-78590533D02*
X125664285Y-78733390D01*
X125664285Y-78733390D02*
X125092857Y-79304819D01*
X125092857Y-79304819D02*
X125711904Y-79304819D01*
X153357142Y-52109580D02*
X153309523Y-52157200D01*
X153309523Y-52157200D02*
X153166666Y-52204819D01*
X153166666Y-52204819D02*
X153071428Y-52204819D01*
X153071428Y-52204819D02*
X152928571Y-52157200D01*
X152928571Y-52157200D02*
X152833333Y-52061961D01*
X152833333Y-52061961D02*
X152785714Y-51966723D01*
X152785714Y-51966723D02*
X152738095Y-51776247D01*
X152738095Y-51776247D02*
X152738095Y-51633390D01*
X152738095Y-51633390D02*
X152785714Y-51442914D01*
X152785714Y-51442914D02*
X152833333Y-51347676D01*
X152833333Y-51347676D02*
X152928571Y-51252438D01*
X152928571Y-51252438D02*
X153071428Y-51204819D01*
X153071428Y-51204819D02*
X153166666Y-51204819D01*
X153166666Y-51204819D02*
X153309523Y-51252438D01*
X153309523Y-51252438D02*
X153357142Y-51300057D01*
X153738095Y-51300057D02*
X153785714Y-51252438D01*
X153785714Y-51252438D02*
X153880952Y-51204819D01*
X153880952Y-51204819D02*
X154119047Y-51204819D01*
X154119047Y-51204819D02*
X154214285Y-51252438D01*
X154214285Y-51252438D02*
X154261904Y-51300057D01*
X154261904Y-51300057D02*
X154309523Y-51395295D01*
X154309523Y-51395295D02*
X154309523Y-51490533D01*
X154309523Y-51490533D02*
X154261904Y-51633390D01*
X154261904Y-51633390D02*
X153690476Y-52204819D01*
X153690476Y-52204819D02*
X154309523Y-52204819D01*
X155166666Y-51538152D02*
X155166666Y-52204819D01*
X154928571Y-51157200D02*
X154690476Y-51871485D01*
X154690476Y-51871485D02*
X155309523Y-51871485D01*
X147607142Y-45204819D02*
X147273809Y-44728628D01*
X147035714Y-45204819D02*
X147035714Y-44204819D01*
X147035714Y-44204819D02*
X147416666Y-44204819D01*
X147416666Y-44204819D02*
X147511904Y-44252438D01*
X147511904Y-44252438D02*
X147559523Y-44300057D01*
X147559523Y-44300057D02*
X147607142Y-44395295D01*
X147607142Y-44395295D02*
X147607142Y-44538152D01*
X147607142Y-44538152D02*
X147559523Y-44633390D01*
X147559523Y-44633390D02*
X147511904Y-44681009D01*
X147511904Y-44681009D02*
X147416666Y-44728628D01*
X147416666Y-44728628D02*
X147035714Y-44728628D01*
X148559523Y-45204819D02*
X147988095Y-45204819D01*
X148273809Y-45204819D02*
X148273809Y-44204819D01*
X148273809Y-44204819D02*
X148178571Y-44347676D01*
X148178571Y-44347676D02*
X148083333Y-44442914D01*
X148083333Y-44442914D02*
X147988095Y-44490533D01*
X148892857Y-44204819D02*
X149559523Y-44204819D01*
X149559523Y-44204819D02*
X149130952Y-45204819D01*
X112833333Y-26704819D02*
X112500000Y-26228628D01*
X112261905Y-26704819D02*
X112261905Y-25704819D01*
X112261905Y-25704819D02*
X112642857Y-25704819D01*
X112642857Y-25704819D02*
X112738095Y-25752438D01*
X112738095Y-25752438D02*
X112785714Y-25800057D01*
X112785714Y-25800057D02*
X112833333Y-25895295D01*
X112833333Y-25895295D02*
X112833333Y-26038152D01*
X112833333Y-26038152D02*
X112785714Y-26133390D01*
X112785714Y-26133390D02*
X112738095Y-26181009D01*
X112738095Y-26181009D02*
X112642857Y-26228628D01*
X112642857Y-26228628D02*
X112261905Y-26228628D01*
X113309524Y-26704819D02*
X113500000Y-26704819D01*
X113500000Y-26704819D02*
X113595238Y-26657200D01*
X113595238Y-26657200D02*
X113642857Y-26609580D01*
X113642857Y-26609580D02*
X113738095Y-26466723D01*
X113738095Y-26466723D02*
X113785714Y-26276247D01*
X113785714Y-26276247D02*
X113785714Y-25895295D01*
X113785714Y-25895295D02*
X113738095Y-25800057D01*
X113738095Y-25800057D02*
X113690476Y-25752438D01*
X113690476Y-25752438D02*
X113595238Y-25704819D01*
X113595238Y-25704819D02*
X113404762Y-25704819D01*
X113404762Y-25704819D02*
X113309524Y-25752438D01*
X113309524Y-25752438D02*
X113261905Y-25800057D01*
X113261905Y-25800057D02*
X113214286Y-25895295D01*
X113214286Y-25895295D02*
X113214286Y-26133390D01*
X113214286Y-26133390D02*
X113261905Y-26228628D01*
X113261905Y-26228628D02*
X113309524Y-26276247D01*
X113309524Y-26276247D02*
X113404762Y-26323866D01*
X113404762Y-26323866D02*
X113595238Y-26323866D01*
X113595238Y-26323866D02*
X113690476Y-26276247D01*
X113690476Y-26276247D02*
X113738095Y-26228628D01*
X113738095Y-26228628D02*
X113785714Y-26133390D01*
X158607142Y-65954819D02*
X158273809Y-65478628D01*
X158035714Y-65954819D02*
X158035714Y-64954819D01*
X158035714Y-64954819D02*
X158416666Y-64954819D01*
X158416666Y-64954819D02*
X158511904Y-65002438D01*
X158511904Y-65002438D02*
X158559523Y-65050057D01*
X158559523Y-65050057D02*
X158607142Y-65145295D01*
X158607142Y-65145295D02*
X158607142Y-65288152D01*
X158607142Y-65288152D02*
X158559523Y-65383390D01*
X158559523Y-65383390D02*
X158511904Y-65431009D01*
X158511904Y-65431009D02*
X158416666Y-65478628D01*
X158416666Y-65478628D02*
X158035714Y-65478628D01*
X158988095Y-65050057D02*
X159035714Y-65002438D01*
X159035714Y-65002438D02*
X159130952Y-64954819D01*
X159130952Y-64954819D02*
X159369047Y-64954819D01*
X159369047Y-64954819D02*
X159464285Y-65002438D01*
X159464285Y-65002438D02*
X159511904Y-65050057D01*
X159511904Y-65050057D02*
X159559523Y-65145295D01*
X159559523Y-65145295D02*
X159559523Y-65240533D01*
X159559523Y-65240533D02*
X159511904Y-65383390D01*
X159511904Y-65383390D02*
X158940476Y-65954819D01*
X158940476Y-65954819D02*
X159559523Y-65954819D01*
X160511904Y-65954819D02*
X159940476Y-65954819D01*
X160226190Y-65954819D02*
X160226190Y-64954819D01*
X160226190Y-64954819D02*
X160130952Y-65097676D01*
X160130952Y-65097676D02*
X160035714Y-65192914D01*
X160035714Y-65192914D02*
X159940476Y-65240533D01*
X135307142Y-81709580D02*
X135259523Y-81757200D01*
X135259523Y-81757200D02*
X135116666Y-81804819D01*
X135116666Y-81804819D02*
X135021428Y-81804819D01*
X135021428Y-81804819D02*
X134878571Y-81757200D01*
X134878571Y-81757200D02*
X134783333Y-81661961D01*
X134783333Y-81661961D02*
X134735714Y-81566723D01*
X134735714Y-81566723D02*
X134688095Y-81376247D01*
X134688095Y-81376247D02*
X134688095Y-81233390D01*
X134688095Y-81233390D02*
X134735714Y-81042914D01*
X134735714Y-81042914D02*
X134783333Y-80947676D01*
X134783333Y-80947676D02*
X134878571Y-80852438D01*
X134878571Y-80852438D02*
X135021428Y-80804819D01*
X135021428Y-80804819D02*
X135116666Y-80804819D01*
X135116666Y-80804819D02*
X135259523Y-80852438D01*
X135259523Y-80852438D02*
X135307142Y-80900057D01*
X136259523Y-81804819D02*
X135688095Y-81804819D01*
X135973809Y-81804819D02*
X135973809Y-80804819D01*
X135973809Y-80804819D02*
X135878571Y-80947676D01*
X135878571Y-80947676D02*
X135783333Y-81042914D01*
X135783333Y-81042914D02*
X135688095Y-81090533D01*
X136735714Y-81804819D02*
X136926190Y-81804819D01*
X136926190Y-81804819D02*
X137021428Y-81757200D01*
X137021428Y-81757200D02*
X137069047Y-81709580D01*
X137069047Y-81709580D02*
X137164285Y-81566723D01*
X137164285Y-81566723D02*
X137211904Y-81376247D01*
X137211904Y-81376247D02*
X137211904Y-80995295D01*
X137211904Y-80995295D02*
X137164285Y-80900057D01*
X137164285Y-80900057D02*
X137116666Y-80852438D01*
X137116666Y-80852438D02*
X137021428Y-80804819D01*
X137021428Y-80804819D02*
X136830952Y-80804819D01*
X136830952Y-80804819D02*
X136735714Y-80852438D01*
X136735714Y-80852438D02*
X136688095Y-80900057D01*
X136688095Y-80900057D02*
X136640476Y-80995295D01*
X136640476Y-80995295D02*
X136640476Y-81233390D01*
X136640476Y-81233390D02*
X136688095Y-81328628D01*
X136688095Y-81328628D02*
X136735714Y-81376247D01*
X136735714Y-81376247D02*
X136830952Y-81423866D01*
X136830952Y-81423866D02*
X137021428Y-81423866D01*
X137021428Y-81423866D02*
X137116666Y-81376247D01*
X137116666Y-81376247D02*
X137164285Y-81328628D01*
X137164285Y-81328628D02*
X137211904Y-81233390D01*
X87841619Y-67942804D02*
X88651142Y-67942804D01*
X88651142Y-67942804D02*
X88746380Y-67895185D01*
X88746380Y-67895185D02*
X88794000Y-67847566D01*
X88794000Y-67847566D02*
X88841619Y-67752328D01*
X88841619Y-67752328D02*
X88841619Y-67561852D01*
X88841619Y-67561852D02*
X88794000Y-67466614D01*
X88794000Y-67466614D02*
X88746380Y-67418995D01*
X88746380Y-67418995D02*
X88651142Y-67371376D01*
X88651142Y-67371376D02*
X87841619Y-67371376D01*
X87936857Y-66942804D02*
X87889238Y-66895185D01*
X87889238Y-66895185D02*
X87841619Y-66799947D01*
X87841619Y-66799947D02*
X87841619Y-66561852D01*
X87841619Y-66561852D02*
X87889238Y-66466614D01*
X87889238Y-66466614D02*
X87936857Y-66418995D01*
X87936857Y-66418995D02*
X88032095Y-66371376D01*
X88032095Y-66371376D02*
X88127333Y-66371376D01*
X88127333Y-66371376D02*
X88270190Y-66418995D01*
X88270190Y-66418995D02*
X88841619Y-66990423D01*
X88841619Y-66990423D02*
X88841619Y-66371376D01*
X134807142Y-78804819D02*
X134473809Y-78328628D01*
X134235714Y-78804819D02*
X134235714Y-77804819D01*
X134235714Y-77804819D02*
X134616666Y-77804819D01*
X134616666Y-77804819D02*
X134711904Y-77852438D01*
X134711904Y-77852438D02*
X134759523Y-77900057D01*
X134759523Y-77900057D02*
X134807142Y-77995295D01*
X134807142Y-77995295D02*
X134807142Y-78138152D01*
X134807142Y-78138152D02*
X134759523Y-78233390D01*
X134759523Y-78233390D02*
X134711904Y-78281009D01*
X134711904Y-78281009D02*
X134616666Y-78328628D01*
X134616666Y-78328628D02*
X134235714Y-78328628D01*
X135759523Y-78804819D02*
X135188095Y-78804819D01*
X135473809Y-78804819D02*
X135473809Y-77804819D01*
X135473809Y-77804819D02*
X135378571Y-77947676D01*
X135378571Y-77947676D02*
X135283333Y-78042914D01*
X135283333Y-78042914D02*
X135188095Y-78090533D01*
X136616666Y-78138152D02*
X136616666Y-78804819D01*
X136378571Y-77757200D02*
X136140476Y-78471485D01*
X136140476Y-78471485D02*
X136759523Y-78471485D01*
X119333333Y-69204819D02*
X119000000Y-68728628D01*
X118761905Y-69204819D02*
X118761905Y-68204819D01*
X118761905Y-68204819D02*
X119142857Y-68204819D01*
X119142857Y-68204819D02*
X119238095Y-68252438D01*
X119238095Y-68252438D02*
X119285714Y-68300057D01*
X119285714Y-68300057D02*
X119333333Y-68395295D01*
X119333333Y-68395295D02*
X119333333Y-68538152D01*
X119333333Y-68538152D02*
X119285714Y-68633390D01*
X119285714Y-68633390D02*
X119238095Y-68681009D01*
X119238095Y-68681009D02*
X119142857Y-68728628D01*
X119142857Y-68728628D02*
X118761905Y-68728628D01*
X119904762Y-68633390D02*
X119809524Y-68585771D01*
X119809524Y-68585771D02*
X119761905Y-68538152D01*
X119761905Y-68538152D02*
X119714286Y-68442914D01*
X119714286Y-68442914D02*
X119714286Y-68395295D01*
X119714286Y-68395295D02*
X119761905Y-68300057D01*
X119761905Y-68300057D02*
X119809524Y-68252438D01*
X119809524Y-68252438D02*
X119904762Y-68204819D01*
X119904762Y-68204819D02*
X120095238Y-68204819D01*
X120095238Y-68204819D02*
X120190476Y-68252438D01*
X120190476Y-68252438D02*
X120238095Y-68300057D01*
X120238095Y-68300057D02*
X120285714Y-68395295D01*
X120285714Y-68395295D02*
X120285714Y-68442914D01*
X120285714Y-68442914D02*
X120238095Y-68538152D01*
X120238095Y-68538152D02*
X120190476Y-68585771D01*
X120190476Y-68585771D02*
X120095238Y-68633390D01*
X120095238Y-68633390D02*
X119904762Y-68633390D01*
X119904762Y-68633390D02*
X119809524Y-68681009D01*
X119809524Y-68681009D02*
X119761905Y-68728628D01*
X119761905Y-68728628D02*
X119714286Y-68823866D01*
X119714286Y-68823866D02*
X119714286Y-69014342D01*
X119714286Y-69014342D02*
X119761905Y-69109580D01*
X119761905Y-69109580D02*
X119809524Y-69157200D01*
X119809524Y-69157200D02*
X119904762Y-69204819D01*
X119904762Y-69204819D02*
X120095238Y-69204819D01*
X120095238Y-69204819D02*
X120190476Y-69157200D01*
X120190476Y-69157200D02*
X120238095Y-69109580D01*
X120238095Y-69109580D02*
X120285714Y-69014342D01*
X120285714Y-69014342D02*
X120285714Y-68823866D01*
X120285714Y-68823866D02*
X120238095Y-68728628D01*
X120238095Y-68728628D02*
X120190476Y-68681009D01*
X120190476Y-68681009D02*
X120095238Y-68633390D01*
X155607142Y-65954819D02*
X155273809Y-65478628D01*
X155035714Y-65954819D02*
X155035714Y-64954819D01*
X155035714Y-64954819D02*
X155416666Y-64954819D01*
X155416666Y-64954819D02*
X155511904Y-65002438D01*
X155511904Y-65002438D02*
X155559523Y-65050057D01*
X155559523Y-65050057D02*
X155607142Y-65145295D01*
X155607142Y-65145295D02*
X155607142Y-65288152D01*
X155607142Y-65288152D02*
X155559523Y-65383390D01*
X155559523Y-65383390D02*
X155511904Y-65431009D01*
X155511904Y-65431009D02*
X155416666Y-65478628D01*
X155416666Y-65478628D02*
X155035714Y-65478628D01*
X155988095Y-65050057D02*
X156035714Y-65002438D01*
X156035714Y-65002438D02*
X156130952Y-64954819D01*
X156130952Y-64954819D02*
X156369047Y-64954819D01*
X156369047Y-64954819D02*
X156464285Y-65002438D01*
X156464285Y-65002438D02*
X156511904Y-65050057D01*
X156511904Y-65050057D02*
X156559523Y-65145295D01*
X156559523Y-65145295D02*
X156559523Y-65240533D01*
X156559523Y-65240533D02*
X156511904Y-65383390D01*
X156511904Y-65383390D02*
X155940476Y-65954819D01*
X155940476Y-65954819D02*
X156559523Y-65954819D01*
X156940476Y-65050057D02*
X156988095Y-65002438D01*
X156988095Y-65002438D02*
X157083333Y-64954819D01*
X157083333Y-64954819D02*
X157321428Y-64954819D01*
X157321428Y-64954819D02*
X157416666Y-65002438D01*
X157416666Y-65002438D02*
X157464285Y-65050057D01*
X157464285Y-65050057D02*
X157511904Y-65145295D01*
X157511904Y-65145295D02*
X157511904Y-65240533D01*
X157511904Y-65240533D02*
X157464285Y-65383390D01*
X157464285Y-65383390D02*
X156892857Y-65954819D01*
X156892857Y-65954819D02*
X157511904Y-65954819D01*
X110988095Y-57456819D02*
X111559523Y-57456819D01*
X111273809Y-58456819D02*
X111273809Y-57456819D01*
X111892857Y-58456819D02*
X111892857Y-57456819D01*
X111892857Y-57456819D02*
X112273809Y-57456819D01*
X112273809Y-57456819D02*
X112369047Y-57504438D01*
X112369047Y-57504438D02*
X112416666Y-57552057D01*
X112416666Y-57552057D02*
X112464285Y-57647295D01*
X112464285Y-57647295D02*
X112464285Y-57790152D01*
X112464285Y-57790152D02*
X112416666Y-57885390D01*
X112416666Y-57885390D02*
X112369047Y-57933009D01*
X112369047Y-57933009D02*
X112273809Y-57980628D01*
X112273809Y-57980628D02*
X111892857Y-57980628D01*
X112797619Y-57456819D02*
X113416666Y-57456819D01*
X113416666Y-57456819D02*
X113083333Y-57837771D01*
X113083333Y-57837771D02*
X113226190Y-57837771D01*
X113226190Y-57837771D02*
X113321428Y-57885390D01*
X113321428Y-57885390D02*
X113369047Y-57933009D01*
X113369047Y-57933009D02*
X113416666Y-58028247D01*
X113416666Y-58028247D02*
X113416666Y-58266342D01*
X113416666Y-58266342D02*
X113369047Y-58361580D01*
X113369047Y-58361580D02*
X113321428Y-58409200D01*
X113321428Y-58409200D02*
X113226190Y-58456819D01*
X113226190Y-58456819D02*
X112940476Y-58456819D01*
X112940476Y-58456819D02*
X112845238Y-58409200D01*
X112845238Y-58409200D02*
X112797619Y-58361580D01*
X111857142Y-34109580D02*
X111809523Y-34157200D01*
X111809523Y-34157200D02*
X111666666Y-34204819D01*
X111666666Y-34204819D02*
X111571428Y-34204819D01*
X111571428Y-34204819D02*
X111428571Y-34157200D01*
X111428571Y-34157200D02*
X111333333Y-34061961D01*
X111333333Y-34061961D02*
X111285714Y-33966723D01*
X111285714Y-33966723D02*
X111238095Y-33776247D01*
X111238095Y-33776247D02*
X111238095Y-33633390D01*
X111238095Y-33633390D02*
X111285714Y-33442914D01*
X111285714Y-33442914D02*
X111333333Y-33347676D01*
X111333333Y-33347676D02*
X111428571Y-33252438D01*
X111428571Y-33252438D02*
X111571428Y-33204819D01*
X111571428Y-33204819D02*
X111666666Y-33204819D01*
X111666666Y-33204819D02*
X111809523Y-33252438D01*
X111809523Y-33252438D02*
X111857142Y-33300057D01*
X112809523Y-34204819D02*
X112238095Y-34204819D01*
X112523809Y-34204819D02*
X112523809Y-33204819D01*
X112523809Y-33204819D02*
X112428571Y-33347676D01*
X112428571Y-33347676D02*
X112333333Y-33442914D01*
X112333333Y-33442914D02*
X112238095Y-33490533D01*
X113761904Y-34204819D02*
X113190476Y-34204819D01*
X113476190Y-34204819D02*
X113476190Y-33204819D01*
X113476190Y-33204819D02*
X113380952Y-33347676D01*
X113380952Y-33347676D02*
X113285714Y-33442914D01*
X113285714Y-33442914D02*
X113190476Y-33490533D01*
X124809580Y-94016666D02*
X124857200Y-94064285D01*
X124857200Y-94064285D02*
X124904819Y-94207142D01*
X124904819Y-94207142D02*
X124904819Y-94302380D01*
X124904819Y-94302380D02*
X124857200Y-94445237D01*
X124857200Y-94445237D02*
X124761961Y-94540475D01*
X124761961Y-94540475D02*
X124666723Y-94588094D01*
X124666723Y-94588094D02*
X124476247Y-94635713D01*
X124476247Y-94635713D02*
X124333390Y-94635713D01*
X124333390Y-94635713D02*
X124142914Y-94588094D01*
X124142914Y-94588094D02*
X124047676Y-94540475D01*
X124047676Y-94540475D02*
X123952438Y-94445237D01*
X123952438Y-94445237D02*
X123904819Y-94302380D01*
X123904819Y-94302380D02*
X123904819Y-94207142D01*
X123904819Y-94207142D02*
X123952438Y-94064285D01*
X123952438Y-94064285D02*
X124000057Y-94016666D01*
X123904819Y-93111904D02*
X123904819Y-93588094D01*
X123904819Y-93588094D02*
X124381009Y-93635713D01*
X124381009Y-93635713D02*
X124333390Y-93588094D01*
X124333390Y-93588094D02*
X124285771Y-93492856D01*
X124285771Y-93492856D02*
X124285771Y-93254761D01*
X124285771Y-93254761D02*
X124333390Y-93159523D01*
X124333390Y-93159523D02*
X124381009Y-93111904D01*
X124381009Y-93111904D02*
X124476247Y-93064285D01*
X124476247Y-93064285D02*
X124714342Y-93064285D01*
X124714342Y-93064285D02*
X124809580Y-93111904D01*
X124809580Y-93111904D02*
X124857200Y-93159523D01*
X124857200Y-93159523D02*
X124904819Y-93254761D01*
X124904819Y-93254761D02*
X124904819Y-93492856D01*
X124904819Y-93492856D02*
X124857200Y-93588094D01*
X124857200Y-93588094D02*
X124809580Y-93635713D01*
X152809580Y-93055357D02*
X152857200Y-93102976D01*
X152857200Y-93102976D02*
X152904819Y-93245833D01*
X152904819Y-93245833D02*
X152904819Y-93341071D01*
X152904819Y-93341071D02*
X152857200Y-93483928D01*
X152857200Y-93483928D02*
X152761961Y-93579166D01*
X152761961Y-93579166D02*
X152666723Y-93626785D01*
X152666723Y-93626785D02*
X152476247Y-93674404D01*
X152476247Y-93674404D02*
X152333390Y-93674404D01*
X152333390Y-93674404D02*
X152142914Y-93626785D01*
X152142914Y-93626785D02*
X152047676Y-93579166D01*
X152047676Y-93579166D02*
X151952438Y-93483928D01*
X151952438Y-93483928D02*
X151904819Y-93341071D01*
X151904819Y-93341071D02*
X151904819Y-93245833D01*
X151904819Y-93245833D02*
X151952438Y-93102976D01*
X151952438Y-93102976D02*
X152000057Y-93055357D01*
X152000057Y-92674404D02*
X151952438Y-92626785D01*
X151952438Y-92626785D02*
X151904819Y-92531547D01*
X151904819Y-92531547D02*
X151904819Y-92293452D01*
X151904819Y-92293452D02*
X151952438Y-92198214D01*
X151952438Y-92198214D02*
X152000057Y-92150595D01*
X152000057Y-92150595D02*
X152095295Y-92102976D01*
X152095295Y-92102976D02*
X152190533Y-92102976D01*
X152190533Y-92102976D02*
X152333390Y-92150595D01*
X152333390Y-92150595D02*
X152904819Y-92722023D01*
X152904819Y-92722023D02*
X152904819Y-92102976D01*
X151904819Y-91769642D02*
X151904819Y-91102976D01*
X151904819Y-91102976D02*
X152904819Y-91531547D01*
X111238095Y-62456819D02*
X111809523Y-62456819D01*
X111523809Y-63456819D02*
X111523809Y-62456819D01*
X112142857Y-63456819D02*
X112142857Y-62456819D01*
X112142857Y-62456819D02*
X112523809Y-62456819D01*
X112523809Y-62456819D02*
X112619047Y-62504438D01*
X112619047Y-62504438D02*
X112666666Y-62552057D01*
X112666666Y-62552057D02*
X112714285Y-62647295D01*
X112714285Y-62647295D02*
X112714285Y-62790152D01*
X112714285Y-62790152D02*
X112666666Y-62885390D01*
X112666666Y-62885390D02*
X112619047Y-62933009D01*
X112619047Y-62933009D02*
X112523809Y-62980628D01*
X112523809Y-62980628D02*
X112142857Y-62980628D01*
X113571428Y-62790152D02*
X113571428Y-63456819D01*
X113333333Y-62409200D02*
X113095238Y-63123485D01*
X113095238Y-63123485D02*
X113714285Y-63123485D01*
X158857142Y-47359580D02*
X158809523Y-47407200D01*
X158809523Y-47407200D02*
X158666666Y-47454819D01*
X158666666Y-47454819D02*
X158571428Y-47454819D01*
X158571428Y-47454819D02*
X158428571Y-47407200D01*
X158428571Y-47407200D02*
X158333333Y-47311961D01*
X158333333Y-47311961D02*
X158285714Y-47216723D01*
X158285714Y-47216723D02*
X158238095Y-47026247D01*
X158238095Y-47026247D02*
X158238095Y-46883390D01*
X158238095Y-46883390D02*
X158285714Y-46692914D01*
X158285714Y-46692914D02*
X158333333Y-46597676D01*
X158333333Y-46597676D02*
X158428571Y-46502438D01*
X158428571Y-46502438D02*
X158571428Y-46454819D01*
X158571428Y-46454819D02*
X158666666Y-46454819D01*
X158666666Y-46454819D02*
X158809523Y-46502438D01*
X158809523Y-46502438D02*
X158857142Y-46550057D01*
X159238095Y-46550057D02*
X159285714Y-46502438D01*
X159285714Y-46502438D02*
X159380952Y-46454819D01*
X159380952Y-46454819D02*
X159619047Y-46454819D01*
X159619047Y-46454819D02*
X159714285Y-46502438D01*
X159714285Y-46502438D02*
X159761904Y-46550057D01*
X159761904Y-46550057D02*
X159809523Y-46645295D01*
X159809523Y-46645295D02*
X159809523Y-46740533D01*
X159809523Y-46740533D02*
X159761904Y-46883390D01*
X159761904Y-46883390D02*
X159190476Y-47454819D01*
X159190476Y-47454819D02*
X159809523Y-47454819D01*
X160142857Y-46454819D02*
X160761904Y-46454819D01*
X160761904Y-46454819D02*
X160428571Y-46835771D01*
X160428571Y-46835771D02*
X160571428Y-46835771D01*
X160571428Y-46835771D02*
X160666666Y-46883390D01*
X160666666Y-46883390D02*
X160714285Y-46931009D01*
X160714285Y-46931009D02*
X160761904Y-47026247D01*
X160761904Y-47026247D02*
X160761904Y-47264342D01*
X160761904Y-47264342D02*
X160714285Y-47359580D01*
X160714285Y-47359580D02*
X160666666Y-47407200D01*
X160666666Y-47407200D02*
X160571428Y-47454819D01*
X160571428Y-47454819D02*
X160285714Y-47454819D01*
X160285714Y-47454819D02*
X160190476Y-47407200D01*
X160190476Y-47407200D02*
X160142857Y-47359580D01*
X138357142Y-31109580D02*
X138309523Y-31157200D01*
X138309523Y-31157200D02*
X138166666Y-31204819D01*
X138166666Y-31204819D02*
X138071428Y-31204819D01*
X138071428Y-31204819D02*
X137928571Y-31157200D01*
X137928571Y-31157200D02*
X137833333Y-31061961D01*
X137833333Y-31061961D02*
X137785714Y-30966723D01*
X137785714Y-30966723D02*
X137738095Y-30776247D01*
X137738095Y-30776247D02*
X137738095Y-30633390D01*
X137738095Y-30633390D02*
X137785714Y-30442914D01*
X137785714Y-30442914D02*
X137833333Y-30347676D01*
X137833333Y-30347676D02*
X137928571Y-30252438D01*
X137928571Y-30252438D02*
X138071428Y-30204819D01*
X138071428Y-30204819D02*
X138166666Y-30204819D01*
X138166666Y-30204819D02*
X138309523Y-30252438D01*
X138309523Y-30252438D02*
X138357142Y-30300057D01*
X139309523Y-31204819D02*
X138738095Y-31204819D01*
X139023809Y-31204819D02*
X139023809Y-30204819D01*
X139023809Y-30204819D02*
X138928571Y-30347676D01*
X138928571Y-30347676D02*
X138833333Y-30442914D01*
X138833333Y-30442914D02*
X138738095Y-30490533D01*
X139690476Y-30300057D02*
X139738095Y-30252438D01*
X139738095Y-30252438D02*
X139833333Y-30204819D01*
X139833333Y-30204819D02*
X140071428Y-30204819D01*
X140071428Y-30204819D02*
X140166666Y-30252438D01*
X140166666Y-30252438D02*
X140214285Y-30300057D01*
X140214285Y-30300057D02*
X140261904Y-30395295D01*
X140261904Y-30395295D02*
X140261904Y-30490533D01*
X140261904Y-30490533D02*
X140214285Y-30633390D01*
X140214285Y-30633390D02*
X139642857Y-31204819D01*
X139642857Y-31204819D02*
X140261904Y-31204819D01*
X156357142Y-45204819D02*
X156023809Y-44728628D01*
X155785714Y-45204819D02*
X155785714Y-44204819D01*
X155785714Y-44204819D02*
X156166666Y-44204819D01*
X156166666Y-44204819D02*
X156261904Y-44252438D01*
X156261904Y-44252438D02*
X156309523Y-44300057D01*
X156309523Y-44300057D02*
X156357142Y-44395295D01*
X156357142Y-44395295D02*
X156357142Y-44538152D01*
X156357142Y-44538152D02*
X156309523Y-44633390D01*
X156309523Y-44633390D02*
X156261904Y-44681009D01*
X156261904Y-44681009D02*
X156166666Y-44728628D01*
X156166666Y-44728628D02*
X155785714Y-44728628D01*
X157309523Y-45204819D02*
X156738095Y-45204819D01*
X157023809Y-45204819D02*
X157023809Y-44204819D01*
X157023809Y-44204819D02*
X156928571Y-44347676D01*
X156928571Y-44347676D02*
X156833333Y-44442914D01*
X156833333Y-44442914D02*
X156738095Y-44490533D01*
X157880952Y-44633390D02*
X157785714Y-44585771D01*
X157785714Y-44585771D02*
X157738095Y-44538152D01*
X157738095Y-44538152D02*
X157690476Y-44442914D01*
X157690476Y-44442914D02*
X157690476Y-44395295D01*
X157690476Y-44395295D02*
X157738095Y-44300057D01*
X157738095Y-44300057D02*
X157785714Y-44252438D01*
X157785714Y-44252438D02*
X157880952Y-44204819D01*
X157880952Y-44204819D02*
X158071428Y-44204819D01*
X158071428Y-44204819D02*
X158166666Y-44252438D01*
X158166666Y-44252438D02*
X158214285Y-44300057D01*
X158214285Y-44300057D02*
X158261904Y-44395295D01*
X158261904Y-44395295D02*
X158261904Y-44442914D01*
X158261904Y-44442914D02*
X158214285Y-44538152D01*
X158214285Y-44538152D02*
X158166666Y-44585771D01*
X158166666Y-44585771D02*
X158071428Y-44633390D01*
X158071428Y-44633390D02*
X157880952Y-44633390D01*
X157880952Y-44633390D02*
X157785714Y-44681009D01*
X157785714Y-44681009D02*
X157738095Y-44728628D01*
X157738095Y-44728628D02*
X157690476Y-44823866D01*
X157690476Y-44823866D02*
X157690476Y-45014342D01*
X157690476Y-45014342D02*
X157738095Y-45109580D01*
X157738095Y-45109580D02*
X157785714Y-45157200D01*
X157785714Y-45157200D02*
X157880952Y-45204819D01*
X157880952Y-45204819D02*
X158071428Y-45204819D01*
X158071428Y-45204819D02*
X158166666Y-45157200D01*
X158166666Y-45157200D02*
X158214285Y-45109580D01*
X158214285Y-45109580D02*
X158261904Y-45014342D01*
X158261904Y-45014342D02*
X158261904Y-44823866D01*
X158261904Y-44823866D02*
X158214285Y-44728628D01*
X158214285Y-44728628D02*
X158166666Y-44681009D01*
X158166666Y-44681009D02*
X158071428Y-44633390D01*
X138357142Y-38359580D02*
X138309523Y-38407200D01*
X138309523Y-38407200D02*
X138166666Y-38454819D01*
X138166666Y-38454819D02*
X138071428Y-38454819D01*
X138071428Y-38454819D02*
X137928571Y-38407200D01*
X137928571Y-38407200D02*
X137833333Y-38311961D01*
X137833333Y-38311961D02*
X137785714Y-38216723D01*
X137785714Y-38216723D02*
X137738095Y-38026247D01*
X137738095Y-38026247D02*
X137738095Y-37883390D01*
X137738095Y-37883390D02*
X137785714Y-37692914D01*
X137785714Y-37692914D02*
X137833333Y-37597676D01*
X137833333Y-37597676D02*
X137928571Y-37502438D01*
X137928571Y-37502438D02*
X138071428Y-37454819D01*
X138071428Y-37454819D02*
X138166666Y-37454819D01*
X138166666Y-37454819D02*
X138309523Y-37502438D01*
X138309523Y-37502438D02*
X138357142Y-37550057D01*
X139309523Y-38454819D02*
X138738095Y-38454819D01*
X139023809Y-38454819D02*
X139023809Y-37454819D01*
X139023809Y-37454819D02*
X138928571Y-37597676D01*
X138928571Y-37597676D02*
X138833333Y-37692914D01*
X138833333Y-37692914D02*
X138738095Y-37740533D01*
X139642857Y-37454819D02*
X140261904Y-37454819D01*
X140261904Y-37454819D02*
X139928571Y-37835771D01*
X139928571Y-37835771D02*
X140071428Y-37835771D01*
X140071428Y-37835771D02*
X140166666Y-37883390D01*
X140166666Y-37883390D02*
X140214285Y-37931009D01*
X140214285Y-37931009D02*
X140261904Y-38026247D01*
X140261904Y-38026247D02*
X140261904Y-38264342D01*
X140261904Y-38264342D02*
X140214285Y-38359580D01*
X140214285Y-38359580D02*
X140166666Y-38407200D01*
X140166666Y-38407200D02*
X140071428Y-38454819D01*
X140071428Y-38454819D02*
X139785714Y-38454819D01*
X139785714Y-38454819D02*
X139690476Y-38407200D01*
X139690476Y-38407200D02*
X139642857Y-38359580D01*
X83916666Y-24754819D02*
X83583333Y-24278628D01*
X83345238Y-24754819D02*
X83345238Y-23754819D01*
X83345238Y-23754819D02*
X83726190Y-23754819D01*
X83726190Y-23754819D02*
X83821428Y-23802438D01*
X83821428Y-23802438D02*
X83869047Y-23850057D01*
X83869047Y-23850057D02*
X83916666Y-23945295D01*
X83916666Y-23945295D02*
X83916666Y-24088152D01*
X83916666Y-24088152D02*
X83869047Y-24183390D01*
X83869047Y-24183390D02*
X83821428Y-24231009D01*
X83821428Y-24231009D02*
X83726190Y-24278628D01*
X83726190Y-24278628D02*
X83345238Y-24278628D01*
X84345238Y-24231009D02*
X84678571Y-24231009D01*
X84821428Y-24754819D02*
X84345238Y-24754819D01*
X84345238Y-24754819D02*
X84345238Y-23754819D01*
X84345238Y-23754819D02*
X84821428Y-23754819D01*
X85583333Y-24231009D02*
X85250000Y-24231009D01*
X85250000Y-24754819D02*
X85250000Y-23754819D01*
X85250000Y-23754819D02*
X85726190Y-23754819D01*
X86250000Y-23754819D02*
X86250000Y-23992914D01*
X86011905Y-23897676D02*
X86250000Y-23992914D01*
X86250000Y-23992914D02*
X86488095Y-23897676D01*
X86107143Y-24183390D02*
X86250000Y-23992914D01*
X86250000Y-23992914D02*
X86392857Y-24183390D01*
X87011905Y-23754819D02*
X87011905Y-23992914D01*
X86773810Y-23897676D02*
X87011905Y-23992914D01*
X87011905Y-23992914D02*
X87250000Y-23897676D01*
X86869048Y-24183390D02*
X87011905Y-23992914D01*
X87011905Y-23992914D02*
X87154762Y-24183390D01*
X124309580Y-85492857D02*
X124357200Y-85540476D01*
X124357200Y-85540476D02*
X124404819Y-85683333D01*
X124404819Y-85683333D02*
X124404819Y-85778571D01*
X124404819Y-85778571D02*
X124357200Y-85921428D01*
X124357200Y-85921428D02*
X124261961Y-86016666D01*
X124261961Y-86016666D02*
X124166723Y-86064285D01*
X124166723Y-86064285D02*
X123976247Y-86111904D01*
X123976247Y-86111904D02*
X123833390Y-86111904D01*
X123833390Y-86111904D02*
X123642914Y-86064285D01*
X123642914Y-86064285D02*
X123547676Y-86016666D01*
X123547676Y-86016666D02*
X123452438Y-85921428D01*
X123452438Y-85921428D02*
X123404819Y-85778571D01*
X123404819Y-85778571D02*
X123404819Y-85683333D01*
X123404819Y-85683333D02*
X123452438Y-85540476D01*
X123452438Y-85540476D02*
X123500057Y-85492857D01*
X124404819Y-84540476D02*
X124404819Y-85111904D01*
X124404819Y-84826190D02*
X123404819Y-84826190D01*
X123404819Y-84826190D02*
X123547676Y-84921428D01*
X123547676Y-84921428D02*
X123642914Y-85016666D01*
X123642914Y-85016666D02*
X123690533Y-85111904D01*
X123833390Y-83969047D02*
X123785771Y-84064285D01*
X123785771Y-84064285D02*
X123738152Y-84111904D01*
X123738152Y-84111904D02*
X123642914Y-84159523D01*
X123642914Y-84159523D02*
X123595295Y-84159523D01*
X123595295Y-84159523D02*
X123500057Y-84111904D01*
X123500057Y-84111904D02*
X123452438Y-84064285D01*
X123452438Y-84064285D02*
X123404819Y-83969047D01*
X123404819Y-83969047D02*
X123404819Y-83778571D01*
X123404819Y-83778571D02*
X123452438Y-83683333D01*
X123452438Y-83683333D02*
X123500057Y-83635714D01*
X123500057Y-83635714D02*
X123595295Y-83588095D01*
X123595295Y-83588095D02*
X123642914Y-83588095D01*
X123642914Y-83588095D02*
X123738152Y-83635714D01*
X123738152Y-83635714D02*
X123785771Y-83683333D01*
X123785771Y-83683333D02*
X123833390Y-83778571D01*
X123833390Y-83778571D02*
X123833390Y-83969047D01*
X123833390Y-83969047D02*
X123881009Y-84064285D01*
X123881009Y-84064285D02*
X123928628Y-84111904D01*
X123928628Y-84111904D02*
X124023866Y-84159523D01*
X124023866Y-84159523D02*
X124214342Y-84159523D01*
X124214342Y-84159523D02*
X124309580Y-84111904D01*
X124309580Y-84111904D02*
X124357200Y-84064285D01*
X124357200Y-84064285D02*
X124404819Y-83969047D01*
X124404819Y-83969047D02*
X124404819Y-83778571D01*
X124404819Y-83778571D02*
X124357200Y-83683333D01*
X124357200Y-83683333D02*
X124309580Y-83635714D01*
X124309580Y-83635714D02*
X124214342Y-83588095D01*
X124214342Y-83588095D02*
X124023866Y-83588095D01*
X124023866Y-83588095D02*
X123928628Y-83635714D01*
X123928628Y-83635714D02*
X123881009Y-83683333D01*
X123881009Y-83683333D02*
X123833390Y-83778571D01*
X131719642Y-74634580D02*
X131672023Y-74682200D01*
X131672023Y-74682200D02*
X131529166Y-74729819D01*
X131529166Y-74729819D02*
X131433928Y-74729819D01*
X131433928Y-74729819D02*
X131291071Y-74682200D01*
X131291071Y-74682200D02*
X131195833Y-74586961D01*
X131195833Y-74586961D02*
X131148214Y-74491723D01*
X131148214Y-74491723D02*
X131100595Y-74301247D01*
X131100595Y-74301247D02*
X131100595Y-74158390D01*
X131100595Y-74158390D02*
X131148214Y-73967914D01*
X131148214Y-73967914D02*
X131195833Y-73872676D01*
X131195833Y-73872676D02*
X131291071Y-73777438D01*
X131291071Y-73777438D02*
X131433928Y-73729819D01*
X131433928Y-73729819D02*
X131529166Y-73729819D01*
X131529166Y-73729819D02*
X131672023Y-73777438D01*
X131672023Y-73777438D02*
X131719642Y-73825057D01*
X132100595Y-73825057D02*
X132148214Y-73777438D01*
X132148214Y-73777438D02*
X132243452Y-73729819D01*
X132243452Y-73729819D02*
X132481547Y-73729819D01*
X132481547Y-73729819D02*
X132576785Y-73777438D01*
X132576785Y-73777438D02*
X132624404Y-73825057D01*
X132624404Y-73825057D02*
X132672023Y-73920295D01*
X132672023Y-73920295D02*
X132672023Y-74015533D01*
X132672023Y-74015533D02*
X132624404Y-74158390D01*
X132624404Y-74158390D02*
X132052976Y-74729819D01*
X132052976Y-74729819D02*
X132672023Y-74729819D01*
X133624404Y-74729819D02*
X133052976Y-74729819D01*
X133338690Y-74729819D02*
X133338690Y-73729819D01*
X133338690Y-73729819D02*
X133243452Y-73872676D01*
X133243452Y-73872676D02*
X133148214Y-73967914D01*
X133148214Y-73967914D02*
X133052976Y-74015533D01*
X149104819Y-83688094D02*
X148104819Y-83688094D01*
X148104819Y-83688094D02*
X148104819Y-83449999D01*
X148104819Y-83449999D02*
X148152438Y-83307142D01*
X148152438Y-83307142D02*
X148247676Y-83211904D01*
X148247676Y-83211904D02*
X148342914Y-83164285D01*
X148342914Y-83164285D02*
X148533390Y-83116666D01*
X148533390Y-83116666D02*
X148676247Y-83116666D01*
X148676247Y-83116666D02*
X148866723Y-83164285D01*
X148866723Y-83164285D02*
X148961961Y-83211904D01*
X148961961Y-83211904D02*
X149057200Y-83307142D01*
X149057200Y-83307142D02*
X149104819Y-83449999D01*
X149104819Y-83449999D02*
X149104819Y-83688094D01*
X149104819Y-82164285D02*
X149104819Y-82735713D01*
X149104819Y-82449999D02*
X148104819Y-82449999D01*
X148104819Y-82449999D02*
X148247676Y-82545237D01*
X148247676Y-82545237D02*
X148342914Y-82640475D01*
X148342914Y-82640475D02*
X148390533Y-82735713D01*
X128457142Y-85201293D02*
X128123809Y-84725102D01*
X127885714Y-85201293D02*
X127885714Y-84201293D01*
X127885714Y-84201293D02*
X128266666Y-84201293D01*
X128266666Y-84201293D02*
X128361904Y-84248912D01*
X128361904Y-84248912D02*
X128409523Y-84296531D01*
X128409523Y-84296531D02*
X128457142Y-84391769D01*
X128457142Y-84391769D02*
X128457142Y-84534626D01*
X128457142Y-84534626D02*
X128409523Y-84629864D01*
X128409523Y-84629864D02*
X128361904Y-84677483D01*
X128361904Y-84677483D02*
X128266666Y-84725102D01*
X128266666Y-84725102D02*
X127885714Y-84725102D01*
X129409523Y-85201293D02*
X128838095Y-85201293D01*
X129123809Y-85201293D02*
X129123809Y-84201293D01*
X129123809Y-84201293D02*
X129028571Y-84344150D01*
X129028571Y-84344150D02*
X128933333Y-84439388D01*
X128933333Y-84439388D02*
X128838095Y-84487007D01*
X130028571Y-84201293D02*
X130123809Y-84201293D01*
X130123809Y-84201293D02*
X130219047Y-84248912D01*
X130219047Y-84248912D02*
X130266666Y-84296531D01*
X130266666Y-84296531D02*
X130314285Y-84391769D01*
X130314285Y-84391769D02*
X130361904Y-84582245D01*
X130361904Y-84582245D02*
X130361904Y-84820340D01*
X130361904Y-84820340D02*
X130314285Y-85010816D01*
X130314285Y-85010816D02*
X130266666Y-85106054D01*
X130266666Y-85106054D02*
X130219047Y-85153674D01*
X130219047Y-85153674D02*
X130123809Y-85201293D01*
X130123809Y-85201293D02*
X130028571Y-85201293D01*
X130028571Y-85201293D02*
X129933333Y-85153674D01*
X129933333Y-85153674D02*
X129885714Y-85106054D01*
X129885714Y-85106054D02*
X129838095Y-85010816D01*
X129838095Y-85010816D02*
X129790476Y-84820340D01*
X129790476Y-84820340D02*
X129790476Y-84582245D01*
X129790476Y-84582245D02*
X129838095Y-84391769D01*
X129838095Y-84391769D02*
X129885714Y-84296531D01*
X129885714Y-84296531D02*
X129933333Y-84248912D01*
X129933333Y-84248912D02*
X130028571Y-84201293D01*
X149857142Y-57204819D02*
X149523809Y-56728628D01*
X149285714Y-57204819D02*
X149285714Y-56204819D01*
X149285714Y-56204819D02*
X149666666Y-56204819D01*
X149666666Y-56204819D02*
X149761904Y-56252438D01*
X149761904Y-56252438D02*
X149809523Y-56300057D01*
X149809523Y-56300057D02*
X149857142Y-56395295D01*
X149857142Y-56395295D02*
X149857142Y-56538152D01*
X149857142Y-56538152D02*
X149809523Y-56633390D01*
X149809523Y-56633390D02*
X149761904Y-56681009D01*
X149761904Y-56681009D02*
X149666666Y-56728628D01*
X149666666Y-56728628D02*
X149285714Y-56728628D01*
X150238095Y-56300057D02*
X150285714Y-56252438D01*
X150285714Y-56252438D02*
X150380952Y-56204819D01*
X150380952Y-56204819D02*
X150619047Y-56204819D01*
X150619047Y-56204819D02*
X150714285Y-56252438D01*
X150714285Y-56252438D02*
X150761904Y-56300057D01*
X150761904Y-56300057D02*
X150809523Y-56395295D01*
X150809523Y-56395295D02*
X150809523Y-56490533D01*
X150809523Y-56490533D02*
X150761904Y-56633390D01*
X150761904Y-56633390D02*
X150190476Y-57204819D01*
X150190476Y-57204819D02*
X150809523Y-57204819D01*
X151142857Y-56204819D02*
X151761904Y-56204819D01*
X151761904Y-56204819D02*
X151428571Y-56585771D01*
X151428571Y-56585771D02*
X151571428Y-56585771D01*
X151571428Y-56585771D02*
X151666666Y-56633390D01*
X151666666Y-56633390D02*
X151714285Y-56681009D01*
X151714285Y-56681009D02*
X151761904Y-56776247D01*
X151761904Y-56776247D02*
X151761904Y-57014342D01*
X151761904Y-57014342D02*
X151714285Y-57109580D01*
X151714285Y-57109580D02*
X151666666Y-57157200D01*
X151666666Y-57157200D02*
X151571428Y-57204819D01*
X151571428Y-57204819D02*
X151285714Y-57204819D01*
X151285714Y-57204819D02*
X151190476Y-57157200D01*
X151190476Y-57157200D02*
X151142857Y-57109580D01*
X120904819Y-89088094D02*
X119904819Y-89088094D01*
X119904819Y-89088094D02*
X119904819Y-88849999D01*
X119904819Y-88849999D02*
X119952438Y-88707142D01*
X119952438Y-88707142D02*
X120047676Y-88611904D01*
X120047676Y-88611904D02*
X120142914Y-88564285D01*
X120142914Y-88564285D02*
X120333390Y-88516666D01*
X120333390Y-88516666D02*
X120476247Y-88516666D01*
X120476247Y-88516666D02*
X120666723Y-88564285D01*
X120666723Y-88564285D02*
X120761961Y-88611904D01*
X120761961Y-88611904D02*
X120857200Y-88707142D01*
X120857200Y-88707142D02*
X120904819Y-88849999D01*
X120904819Y-88849999D02*
X120904819Y-89088094D01*
X120000057Y-88135713D02*
X119952438Y-88088094D01*
X119952438Y-88088094D02*
X119904819Y-87992856D01*
X119904819Y-87992856D02*
X119904819Y-87754761D01*
X119904819Y-87754761D02*
X119952438Y-87659523D01*
X119952438Y-87659523D02*
X120000057Y-87611904D01*
X120000057Y-87611904D02*
X120095295Y-87564285D01*
X120095295Y-87564285D02*
X120190533Y-87564285D01*
X120190533Y-87564285D02*
X120333390Y-87611904D01*
X120333390Y-87611904D02*
X120904819Y-88183332D01*
X120904819Y-88183332D02*
X120904819Y-87564285D01*
X113357142Y-31359580D02*
X113309523Y-31407200D01*
X113309523Y-31407200D02*
X113166666Y-31454819D01*
X113166666Y-31454819D02*
X113071428Y-31454819D01*
X113071428Y-31454819D02*
X112928571Y-31407200D01*
X112928571Y-31407200D02*
X112833333Y-31311961D01*
X112833333Y-31311961D02*
X112785714Y-31216723D01*
X112785714Y-31216723D02*
X112738095Y-31026247D01*
X112738095Y-31026247D02*
X112738095Y-30883390D01*
X112738095Y-30883390D02*
X112785714Y-30692914D01*
X112785714Y-30692914D02*
X112833333Y-30597676D01*
X112833333Y-30597676D02*
X112928571Y-30502438D01*
X112928571Y-30502438D02*
X113071428Y-30454819D01*
X113071428Y-30454819D02*
X113166666Y-30454819D01*
X113166666Y-30454819D02*
X113309523Y-30502438D01*
X113309523Y-30502438D02*
X113357142Y-30550057D01*
X114309523Y-31454819D02*
X113738095Y-31454819D01*
X114023809Y-31454819D02*
X114023809Y-30454819D01*
X114023809Y-30454819D02*
X113928571Y-30597676D01*
X113928571Y-30597676D02*
X113833333Y-30692914D01*
X113833333Y-30692914D02*
X113738095Y-30740533D01*
X115166666Y-30788152D02*
X115166666Y-31454819D01*
X114928571Y-30407200D02*
X114690476Y-31121485D01*
X114690476Y-31121485D02*
X115309523Y-31121485D01*
X98833333Y-41454819D02*
X98500000Y-40978628D01*
X98261905Y-41454819D02*
X98261905Y-40454819D01*
X98261905Y-40454819D02*
X98642857Y-40454819D01*
X98642857Y-40454819D02*
X98738095Y-40502438D01*
X98738095Y-40502438D02*
X98785714Y-40550057D01*
X98785714Y-40550057D02*
X98833333Y-40645295D01*
X98833333Y-40645295D02*
X98833333Y-40788152D01*
X98833333Y-40788152D02*
X98785714Y-40883390D01*
X98785714Y-40883390D02*
X98738095Y-40931009D01*
X98738095Y-40931009D02*
X98642857Y-40978628D01*
X98642857Y-40978628D02*
X98261905Y-40978628D01*
X99166667Y-40454819D02*
X99833333Y-40454819D01*
X99833333Y-40454819D02*
X99404762Y-41454819D01*
X131309580Y-94992857D02*
X131357200Y-95040476D01*
X131357200Y-95040476D02*
X131404819Y-95183333D01*
X131404819Y-95183333D02*
X131404819Y-95278571D01*
X131404819Y-95278571D02*
X131357200Y-95421428D01*
X131357200Y-95421428D02*
X131261961Y-95516666D01*
X131261961Y-95516666D02*
X131166723Y-95564285D01*
X131166723Y-95564285D02*
X130976247Y-95611904D01*
X130976247Y-95611904D02*
X130833390Y-95611904D01*
X130833390Y-95611904D02*
X130642914Y-95564285D01*
X130642914Y-95564285D02*
X130547676Y-95516666D01*
X130547676Y-95516666D02*
X130452438Y-95421428D01*
X130452438Y-95421428D02*
X130404819Y-95278571D01*
X130404819Y-95278571D02*
X130404819Y-95183333D01*
X130404819Y-95183333D02*
X130452438Y-95040476D01*
X130452438Y-95040476D02*
X130500057Y-94992857D01*
X131404819Y-94040476D02*
X131404819Y-94611904D01*
X131404819Y-94326190D02*
X130404819Y-94326190D01*
X130404819Y-94326190D02*
X130547676Y-94421428D01*
X130547676Y-94421428D02*
X130642914Y-94516666D01*
X130642914Y-94516666D02*
X130690533Y-94611904D01*
X130404819Y-93707142D02*
X130404819Y-93040476D01*
X130404819Y-93040476D02*
X131404819Y-93469047D01*
X155357142Y-32322080D02*
X155309523Y-32369700D01*
X155309523Y-32369700D02*
X155166666Y-32417319D01*
X155166666Y-32417319D02*
X155071428Y-32417319D01*
X155071428Y-32417319D02*
X154928571Y-32369700D01*
X154928571Y-32369700D02*
X154833333Y-32274461D01*
X154833333Y-32274461D02*
X154785714Y-32179223D01*
X154785714Y-32179223D02*
X154738095Y-31988747D01*
X154738095Y-31988747D02*
X154738095Y-31845890D01*
X154738095Y-31845890D02*
X154785714Y-31655414D01*
X154785714Y-31655414D02*
X154833333Y-31560176D01*
X154833333Y-31560176D02*
X154928571Y-31464938D01*
X154928571Y-31464938D02*
X155071428Y-31417319D01*
X155071428Y-31417319D02*
X155166666Y-31417319D01*
X155166666Y-31417319D02*
X155309523Y-31464938D01*
X155309523Y-31464938D02*
X155357142Y-31512557D01*
X156309523Y-32417319D02*
X155738095Y-32417319D01*
X156023809Y-32417319D02*
X156023809Y-31417319D01*
X156023809Y-31417319D02*
X155928571Y-31560176D01*
X155928571Y-31560176D02*
X155833333Y-31655414D01*
X155833333Y-31655414D02*
X155738095Y-31703033D01*
X157166666Y-31417319D02*
X156976190Y-31417319D01*
X156976190Y-31417319D02*
X156880952Y-31464938D01*
X156880952Y-31464938D02*
X156833333Y-31512557D01*
X156833333Y-31512557D02*
X156738095Y-31655414D01*
X156738095Y-31655414D02*
X156690476Y-31845890D01*
X156690476Y-31845890D02*
X156690476Y-32226842D01*
X156690476Y-32226842D02*
X156738095Y-32322080D01*
X156738095Y-32322080D02*
X156785714Y-32369700D01*
X156785714Y-32369700D02*
X156880952Y-32417319D01*
X156880952Y-32417319D02*
X157071428Y-32417319D01*
X157071428Y-32417319D02*
X157166666Y-32369700D01*
X157166666Y-32369700D02*
X157214285Y-32322080D01*
X157214285Y-32322080D02*
X157261904Y-32226842D01*
X157261904Y-32226842D02*
X157261904Y-31988747D01*
X157261904Y-31988747D02*
X157214285Y-31893509D01*
X157214285Y-31893509D02*
X157166666Y-31845890D01*
X157166666Y-31845890D02*
X157071428Y-31798271D01*
X157071428Y-31798271D02*
X156880952Y-31798271D01*
X156880952Y-31798271D02*
X156785714Y-31845890D01*
X156785714Y-31845890D02*
X156738095Y-31893509D01*
X156738095Y-31893509D02*
X156690476Y-31988747D01*
X152357142Y-32322080D02*
X152309523Y-32369700D01*
X152309523Y-32369700D02*
X152166666Y-32417319D01*
X152166666Y-32417319D02*
X152071428Y-32417319D01*
X152071428Y-32417319D02*
X151928571Y-32369700D01*
X151928571Y-32369700D02*
X151833333Y-32274461D01*
X151833333Y-32274461D02*
X151785714Y-32179223D01*
X151785714Y-32179223D02*
X151738095Y-31988747D01*
X151738095Y-31988747D02*
X151738095Y-31845890D01*
X151738095Y-31845890D02*
X151785714Y-31655414D01*
X151785714Y-31655414D02*
X151833333Y-31560176D01*
X151833333Y-31560176D02*
X151928571Y-31464938D01*
X151928571Y-31464938D02*
X152071428Y-31417319D01*
X152071428Y-31417319D02*
X152166666Y-31417319D01*
X152166666Y-31417319D02*
X152309523Y-31464938D01*
X152309523Y-31464938D02*
X152357142Y-31512557D01*
X153309523Y-32417319D02*
X152738095Y-32417319D01*
X153023809Y-32417319D02*
X153023809Y-31417319D01*
X153023809Y-31417319D02*
X152928571Y-31560176D01*
X152928571Y-31560176D02*
X152833333Y-31655414D01*
X152833333Y-31655414D02*
X152738095Y-31703033D01*
X154214285Y-31417319D02*
X153738095Y-31417319D01*
X153738095Y-31417319D02*
X153690476Y-31893509D01*
X153690476Y-31893509D02*
X153738095Y-31845890D01*
X153738095Y-31845890D02*
X153833333Y-31798271D01*
X153833333Y-31798271D02*
X154071428Y-31798271D01*
X154071428Y-31798271D02*
X154166666Y-31845890D01*
X154166666Y-31845890D02*
X154214285Y-31893509D01*
X154214285Y-31893509D02*
X154261904Y-31988747D01*
X154261904Y-31988747D02*
X154261904Y-32226842D01*
X154261904Y-32226842D02*
X154214285Y-32322080D01*
X154214285Y-32322080D02*
X154166666Y-32369700D01*
X154166666Y-32369700D02*
X154071428Y-32417319D01*
X154071428Y-32417319D02*
X153833333Y-32417319D01*
X153833333Y-32417319D02*
X153738095Y-32369700D01*
X153738095Y-32369700D02*
X153690476Y-32322080D01*
X162607142Y-62704819D02*
X162273809Y-62228628D01*
X162035714Y-62704819D02*
X162035714Y-61704819D01*
X162035714Y-61704819D02*
X162416666Y-61704819D01*
X162416666Y-61704819D02*
X162511904Y-61752438D01*
X162511904Y-61752438D02*
X162559523Y-61800057D01*
X162559523Y-61800057D02*
X162607142Y-61895295D01*
X162607142Y-61895295D02*
X162607142Y-62038152D01*
X162607142Y-62038152D02*
X162559523Y-62133390D01*
X162559523Y-62133390D02*
X162511904Y-62181009D01*
X162511904Y-62181009D02*
X162416666Y-62228628D01*
X162416666Y-62228628D02*
X162035714Y-62228628D01*
X162988095Y-61800057D02*
X163035714Y-61752438D01*
X163035714Y-61752438D02*
X163130952Y-61704819D01*
X163130952Y-61704819D02*
X163369047Y-61704819D01*
X163369047Y-61704819D02*
X163464285Y-61752438D01*
X163464285Y-61752438D02*
X163511904Y-61800057D01*
X163511904Y-61800057D02*
X163559523Y-61895295D01*
X163559523Y-61895295D02*
X163559523Y-61990533D01*
X163559523Y-61990533D02*
X163511904Y-62133390D01*
X163511904Y-62133390D02*
X162940476Y-62704819D01*
X162940476Y-62704819D02*
X163559523Y-62704819D01*
X164178571Y-61704819D02*
X164273809Y-61704819D01*
X164273809Y-61704819D02*
X164369047Y-61752438D01*
X164369047Y-61752438D02*
X164416666Y-61800057D01*
X164416666Y-61800057D02*
X164464285Y-61895295D01*
X164464285Y-61895295D02*
X164511904Y-62085771D01*
X164511904Y-62085771D02*
X164511904Y-62323866D01*
X164511904Y-62323866D02*
X164464285Y-62514342D01*
X164464285Y-62514342D02*
X164416666Y-62609580D01*
X164416666Y-62609580D02*
X164369047Y-62657200D01*
X164369047Y-62657200D02*
X164273809Y-62704819D01*
X164273809Y-62704819D02*
X164178571Y-62704819D01*
X164178571Y-62704819D02*
X164083333Y-62657200D01*
X164083333Y-62657200D02*
X164035714Y-62609580D01*
X164035714Y-62609580D02*
X163988095Y-62514342D01*
X163988095Y-62514342D02*
X163940476Y-62323866D01*
X163940476Y-62323866D02*
X163940476Y-62085771D01*
X163940476Y-62085771D02*
X163988095Y-61895295D01*
X163988095Y-61895295D02*
X164035714Y-61800057D01*
X164035714Y-61800057D02*
X164083333Y-61752438D01*
X164083333Y-61752438D02*
X164178571Y-61704819D01*
X98833333Y-36454819D02*
X98500000Y-35978628D01*
X98261905Y-36454819D02*
X98261905Y-35454819D01*
X98261905Y-35454819D02*
X98642857Y-35454819D01*
X98642857Y-35454819D02*
X98738095Y-35502438D01*
X98738095Y-35502438D02*
X98785714Y-35550057D01*
X98785714Y-35550057D02*
X98833333Y-35645295D01*
X98833333Y-35645295D02*
X98833333Y-35788152D01*
X98833333Y-35788152D02*
X98785714Y-35883390D01*
X98785714Y-35883390D02*
X98738095Y-35931009D01*
X98738095Y-35931009D02*
X98642857Y-35978628D01*
X98642857Y-35978628D02*
X98261905Y-35978628D01*
X99690476Y-35454819D02*
X99500000Y-35454819D01*
X99500000Y-35454819D02*
X99404762Y-35502438D01*
X99404762Y-35502438D02*
X99357143Y-35550057D01*
X99357143Y-35550057D02*
X99261905Y-35692914D01*
X99261905Y-35692914D02*
X99214286Y-35883390D01*
X99214286Y-35883390D02*
X99214286Y-36264342D01*
X99214286Y-36264342D02*
X99261905Y-36359580D01*
X99261905Y-36359580D02*
X99309524Y-36407200D01*
X99309524Y-36407200D02*
X99404762Y-36454819D01*
X99404762Y-36454819D02*
X99595238Y-36454819D01*
X99595238Y-36454819D02*
X99690476Y-36407200D01*
X99690476Y-36407200D02*
X99738095Y-36359580D01*
X99738095Y-36359580D02*
X99785714Y-36264342D01*
X99785714Y-36264342D02*
X99785714Y-36026247D01*
X99785714Y-36026247D02*
X99738095Y-35931009D01*
X99738095Y-35931009D02*
X99690476Y-35883390D01*
X99690476Y-35883390D02*
X99595238Y-35835771D01*
X99595238Y-35835771D02*
X99404762Y-35835771D01*
X99404762Y-35835771D02*
X99309524Y-35883390D01*
X99309524Y-35883390D02*
X99261905Y-35931009D01*
X99261905Y-35931009D02*
X99214286Y-36026247D01*
X163416666Y-24754819D02*
X163083333Y-24278628D01*
X162845238Y-24754819D02*
X162845238Y-23754819D01*
X162845238Y-23754819D02*
X163226190Y-23754819D01*
X163226190Y-23754819D02*
X163321428Y-23802438D01*
X163321428Y-23802438D02*
X163369047Y-23850057D01*
X163369047Y-23850057D02*
X163416666Y-23945295D01*
X163416666Y-23945295D02*
X163416666Y-24088152D01*
X163416666Y-24088152D02*
X163369047Y-24183390D01*
X163369047Y-24183390D02*
X163321428Y-24231009D01*
X163321428Y-24231009D02*
X163226190Y-24278628D01*
X163226190Y-24278628D02*
X162845238Y-24278628D01*
X163845238Y-24231009D02*
X164178571Y-24231009D01*
X164321428Y-24754819D02*
X163845238Y-24754819D01*
X163845238Y-24754819D02*
X163845238Y-23754819D01*
X163845238Y-23754819D02*
X164321428Y-23754819D01*
X165083333Y-24231009D02*
X164750000Y-24231009D01*
X164750000Y-24754819D02*
X164750000Y-23754819D01*
X164750000Y-23754819D02*
X165226190Y-23754819D01*
X165750000Y-23754819D02*
X165750000Y-23992914D01*
X165511905Y-23897676D02*
X165750000Y-23992914D01*
X165750000Y-23992914D02*
X165988095Y-23897676D01*
X165607143Y-24183390D02*
X165750000Y-23992914D01*
X165750000Y-23992914D02*
X165892857Y-24183390D01*
X166511905Y-23754819D02*
X166511905Y-23992914D01*
X166273810Y-23897676D02*
X166511905Y-23992914D01*
X166511905Y-23992914D02*
X166750000Y-23897676D01*
X166369048Y-24183390D02*
X166511905Y-23992914D01*
X166511905Y-23992914D02*
X166654762Y-24183390D01*
X136738095Y-57952819D02*
X137309523Y-57952819D01*
X137023809Y-58952819D02*
X137023809Y-57952819D01*
X137642857Y-58952819D02*
X137642857Y-57952819D01*
X137642857Y-57952819D02*
X138023809Y-57952819D01*
X138023809Y-57952819D02*
X138119047Y-58000438D01*
X138119047Y-58000438D02*
X138166666Y-58048057D01*
X138166666Y-58048057D02*
X138214285Y-58143295D01*
X138214285Y-58143295D02*
X138214285Y-58286152D01*
X138214285Y-58286152D02*
X138166666Y-58381390D01*
X138166666Y-58381390D02*
X138119047Y-58429009D01*
X138119047Y-58429009D02*
X138023809Y-58476628D01*
X138023809Y-58476628D02*
X137642857Y-58476628D01*
X139166666Y-58952819D02*
X138595238Y-58952819D01*
X138880952Y-58952819D02*
X138880952Y-57952819D01*
X138880952Y-57952819D02*
X138785714Y-58095676D01*
X138785714Y-58095676D02*
X138690476Y-58190914D01*
X138690476Y-58190914D02*
X138595238Y-58238533D01*
X126807142Y-74804819D02*
X126473809Y-74328628D01*
X126235714Y-74804819D02*
X126235714Y-73804819D01*
X126235714Y-73804819D02*
X126616666Y-73804819D01*
X126616666Y-73804819D02*
X126711904Y-73852438D01*
X126711904Y-73852438D02*
X126759523Y-73900057D01*
X126759523Y-73900057D02*
X126807142Y-73995295D01*
X126807142Y-73995295D02*
X126807142Y-74138152D01*
X126807142Y-74138152D02*
X126759523Y-74233390D01*
X126759523Y-74233390D02*
X126711904Y-74281009D01*
X126711904Y-74281009D02*
X126616666Y-74328628D01*
X126616666Y-74328628D02*
X126235714Y-74328628D01*
X127759523Y-74804819D02*
X127188095Y-74804819D01*
X127473809Y-74804819D02*
X127473809Y-73804819D01*
X127473809Y-73804819D02*
X127378571Y-73947676D01*
X127378571Y-73947676D02*
X127283333Y-74042914D01*
X127283333Y-74042914D02*
X127188095Y-74090533D01*
X128092857Y-73804819D02*
X128711904Y-73804819D01*
X128711904Y-73804819D02*
X128378571Y-74185771D01*
X128378571Y-74185771D02*
X128521428Y-74185771D01*
X128521428Y-74185771D02*
X128616666Y-74233390D01*
X128616666Y-74233390D02*
X128664285Y-74281009D01*
X128664285Y-74281009D02*
X128711904Y-74376247D01*
X128711904Y-74376247D02*
X128711904Y-74614342D01*
X128711904Y-74614342D02*
X128664285Y-74709580D01*
X128664285Y-74709580D02*
X128616666Y-74757200D01*
X128616666Y-74757200D02*
X128521428Y-74804819D01*
X128521428Y-74804819D02*
X128235714Y-74804819D01*
X128235714Y-74804819D02*
X128140476Y-74757200D01*
X128140476Y-74757200D02*
X128092857Y-74709580D01*
X154166666Y-87609819D02*
X154166666Y-88324104D01*
X154166666Y-88324104D02*
X154119047Y-88466961D01*
X154119047Y-88466961D02*
X154023809Y-88562200D01*
X154023809Y-88562200D02*
X153880952Y-88609819D01*
X153880952Y-88609819D02*
X153785714Y-88609819D01*
X155166666Y-88609819D02*
X154595238Y-88609819D01*
X154880952Y-88609819D02*
X154880952Y-87609819D01*
X154880952Y-87609819D02*
X154785714Y-87752676D01*
X154785714Y-87752676D02*
X154690476Y-87847914D01*
X154690476Y-87847914D02*
X154595238Y-87895533D01*
X135253365Y-65359580D02*
X135205746Y-65407200D01*
X135205746Y-65407200D02*
X135062889Y-65454819D01*
X135062889Y-65454819D02*
X134967651Y-65454819D01*
X134967651Y-65454819D02*
X134824794Y-65407200D01*
X134824794Y-65407200D02*
X134729556Y-65311961D01*
X134729556Y-65311961D02*
X134681937Y-65216723D01*
X134681937Y-65216723D02*
X134634318Y-65026247D01*
X134634318Y-65026247D02*
X134634318Y-64883390D01*
X134634318Y-64883390D02*
X134681937Y-64692914D01*
X134681937Y-64692914D02*
X134729556Y-64597676D01*
X134729556Y-64597676D02*
X134824794Y-64502438D01*
X134824794Y-64502438D02*
X134967651Y-64454819D01*
X134967651Y-64454819D02*
X135062889Y-64454819D01*
X135062889Y-64454819D02*
X135205746Y-64502438D01*
X135205746Y-64502438D02*
X135253365Y-64550057D01*
X135824794Y-64883390D02*
X135729556Y-64835771D01*
X135729556Y-64835771D02*
X135681937Y-64788152D01*
X135681937Y-64788152D02*
X135634318Y-64692914D01*
X135634318Y-64692914D02*
X135634318Y-64645295D01*
X135634318Y-64645295D02*
X135681937Y-64550057D01*
X135681937Y-64550057D02*
X135729556Y-64502438D01*
X135729556Y-64502438D02*
X135824794Y-64454819D01*
X135824794Y-64454819D02*
X136015270Y-64454819D01*
X136015270Y-64454819D02*
X136110508Y-64502438D01*
X136110508Y-64502438D02*
X136158127Y-64550057D01*
X136158127Y-64550057D02*
X136205746Y-64645295D01*
X136205746Y-64645295D02*
X136205746Y-64692914D01*
X136205746Y-64692914D02*
X136158127Y-64788152D01*
X136158127Y-64788152D02*
X136110508Y-64835771D01*
X136110508Y-64835771D02*
X136015270Y-64883390D01*
X136015270Y-64883390D02*
X135824794Y-64883390D01*
X135824794Y-64883390D02*
X135729556Y-64931009D01*
X135729556Y-64931009D02*
X135681937Y-64978628D01*
X135681937Y-64978628D02*
X135634318Y-65073866D01*
X135634318Y-65073866D02*
X135634318Y-65264342D01*
X135634318Y-65264342D02*
X135681937Y-65359580D01*
X135681937Y-65359580D02*
X135729556Y-65407200D01*
X135729556Y-65407200D02*
X135824794Y-65454819D01*
X135824794Y-65454819D02*
X136015270Y-65454819D01*
X136015270Y-65454819D02*
X136110508Y-65407200D01*
X136110508Y-65407200D02*
X136158127Y-65359580D01*
X136158127Y-65359580D02*
X136205746Y-65264342D01*
X136205746Y-65264342D02*
X136205746Y-65073866D01*
X136205746Y-65073866D02*
X136158127Y-64978628D01*
X136158127Y-64978628D02*
X136110508Y-64931009D01*
X136110508Y-64931009D02*
X136015270Y-64883390D01*
X125238095Y-66454819D02*
X125238095Y-67264342D01*
X125238095Y-67264342D02*
X125285714Y-67359580D01*
X125285714Y-67359580D02*
X125333333Y-67407200D01*
X125333333Y-67407200D02*
X125428571Y-67454819D01*
X125428571Y-67454819D02*
X125619047Y-67454819D01*
X125619047Y-67454819D02*
X125714285Y-67407200D01*
X125714285Y-67407200D02*
X125761904Y-67359580D01*
X125761904Y-67359580D02*
X125809523Y-67264342D01*
X125809523Y-67264342D02*
X125809523Y-66454819D01*
X126809523Y-67454819D02*
X126238095Y-67454819D01*
X126523809Y-67454819D02*
X126523809Y-66454819D01*
X126523809Y-66454819D02*
X126428571Y-66597676D01*
X126428571Y-66597676D02*
X126333333Y-66692914D01*
X126333333Y-66692914D02*
X126238095Y-66740533D01*
X136583333Y-26704819D02*
X136107143Y-26704819D01*
X136107143Y-26704819D02*
X136107143Y-25704819D01*
X136821429Y-25704819D02*
X137440476Y-25704819D01*
X137440476Y-25704819D02*
X137107143Y-26085771D01*
X137107143Y-26085771D02*
X137250000Y-26085771D01*
X137250000Y-26085771D02*
X137345238Y-26133390D01*
X137345238Y-26133390D02*
X137392857Y-26181009D01*
X137392857Y-26181009D02*
X137440476Y-26276247D01*
X137440476Y-26276247D02*
X137440476Y-26514342D01*
X137440476Y-26514342D02*
X137392857Y-26609580D01*
X137392857Y-26609580D02*
X137345238Y-26657200D01*
X137345238Y-26657200D02*
X137250000Y-26704819D01*
X137250000Y-26704819D02*
X136964286Y-26704819D01*
X136964286Y-26704819D02*
X136869048Y-26657200D01*
X136869048Y-26657200D02*
X136821429Y-26609580D01*
X114188095Y-96304819D02*
X114188095Y-97114342D01*
X114188095Y-97114342D02*
X114235714Y-97209580D01*
X114235714Y-97209580D02*
X114283333Y-97257200D01*
X114283333Y-97257200D02*
X114378571Y-97304819D01*
X114378571Y-97304819D02*
X114569047Y-97304819D01*
X114569047Y-97304819D02*
X114664285Y-97257200D01*
X114664285Y-97257200D02*
X114711904Y-97209580D01*
X114711904Y-97209580D02*
X114759523Y-97114342D01*
X114759523Y-97114342D02*
X114759523Y-96304819D01*
X115140476Y-96304819D02*
X115807142Y-96304819D01*
X115807142Y-96304819D02*
X115378571Y-97304819D01*
X133833333Y-38454819D02*
X133357143Y-38454819D01*
X133357143Y-38454819D02*
X133357143Y-37454819D01*
X134119048Y-37550057D02*
X134166667Y-37502438D01*
X134166667Y-37502438D02*
X134261905Y-37454819D01*
X134261905Y-37454819D02*
X134500000Y-37454819D01*
X134500000Y-37454819D02*
X134595238Y-37502438D01*
X134595238Y-37502438D02*
X134642857Y-37550057D01*
X134642857Y-37550057D02*
X134690476Y-37645295D01*
X134690476Y-37645295D02*
X134690476Y-37740533D01*
X134690476Y-37740533D02*
X134642857Y-37883390D01*
X134642857Y-37883390D02*
X134071429Y-38454819D01*
X134071429Y-38454819D02*
X134690476Y-38454819D01*
X111857142Y-36609580D02*
X111809523Y-36657200D01*
X111809523Y-36657200D02*
X111666666Y-36704819D01*
X111666666Y-36704819D02*
X111571428Y-36704819D01*
X111571428Y-36704819D02*
X111428571Y-36657200D01*
X111428571Y-36657200D02*
X111333333Y-36561961D01*
X111333333Y-36561961D02*
X111285714Y-36466723D01*
X111285714Y-36466723D02*
X111238095Y-36276247D01*
X111238095Y-36276247D02*
X111238095Y-36133390D01*
X111238095Y-36133390D02*
X111285714Y-35942914D01*
X111285714Y-35942914D02*
X111333333Y-35847676D01*
X111333333Y-35847676D02*
X111428571Y-35752438D01*
X111428571Y-35752438D02*
X111571428Y-35704819D01*
X111571428Y-35704819D02*
X111666666Y-35704819D01*
X111666666Y-35704819D02*
X111809523Y-35752438D01*
X111809523Y-35752438D02*
X111857142Y-35800057D01*
X112809523Y-36704819D02*
X112238095Y-36704819D01*
X112523809Y-36704819D02*
X112523809Y-35704819D01*
X112523809Y-35704819D02*
X112428571Y-35847676D01*
X112428571Y-35847676D02*
X112333333Y-35942914D01*
X112333333Y-35942914D02*
X112238095Y-35990533D01*
X113428571Y-35704819D02*
X113523809Y-35704819D01*
X113523809Y-35704819D02*
X113619047Y-35752438D01*
X113619047Y-35752438D02*
X113666666Y-35800057D01*
X113666666Y-35800057D02*
X113714285Y-35895295D01*
X113714285Y-35895295D02*
X113761904Y-36085771D01*
X113761904Y-36085771D02*
X113761904Y-36323866D01*
X113761904Y-36323866D02*
X113714285Y-36514342D01*
X113714285Y-36514342D02*
X113666666Y-36609580D01*
X113666666Y-36609580D02*
X113619047Y-36657200D01*
X113619047Y-36657200D02*
X113523809Y-36704819D01*
X113523809Y-36704819D02*
X113428571Y-36704819D01*
X113428571Y-36704819D02*
X113333333Y-36657200D01*
X113333333Y-36657200D02*
X113285714Y-36609580D01*
X113285714Y-36609580D02*
X113238095Y-36514342D01*
X113238095Y-36514342D02*
X113190476Y-36323866D01*
X113190476Y-36323866D02*
X113190476Y-36085771D01*
X113190476Y-36085771D02*
X113238095Y-35895295D01*
X113238095Y-35895295D02*
X113285714Y-35800057D01*
X113285714Y-35800057D02*
X113333333Y-35752438D01*
X113333333Y-35752438D02*
X113428571Y-35704819D01*
X130238095Y-87304819D02*
X130238095Y-88114342D01*
X130238095Y-88114342D02*
X130285714Y-88209580D01*
X130285714Y-88209580D02*
X130333333Y-88257200D01*
X130333333Y-88257200D02*
X130428571Y-88304819D01*
X130428571Y-88304819D02*
X130619047Y-88304819D01*
X130619047Y-88304819D02*
X130714285Y-88257200D01*
X130714285Y-88257200D02*
X130761904Y-88209580D01*
X130761904Y-88209580D02*
X130809523Y-88114342D01*
X130809523Y-88114342D02*
X130809523Y-87304819D01*
X131428571Y-87733390D02*
X131333333Y-87685771D01*
X131333333Y-87685771D02*
X131285714Y-87638152D01*
X131285714Y-87638152D02*
X131238095Y-87542914D01*
X131238095Y-87542914D02*
X131238095Y-87495295D01*
X131238095Y-87495295D02*
X131285714Y-87400057D01*
X131285714Y-87400057D02*
X131333333Y-87352438D01*
X131333333Y-87352438D02*
X131428571Y-87304819D01*
X131428571Y-87304819D02*
X131619047Y-87304819D01*
X131619047Y-87304819D02*
X131714285Y-87352438D01*
X131714285Y-87352438D02*
X131761904Y-87400057D01*
X131761904Y-87400057D02*
X131809523Y-87495295D01*
X131809523Y-87495295D02*
X131809523Y-87542914D01*
X131809523Y-87542914D02*
X131761904Y-87638152D01*
X131761904Y-87638152D02*
X131714285Y-87685771D01*
X131714285Y-87685771D02*
X131619047Y-87733390D01*
X131619047Y-87733390D02*
X131428571Y-87733390D01*
X131428571Y-87733390D02*
X131333333Y-87781009D01*
X131333333Y-87781009D02*
X131285714Y-87828628D01*
X131285714Y-87828628D02*
X131238095Y-87923866D01*
X131238095Y-87923866D02*
X131238095Y-88114342D01*
X131238095Y-88114342D02*
X131285714Y-88209580D01*
X131285714Y-88209580D02*
X131333333Y-88257200D01*
X131333333Y-88257200D02*
X131428571Y-88304819D01*
X131428571Y-88304819D02*
X131619047Y-88304819D01*
X131619047Y-88304819D02*
X131714285Y-88257200D01*
X131714285Y-88257200D02*
X131761904Y-88209580D01*
X131761904Y-88209580D02*
X131809523Y-88114342D01*
X131809523Y-88114342D02*
X131809523Y-87923866D01*
X131809523Y-87923866D02*
X131761904Y-87828628D01*
X131761904Y-87828628D02*
X131714285Y-87781009D01*
X131714285Y-87781009D02*
X131619047Y-87733390D01*
X121309580Y-94492857D02*
X121357200Y-94540476D01*
X121357200Y-94540476D02*
X121404819Y-94683333D01*
X121404819Y-94683333D02*
X121404819Y-94778571D01*
X121404819Y-94778571D02*
X121357200Y-94921428D01*
X121357200Y-94921428D02*
X121261961Y-95016666D01*
X121261961Y-95016666D02*
X121166723Y-95064285D01*
X121166723Y-95064285D02*
X120976247Y-95111904D01*
X120976247Y-95111904D02*
X120833390Y-95111904D01*
X120833390Y-95111904D02*
X120642914Y-95064285D01*
X120642914Y-95064285D02*
X120547676Y-95016666D01*
X120547676Y-95016666D02*
X120452438Y-94921428D01*
X120452438Y-94921428D02*
X120404819Y-94778571D01*
X120404819Y-94778571D02*
X120404819Y-94683333D01*
X120404819Y-94683333D02*
X120452438Y-94540476D01*
X120452438Y-94540476D02*
X120500057Y-94492857D01*
X120500057Y-94111904D02*
X120452438Y-94064285D01*
X120452438Y-94064285D02*
X120404819Y-93969047D01*
X120404819Y-93969047D02*
X120404819Y-93730952D01*
X120404819Y-93730952D02*
X120452438Y-93635714D01*
X120452438Y-93635714D02*
X120500057Y-93588095D01*
X120500057Y-93588095D02*
X120595295Y-93540476D01*
X120595295Y-93540476D02*
X120690533Y-93540476D01*
X120690533Y-93540476D02*
X120833390Y-93588095D01*
X120833390Y-93588095D02*
X121404819Y-94159523D01*
X121404819Y-94159523D02*
X121404819Y-93540476D01*
X120404819Y-92683333D02*
X120404819Y-92873809D01*
X120404819Y-92873809D02*
X120452438Y-92969047D01*
X120452438Y-92969047D02*
X120500057Y-93016666D01*
X120500057Y-93016666D02*
X120642914Y-93111904D01*
X120642914Y-93111904D02*
X120833390Y-93159523D01*
X120833390Y-93159523D02*
X121214342Y-93159523D01*
X121214342Y-93159523D02*
X121309580Y-93111904D01*
X121309580Y-93111904D02*
X121357200Y-93064285D01*
X121357200Y-93064285D02*
X121404819Y-92969047D01*
X121404819Y-92969047D02*
X121404819Y-92778571D01*
X121404819Y-92778571D02*
X121357200Y-92683333D01*
X121357200Y-92683333D02*
X121309580Y-92635714D01*
X121309580Y-92635714D02*
X121214342Y-92588095D01*
X121214342Y-92588095D02*
X120976247Y-92588095D01*
X120976247Y-92588095D02*
X120881009Y-92635714D01*
X120881009Y-92635714D02*
X120833390Y-92683333D01*
X120833390Y-92683333D02*
X120785771Y-92778571D01*
X120785771Y-92778571D02*
X120785771Y-92969047D01*
X120785771Y-92969047D02*
X120833390Y-93064285D01*
X120833390Y-93064285D02*
X120881009Y-93111904D01*
X120881009Y-93111904D02*
X120976247Y-93159523D01*
X123761905Y-31704819D02*
X123761905Y-32514342D01*
X123761905Y-32514342D02*
X123809524Y-32609580D01*
X123809524Y-32609580D02*
X123857143Y-32657200D01*
X123857143Y-32657200D02*
X123952381Y-32704819D01*
X123952381Y-32704819D02*
X124142857Y-32704819D01*
X124142857Y-32704819D02*
X124238095Y-32657200D01*
X124238095Y-32657200D02*
X124285714Y-32609580D01*
X124285714Y-32609580D02*
X124333333Y-32514342D01*
X124333333Y-32514342D02*
X124333333Y-31704819D01*
X125333333Y-32704819D02*
X124761905Y-32704819D01*
X125047619Y-32704819D02*
X125047619Y-31704819D01*
X125047619Y-31704819D02*
X124952381Y-31847676D01*
X124952381Y-31847676D02*
X124857143Y-31942914D01*
X124857143Y-31942914D02*
X124761905Y-31990533D01*
X125952381Y-31704819D02*
X126047619Y-31704819D01*
X126047619Y-31704819D02*
X126142857Y-31752438D01*
X126142857Y-31752438D02*
X126190476Y-31800057D01*
X126190476Y-31800057D02*
X126238095Y-31895295D01*
X126238095Y-31895295D02*
X126285714Y-32085771D01*
X126285714Y-32085771D02*
X126285714Y-32323866D01*
X126285714Y-32323866D02*
X126238095Y-32514342D01*
X126238095Y-32514342D02*
X126190476Y-32609580D01*
X126190476Y-32609580D02*
X126142857Y-32657200D01*
X126142857Y-32657200D02*
X126047619Y-32704819D01*
X126047619Y-32704819D02*
X125952381Y-32704819D01*
X125952381Y-32704819D02*
X125857143Y-32657200D01*
X125857143Y-32657200D02*
X125809524Y-32609580D01*
X125809524Y-32609580D02*
X125761905Y-32514342D01*
X125761905Y-32514342D02*
X125714286Y-32323866D01*
X125714286Y-32323866D02*
X125714286Y-32085771D01*
X125714286Y-32085771D02*
X125761905Y-31895295D01*
X125761905Y-31895295D02*
X125809524Y-31800057D01*
X125809524Y-31800057D02*
X125857143Y-31752438D01*
X125857143Y-31752438D02*
X125952381Y-31704819D01*
X118700000Y-25354819D02*
X118700000Y-25592914D01*
X118461905Y-25497676D02*
X118700000Y-25592914D01*
X118700000Y-25592914D02*
X118938095Y-25497676D01*
X118557143Y-25783390D02*
X118700000Y-25592914D01*
X118700000Y-25592914D02*
X118842857Y-25783390D01*
X161857142Y-47359580D02*
X161809523Y-47407200D01*
X161809523Y-47407200D02*
X161666666Y-47454819D01*
X161666666Y-47454819D02*
X161571428Y-47454819D01*
X161571428Y-47454819D02*
X161428571Y-47407200D01*
X161428571Y-47407200D02*
X161333333Y-47311961D01*
X161333333Y-47311961D02*
X161285714Y-47216723D01*
X161285714Y-47216723D02*
X161238095Y-47026247D01*
X161238095Y-47026247D02*
X161238095Y-46883390D01*
X161238095Y-46883390D02*
X161285714Y-46692914D01*
X161285714Y-46692914D02*
X161333333Y-46597676D01*
X161333333Y-46597676D02*
X161428571Y-46502438D01*
X161428571Y-46502438D02*
X161571428Y-46454819D01*
X161571428Y-46454819D02*
X161666666Y-46454819D01*
X161666666Y-46454819D02*
X161809523Y-46502438D01*
X161809523Y-46502438D02*
X161857142Y-46550057D01*
X162238095Y-46550057D02*
X162285714Y-46502438D01*
X162285714Y-46502438D02*
X162380952Y-46454819D01*
X162380952Y-46454819D02*
X162619047Y-46454819D01*
X162619047Y-46454819D02*
X162714285Y-46502438D01*
X162714285Y-46502438D02*
X162761904Y-46550057D01*
X162761904Y-46550057D02*
X162809523Y-46645295D01*
X162809523Y-46645295D02*
X162809523Y-46740533D01*
X162809523Y-46740533D02*
X162761904Y-46883390D01*
X162761904Y-46883390D02*
X162190476Y-47454819D01*
X162190476Y-47454819D02*
X162809523Y-47454819D01*
X163190476Y-46550057D02*
X163238095Y-46502438D01*
X163238095Y-46502438D02*
X163333333Y-46454819D01*
X163333333Y-46454819D02*
X163571428Y-46454819D01*
X163571428Y-46454819D02*
X163666666Y-46502438D01*
X163666666Y-46502438D02*
X163714285Y-46550057D01*
X163714285Y-46550057D02*
X163761904Y-46645295D01*
X163761904Y-46645295D02*
X163761904Y-46740533D01*
X163761904Y-46740533D02*
X163714285Y-46883390D01*
X163714285Y-46883390D02*
X163142857Y-47454819D01*
X163142857Y-47454819D02*
X163761904Y-47454819D01*
X158892318Y-56988094D02*
X159701841Y-56988094D01*
X159701841Y-56988094D02*
X159797079Y-56940475D01*
X159797079Y-56940475D02*
X159844699Y-56892856D01*
X159844699Y-56892856D02*
X159892318Y-56797618D01*
X159892318Y-56797618D02*
X159892318Y-56607142D01*
X159892318Y-56607142D02*
X159844699Y-56511904D01*
X159844699Y-56511904D02*
X159797079Y-56464285D01*
X159797079Y-56464285D02*
X159701841Y-56416666D01*
X159701841Y-56416666D02*
X158892318Y-56416666D01*
X159892318Y-55416666D02*
X159892318Y-55988094D01*
X159892318Y-55702380D02*
X158892318Y-55702380D01*
X158892318Y-55702380D02*
X159035175Y-55797618D01*
X159035175Y-55797618D02*
X159130413Y-55892856D01*
X159130413Y-55892856D02*
X159178032Y-55988094D01*
X158892318Y-55083332D02*
X158892318Y-54464285D01*
X158892318Y-54464285D02*
X159273270Y-54797618D01*
X159273270Y-54797618D02*
X159273270Y-54654761D01*
X159273270Y-54654761D02*
X159320889Y-54559523D01*
X159320889Y-54559523D02*
X159368508Y-54511904D01*
X159368508Y-54511904D02*
X159463746Y-54464285D01*
X159463746Y-54464285D02*
X159701841Y-54464285D01*
X159701841Y-54464285D02*
X159797079Y-54511904D01*
X159797079Y-54511904D02*
X159844699Y-54559523D01*
X159844699Y-54559523D02*
X159892318Y-54654761D01*
X159892318Y-54654761D02*
X159892318Y-54940475D01*
X159892318Y-54940475D02*
X159844699Y-55035713D01*
X159844699Y-55035713D02*
X159797079Y-55083332D01*
X161900000Y-52254819D02*
X161900000Y-52492914D01*
X161661905Y-52397676D02*
X161900000Y-52492914D01*
X161900000Y-52492914D02*
X162138095Y-52397676D01*
X161757143Y-52683390D02*
X161900000Y-52492914D01*
X161900000Y-52492914D02*
X162042857Y-52683390D01*
X161900000Y-52254819D02*
X161900000Y-52492914D01*
X161661905Y-52397676D02*
X161900000Y-52492914D01*
X161900000Y-52492914D02*
X162138095Y-52397676D01*
X161757143Y-52683390D02*
X161900000Y-52492914D01*
X161900000Y-52492914D02*
X162042857Y-52683390D01*
X155857142Y-47454819D02*
X155523809Y-46978628D01*
X155285714Y-47454819D02*
X155285714Y-46454819D01*
X155285714Y-46454819D02*
X155666666Y-46454819D01*
X155666666Y-46454819D02*
X155761904Y-46502438D01*
X155761904Y-46502438D02*
X155809523Y-46550057D01*
X155809523Y-46550057D02*
X155857142Y-46645295D01*
X155857142Y-46645295D02*
X155857142Y-46788152D01*
X155857142Y-46788152D02*
X155809523Y-46883390D01*
X155809523Y-46883390D02*
X155761904Y-46931009D01*
X155761904Y-46931009D02*
X155666666Y-46978628D01*
X155666666Y-46978628D02*
X155285714Y-46978628D01*
X156809523Y-47454819D02*
X156238095Y-47454819D01*
X156523809Y-47454819D02*
X156523809Y-46454819D01*
X156523809Y-46454819D02*
X156428571Y-46597676D01*
X156428571Y-46597676D02*
X156333333Y-46692914D01*
X156333333Y-46692914D02*
X156238095Y-46740533D01*
X157666666Y-46454819D02*
X157476190Y-46454819D01*
X157476190Y-46454819D02*
X157380952Y-46502438D01*
X157380952Y-46502438D02*
X157333333Y-46550057D01*
X157333333Y-46550057D02*
X157238095Y-46692914D01*
X157238095Y-46692914D02*
X157190476Y-46883390D01*
X157190476Y-46883390D02*
X157190476Y-47264342D01*
X157190476Y-47264342D02*
X157238095Y-47359580D01*
X157238095Y-47359580D02*
X157285714Y-47407200D01*
X157285714Y-47407200D02*
X157380952Y-47454819D01*
X157380952Y-47454819D02*
X157571428Y-47454819D01*
X157571428Y-47454819D02*
X157666666Y-47407200D01*
X157666666Y-47407200D02*
X157714285Y-47359580D01*
X157714285Y-47359580D02*
X157761904Y-47264342D01*
X157761904Y-47264342D02*
X157761904Y-47026247D01*
X157761904Y-47026247D02*
X157714285Y-46931009D01*
X157714285Y-46931009D02*
X157666666Y-46883390D01*
X157666666Y-46883390D02*
X157571428Y-46835771D01*
X157571428Y-46835771D02*
X157380952Y-46835771D01*
X157380952Y-46835771D02*
X157285714Y-46883390D01*
X157285714Y-46883390D02*
X157238095Y-46931009D01*
X157238095Y-46931009D02*
X157190476Y-47026247D01*
X137753365Y-65359580D02*
X137705746Y-65407200D01*
X137705746Y-65407200D02*
X137562889Y-65454819D01*
X137562889Y-65454819D02*
X137467651Y-65454819D01*
X137467651Y-65454819D02*
X137324794Y-65407200D01*
X137324794Y-65407200D02*
X137229556Y-65311961D01*
X137229556Y-65311961D02*
X137181937Y-65216723D01*
X137181937Y-65216723D02*
X137134318Y-65026247D01*
X137134318Y-65026247D02*
X137134318Y-64883390D01*
X137134318Y-64883390D02*
X137181937Y-64692914D01*
X137181937Y-64692914D02*
X137229556Y-64597676D01*
X137229556Y-64597676D02*
X137324794Y-64502438D01*
X137324794Y-64502438D02*
X137467651Y-64454819D01*
X137467651Y-64454819D02*
X137562889Y-64454819D01*
X137562889Y-64454819D02*
X137705746Y-64502438D01*
X137705746Y-64502438D02*
X137753365Y-64550057D01*
X138086699Y-64454819D02*
X138753365Y-64454819D01*
X138753365Y-64454819D02*
X138324794Y-65454819D01*
X133833333Y-31204819D02*
X133357143Y-31204819D01*
X133357143Y-31204819D02*
X133357143Y-30204819D01*
X134690476Y-31204819D02*
X134119048Y-31204819D01*
X134404762Y-31204819D02*
X134404762Y-30204819D01*
X134404762Y-30204819D02*
X134309524Y-30347676D01*
X134309524Y-30347676D02*
X134214286Y-30442914D01*
X134214286Y-30442914D02*
X134119048Y-30490533D01*
X131807142Y-81804819D02*
X131473809Y-81328628D01*
X131235714Y-81804819D02*
X131235714Y-80804819D01*
X131235714Y-80804819D02*
X131616666Y-80804819D01*
X131616666Y-80804819D02*
X131711904Y-80852438D01*
X131711904Y-80852438D02*
X131759523Y-80900057D01*
X131759523Y-80900057D02*
X131807142Y-80995295D01*
X131807142Y-80995295D02*
X131807142Y-81138152D01*
X131807142Y-81138152D02*
X131759523Y-81233390D01*
X131759523Y-81233390D02*
X131711904Y-81281009D01*
X131711904Y-81281009D02*
X131616666Y-81328628D01*
X131616666Y-81328628D02*
X131235714Y-81328628D01*
X132759523Y-81804819D02*
X132188095Y-81804819D01*
X132473809Y-81804819D02*
X132473809Y-80804819D01*
X132473809Y-80804819D02*
X132378571Y-80947676D01*
X132378571Y-80947676D02*
X132283333Y-81042914D01*
X132283333Y-81042914D02*
X132188095Y-81090533D01*
X133711904Y-81804819D02*
X133140476Y-81804819D01*
X133426190Y-81804819D02*
X133426190Y-80804819D01*
X133426190Y-80804819D02*
X133330952Y-80947676D01*
X133330952Y-80947676D02*
X133235714Y-81042914D01*
X133235714Y-81042914D02*
X133140476Y-81090533D01*
X136738095Y-55452819D02*
X137309523Y-55452819D01*
X137023809Y-56452819D02*
X137023809Y-55452819D01*
X137642857Y-56452819D02*
X137642857Y-55452819D01*
X137642857Y-55452819D02*
X138023809Y-55452819D01*
X138023809Y-55452819D02*
X138119047Y-55500438D01*
X138119047Y-55500438D02*
X138166666Y-55548057D01*
X138166666Y-55548057D02*
X138214285Y-55643295D01*
X138214285Y-55643295D02*
X138214285Y-55786152D01*
X138214285Y-55786152D02*
X138166666Y-55881390D01*
X138166666Y-55881390D02*
X138119047Y-55929009D01*
X138119047Y-55929009D02*
X138023809Y-55976628D01*
X138023809Y-55976628D02*
X137642857Y-55976628D01*
X138595238Y-55548057D02*
X138642857Y-55500438D01*
X138642857Y-55500438D02*
X138738095Y-55452819D01*
X138738095Y-55452819D02*
X138976190Y-55452819D01*
X138976190Y-55452819D02*
X139071428Y-55500438D01*
X139071428Y-55500438D02*
X139119047Y-55548057D01*
X139119047Y-55548057D02*
X139166666Y-55643295D01*
X139166666Y-55643295D02*
X139166666Y-55738533D01*
X139166666Y-55738533D02*
X139119047Y-55881390D01*
X139119047Y-55881390D02*
X138547619Y-56452819D01*
X138547619Y-56452819D02*
X139166666Y-56452819D01*
X127976265Y-94987207D02*
X128023885Y-95034826D01*
X128023885Y-95034826D02*
X128071504Y-95177683D01*
X128071504Y-95177683D02*
X128071504Y-95272921D01*
X128071504Y-95272921D02*
X128023885Y-95415778D01*
X128023885Y-95415778D02*
X127928646Y-95511016D01*
X127928646Y-95511016D02*
X127833408Y-95558635D01*
X127833408Y-95558635D02*
X127642932Y-95606254D01*
X127642932Y-95606254D02*
X127500075Y-95606254D01*
X127500075Y-95606254D02*
X127309599Y-95558635D01*
X127309599Y-95558635D02*
X127214361Y-95511016D01*
X127214361Y-95511016D02*
X127119123Y-95415778D01*
X127119123Y-95415778D02*
X127071504Y-95272921D01*
X127071504Y-95272921D02*
X127071504Y-95177683D01*
X127071504Y-95177683D02*
X127119123Y-95034826D01*
X127119123Y-95034826D02*
X127166742Y-94987207D01*
X127166742Y-94606254D02*
X127119123Y-94558635D01*
X127119123Y-94558635D02*
X127071504Y-94463397D01*
X127071504Y-94463397D02*
X127071504Y-94225302D01*
X127071504Y-94225302D02*
X127119123Y-94130064D01*
X127119123Y-94130064D02*
X127166742Y-94082445D01*
X127166742Y-94082445D02*
X127261980Y-94034826D01*
X127261980Y-94034826D02*
X127357218Y-94034826D01*
X127357218Y-94034826D02*
X127500075Y-94082445D01*
X127500075Y-94082445D02*
X128071504Y-94653873D01*
X128071504Y-94653873D02*
X128071504Y-94034826D01*
X127071504Y-93415778D02*
X127071504Y-93320540D01*
X127071504Y-93320540D02*
X127119123Y-93225302D01*
X127119123Y-93225302D02*
X127166742Y-93177683D01*
X127166742Y-93177683D02*
X127261980Y-93130064D01*
X127261980Y-93130064D02*
X127452456Y-93082445D01*
X127452456Y-93082445D02*
X127690551Y-93082445D01*
X127690551Y-93082445D02*
X127881027Y-93130064D01*
X127881027Y-93130064D02*
X127976265Y-93177683D01*
X127976265Y-93177683D02*
X128023885Y-93225302D01*
X128023885Y-93225302D02*
X128071504Y-93320540D01*
X128071504Y-93320540D02*
X128071504Y-93415778D01*
X128071504Y-93415778D02*
X128023885Y-93511016D01*
X128023885Y-93511016D02*
X127976265Y-93558635D01*
X127976265Y-93558635D02*
X127881027Y-93606254D01*
X127881027Y-93606254D02*
X127690551Y-93653873D01*
X127690551Y-93653873D02*
X127452456Y-93653873D01*
X127452456Y-93653873D02*
X127261980Y-93606254D01*
X127261980Y-93606254D02*
X127166742Y-93558635D01*
X127166742Y-93558635D02*
X127119123Y-93511016D01*
X127119123Y-93511016D02*
X127071504Y-93415778D01*
X116333333Y-69109580D02*
X116285714Y-69157200D01*
X116285714Y-69157200D02*
X116142857Y-69204819D01*
X116142857Y-69204819D02*
X116047619Y-69204819D01*
X116047619Y-69204819D02*
X115904762Y-69157200D01*
X115904762Y-69157200D02*
X115809524Y-69061961D01*
X115809524Y-69061961D02*
X115761905Y-68966723D01*
X115761905Y-68966723D02*
X115714286Y-68776247D01*
X115714286Y-68776247D02*
X115714286Y-68633390D01*
X115714286Y-68633390D02*
X115761905Y-68442914D01*
X115761905Y-68442914D02*
X115809524Y-68347676D01*
X115809524Y-68347676D02*
X115904762Y-68252438D01*
X115904762Y-68252438D02*
X116047619Y-68204819D01*
X116047619Y-68204819D02*
X116142857Y-68204819D01*
X116142857Y-68204819D02*
X116285714Y-68252438D01*
X116285714Y-68252438D02*
X116333333Y-68300057D01*
X117190476Y-68204819D02*
X117000000Y-68204819D01*
X117000000Y-68204819D02*
X116904762Y-68252438D01*
X116904762Y-68252438D02*
X116857143Y-68300057D01*
X116857143Y-68300057D02*
X116761905Y-68442914D01*
X116761905Y-68442914D02*
X116714286Y-68633390D01*
X116714286Y-68633390D02*
X116714286Y-69014342D01*
X116714286Y-69014342D02*
X116761905Y-69109580D01*
X116761905Y-69109580D02*
X116809524Y-69157200D01*
X116809524Y-69157200D02*
X116904762Y-69204819D01*
X116904762Y-69204819D02*
X117095238Y-69204819D01*
X117095238Y-69204819D02*
X117190476Y-69157200D01*
X117190476Y-69157200D02*
X117238095Y-69109580D01*
X117238095Y-69109580D02*
X117285714Y-69014342D01*
X117285714Y-69014342D02*
X117285714Y-68776247D01*
X117285714Y-68776247D02*
X117238095Y-68681009D01*
X117238095Y-68681009D02*
X117190476Y-68633390D01*
X117190476Y-68633390D02*
X117095238Y-68585771D01*
X117095238Y-68585771D02*
X116904762Y-68585771D01*
X116904762Y-68585771D02*
X116809524Y-68633390D01*
X116809524Y-68633390D02*
X116761905Y-68681009D01*
X116761905Y-68681009D02*
X116714286Y-68776247D01*
X156643419Y-92695557D02*
X156167228Y-93028890D01*
X156643419Y-93266985D02*
X155643419Y-93266985D01*
X155643419Y-93266985D02*
X155643419Y-92886033D01*
X155643419Y-92886033D02*
X155691038Y-92790795D01*
X155691038Y-92790795D02*
X155738657Y-92743176D01*
X155738657Y-92743176D02*
X155833895Y-92695557D01*
X155833895Y-92695557D02*
X155976752Y-92695557D01*
X155976752Y-92695557D02*
X156071990Y-92743176D01*
X156071990Y-92743176D02*
X156119609Y-92790795D01*
X156119609Y-92790795D02*
X156167228Y-92886033D01*
X156167228Y-92886033D02*
X156167228Y-93266985D01*
X156643419Y-91743176D02*
X156643419Y-92314604D01*
X156643419Y-92028890D02*
X155643419Y-92028890D01*
X155643419Y-92028890D02*
X155786276Y-92124128D01*
X155786276Y-92124128D02*
X155881514Y-92219366D01*
X155881514Y-92219366D02*
X155929133Y-92314604D01*
X155643419Y-90838414D02*
X155643419Y-91314604D01*
X155643419Y-91314604D02*
X156119609Y-91362223D01*
X156119609Y-91362223D02*
X156071990Y-91314604D01*
X156071990Y-91314604D02*
X156024371Y-91219366D01*
X156024371Y-91219366D02*
X156024371Y-90981271D01*
X156024371Y-90981271D02*
X156071990Y-90886033D01*
X156071990Y-90886033D02*
X156119609Y-90838414D01*
X156119609Y-90838414D02*
X156214847Y-90790795D01*
X156214847Y-90790795D02*
X156452942Y-90790795D01*
X156452942Y-90790795D02*
X156548180Y-90838414D01*
X156548180Y-90838414D02*
X156595800Y-90886033D01*
X156595800Y-90886033D02*
X156643419Y-90981271D01*
X156643419Y-90981271D02*
X156643419Y-91219366D01*
X156643419Y-91219366D02*
X156595800Y-91314604D01*
X156595800Y-91314604D02*
X156548180Y-91362223D01*
X133261905Y-47454819D02*
X133261905Y-48264342D01*
X133261905Y-48264342D02*
X133309524Y-48359580D01*
X133309524Y-48359580D02*
X133357143Y-48407200D01*
X133357143Y-48407200D02*
X133452381Y-48454819D01*
X133452381Y-48454819D02*
X133642857Y-48454819D01*
X133642857Y-48454819D02*
X133738095Y-48407200D01*
X133738095Y-48407200D02*
X133785714Y-48359580D01*
X133785714Y-48359580D02*
X133833333Y-48264342D01*
X133833333Y-48264342D02*
X133833333Y-47454819D01*
X134833333Y-48454819D02*
X134261905Y-48454819D01*
X134547619Y-48454819D02*
X134547619Y-47454819D01*
X134547619Y-47454819D02*
X134452381Y-47597676D01*
X134452381Y-47597676D02*
X134357143Y-47692914D01*
X134357143Y-47692914D02*
X134261905Y-47740533D01*
X135214286Y-47550057D02*
X135261905Y-47502438D01*
X135261905Y-47502438D02*
X135357143Y-47454819D01*
X135357143Y-47454819D02*
X135595238Y-47454819D01*
X135595238Y-47454819D02*
X135690476Y-47502438D01*
X135690476Y-47502438D02*
X135738095Y-47550057D01*
X135738095Y-47550057D02*
X135785714Y-47645295D01*
X135785714Y-47645295D02*
X135785714Y-47740533D01*
X135785714Y-47740533D02*
X135738095Y-47883390D01*
X135738095Y-47883390D02*
X135166667Y-48454819D01*
X135166667Y-48454819D02*
X135785714Y-48454819D01*
X148772207Y-38644318D02*
X148772207Y-39453841D01*
X148772207Y-39453841D02*
X148819826Y-39549079D01*
X148819826Y-39549079D02*
X148867445Y-39596699D01*
X148867445Y-39596699D02*
X148962683Y-39644318D01*
X148962683Y-39644318D02*
X149153159Y-39644318D01*
X149153159Y-39644318D02*
X149248397Y-39596699D01*
X149248397Y-39596699D02*
X149296016Y-39549079D01*
X149296016Y-39549079D02*
X149343635Y-39453841D01*
X149343635Y-39453841D02*
X149343635Y-38644318D01*
X150343635Y-39644318D02*
X149772207Y-39644318D01*
X150057921Y-39644318D02*
X150057921Y-38644318D01*
X150057921Y-38644318D02*
X149962683Y-38787175D01*
X149962683Y-38787175D02*
X149867445Y-38882413D01*
X149867445Y-38882413D02*
X149772207Y-38930032D01*
X151296016Y-39644318D02*
X150724588Y-39644318D01*
X151010302Y-39644318D02*
X151010302Y-38644318D01*
X151010302Y-38644318D02*
X150915064Y-38787175D01*
X150915064Y-38787175D02*
X150819826Y-38882413D01*
X150819826Y-38882413D02*
X150724588Y-38930032D01*
X151500000Y-37454819D02*
X151500000Y-37692914D01*
X151261905Y-37597676D02*
X151500000Y-37692914D01*
X151500000Y-37692914D02*
X151738095Y-37597676D01*
X151357143Y-37883390D02*
X151500000Y-37692914D01*
X151500000Y-37692914D02*
X151642857Y-37883390D01*
X151500000Y-37454819D02*
X151500000Y-37692914D01*
X151261905Y-37597676D02*
X151500000Y-37692914D01*
X151500000Y-37692914D02*
X151738095Y-37597676D01*
X151357143Y-37883390D02*
X151500000Y-37692914D01*
X151500000Y-37692914D02*
X151642857Y-37883390D01*
X103666666Y-40054819D02*
X103666666Y-40769104D01*
X103666666Y-40769104D02*
X103619047Y-40911961D01*
X103619047Y-40911961D02*
X103523809Y-41007200D01*
X103523809Y-41007200D02*
X103380952Y-41054819D01*
X103380952Y-41054819D02*
X103285714Y-41054819D01*
X104047619Y-40054819D02*
X104666666Y-40054819D01*
X104666666Y-40054819D02*
X104333333Y-40435771D01*
X104333333Y-40435771D02*
X104476190Y-40435771D01*
X104476190Y-40435771D02*
X104571428Y-40483390D01*
X104571428Y-40483390D02*
X104619047Y-40531009D01*
X104619047Y-40531009D02*
X104666666Y-40626247D01*
X104666666Y-40626247D02*
X104666666Y-40864342D01*
X104666666Y-40864342D02*
X104619047Y-40959580D01*
X104619047Y-40959580D02*
X104571428Y-41007200D01*
X104571428Y-41007200D02*
X104476190Y-41054819D01*
X104476190Y-41054819D02*
X104190476Y-41054819D01*
X104190476Y-41054819D02*
X104095238Y-41007200D01*
X104095238Y-41007200D02*
X104047619Y-40959580D01*
X149309580Y-92992857D02*
X149357200Y-93040476D01*
X149357200Y-93040476D02*
X149404819Y-93183333D01*
X149404819Y-93183333D02*
X149404819Y-93278571D01*
X149404819Y-93278571D02*
X149357200Y-93421428D01*
X149357200Y-93421428D02*
X149261961Y-93516666D01*
X149261961Y-93516666D02*
X149166723Y-93564285D01*
X149166723Y-93564285D02*
X148976247Y-93611904D01*
X148976247Y-93611904D02*
X148833390Y-93611904D01*
X148833390Y-93611904D02*
X148642914Y-93564285D01*
X148642914Y-93564285D02*
X148547676Y-93516666D01*
X148547676Y-93516666D02*
X148452438Y-93421428D01*
X148452438Y-93421428D02*
X148404819Y-93278571D01*
X148404819Y-93278571D02*
X148404819Y-93183333D01*
X148404819Y-93183333D02*
X148452438Y-93040476D01*
X148452438Y-93040476D02*
X148500057Y-92992857D01*
X148500057Y-92611904D02*
X148452438Y-92564285D01*
X148452438Y-92564285D02*
X148404819Y-92469047D01*
X148404819Y-92469047D02*
X148404819Y-92230952D01*
X148404819Y-92230952D02*
X148452438Y-92135714D01*
X148452438Y-92135714D02*
X148500057Y-92088095D01*
X148500057Y-92088095D02*
X148595295Y-92040476D01*
X148595295Y-92040476D02*
X148690533Y-92040476D01*
X148690533Y-92040476D02*
X148833390Y-92088095D01*
X148833390Y-92088095D02*
X149404819Y-92659523D01*
X149404819Y-92659523D02*
X149404819Y-92040476D01*
X148404819Y-91135714D02*
X148404819Y-91611904D01*
X148404819Y-91611904D02*
X148881009Y-91659523D01*
X148881009Y-91659523D02*
X148833390Y-91611904D01*
X148833390Y-91611904D02*
X148785771Y-91516666D01*
X148785771Y-91516666D02*
X148785771Y-91278571D01*
X148785771Y-91278571D02*
X148833390Y-91183333D01*
X148833390Y-91183333D02*
X148881009Y-91135714D01*
X148881009Y-91135714D02*
X148976247Y-91088095D01*
X148976247Y-91088095D02*
X149214342Y-91088095D01*
X149214342Y-91088095D02*
X149309580Y-91135714D01*
X149309580Y-91135714D02*
X149357200Y-91183333D01*
X149357200Y-91183333D02*
X149404819Y-91278571D01*
X149404819Y-91278571D02*
X149404819Y-91516666D01*
X149404819Y-91516666D02*
X149357200Y-91611904D01*
X149357200Y-91611904D02*
X149309580Y-91659523D01*
X149104819Y-87141666D02*
X148628628Y-87474999D01*
X149104819Y-87713094D02*
X148104819Y-87713094D01*
X148104819Y-87713094D02*
X148104819Y-87332142D01*
X148104819Y-87332142D02*
X148152438Y-87236904D01*
X148152438Y-87236904D02*
X148200057Y-87189285D01*
X148200057Y-87189285D02*
X148295295Y-87141666D01*
X148295295Y-87141666D02*
X148438152Y-87141666D01*
X148438152Y-87141666D02*
X148533390Y-87189285D01*
X148533390Y-87189285D02*
X148581009Y-87236904D01*
X148581009Y-87236904D02*
X148628628Y-87332142D01*
X148628628Y-87332142D02*
X148628628Y-87713094D01*
X149104819Y-86189285D02*
X149104819Y-86760713D01*
X149104819Y-86474999D02*
X148104819Y-86474999D01*
X148104819Y-86474999D02*
X148247676Y-86570237D01*
X148247676Y-86570237D02*
X148342914Y-86665475D01*
X148342914Y-86665475D02*
X148390533Y-86760713D01*
X83916666Y-93254819D02*
X83583333Y-92778628D01*
X83345238Y-93254819D02*
X83345238Y-92254819D01*
X83345238Y-92254819D02*
X83726190Y-92254819D01*
X83726190Y-92254819D02*
X83821428Y-92302438D01*
X83821428Y-92302438D02*
X83869047Y-92350057D01*
X83869047Y-92350057D02*
X83916666Y-92445295D01*
X83916666Y-92445295D02*
X83916666Y-92588152D01*
X83916666Y-92588152D02*
X83869047Y-92683390D01*
X83869047Y-92683390D02*
X83821428Y-92731009D01*
X83821428Y-92731009D02*
X83726190Y-92778628D01*
X83726190Y-92778628D02*
X83345238Y-92778628D01*
X84345238Y-92731009D02*
X84678571Y-92731009D01*
X84821428Y-93254819D02*
X84345238Y-93254819D01*
X84345238Y-93254819D02*
X84345238Y-92254819D01*
X84345238Y-92254819D02*
X84821428Y-92254819D01*
X85583333Y-92731009D02*
X85250000Y-92731009D01*
X85250000Y-93254819D02*
X85250000Y-92254819D01*
X85250000Y-92254819D02*
X85726190Y-92254819D01*
X86250000Y-92254819D02*
X86250000Y-92492914D01*
X86011905Y-92397676D02*
X86250000Y-92492914D01*
X86250000Y-92492914D02*
X86488095Y-92397676D01*
X86107143Y-92683390D02*
X86250000Y-92492914D01*
X86250000Y-92492914D02*
X86392857Y-92683390D01*
X87011905Y-92254819D02*
X87011905Y-92492914D01*
X86773810Y-92397676D02*
X87011905Y-92492914D01*
X87011905Y-92492914D02*
X87250000Y-92397676D01*
X86869048Y-92683390D02*
X87011905Y-92492914D01*
X87011905Y-92492914D02*
X87154762Y-92683390D01*
X163416666Y-93254819D02*
X163083333Y-92778628D01*
X162845238Y-93254819D02*
X162845238Y-92254819D01*
X162845238Y-92254819D02*
X163226190Y-92254819D01*
X163226190Y-92254819D02*
X163321428Y-92302438D01*
X163321428Y-92302438D02*
X163369047Y-92350057D01*
X163369047Y-92350057D02*
X163416666Y-92445295D01*
X163416666Y-92445295D02*
X163416666Y-92588152D01*
X163416666Y-92588152D02*
X163369047Y-92683390D01*
X163369047Y-92683390D02*
X163321428Y-92731009D01*
X163321428Y-92731009D02*
X163226190Y-92778628D01*
X163226190Y-92778628D02*
X162845238Y-92778628D01*
X163845238Y-92731009D02*
X164178571Y-92731009D01*
X164321428Y-93254819D02*
X163845238Y-93254819D01*
X163845238Y-93254819D02*
X163845238Y-92254819D01*
X163845238Y-92254819D02*
X164321428Y-92254819D01*
X165083333Y-92731009D02*
X164750000Y-92731009D01*
X164750000Y-93254819D02*
X164750000Y-92254819D01*
X164750000Y-92254819D02*
X165226190Y-92254819D01*
X165750000Y-92254819D02*
X165750000Y-92492914D01*
X165511905Y-92397676D02*
X165750000Y-92492914D01*
X165750000Y-92492914D02*
X165988095Y-92397676D01*
X165607143Y-92683390D02*
X165750000Y-92492914D01*
X165750000Y-92492914D02*
X165892857Y-92683390D01*
X166511905Y-92254819D02*
X166511905Y-92492914D01*
X166273810Y-92397676D02*
X166511905Y-92492914D01*
X166511905Y-92492914D02*
X166750000Y-92397676D01*
X166369048Y-92683390D02*
X166511905Y-92492914D01*
X166511905Y-92492914D02*
X166654762Y-92683390D01*
D11*
%TO.C,SW1*%
X92224301Y-89833000D02*
X109775701Y-89774100D01*
X92224301Y-92042195D02*
X92224301Y-89833000D01*
X92224301Y-97825900D02*
X92224301Y-95557805D01*
X109775701Y-89774100D02*
X109775701Y-92042217D01*
X109775701Y-95557783D02*
X109775701Y-97825900D01*
X109775701Y-97825900D02*
X92224301Y-97825900D01*
%TO.C,J2*%
X82262200Y-34085100D02*
X82262200Y-43914900D01*
X82262200Y-43914900D02*
X83998426Y-43914900D01*
X83998426Y-34085100D02*
X82262200Y-34085100D01*
X85963174Y-43914900D02*
X88026026Y-43914900D01*
X88026026Y-34085100D02*
X85963174Y-34085100D01*
D12*
X90116800Y-32307100D02*
G75*
G02*
X89354800Y-32307100I-381000J0D01*
G01*
X89354800Y-32307100D02*
G75*
G02*
X90116800Y-32307100I381000J0D01*
G01*
D13*
%TO.C,R12*%
X127272936Y-78265000D02*
X127727064Y-78265000D01*
X127272936Y-79735000D02*
X127727064Y-79735000D01*
%TO.C,D3*%
X129610000Y-82150000D02*
X126950000Y-82150000D01*
X129610000Y-83850000D02*
X126950000Y-83850000D01*
X129610000Y-83850000D02*
X129610000Y-82150000D01*
%TO.C,C24*%
X154511252Y-52765000D02*
X153988748Y-52765000D01*
X154511252Y-54235000D02*
X153988748Y-54235000D01*
%TO.C,R17*%
X150265000Y-44727064D02*
X150265000Y-44272936D01*
X151735000Y-44727064D02*
X151735000Y-44272936D01*
%TO.C,R9*%
X115772936Y-25515000D02*
X116227064Y-25515000D01*
X115772936Y-26985000D02*
X116227064Y-26985000D01*
%TO.C,Q2*%
X115990000Y-87802500D02*
X116990000Y-87802500D01*
X115990000Y-89322500D02*
X115990000Y-87802500D01*
X116040000Y-89322500D02*
X115990000Y-89322500D01*
X117940000Y-89322500D02*
X117160000Y-89322500D01*
X118110000Y-87802500D02*
X119110000Y-87802500D01*
X119110000Y-87802500D02*
X119110000Y-89322500D01*
X119110000Y-89322500D02*
X119060000Y-89322500D01*
X117500000Y-90102500D02*
X117170000Y-89862500D01*
X117500000Y-89622500D01*
X117500000Y-90102500D01*
G36*
X117500000Y-90102500D02*
G01*
X117170000Y-89862500D01*
X117500000Y-89622500D01*
X117500000Y-90102500D01*
G37*
%TO.C,R21*%
X158515000Y-62977064D02*
X158515000Y-62522936D01*
X159985000Y-62977064D02*
X159985000Y-62522936D01*
%TO.C,C19*%
X136261252Y-82265000D02*
X135738748Y-82265000D01*
X136261252Y-83735000D02*
X135738748Y-83735000D01*
D11*
%TO.C,U2*%
X84995000Y-50075500D02*
X84995000Y-82612900D01*
X84995000Y-82612900D02*
X90377260Y-82612900D01*
X90377260Y-50075500D02*
X84995000Y-50075500D01*
X96122740Y-82612900D02*
X101505000Y-82612900D01*
X101505000Y-50075500D02*
X96122740Y-50075500D01*
X101505000Y-82612900D02*
X101505000Y-50075500D01*
D12*
X93491554Y-84685540D02*
G75*
G02*
X93008446Y-84685540I-241554J294640D01*
G01*
D13*
%TO.C,R14*%
X132272936Y-78265000D02*
X132727064Y-78265000D01*
X132272936Y-79735000D02*
X132727064Y-79735000D01*
%TO.C,R8*%
X118765000Y-65772936D02*
X118765000Y-66227064D01*
X120235000Y-65772936D02*
X120235000Y-66227064D01*
%TO.C,R22*%
X155515000Y-62977064D02*
X155515000Y-62522936D01*
X156985000Y-62977064D02*
X156985000Y-62522936D01*
%TO.C,TP3*%
X115700000Y-58000000D02*
G75*
G02*
X114300000Y-58000000I-700000J0D01*
G01*
X114300000Y-58000000D02*
G75*
G02*
X115700000Y-58000000I700000J0D01*
G01*
%TO.C,C11*%
X116261252Y-33015000D02*
X115738748Y-33015000D01*
X116261252Y-34485000D02*
X115738748Y-34485000D01*
%TO.C,C5*%
X125090000Y-93163748D02*
X125090000Y-94586252D01*
X126910000Y-93163748D02*
X126910000Y-94586252D01*
%TO.C,C27*%
X149590000Y-91701248D02*
X149590000Y-93123752D01*
X151410000Y-91701248D02*
X151410000Y-93123752D01*
%TO.C,TP4*%
X115700000Y-63000000D02*
G75*
G02*
X114300000Y-63000000I-700000J0D01*
G01*
X114300000Y-63000000D02*
G75*
G02*
X115700000Y-63000000I700000J0D01*
G01*
%TO.C,C23*%
X158765000Y-50011252D02*
X158765000Y-49488748D01*
X160235000Y-50011252D02*
X160235000Y-49488748D01*
%TO.C,C12*%
X138738748Y-31765000D02*
X139261252Y-31765000D01*
X138738748Y-33235000D02*
X139261252Y-33235000D01*
%TO.C,R18*%
X153515000Y-44727064D02*
X153515000Y-44272936D01*
X154985000Y-44727064D02*
X154985000Y-44272936D01*
%TO.C,C13*%
X138738748Y-35265000D02*
X139261252Y-35265000D01*
X138738748Y-36735000D02*
X139261252Y-36735000D01*
%TO.C,C18*%
X124765000Y-86201248D02*
X124765000Y-86723752D01*
X126235000Y-86201248D02*
X126235000Y-86723752D01*
%TO.C,C21*%
X132151248Y-75115000D02*
X132673752Y-75115000D01*
X132151248Y-76585000D02*
X132673752Y-76585000D01*
%TO.C,D1*%
X146040000Y-81090000D02*
X146040000Y-83950000D01*
X147960000Y-81090000D02*
X146040000Y-81090000D01*
X147960000Y-83950000D02*
X147960000Y-81090000D01*
%TO.C,R10*%
X128810436Y-85340000D02*
X129264564Y-85340000D01*
X128810436Y-86810000D02*
X129264564Y-86810000D01*
%TO.C,R23*%
X152515000Y-56522936D02*
X152515000Y-56977064D01*
X153985000Y-56522936D02*
X153985000Y-56977064D01*
%TO.C,C9*%
X123238748Y-41265000D02*
X123761252Y-41265000D01*
X123238748Y-42735000D02*
X123761252Y-42735000D01*
%TO.C,D2*%
X121712500Y-89947500D02*
X121712500Y-86687500D01*
X121712500Y-89947500D02*
X123412500Y-89947500D01*
X123412500Y-89947500D02*
X123412500Y-86687500D01*
%TO.C,C14*%
X116265000Y-29738748D02*
X116265000Y-30261252D01*
X117735000Y-29738748D02*
X117735000Y-30261252D01*
%TO.C,R7*%
X95772936Y-40265000D02*
X96227064Y-40265000D01*
X95772936Y-41735000D02*
X96227064Y-41735000D01*
%TO.C,C17*%
X131765000Y-94723752D02*
X131765000Y-94201248D01*
X133235000Y-94723752D02*
X133235000Y-94201248D01*
%TO.C,C16*%
X155265000Y-35223752D02*
X155265000Y-34701248D01*
X156735000Y-35223752D02*
X156735000Y-34701248D01*
%TO.C,C15*%
X152265000Y-35223752D02*
X152265000Y-34701248D01*
X153735000Y-35223752D02*
X153735000Y-34701248D01*
%TO.C,R20*%
X163022936Y-59765000D02*
X163477064Y-59765000D01*
X163022936Y-61235000D02*
X163477064Y-61235000D01*
%TO.C,R6*%
X95772936Y-35265000D02*
X96227064Y-35265000D01*
X95772936Y-36735000D02*
X96227064Y-36735000D01*
%TO.C,TP1*%
X136200000Y-58500000D02*
G75*
G02*
X134800000Y-58500000I-700000J0D01*
G01*
X134800000Y-58500000D02*
G75*
G02*
X136200000Y-58500000I700000J0D01*
G01*
%TO.C,R13*%
X127272936Y-75190000D02*
X127727064Y-75190000D01*
X127272936Y-76660000D02*
X127727064Y-76660000D01*
%TO.C,J1*%
X153120000Y-84505000D02*
X153120000Y-81855000D01*
X155880000Y-81855000D02*
X153120000Y-81855000D01*
X155880000Y-84505000D02*
X153120000Y-84505000D01*
X155880000Y-84505000D02*
X155880000Y-81855000D01*
X155880000Y-85775000D02*
X155880000Y-87155000D01*
X155880000Y-87155000D02*
X154500000Y-87155000D01*
D11*
%TO.C,L4*%
X134216800Y-88294900D02*
X134216800Y-88863860D01*
X134216800Y-93136140D02*
X134216800Y-93705100D01*
X134216800Y-93705100D02*
X136794900Y-96283200D01*
X136794900Y-85716800D02*
X134216800Y-88294900D01*
X136794900Y-96283200D02*
X142205100Y-96283200D01*
X142205100Y-85716800D02*
X136794900Y-85716800D01*
X142205100Y-96283200D02*
X144783200Y-93705100D01*
X144783200Y-88294900D02*
X142205100Y-85716800D01*
X144783200Y-88863860D02*
X144783200Y-88294900D01*
X144783200Y-93705100D02*
X144783200Y-93136140D01*
D13*
%TO.C,C8*%
X134685032Y-61988748D02*
X134685032Y-62511252D01*
X136155032Y-61988748D02*
X136155032Y-62511252D01*
D11*
%TO.C,U1*%
X124373000Y-65623000D02*
X124373000Y-65817260D01*
X124373000Y-68182740D02*
X124373000Y-68377000D01*
X124373000Y-68377000D02*
X127627000Y-68377000D01*
X127627000Y-65623000D02*
X124373000Y-65623000D01*
X127627000Y-65817260D02*
X127627000Y-65623000D01*
X127627000Y-68377000D02*
X127627000Y-68182740D01*
X129608200Y-67000000D02*
G75*
G02*
X129201800Y-67000000I-203200J0D01*
G01*
X129201800Y-67000000D02*
G75*
G02*
X129608200Y-67000000I203200J0D01*
G01*
D13*
%TO.C,L3*%
X133339758Y-25690000D02*
X134160242Y-25690000D01*
X133339758Y-26810000D02*
X134160242Y-26810000D01*
%TO.C,U7*%
X116452500Y-92490000D02*
X118272500Y-92490000D01*
X116452500Y-92540000D02*
X116452500Y-92490000D01*
X116452500Y-95610000D02*
X116452500Y-95560000D01*
X118272500Y-92490000D02*
X118272500Y-92540000D01*
X118272500Y-95560000D02*
X118272500Y-95610000D01*
X118272500Y-95610000D02*
X116452500Y-95610000D01*
X115912500Y-92540000D02*
X115672500Y-92210000D01*
X116152500Y-92210000D01*
X115912500Y-92540000D01*
G36*
X115912500Y-92540000D02*
G01*
X115672500Y-92210000D01*
X116152500Y-92210000D01*
X115912500Y-92540000D01*
G37*
%TO.C,L2*%
X133589758Y-35440000D02*
X134410242Y-35440000D01*
X133589758Y-36560000D02*
X134410242Y-36560000D01*
%TO.C,C10*%
X116261252Y-35515000D02*
X115738748Y-35515000D01*
X116261252Y-36985000D02*
X115738748Y-36985000D01*
%TO.C,U8*%
X130114999Y-88840000D02*
X131934999Y-88840000D01*
X130114999Y-88915000D02*
X130114999Y-88840000D01*
X130114999Y-91960000D02*
X130114999Y-91885000D01*
X131934999Y-88840000D02*
X131934999Y-88915000D01*
X131934999Y-91885000D02*
X131934999Y-91960000D01*
X131934999Y-91960000D02*
X130114999Y-91960000D01*
X132714999Y-92220000D02*
X132234999Y-92220000D01*
X132474999Y-91890000D01*
X132714999Y-92220000D01*
G36*
X132714999Y-92220000D02*
G01*
X132234999Y-92220000D01*
X132474999Y-91890000D01*
X132714999Y-92220000D01*
G37*
%TO.C,C26*%
X121652500Y-93226248D02*
X121652500Y-94648752D01*
X123472500Y-93226248D02*
X123472500Y-94648752D01*
D11*
%TO.C,U10*%
X120123200Y-25222999D02*
X129876800Y-25222999D01*
X120123200Y-39277001D02*
X120123200Y-37644342D01*
X121561660Y-39277001D02*
X120123200Y-39277001D01*
X129876800Y-37644339D02*
X129876800Y-39277001D01*
X129876800Y-39277001D02*
X128438340Y-39277001D01*
D13*
%TO.C,C22*%
X161515000Y-50011252D02*
X161515000Y-49488748D01*
X162985000Y-50011252D02*
X162985000Y-49488748D01*
D11*
%TO.C,U13*%
X157405499Y-58480500D02*
X158252170Y-58480500D01*
X158252170Y-53019500D02*
X157405499Y-53019500D01*
X160622828Y-58480500D02*
X161469499Y-58480500D01*
X161469499Y-53019500D02*
X160622828Y-53019500D01*
D13*
%TO.C,R16*%
X156015000Y-49522936D02*
X156015000Y-49977064D01*
X157485000Y-49522936D02*
X157485000Y-49977064D01*
%TO.C,C7*%
X137185032Y-61988748D02*
X137185032Y-62511252D01*
X138655032Y-61988748D02*
X138655032Y-62511252D01*
%TO.C,L1*%
X133589758Y-31940000D02*
X134410242Y-31940000D01*
X133589758Y-33060000D02*
X134410242Y-33060000D01*
%TO.C,R11*%
X131772936Y-82265000D02*
X132227064Y-82265000D01*
X131772936Y-83735000D02*
X132227064Y-83735000D01*
%TO.C,TP2*%
X136200000Y-56000000D02*
G75*
G02*
X134800000Y-56000000I-700000J0D01*
G01*
X134800000Y-56000000D02*
G75*
G02*
X136200000Y-56000000I700000J0D01*
G01*
%TO.C,C20*%
X128253600Y-94583952D02*
X128253600Y-94061448D01*
X129723600Y-94583952D02*
X129723600Y-94061448D01*
%TO.C,C6*%
X115765000Y-65738748D02*
X115765000Y-66261252D01*
X117235000Y-65738748D02*
X117235000Y-66261252D01*
%TO.C,R15*%
X153765000Y-91722936D02*
X153765000Y-92177064D01*
X155235000Y-91722936D02*
X155235000Y-92177064D01*
%TO.C,U12*%
X117200000Y-47200000D02*
X132800000Y-47200000D01*
X117200000Y-62800000D02*
X117200000Y-47200000D01*
X132800000Y-47200000D02*
X132800000Y-62800000D01*
X132800000Y-62800000D02*
X117200000Y-62800000D01*
X133311000Y-61190000D02*
X132975000Y-60950000D01*
X133311000Y-60710000D01*
X133311000Y-61190000D01*
G36*
X133311000Y-61190000D02*
G01*
X132975000Y-60950000D01*
X133311000Y-60710000D01*
X133311000Y-61190000D01*
G37*
D11*
%TO.C,U11*%
X152318901Y-38008399D02*
X152318901Y-38634457D01*
X152318901Y-39744541D02*
X152318901Y-40370599D01*
X152318901Y-40370599D02*
X152694960Y-40370599D01*
X152694960Y-38008399D02*
X152318901Y-38008399D01*
X154305042Y-40370599D02*
X154681101Y-40370599D01*
X154681101Y-38008399D02*
X154305042Y-38008399D01*
X154681101Y-38634457D02*
X154681101Y-38008399D01*
X154681101Y-40370599D02*
X154681101Y-39744541D01*
D14*
G36*
X153190502Y-38035498D02*
G01*
X152809502Y-38035498D01*
X152809502Y-37781498D01*
X153190502Y-37781498D01*
X153190502Y-38035498D01*
G37*
D13*
%TO.C,J3*%
X105620000Y-40220000D02*
X107000000Y-40220000D01*
X105620000Y-41600000D02*
X105620000Y-40220000D01*
X105620000Y-42870000D02*
X105620000Y-81080000D01*
X105620000Y-42870000D02*
X108380000Y-42870000D01*
X105620000Y-81080000D02*
X108380000Y-81080000D01*
X108380000Y-42870000D02*
X108380000Y-81080000D01*
%TO.C,C25*%
X146090000Y-91726248D02*
X146090000Y-93148752D01*
X147910000Y-91726248D02*
X147910000Y-93148752D01*
%TO.C,R1*%
X146265000Y-86747936D02*
X146265000Y-87202064D01*
X147735000Y-86747936D02*
X147735000Y-87202064D01*
%TD*%
M02*
