M48
; DRILL file {KiCad 9.0.8+dfsg-1} date 2026-04-12T17:43:37+0300
; FORMAT={-:-/ absolute / metric / decimal}
; #@! TF.CreationDate,2026-04-12T17:43:37+03:00
; #@! TF.GenerationSoftware,Kicad,Pcbnew,9.0.8+dfsg-1
; #@! TF.FileFunction,Plated,1,2,PTH
FMAT,2
METRIC
; #@! TA.AperFunction,Plated,PTH,ViaDrill
T1C0.300
; #@! TA.AperFunction,Plated,PTH,ComponentDrill
T2C1.000
; #@! TA.AperFunction,Plated,PTH,ComponentDrill
T3C1.651
%
G90
G05
T1
X83.5Y-46.5
X83.5Y-50.0
X83.5Y-60.0
X83.5Y-70.0
X83.5Y-80.0
X83.5Y-90.0
X85.0Y-37.0
X85.0Y-41.0
X87.75Y-45.0
X89.0Y-27.0
X89.0Y-30.0
X89.0Y-87.0
X89.25Y-46.5
X90.0Y-98.0
X91.75Y-43.0
X91.8Y-34.6
X91.8Y-36.0
X91.8Y-44.6
X93.0Y-87.0
X93.4Y-34.6
X94.0Y-27.0
X94.0Y-30.0
X94.2Y-44.4
X97.0Y-87.0
X97.6Y-44.4
X99.0Y-27.0
X99.0Y-30.0
X99.0Y-47.0
X101.0Y-36.0
X101.25Y-40.5
X102.0Y-45.0
X102.4Y-85.4
X102.5Y-81.0
X103.45Y-55.0
X103.45Y-65.0
X103.45Y-75.0
X104.0Y-27.0
X104.0Y-30.0
X106.0Y-36.0
X108.0Y-86.0
X108.25Y-83.0
X109.0Y-27.0
X109.0Y-30.0
X109.25Y-40.25
X109.3Y-52.825
X109.4Y-62.8
X109.8Y-79.2
X110.0Y-49.3
X110.0Y-67.0
X110.0Y-69.0
X110.0Y-71.0
X110.324Y-56.441
X111.1Y-47.7
X111.42Y-92.47
X111.5Y-37.75
X111.59Y-96.38
X112.4Y-46.4
X112.75Y-35.0
X112.75Y-43.5
X113.0Y-61.0
X113.0Y-66.0
X114.0Y-28.0
X114.0Y-30.0
X114.0Y-76.0
X114.51Y-98.0
X115.5Y-40.75
X115.75Y-46.5
X116.0Y-70.0
X116.25Y-59.25
X117.3Y-83.82
X117.4Y-87.2
X117.5Y-38.0
X117.6Y-74.72
X118.0Y-40.25
X118.2Y-91.4
X118.44Y-94.92
X118.5Y-32.5
X118.5Y-44.0
X119.3Y-96.08
X120.18Y-97.29
X121.0Y-51.0
X121.0Y-55.0
X121.0Y-59.0
X121.0Y-64.0
X121.0Y-70.0
X121.305Y-42.0
X122.0Y-88.4
X125.0Y-51.0
X125.0Y-59.0
X125.0Y-64.0
X125.47Y-83.15
X126.6Y-40.9
X126.6Y-43.9
X128.82Y-97.6
X129.0Y-44.0
X129.0Y-51.0
X129.0Y-55.0
X129.0Y-59.0
X129.0Y-64.0
X130.74Y-97.56
X131.0Y-67.0
X131.0Y-70.0
X131.18Y-74.57
X131.25Y-36.0
X132.2Y-80.4
X132.2Y-86.2
X132.75Y-30.0
X133.0Y-39.0
X133.0Y-64.0
X133.41Y-97.51
X134.5Y-46.5
X135.2Y-86.2
X135.2Y-88.6
X135.83Y-97.5
X136.5Y-34.25
X137.0Y-49.0
X137.0Y-67.0
X137.5Y-30.0
X138.0Y-26.5
X138.0Y-57.0
X139.25Y-42.0
X139.6Y-80.4
X139.8Y-97.46
X140.0Y-51.0
X141.0Y-27.0
X141.0Y-70.0
X141.0Y-74.0
X143.0Y-43.0
X144.0Y-56.0
X144.0Y-62.0
X145.0Y-34.0
X146.0Y-27.0
X146.0Y-30.0
X146.51Y-97.4
X147.0Y-37.0
X147.0Y-47.0
X147.0Y-68.0
X147.2Y-80.6
X147.25Y-51.25
X147.25Y-55.5
X147.4Y-84.6
X148.51Y-97.42
X148.856Y-41.491
X150.45Y-36.0
X150.47Y-97.42
X150.5Y-34.0
X150.51Y-96.0
X150.52Y-38.57
X151.0Y-27.0
X151.0Y-30.0
X151.0Y-73.0
X151.25Y-53.5
X151.8Y-61.5
X152.33Y-95.96
X152.34Y-97.43
X152.5Y-41.5
X152.5Y-59.25
X152.6Y-43.5
X152.75Y-47.25
X154.0Y-59.25
X154.14Y-95.87
X154.2Y-50.3
X154.4Y-61.5
X155.02Y-75.03
X155.045Y-68.022
X155.75Y-43.5
X155.8Y-87.2
X155.9Y-38.6
X156.0Y-27.0
X156.0Y-30.0
X156.5Y-41.5
X156.649Y-53.0
X157.75Y-37.25
X158.25Y-45.75
X158.5Y-34.0
X159.0Y-73.0
X159.16Y-96.5
X159.32Y-78.0
X160.0Y-41.5
X161.0Y-27.0
X161.0Y-30.0
X161.0Y-52.25
X161.25Y-62.5
X162.25Y-37.25
X162.5Y-45.75
X162.75Y-55.25
X163.0Y-68.0
X163.28Y-90.63
X163.8Y-83.2
X164.25Y-43.5
X165.25Y-58.5
X165.25Y-62.5
X165.5Y-40.5
X165.5Y-47.5
X165.5Y-52.5
X166.0Y-34.0
T2
X107.0Y-41.6
X107.0Y-44.14
X107.0Y-46.68
X107.0Y-49.22
X107.0Y-51.76
X107.0Y-54.3
X107.0Y-56.84
X107.0Y-59.38
X107.0Y-61.92
X107.0Y-64.46
X107.0Y-67.0
X107.0Y-69.54
X107.0Y-72.08
X107.0Y-74.62
X107.0Y-77.16
X107.0Y-79.7
X158.82Y-83.235
X158.82Y-85.775
T3
X97.0Y-92.5
X97.0Y-95.1
X101.0Y-92.5
X101.0Y-95.1
X105.0Y-92.5
X105.0Y-95.1
M30
