# Blender 5.0.1
# www.blender.org
o Cube
v 1.552022 1.630744 -0.420383
v 1.552022 -0.173575 -1.000000
v 1.552022 1.630744 0.420383
v 1.552022 -0.173575 1.000000
v -2.054661 1.630744 -0.420383
v -2.054661 -0.173575 -1.000000
v -2.054661 1.630744 0.420383
v -2.054661 -0.173575 1.000000
v 3.295562 0.934791 -0.198170
v 3.295562 0.522378 -0.423845
v 3.295562 0.934791 0.198170
v 3.295562 0.522378 0.423845
v 5.266909 0.017270 -5.552861
v 4.965223 0.017270 -5.871717
v 4.767320 0.035875 -5.643734
v 4.767320 0.274653 -5.643734
v 5.028332 0.035875 -5.367868
v 5.028332 0.274653 -5.367868
v 5.230509 0.035875 -5.046382
v 5.230509 0.274653 -5.046382
v 5.366083 0.035875 -4.691631
v 5.366083 0.274653 -4.691631
v 5.429843 0.035875 -4.317246
v 5.429843 0.274653 -4.317246
v 5.419339 0.035875 -3.937617
v 5.419339 0.274653 -3.937617
v 5.334976 0.035875 -3.567332
v 5.334976 0.274653 -3.567332
v 5.179994 0.035875 -3.220620
v 5.179994 0.274653 -3.220620
v 4.960349 0.035875 -2.910804
v 4.960349 0.274653 -2.910804
v 4.684484 0.035875 -2.649793
v 4.684484 0.274653 -2.649793
v 4.362998 0.035875 -2.447616
v 4.362998 0.274653 -2.447616
v 4.008246 0.035875 -2.312042
v 4.008246 0.274653 -2.312042
v 3.633863 0.035875 -2.248281
v 3.633863 0.274653 -2.248281
v 3.254234 0.035875 -2.258785
v 3.254234 0.274653 -2.258785
v 2.883948 0.035875 -2.343148
v 2.883948 0.274653 -2.343148
v 2.537235 0.035875 -2.498131
v 2.537235 0.274653 -2.498131
v 2.227421 0.035875 -2.717775
v 2.227421 0.274653 -2.717775
v 1.966409 0.035875 -2.993641
v 1.966409 0.274653 -2.993641
v 1.764231 0.035875 -3.315126
v 1.764231 0.274653 -3.315126
v 1.628658 0.035875 -3.669878
v 1.628658 0.274653 -3.669878
v 1.564897 0.035875 -4.044262
v 1.564897 0.274653 -4.044262
v 1.575401 0.035875 -4.423892
v 1.575401 0.274653 -4.423892
v 1.659765 0.035875 -4.794178
v 1.659765 0.274653 -4.794178
v 1.814747 0.035875 -5.140890
v 1.814747 0.274653 -5.140890
v 2.034390 0.035875 -5.450705
v 2.034390 0.274653 -5.450705
v 2.310258 0.035875 -5.711717
v 2.310258 0.274653 -5.711717
v 2.631743 0.035875 -5.913894
v 2.631743 0.274653 -5.913894
v 2.986494 0.035875 -6.049467
v 2.986494 0.274653 -6.049467
v 3.360878 0.035875 -6.113227
v 3.360878 0.274653 -6.113227
v 3.740508 0.035875 -6.102724
v 3.740508 0.274653 -6.102724
v 4.110794 0.035875 -6.018360
v 4.110794 0.274653 -6.018360
v 4.457506 0.035875 -5.863378
v 4.457506 0.274653 -5.863378
v 5.266909 0.293258 -5.552861
v 4.965223 0.293258 -5.871717
v 5.500593 0.017270 -5.181277
v 5.500593 0.293258 -5.181277
v 5.657292 0.017270 -4.771243
v 5.657292 0.293258 -4.771243
v 5.730989 0.017270 -4.338517
v 5.730989 0.293258 -4.338517
v 5.718848 0.017270 -3.899729
v 5.718848 0.293258 -3.899729
v 5.621338 0.017270 -3.471739
v 5.621338 0.293258 -3.471739
v 5.442205 0.017270 -3.070997
v 5.442205 0.293258 -3.070997
v 5.188332 0.017270 -2.712902
v 5.188332 0.293258 -2.712902
v 4.869477 0.017270 -2.411216
v 4.869477 0.293258 -2.411216
v 4.497893 0.017270 -2.177533
v 4.497893 0.293258 -2.177533
v 4.087859 0.017270 -2.020833
v 4.087859 0.293258 -2.020833
v 3.655133 0.017270 -1.947135
v 3.655133 0.293258 -1.947135
v 3.216344 0.017270 -1.959276
v 3.216344 0.293258 -1.959276
v 2.788355 0.017270 -2.056786
v 2.788355 0.293258 -2.056786
v 2.387613 0.017270 -2.235920
v 2.387613 0.293258 -2.235920
v 2.029519 -0.120566 -2.489793
v 2.029519 0.395073 -2.489793
v 1.727832 0.017270 -2.808647
v 1.727832 0.293258 -2.808647
v 1.494149 0.017270 -3.180232
v 1.494149 0.293258 -3.180232
v 1.337448 0.017270 -3.590266
v 1.337448 0.293258 -3.590266
v 1.263751 0.017270 -4.022992
v 1.263751 0.293258 -4.022992
v 1.275892 0.017270 -4.461782
v 1.275892 0.293258 -4.461782
v 1.373403 0.017270 -4.889770
v 1.373403 0.293258 -4.889770
v 1.552536 0.017270 -5.290512
v 1.552536 0.293258 -5.290512
v 1.806408 0.017270 -5.648606
v 1.806408 0.293258 -5.648606
v 2.125264 0.017270 -5.950293
v 2.125264 0.293258 -5.950293
v 2.496848 0.017270 -6.183976
v 2.496848 0.293258 -6.183976
v 2.906882 0.017270 -6.340677
v 2.906882 0.293258 -6.340677
v 3.339608 0.017270 -6.414373
v 3.339608 0.293258 -6.414373
v 3.778397 0.017270 -6.402233
v 3.778397 0.293258 -6.402233
v 4.206387 0.017270 -6.304722
v 4.206387 0.293258 -6.304722
v 4.607128 0.017270 -6.125589
v 4.607128 0.293258 -6.125589
v -2.025149 0.036954 2.840297
v -2.326834 -0.100883 2.521442
v -2.524737 0.055559 2.749425
v -2.524737 0.294337 2.749425
v -2.263725 0.055559 3.025290
v -2.263725 0.294337 3.025290
v -2.061548 0.055559 3.346776
v -2.061548 0.294337 3.346776
v -1.925974 0.055559 3.701528
v -1.925974 0.294337 3.701528
v -1.862214 0.055559 4.075912
v -1.862214 0.294337 4.075912
v -1.872719 0.055559 4.455541
v -1.872719 0.294337 4.455541
v -1.957082 0.055559 4.825827
v -1.957082 0.294337 4.825827
v -2.112063 0.055559 5.172539
v -2.112063 0.294337 5.172539
v -2.331708 0.055559 5.482354
v -2.331708 0.294337 5.482354
v -2.607574 0.055559 5.743365
v -2.607574 0.294337 5.743365
v -2.929059 0.055559 5.945542
v -2.929059 0.294337 5.945542
v -3.283811 0.055559 6.081116
v -3.283811 0.294337 6.081116
v -3.658195 0.055559 6.144876
v -3.658195 0.294337 6.144876
v -4.037824 0.055559 6.134372
v -4.037824 0.294337 6.134372
v -4.408110 0.055559 6.050009
v -4.408110 0.294337 6.050009
v -4.754822 0.055559 5.895027
v -4.754822 0.294337 5.895027
v -5.064636 0.055559 5.675383
v -5.064636 0.294337 5.675383
v -5.325648 0.055559 5.399517
v -5.325648 0.294337 5.399517
v -5.527826 0.055559 5.078032
v -5.527826 0.294337 5.078032
v -5.663399 0.055559 4.723279
v -5.663399 0.294337 4.723279
v -5.727160 0.055559 4.348896
v -5.727160 0.294337 4.348896
v -5.716656 0.055559 3.969267
v -5.716656 0.294337 3.969267
v -5.632293 0.055559 3.598980
v -5.632293 0.294337 3.598980
v -5.477311 0.055559 3.252268
v -5.477311 0.294337 3.252268
v -5.257667 0.055559 2.942454
v -5.257667 0.294337 2.942454
v -4.981801 0.055559 2.681442
v -4.981801 0.294337 2.681442
v -4.660315 0.055559 2.479265
v -4.660315 0.294337 2.479265
v -4.305564 0.055559 2.343692
v -4.305564 0.294337 2.343692
v -3.931179 0.055559 2.279931
v -3.931179 0.294337 2.279931
v -3.551549 0.055559 2.290435
v -3.551549 0.294337 2.290435
v -3.181264 0.055559 2.374799
v -3.181264 0.294337 2.374799
v -2.834551 0.055559 2.529781
v -2.834551 0.294337 2.529781
v -2.025149 0.312941 2.840297
v -2.326834 0.414756 2.521442
v -1.791465 0.036954 3.211881
v -1.791465 0.312941 3.211881
v -1.634765 0.036954 3.621916
v -1.634765 0.312941 3.621916
v -1.561069 0.036954 4.054642
v -1.561069 0.312941 4.054642
v -1.573209 0.036954 4.493430
v -1.573209 0.312941 4.493430
v -1.670719 0.036954 4.921420
v -1.670719 0.312941 4.921420
v -1.849852 0.036954 5.322162
v -1.849852 0.312941 5.322162
v -2.103725 0.036954 5.680256
v -2.103725 0.312941 5.680256
v -2.422580 0.036954 5.981943
v -2.422580 0.312941 5.981943
v -2.794164 0.036954 6.215625
v -2.794164 0.312941 6.215625
v -3.204198 0.036954 6.372326
v -3.204198 0.312941 6.372326
v -3.636924 0.036954 6.446023
v -3.636924 0.312941 6.446023
v -4.075713 0.036954 6.433881
v -4.075713 0.312941 6.433881
v -4.503702 0.036954 6.336371
v -4.503702 0.312941 6.336371
v -4.904444 0.036954 6.157238
v -4.904444 0.312941 6.157238
v -5.262538 0.036954 5.903365
v -5.262538 0.312941 5.903365
v -5.564225 0.036954 5.584511
v -5.564225 0.312941 5.584511
v -5.797909 0.036954 5.212926
v -5.797909 0.312941 5.212926
v -5.954609 0.036954 4.802892
v -5.954609 0.312941 4.802892
v -6.028306 0.036954 4.370166
v -6.028306 0.312941 4.370166
v -6.016166 0.036954 3.931376
v -6.016166 0.312941 3.931376
v -5.918654 0.036954 3.503388
v -5.918654 0.312941 3.503388
v -5.739522 0.036954 3.102646
v -5.739522 0.312941 3.102646
v -5.485650 0.036954 2.744552
v -5.485650 0.312941 2.744552
v -5.166794 0.036954 2.442865
v -5.166794 0.312941 2.442865
v -4.795209 0.036954 2.209182
v -4.795209 0.312941 2.209182
v -4.385176 0.036954 2.052481
v -4.385176 0.312941 2.052481
v -3.952450 0.036954 1.978786
v -3.952450 0.312941 1.978786
v -3.513660 0.036954 1.990926
v -3.513660 0.312941 1.990926
v -3.085671 0.036954 2.088436
v -3.085671 0.312941 2.088436
v -2.684929 0.036954 2.267570
v -2.684929 0.312941 2.267570
v -0.710329 0.293258 0.000108
v -0.710329 0.017270 0.000108
v -0.408642 0.395073 0.318962
v -0.408642 -0.120566 0.318962
v -0.050548 0.293258 0.572835
v -0.050548 0.017270 0.572835
v -4.834719 0.017270 -6.187632
v -5.195958 0.017270 -5.938256
v -5.000921 0.035875 -5.707817
v -5.000921 0.274653 -5.707817
v -4.688385 0.035875 -5.923572
v -4.688385 0.274653 -5.923572
v -4.339762 0.035875 -6.074207
v -4.339762 0.274653 -6.074207
v -3.968451 0.035875 -6.153936
v -3.968451 0.274653 -6.153936
v -3.588720 0.035875 -6.159694
v -3.588720 0.274653 -6.159694
v -3.215163 0.035875 -6.091258
v -3.215163 0.274653 -6.091258
v -2.862134 0.035875 -5.951262
v -2.862134 0.274653 -5.951262
v -2.543201 0.035875 -5.745082
v -2.543201 0.274653 -5.745082
v -2.270618 0.035875 -5.480641
v -2.270618 0.274653 -5.480641
v -2.054864 0.035875 -5.168107
v -2.054864 0.274653 -5.168107
v -1.904228 0.035875 -4.819485
v -1.904228 0.274653 -4.819485
v -1.824499 0.035875 -4.448172
v -1.824499 0.274653 -4.448172
v -1.818741 0.035875 -4.068442
v -1.818741 0.274653 -4.068442
v -1.887176 0.035875 -3.694885
v -1.887176 0.274653 -3.694885
v -2.027173 0.035875 -3.341855
v -2.027173 0.274653 -3.341855
v -2.233354 0.035875 -3.022922
v -2.233354 0.274653 -3.022922
v -2.497792 0.035875 -2.750340
v -2.497792 0.274653 -2.750340
v -2.810328 0.035875 -2.534585
v -2.810328 0.274653 -2.534585
v -3.158951 0.035875 -2.383949
v -3.158951 0.274653 -2.383949
v -3.530262 0.035875 -2.304220
v -3.530262 0.274653 -2.304220
v -3.909992 0.035875 -2.298462
v -3.909992 0.274653 -2.298462
v -4.283550 0.035875 -2.366897
v -4.283550 0.274653 -2.366897
v -4.636580 0.035875 -2.506895
v -4.636580 0.274653 -2.506895
v -4.955514 0.035875 -2.713075
v -4.955514 0.274653 -2.713075
v -5.228095 0.035875 -2.977513
v -5.228095 0.274653 -2.977513
v -5.443850 0.035875 -3.290051
v -5.443850 0.274653 -3.290051
v -5.594486 0.035875 -3.638672
v -5.594486 0.274653 -3.638672
v -5.674214 0.035875 -4.009984
v -5.674214 0.274653 -4.009984
v -5.679972 0.035875 -4.389714
v -5.679972 0.274653 -4.389714
v -5.611537 0.035875 -4.763273
v -5.611537 0.274653 -4.763273
v -5.471539 0.035875 -5.116302
v -5.471539 0.274653 -5.116302
v -5.265360 0.035875 -5.435235
v -5.265360 0.274653 -5.435235
v -4.834719 0.293258 -6.187632
v -5.195958 0.293258 -5.938256
v -4.431769 0.017270 -6.361743
v -4.431769 0.293258 -6.361743
v -4.002594 0.017270 -6.453895
v -4.002594 0.293258 -6.453895
v -3.563688 0.017270 -6.460550
v -3.563688 0.293258 -6.460550
v -3.131917 0.017270 -6.381450
v -3.131917 0.293258 -6.381450
v -2.723874 0.017270 -6.219638
v -2.723874 0.293258 -6.219638
v -2.355239 0.017270 -5.981328
v -2.355239 0.293258 -5.981328
v -2.040180 0.017270 -5.675679
v -2.040180 0.293258 -5.675679
v -1.790803 0.017270 -5.314439
v -1.790803 0.293258 -5.314439
v -1.616693 0.017270 -4.911490
v -1.616693 0.293258 -4.911490
v -1.524540 0.017270 -4.482316
v -1.524540 0.293258 -4.482316
v -1.517885 0.017270 -4.043409
v -1.517885 0.293258 -4.043409
v -1.596984 0.017270 -3.611638
v -1.596984 0.293258 -3.611638
v -1.758797 0.017270 -3.203595
v -1.758797 0.293258 -3.203595
v -1.997107 0.017270 -2.834960
v -1.997107 0.293258 -2.834960
v -2.302756 -0.120566 -2.519902
v -2.302756 0.395073 -2.519902
v -2.663995 0.017270 -2.270524
v -2.663995 0.293258 -2.270524
v -3.066945 0.017270 -2.096414
v -3.066945 0.293258 -2.096414
v -3.496119 0.017270 -2.004261
v -3.496119 0.293258 -2.004261
v -3.935026 0.017270 -1.997605
v -3.935026 0.293258 -1.997605
v -4.366796 0.017270 -2.076705
v -4.366796 0.293258 -2.076705
v -4.774840 0.017270 -2.238519
v -4.774840 0.293258 -2.238519
v -5.143474 0.017270 -2.476829
v -5.143474 0.293258 -2.476829
v -5.458533 0.017270 -2.782476
v -5.458533 0.293258 -2.782476
v -5.707910 0.017270 -3.143717
v -5.707910 0.293258 -3.143717
v -5.882020 0.017270 -3.546666
v -5.882020 0.293258 -3.546666
v -5.974174 0.017270 -3.975841
v -5.974174 0.293258 -3.975841
v -5.980829 0.017270 -4.414747
v -5.980829 0.293258 -4.414747
v -5.901730 0.017270 -4.846518
v -5.901730 0.293258 -4.846518
v -5.739916 0.017270 -5.254562
v -5.739916 0.293258 -5.254562
v -5.501606 0.017270 -5.623196
v -5.501606 0.293258 -5.623196
v 2.344581 0.036954 2.302177
v 1.983341 -0.100883 2.551553
v 2.178380 0.055559 2.781992
v 2.178380 0.294337 2.781992
v 2.490915 0.055559 2.566237
v 2.490915 0.294337 2.566237
v 2.839537 0.055559 2.415601
v 2.839537 0.294337 2.415601
v 3.210849 0.055559 2.335872
v 3.210849 0.294337 2.335872
v 3.590580 0.055559 2.330115
v 3.590580 0.294337 2.330115
v 3.964137 0.055559 2.398551
v 3.964137 0.294337 2.398551
v 4.317166 0.055559 2.538547
v 4.317166 0.294337 2.538547
v 4.636101 0.055559 2.744727
v 4.636101 0.294337 2.744727
v 4.908682 0.055559 3.009166
v 4.908682 0.294337 3.009166
v 5.124436 0.055559 3.321702
v 5.124436 0.294337 3.321702
v 5.275073 0.055559 3.670325
v 5.275073 0.294337 3.670325
v 5.354802 0.055559 4.041636
v 5.354802 0.294337 4.041636
v 5.360559 0.055559 4.421367
v 5.360559 0.294337 4.421367
v 5.292124 0.055559 4.794924
v 5.292124 0.294337 4.794924
v 5.152126 0.055559 5.147954
v 5.152126 0.294337 5.147954
v 4.945947 0.055559 5.466887
v 4.945947 0.294337 5.466887
v 4.681507 0.055559 5.739468
v 4.681507 0.294337 5.739468
v 4.368971 0.055559 5.955223
v 4.368971 0.294337 5.955223
v 4.020350 0.055559 6.105860
v 4.020350 0.294337 6.105860
v 3.649037 0.055559 6.185587
v 3.649037 0.294337 6.185587
v 3.269307 0.055559 6.191346
v 3.269307 0.294337 6.191346
v 2.895750 0.055559 6.122912
v 2.895750 0.294337 6.122912
v 2.542719 0.055559 5.982914
v 2.542719 0.294337 5.982914
v 2.223785 0.055559 5.776734
v 2.223785 0.294337 5.776734
v 1.951204 0.055559 5.512296
v 1.951204 0.294337 5.512296
v 1.735450 0.055559 5.199759
v 1.735450 0.294337 5.199759
v 1.584814 0.055559 4.851137
v 1.584814 0.294337 4.851137
v 1.505085 0.055559 4.479826
v 1.505085 0.294337 4.479826
v 1.499328 0.055559 4.100094
v 1.499328 0.294337 4.100094
v 1.567762 0.055559 3.726536
v 1.567762 0.294337 3.726536
v 1.707760 0.055559 3.373507
v 1.707760 0.294337 3.373507
v 1.913940 0.055559 3.054574
v 1.913940 0.294337 3.054574
v 2.344581 0.312941 2.302177
v 1.983341 0.414756 2.551553
v 2.747531 0.036954 2.128066
v 2.747531 0.312941 2.128066
v 3.176706 0.036954 2.035914
v 3.176706 0.312941 2.035914
v 3.615613 0.036954 2.029259
v 3.615613 0.312941 2.029259
v 4.047383 0.036954 2.108358
v 4.047383 0.312941 2.108358
v 4.455427 0.036954 2.270171
v 4.455427 0.312941 2.270171
v 4.824061 0.036954 2.508481
v 4.824061 0.312941 2.508481
v 5.139121 0.036954 2.814129
v 5.139121 0.312941 2.814129
v 5.388498 0.036954 3.175369
v 5.388498 0.312941 3.175369
v 5.562608 0.036954 3.578318
v 5.562608 0.312941 3.578318
v 5.654761 0.036954 4.007493
v 5.654761 0.312941 4.007493
v 5.661416 0.036954 4.446399
v 5.661416 0.312941 4.446399
v 5.582315 0.036954 4.878170
v 5.582315 0.312941 4.878170
v 5.420502 0.036954 5.286214
v 5.420502 0.312941 5.286214
v 5.182193 0.036954 5.654848
v 5.182193 0.312941 5.654848
v 4.876544 0.036954 5.969907
v 4.876544 0.312941 5.969907
v 4.515306 0.036954 6.219284
v 4.515306 0.312941 6.219284
v 4.112355 0.036954 6.393394
v 4.112355 0.312941 6.393394
v 3.683180 0.036954 6.485548
v 3.683180 0.312941 6.485548
v 3.244274 0.036954 6.492203
v 3.244274 0.312941 6.492203
v 2.812502 0.036954 6.413104
v 2.812502 0.312941 6.413104
v 2.404459 0.036954 6.251289
v 2.404459 0.312941 6.251289
v 2.035825 0.036954 6.012980
v 2.035825 0.312941 6.012980
v 1.720766 0.036954 5.707333
v 1.720766 0.312941 5.707333
v 1.471389 0.036954 5.346093
v 1.471389 0.312941 5.346093
v 1.297279 0.036954 4.943142
v 1.297279 0.312941 4.943142
v 1.205125 0.036954 4.513969
v 1.205125 0.312941 4.513969
v 1.198471 0.036954 4.075062
v 1.198471 0.312941 4.075062
v 1.277571 0.036954 3.643291
v 1.277571 0.312941 3.643291
v 1.439384 0.036954 3.235247
v 1.439384 0.312941 3.235247
v 1.677694 0.036954 2.866613
v 1.677694 0.312941 2.866613
v -0.261132 0.293258 0.568487
v -0.261132 0.017270 0.568487
v 0.100107 0.395073 0.319109
v 0.100107 -0.120566 0.319109
v 0.405755 0.293258 0.004051
v 0.405755 0.017270 0.004051
v -2.913497 -0.173575 -1.000000
v -2.913497 -0.173575 1.000000
v -2.913497 1.630744 0.420383
v -2.913497 1.630744 -0.420383
vn -0.0000 1.0000 -0.0000
vn -0.0000 0.3058 0.9521
vn -0.0000 0.3058 -0.9521
vn -0.0000 -1.0000 -0.0000
vn 0.2903 0.4594 0.8395
vn 1.0000 -0.0000 -0.0000
vn 0.1891 0.3003 -0.9349
vn 0.3707 -0.9287 -0.0000
vn 0.3707 0.9287 -0.0000
vn -0.6142 0.7070 -0.3505
vn 0.6713 0.7065 0.2241
vn -0.6708 0.7070 -0.2239
vn 0.2241 0.7065 -0.6713
vn 0.3508 -0.7065 -0.6147
vn 0.2241 -0.7065 -0.6713
vn -0.7054 -0.7070 0.0498
vn 0.7021 -0.7065 0.0888
vn -0.7016 -0.7070 -0.0888
vn 0.0498 0.7070 0.7054
vn -0.1866 0.7065 -0.6827
vn 0.1865 0.7070 0.6821
vn 0.0888 0.7065 -0.7021
vn 0.0888 -0.7065 -0.7021
vn 0.3505 0.7070 -0.6142
vn -0.2241 0.7065 0.6713
vn 0.2239 0.7070 -0.6708
vn -0.6326 -0.7070 0.3160
vn 0.5593 -0.7065 -0.4337
vn 0.6332 -0.7065 -0.3162
vn -0.0499 0.7065 -0.7060
vn -0.0499 -0.7065 -0.7060
vn -0.3505 -0.7070 0.6142
vn -0.0498 0.7070 -0.7054
vn 0.1866 0.7065 0.6827
vn -0.1865 0.7070 -0.6821
vn -0.1866 -0.7065 -0.6827
vn -0.3160 -0.7070 -0.6326
vn 0.4337 -0.7065 0.5593
vn 0.3162 -0.7065 0.6332
vn 0.1865 -0.7070 0.6821
vn 0.0498 -0.7070 0.7054
vn -0.3162 0.7065 -0.6332
vn -0.3162 -0.7065 -0.6331
vn 0.7054 0.7070 -0.0498
vn -0.6827 0.7065 0.1866
vn 0.6821 0.7070 -0.1865
vn -0.6142 -0.7070 -0.3505
vn 0.6713 -0.7065 0.2241
vn 0.6147 -0.7065 0.3508
vn -0.4337 0.7065 -0.5593
vn -0.4337 -0.7065 -0.5593
vn 0.3505 -0.7070 -0.6142
vn -0.2241 -0.7065 0.6713
vn 0.2480 -0.8393 0.4837
vn 0.5103 0.6276 -0.5879
vn -0.5033 0.8512 -0.1489
vn 0.1134 0.9849 -0.1307
vn -0.5345 0.7065 -0.4639
vn -0.5345 -0.7065 -0.4639
vn 0.5340 0.7070 0.4636
vn -0.1865 -0.7070 -0.6821
vn 0.0499 -0.7065 0.7060
vn -0.0498 -0.7070 -0.7054
vn -0.6147 0.7065 -0.3508
vn -0.6147 -0.7065 -0.3508
vn -0.6821 0.7070 0.1865
vn 0.7060 0.7065 -0.0499
vn 0.6827 0.7065 -0.1866
vn 0.6708 0.7070 0.2239
vn -0.7021 0.7065 -0.0888
vn 0.7016 0.7070 0.0888
vn -0.6713 0.7065 -0.2241
vn -0.6713 -0.7065 -0.2241
vn 0.7054 -0.7070 -0.0498
vn -0.6827 -0.7065 0.1866
vn -0.7060 -0.7065 0.0499
vn 0.5240 -0.6008 -0.6037
vn -0.5138 -0.8393 -0.1775
vn 0.5588 -0.7070 -0.4333
vn -0.7021 -0.7065 -0.0888
vn -0.0888 0.7070 0.7016
vn -0.5588 0.7070 0.4333
vn 0.4639 0.7065 -0.5345
vn -0.4636 0.7070 0.5340
vn -0.7060 0.7065 0.0499
vn -0.4333 0.7070 -0.5588
vn 0.5345 0.7065 0.4639
vn -0.5340 0.7070 -0.4636
vn 0.3160 0.7070 0.6326
vn 0.5340 -0.7070 0.4636
vn 0.4333 -0.7070 0.5588
vn 0.7021 0.7065 0.0888
vn -0.7016 0.7070 -0.0888
vn -0.6332 0.7065 0.3162
vn -0.6332 -0.7065 0.3162
vn -0.6821 -0.7070 0.1865
vn 0.7060 -0.7065 -0.0499
vn 0.7016 -0.7070 0.0888
vn 0.6708 -0.7070 0.2239
vn -0.0888 0.7065 0.7021
vn 0.0888 0.7070 -0.7016
vn -0.3160 0.7070 -0.6326
vn 0.3162 0.7065 0.6332
vn 0.5803 0.6399 0.5038
vn 0.2182 0.8512 0.4774
vn -0.0888 -0.7070 0.7016
vn -0.2239 -0.7070 0.6708
vn 0.3160 -0.7070 0.6326
vn -0.5803 0.6399 -0.5038
vn -0.4333 -0.7070 -0.5588
vn 0.5345 -0.7065 0.4639
vn -0.6708 -0.7070 -0.2239
vn 0.6326 0.7070 -0.3160
vn -0.0888 -0.7065 0.7021
vn 0.2239 -0.7070 -0.6708
vn -0.4636 -0.7070 0.5340
vn -0.5589 -0.7070 0.4333
vn 0.0499 0.7065 0.7060
vn 0.6142 0.7070 0.3505
vn 0.3508 0.7065 -0.6147
vn -0.3505 0.7070 0.6142
vn 0.1866 -0.7065 0.6827
vn -0.6327 0.7070 0.3160
vn 0.6332 0.7065 -0.3162
vn 0.6326 -0.7070 -0.3160
vn 0.6821 -0.7070 -0.1865
vn 0.4337 0.7065 0.5593
vn 0.4639 -0.7065 -0.5345
vn 0.6147 0.7065 0.3508
vn 0.1405 -0.9768 -0.1618
vn 0.4333 0.7070 0.5588
vn 0.6827 -0.7065 -0.1866
vn -0.7054 0.7070 0.0498
vn -0.2239 0.7070 0.6708
vn -0.5340 -0.7070 -0.4636
vn 0.5589 0.7070 -0.4333
vn 0.5593 0.7065 -0.4337
vn 0.0888 -0.7070 -0.7016
vn 0.6142 -0.7070 0.3505
vn -0.2495 -0.8390 -0.4836
vn -0.3508 0.7065 0.6147
vn -0.5588 -0.7070 0.4333
vn -0.3508 -0.7065 0.6147
vn 0.5588 0.7070 -0.4333
vn -0.4639 0.7065 0.5345
vn 0.4636 0.7070 -0.5340
vn -0.4639 -0.7065 0.5345
vn -0.5593 -0.7065 0.4337
vn -0.5103 0.6276 0.5879
vn 0.5033 0.8515 0.1472
vn -0.1112 0.9855 0.1280
vn -0.5593 0.7065 0.4337
vn 0.6326 0.7071 -0.3160
vn -0.5240 -0.6008 0.6037
vn 0.5130 -0.8393 0.1801
vn -0.2158 0.8512 -0.4785
vn -0.1428 -0.9760 0.1642
vn 0.4636 -0.7070 -0.5340
vn -0.6002 0.6009 -0.5280
vn 0.0046 1.0000 -0.0048
vn -0.6555 -0.0000 0.7552
vn -0.7264 -0.0000 0.6873
vn -0.5784 -0.0000 0.8158
vn 0.5994 -0.6082 0.5204
vn -0.5994 -0.6082 -0.5203
vn -0.6197 -0.5747 -0.5345
vn 0.6150 -0.5740 0.5407
vn 0.6057 0.6002 0.5223
vn -0.4403 0.7070 0.5534
vn 0.3241 0.7065 -0.6291
vn -0.3239 0.7070 0.6287
vn -0.6291 0.7065 -0.3241
vn -0.5538 -0.7065 -0.4406
vn -0.6291 -0.7065 -0.3241
vn -0.0586 -0.7070 0.7047
vn 0.1951 -0.7065 -0.6803
vn -0.1950 -0.7070 0.6798
vn 0.7026 0.7070 -0.0800
vn -0.7053 0.7065 -0.0587
vn -0.7032 0.7065 0.0800
vn -0.6803 0.7065 -0.1952
vn -0.6803 -0.7065 -0.1952
vn -0.6286 0.7070 -0.3239
vn 0.5051 0.8512 -0.1426
vn 0.6292 0.7065 0.3241
vn 0.3428 -0.7070 0.6185
vn -0.2157 -0.7065 -0.6741
vn 0.2155 -0.7070 0.6735
vn -0.7053 -0.7065 -0.0587
vn 0.5534 -0.7070 0.4403
vn -0.7047 0.7070 -0.0586
vn 0.7032 0.7065 -0.0800
vn -0.7026 0.7070 0.0800
vn -0.7032 -0.7065 0.0800
vn -0.6735 -0.7070 0.2155
vn 0.6190 -0.7065 -0.3430
vn 0.6741 -0.7065 -0.2157
vn 0.7026 -0.7070 -0.0800
vn 0.7047 -0.7070 0.0586
vn -0.6741 0.7065 0.2157
vn -0.6741 -0.7065 0.2157
vn 0.0586 0.7070 -0.7047
vn 0.0800 0.7065 0.7032
vn -0.0800 0.7070 -0.7026
vn -0.4403 -0.7070 0.5534
vn 0.3241 -0.7065 -0.6291
vn 0.4406 -0.7065 -0.5538
vn -0.6190 0.7065 0.3430
vn -0.6190 -0.7065 0.3430
vn -0.6286 -0.7070 -0.3239
vn 0.5160 -0.8394 -0.1711
vn -0.5534 -0.7070 -0.4403
vn -0.5029 0.6276 -0.5942
vn -0.2241 0.8512 0.4746
vn -0.1118 0.9849 -0.1321
vn -0.5402 0.7065 0.4572
vn -0.5402 -0.7065 0.4572
vn 0.5398 0.7070 -0.4569
vn -0.7047 -0.7070 -0.0586
vn 0.7032 -0.7065 -0.0800
vn 0.7053 -0.7065 0.0587
vn -0.4406 0.7065 0.5538
vn -0.4406 -0.7065 0.5538
vn 0.0800 0.7070 0.7026
vn 0.0587 0.7065 -0.7053
vn -0.0800 0.7065 -0.7032
vn 0.3239 0.7070 -0.6286
vn -0.1952 0.7065 0.6803
vn 0.1950 0.7070 -0.6798
vn -0.3241 0.7065 0.6292
vn -0.3241 -0.7065 0.6292
vn 0.0586 -0.7070 -0.7047
vn 0.0800 -0.7065 0.7032
vn -0.0587 -0.7065 0.7053
vn -0.5165 -0.6008 -0.6102
vn -0.2540 -0.8393 0.4806
vn -0.3428 -0.7070 -0.6185
vn -0.1952 -0.7065 0.6803
vn 0.6797 0.7070 0.1950
vn 0.4569 0.7070 0.5398
vn -0.3430 0.7065 -0.6190
vn -0.4572 0.7065 -0.5402
vn -0.0587 0.7065 0.7053
vn -0.6185 0.7070 0.3428
vn 0.5402 0.7065 -0.4572
vn -0.5398 0.7070 0.4569
vn 0.6735 0.7070 -0.2155
vn 0.5398 -0.7070 -0.4569
vn 0.6185 -0.7070 -0.3428
vn 0.1952 0.7065 -0.6803
vn -0.1950 0.7070 0.6798
vn 0.2157 0.7065 0.6741
vn 0.2157 -0.7065 0.6741
vn 0.0800 -0.7070 0.7026
vn 0.0587 -0.7065 -0.7053
vn 0.3239 -0.7070 -0.6286
vn 0.6803 0.7065 0.1952
vn -0.6798 0.7070 -0.1950
vn -0.6735 0.7070 0.2155
vn 0.6741 0.7065 -0.2157
vn 0.5866 0.6399 -0.4965
vn 0.6798 -0.7070 0.1950
vn 0.6287 -0.7070 0.3239
vn 0.6735 -0.7070 -0.2155
vn -0.5866 0.6399 0.4965
vn -0.6185 -0.7070 0.3428
vn 0.5402 -0.7065 -0.4572
vn -0.3239 -0.7070 0.6287
vn 0.6292 -0.7065 0.3241
vn -0.2155 0.7070 -0.6735
vn -0.5534 0.7070 -0.4403
vn 0.6803 -0.7065 0.1952
vn 0.4569 -0.7070 0.5398
vn -0.3430 -0.7065 -0.6190
vn 0.7053 0.7065 0.0587
vn 0.4403 0.7070 -0.5534
vn -0.5538 0.7065 -0.4406
vn 0.5534 0.7070 0.4403
vn 0.2155 0.7070 0.6735
vn -0.2157 0.7065 -0.6741
vn -0.7026 -0.7070 0.0800
vn -0.2155 -0.7070 -0.6735
vn -0.0800 -0.7070 -0.7026
vn 0.6190 0.7065 -0.3430
vn 0.7047 0.7070 0.0586
vn -0.4572 -0.7065 -0.5402
vn 0.4406 0.7065 -0.5538
vn -0.1384 -0.9768 -0.1636
vn 0.4403 -0.7070 -0.5534
vn 0.6185 0.7070 -0.3428
vn -0.0800 -0.7065 -0.7032
vn -0.0586 0.7070 0.7047
vn 0.1950 -0.7070 -0.6798
vn 0.6287 0.7070 0.3239
vn -0.5398 -0.7070 0.4569
vn -0.3428 0.7070 -0.6185
vn -0.6798 -0.7070 -0.1950
vn 0.3428 0.7070 0.6185
vn -0.6292 0.7065 -0.3241
vn -0.5161 -0.8390 0.1726
vn -0.6292 -0.7065 -0.3241
vn -0.6803 -0.7065 -0.1951
vn 0.6291 0.7065 0.3241
vn -0.6287 0.7070 -0.3239
vn 0.6286 -0.7070 0.3239
vn 0.6291 -0.7065 0.3241
vn 0.5538 -0.7065 0.4406
vn 0.4572 0.7065 0.5402
vn -0.4569 0.7070 -0.5398
vn 0.4572 -0.7065 0.5402
vn 0.3430 -0.7065 0.6190
vn 0.6286 0.7070 0.3239
vn 0.6798 0.7070 0.1950
vn 0.5029 0.6276 0.5942
vn 0.2225 0.8515 -0.4748
vn 0.1095 0.9855 0.1295
vn 0.3430 0.7065 0.6190
vn 0.5538 0.7065 0.4406
vn -0.2155 0.7071 -0.6735
vn -0.6287 -0.7070 -0.3239
vn 0.5165 -0.6008 0.6102
vn 0.2564 -0.8393 -0.4794
vn -0.5059 0.8512 0.1400
vn -0.2155 -0.7071 -0.6735
vn 0.1405 -0.9760 0.1662
vn -0.4569 -0.7070 -0.5398
vn -0.6136 0.6009 0.5124
vn -0.0041 1.0000 -0.0053
vn 0.6460 -0.0000 0.7633
vn 0.5681 -0.0000 0.8229
vn 0.7177 -0.0000 0.6963
vn 0.6059 -0.6082 -0.5128
vn -0.6059 -0.6082 0.5128
vn -0.6230 -0.5747 0.5307
vn 0.6283 -0.5740 -0.5250
vn 0.6088 0.6002 -0.5187
vn -1.0000 -0.0000 -0.0000
vn 0.1891 0.3003 0.9349
vn 0.2903 0.4594 -0.8395
vn -0.0042 -1.0000 0.0053
vn 0.0046 -1.0000 0.0049
vt 0.946397 0.554613
vt 0.986355 0.687941
vt 0.946397 0.687941
vt 0.946940 0.082862
vt 0.851346 0.216174
vt 0.851346 0.082845
vt 0.946900 0.472044
vt 0.851346 0.513796
vt 0.851346 0.473008
vt 0.851346 0.596748
vt 0.946397 0.730075
vt 0.851346 0.730075
vt 0.884974 -0.000000
vt 0.914087 0.000007
vt 0.946900 0.338810
vt 0.335980 0.770779
vt 0.364880 0.741246
vt 0.364880 0.781494
vt 0.851346 0.339774
vt 0.913313 0.257007
vt 0.919019 0.513796
vt 0.946397 0.596748
vt 0.975789 0.770892
vt 0.956953 0.770892
vt 0.196714 0.652830
vt 0.204718 0.675594
vt 0.191467 0.670100
vt 0.121979 0.856394
vt 0.109050 0.875116
vt 0.108864 0.856403
vt 0.810005 0.041286
vt 0.833386 0.047258
vt 0.821461 0.055233
vt 0.041288 0.699905
vt 0.017909 0.693913
vt 0.029844 0.685948
vt 0.121864 0.836242
vt 0.108750 0.836250
vt 0.124421 0.544536
vt 0.147185 0.536528
vt 0.141691 0.549783
vt 0.780127 0.021340
vt 0.765644 0.002036
vt 0.785610 0.008083
vt 0.121826 0.815424
vt 0.108711 0.815433
vt 0.726929 0.016123
vt 0.704161 0.008118
vt 0.724122 0.002054
vt 0.171552 0.569754
vt 0.194927 0.575743
vt 0.182996 0.583711
vt 0.121864 0.794742
vt 0.108750 0.794750
vt 0.830006 0.141615
vt 0.849310 0.127136
vt 0.843262 0.147101
vt 0.668354 0.055297
vt 0.669647 0.031201
vt 0.679798 0.041341
vt 0.121979 0.774990
vt 0.108864 0.774998
vt 0.041344 0.569698
vt 0.047334 0.546319
vt 0.055301 0.558254
vt 0.835223 0.088417
vt 0.843228 0.065652
vt 0.849292 0.085613
vt 0.122164 0.756926
vt 0.109050 0.756935
vt 0.762930 0.196711
vt 0.785694 0.204719
vt 0.765733 0.210783
vt 0.106460 0.542759
vt 0.085702 0.530445
vt 0.106455 0.528401
vt 0.122414 0.741246
vt 0.109300 0.741254
vt 0.014349 0.634790
vt 0.002036 0.655544
vt 0.000000 0.634782
vt 0.821505 0.157536
vt 0.820208 0.181636
vt 0.810061 0.171493
vt 0.966607 0.349984
vt 0.953491 0.366455
vt 0.953491 0.349984
vt 0.157538 0.711405
vt 0.181635 0.710109
vt 0.165503 0.723337
vt 0.021373 0.599559
vt 0.017960 0.575667
vt 0.029888 0.583645
vt 0.966607 0.331332
vt 0.953491 0.331332
vt 0.679853 0.171548
vt 0.685842 0.194927
vt 0.669710 0.181699
vt 0.744969 0.198487
vt 0.724211 0.210801
vt 0.727006 0.196726
vt 0.966607 0.311216
vt 0.953491 0.311216
vt 0.055235 0.711361
vt 0.065651 0.733128
vt 0.047257 0.723286
vt 0.124343 0.725139
vt 0.106372 0.741246
vt 0.106380 0.726900
vt 0.966607 0.290407
vt 0.953491 0.290407
vt 0.196729 0.616906
vt 0.212836 0.634873
vt 0.198490 0.634869
vt 0.021343 0.670027
vt 0.008083 0.675510
vt 0.966607 0.269708
vt 0.953491 0.269708
vt 0.652859 0.106456
vt 0.640545 0.085701
vt 0.654620 0.088493
vt 0.194876 0.693989
vt 0.182952 0.686014
vt 0.966607 0.249911
vt 0.953491 0.249911
vt 0.796048 0.029841
vt 0.820144 0.031138
vt 0.668397 0.157601
vt 0.646627 0.147184
vt 0.659882 0.141686
vt 0.966607 0.231780
vt 0.953491 0.231780
vt 0.165579 0.546370
vt 0.157605 0.558298
vt 0.191497 0.599632
vt 0.204753 0.594145
vt 0.127301 0.353698
vt 0.127225 0.530463
vt 0.693745 0.029885
vt 0.709659 0.021370
vt 0.659852 0.071219
vt 0.656419 0.047333
vt 0.966607 0.103525
vt 0.835238 0.124341
vt 0.851346 0.106373
vt 0.829976 0.071147
vt 0.229268 0.855288
vt 0.216395 0.874384
vt 0.216154 0.855334
vt 0.071223 0.549752
vt 0.065736 0.536493
vt 0.229102 0.834945
vt 0.215989 0.834991
vt 0.780199 0.191464
vt 0.804088 0.194877
vt 0.744890 0.014346
vt 0.762853 0.016108
vt 0.229018 0.814091
vt 0.215904 0.814137
vt 0.016126 0.616829
vt 0.002054 0.614022
vt 0.085612 0.739192
vt 0.088419 0.725123
vt 0.229018 0.793528
vt 0.215904 0.793573
vt 0.141617 0.719907
vt 0.147100 0.733163
vt 0.833436 0.165504
vt 0.229102 0.774045
vt 0.215989 0.774091
vt 0.709732 0.191494
vt 0.693810 0.182992
vt 0.031202 0.559547
vt 0.229268 0.756392
vt 0.216154 0.756437
vt 0.031137 0.710045
vt 0.744882 0.000000
vt 0.229508 0.741246
vt 0.216395 0.741292
vt 0.210783 0.655634
vt 0.744959 0.212847
vt 0.149874 0.757717
vt 0.162990 0.741246
vt 0.162990 0.757717
vt 0.640563 0.127223
vt 0.638509 0.106463
vt 0.016111 0.652753
vt 0.149874 0.776369
vt 0.162990 0.776369
vt 0.804013 0.017910
vt 0.171495 0.699961
vt 0.149874 0.796486
vt 0.162990 0.796486
vt 0.181700 0.559611
vt 0.656469 0.165578
vt 0.149874 0.817294
vt 0.162990 0.817294
vt 0.685767 0.017960
vt 0.071149 0.719876
vt 0.149874 0.837993
vt 0.162990 0.837993
vt 0.837000 0.106378
vt 0.210801 0.614111
vt 0.149874 0.857790
vt 0.162990 0.857790
vt 0.088497 0.544520
vt 0.646593 0.065735
vt 0.149874 0.875921
vt 0.162990 0.875921
vt 0.796114 0.182949
vt 0.149874 0.891692
vt 0.162990 0.891692
vt 0.008118 0.594061
vt 0.654636 0.124417
vt 0.122164 0.875108
vt 0.109300 0.891671
vt 0.127134 0.739210
vt 0.704245 0.204753
vt 0.450984 0.741250
vt 0.462546 0.755566
vt 0.451200 0.755573
vt 0.313284 0.754890
vt 0.301936 0.741246
vt 0.313284 0.741246
vt 0.313284 0.770578
vt 0.301936 0.754890
vt 0.313284 0.787705
vt 0.301936 0.770578
vt 0.313284 0.805614
vt 0.301936 0.787705
vt 0.313284 0.823616
vt 0.301936 0.805614
vt 0.313284 0.841021
vt 0.301936 0.823616
vt 0.313284 0.857158
vt 0.301936 0.841021
vt 0.313284 0.871408
vt 0.301936 0.857158
vt 0.255123 0.858038
vt 0.266234 0.871124
vt 0.254888 0.871141
vt 0.255297 0.842765
vt 0.266469 0.858021
vt 0.255405 0.825909
vt 0.266643 0.842748
vt 0.255441 0.808118
vt 0.266750 0.825893
vt 0.255405 0.790076
vt 0.266787 0.808102
vt 0.255297 0.772475
vt 0.266750 0.790059
vt 0.255123 0.755993
vt 0.266643 0.772459
vt 0.254888 0.741263
vt 0.266469 0.755977
vt 0.509249 0.754887
vt 0.497901 0.741243
vt 0.509249 0.741243
vt 0.509249 0.770575
vt 0.497901 0.754887
vt 0.509249 0.787702
vt 0.497901 0.770575
vt 0.509249 0.805611
vt 0.497901 0.787702
vt 0.509249 0.823613
vt 0.497901 0.805611
vt 0.509249 0.841018
vt 0.497901 0.823613
vt 0.509249 0.857155
vt 0.497901 0.841018
vt 0.509249 0.871405
vt 0.497901 0.857155
vt 0.451200 0.857821
vt 0.462330 0.871380
vt 0.450984 0.871387
vt 0.451361 0.842193
vt 0.462546 0.857814
vt 0.451460 0.825103
vt 0.462707 0.842185
vt 0.451493 0.807209
vt 0.462806 0.825096
vt 0.451460 0.789199
vt 0.462839 0.807202
vt 0.451361 0.771763
vt 0.462806 0.789192
vt 0.462707 0.771756
vt 0.196714 0.124421
vt 0.204718 0.147185
vt 0.191467 0.141690
vt 0.215684 0.856395
vt 0.202790 0.875140
vt 0.202569 0.856428
vt 0.810005 0.569692
vt 0.833386 0.575665
vt 0.821461 0.583640
vt 0.029844 0.157539
vt 0.031137 0.181635
vt 0.017909 0.165503
vt 0.215531 0.836243
vt 0.202417 0.836275
vt 0.141691 0.021373
vt 0.127225 0.002054
vt 0.147185 0.008118
vt 0.762853 0.544514
vt 0.785610 0.536490
vt 0.780127 0.549747
vt 0.215454 0.815425
vt 0.202340 0.815458
vt 0.726929 0.544530
vt 0.704161 0.536524
vt 0.724122 0.530460
vt 0.182996 0.055301
vt 0.181700 0.031201
vt 0.194927 0.047333
vt 0.215454 0.794743
vt 0.202340 0.794776
vt 0.835238 0.652747
vt 0.843262 0.675508
vt 0.830006 0.670021
vt 0.668354 0.583704
vt 0.669647 0.559608
vt 0.679798 0.569747
vt 0.215531 0.774990
vt 0.202417 0.775023
vt 0.041344 0.041288
vt 0.047334 0.017909
vt 0.055301 0.029844
vt 0.829976 0.599554
vt 0.849292 0.614020
vt 0.835223 0.616823
vt 0.215684 0.756927
vt 0.202569 0.756959
vt 0.780199 0.719871
vt 0.765733 0.739190
vt 0.762930 0.725117
vt 0.088497 0.016111
vt 0.106464 -0.000000
vt 0.106460 0.014349
vt 0.215904 0.741246
vt 0.202790 0.741279
vt 0.016111 0.124343
vt -0.000000 0.106372
vt 0.014349 0.106380
vt 0.821505 0.685943
vt 0.820209 0.710042
vt 0.810061 0.699900
vt 0.162990 0.757717
vt 0.176107 0.741246
vt 0.176107 0.757717
vt 0.157538 0.182995
vt 0.181635 0.181699
vt 0.165503 0.194927
vt 0.021373 0.071149
vt 0.017960 0.047257
vt 0.029888 0.055235
vt 0.162990 0.776369
vt 0.176107 0.776369
vt 0.679853 0.699955
vt 0.685842 0.723333
vt 0.669711 0.710106
vt 0.727006 0.725132
vt 0.744973 0.741243
vt 0.724211 0.739207
vt 0.162990 0.796485
vt 0.176107 0.796485
vt 0.071149 0.191467
vt 0.047257 0.194876
vt 0.055235 0.182952
vt 0.106380 0.198490
vt 0.127134 0.210800
vt 0.106363 0.212827
vt 0.162990 0.817293
vt 0.176107 0.817293
vt 0.198490 0.106459
vt 0.210801 0.085702
vt 0.212836 0.106464
vt 0.021343 0.141617
vt 0.008083 0.147100
vt 0.162990 0.837993
vt 0.176107 0.837993
vt 0.652859 0.634862
vt 0.640545 0.614108
vt 0.654620 0.616899
vt 0.194876 0.165579
vt 0.182952 0.157604
vt 0.162990 0.857790
vt 0.176107 0.857790
vt 0.804013 0.546316
vt 0.820145 0.559544
vt 0.659882 0.670093
vt 0.656469 0.693985
vt 0.646627 0.675591
vt 0.162990 0.875921
vt 0.176107 0.875921
vt 0.165579 0.017960
vt 0.157605 0.029888
vt 0.191497 0.071222
vt 0.204753 0.065736
vt 0.162990 0.891692
vt 0.176107 0.891692
vt 0.709659 0.549776
vt 0.685767 0.546366
vt 0.659852 0.599625
vt 0.656419 0.575739
vt 0.108440 0.874338
vt 0.095598 0.891383
vt 0.095326 0.874357
vt 0.837000 0.634785
vt 0.849310 0.655542
vt 0.843228 0.594059
vt 0.108239 0.855287
vt 0.095125 0.855306
vt 0.071223 0.021343
vt 0.065736 0.008083
vt 0.124421 0.016126
vt 0.108114 0.834944
vt 0.095001 0.834963
vt 0.804088 0.723283
vt 0.785694 0.733125
vt 0.744890 0.542753
vt 0.765644 0.530443
vt 0.108073 0.814090
vt 0.094959 0.814109
vt 0.016126 0.088419
vt 0.002054 0.085612
vt 0.085612 0.210783
vt 0.088419 0.196713
vt 0.108114 0.793526
vt 0.095001 0.793545
vt 0.141617 0.191497
vt 0.147100 0.204753
vt 0.833436 0.693910
vt 0.108239 0.774044
vt 0.095125 0.774063
vt 0.709732 0.719900
vt 0.693810 0.711399
vt 0.031202 0.031137
vt 0.108440 0.756391
vt 0.095326 0.756410
vt 0.041288 0.171495
vt 0.744868 0.528417
vt 0.108711 0.741246
vt 0.095598 0.741265
vt 0.210783 0.127224
vt 0.744969 0.726894
vt 0.986819 0.530267
vt 1.000000 0.513848
vt 0.999935 0.530319
vt 0.654636 0.652824
vt 0.638509 0.634870
vt 0.002036 0.127135
vt 0.986746 0.548919
vt 0.999862 0.548971
vt 0.796048 0.558248
vt 0.171495 0.171551
vt 0.986667 0.569035
vt 0.999783 0.569087
vt 0.171552 0.041344
vt 0.668397 0.686007
vt 0.986585 0.589843
vt 0.999701 0.589895
vt 0.693745 0.558291
vt 0.065651 0.204718
vt 0.986504 0.610543
vt 0.999620 0.610595
vt 0.851346 0.634780
vt 0.196729 0.088496
vt 0.986426 0.630339
vt 0.999542 0.630391
vt 0.085702 0.002036
vt 0.646593 0.594142
vt 0.986355 0.648471
vt 0.999471 0.648522
vt 0.796114 0.711356
vt 0.954426 -0.000000
vt 0.967543 -0.000000
vt 0.008118 0.065652
vt 0.640563 0.655630
vt 0.085779 0.353681
vt 0.106531 0.351636
vt 0.124343 0.196729
vt 0.704245 0.733160
vt 0.439128 0.741250
vt 0.450691 0.755566
vt 0.439344 0.755573
vt 0.497901 0.754888
vt 0.486553 0.741243
vt 0.497901 0.741243
vt 0.497901 0.770575
vt 0.486553 0.754888
vt 0.497901 0.787702
vt 0.486553 0.770575
vt 0.497901 0.805611
vt 0.486553 0.787702
vt 0.497901 0.823613
vt 0.486553 0.805611
vt 0.497901 0.841018
vt 0.486553 0.823613
vt 0.497901 0.857155
vt 0.486553 0.841018
vt 0.497901 0.871405
vt 0.486553 0.857155
vt 0.243225 0.858038
vt 0.254336 0.871124
vt 0.242990 0.871141
vt 0.243399 0.842765
vt 0.254570 0.858021
vt 0.243506 0.825909
vt 0.254745 0.842748
vt 0.243543 0.808118
vt 0.254852 0.825893
vt 0.243506 0.790076
vt 0.254888 0.808102
vt 0.243399 0.772475
vt 0.254852 0.790059
vt 0.243225 0.755993
vt 0.254745 0.772459
vt 0.242990 0.741263
vt 0.254570 0.755977
vt 0.301936 0.754890
vt 0.290588 0.741246
vt 0.301936 0.741246
vt 0.301936 0.770577
vt 0.290588 0.754890
vt 0.301936 0.787705
vt 0.290588 0.770577
vt 0.301936 0.805614
vt 0.290588 0.787705
vt 0.301936 0.823616
vt 0.290588 0.805614
vt 0.301936 0.841021
vt 0.290588 0.823616
vt 0.301936 0.857158
vt 0.290588 0.841021
vt 0.301936 0.871408
vt 0.290588 0.857158
vt 0.439345 0.857821
vt 0.450474 0.871380
vt 0.439128 0.871387
vt 0.439505 0.842193
vt 0.450691 0.857813
vt 0.439604 0.825103
vt 0.450851 0.842185
vt 0.439638 0.807209
vt 0.450950 0.825096
vt 0.439604 0.789199
vt 0.450984 0.807202
vt 0.439505 0.771763
vt 0.450950 0.789192
vt 0.450851 0.771756
vt 0.971446 0.087754
vt 0.953491 0.103525
vt 0.946940 0.087754
vt 0.364880 0.759444
vt 0.381907 0.741246
vt 0.381907 0.765747
vt 0.765808 0.387548
vt 0.745034 0.389612
vt 0.724286 0.387565
vt 0.986380 0.880252
vt 1.000000 0.752050
vt 0.999496 0.880304
vt 0.986884 0.751998
vt 0.441796 0.088418
vt 0.433791 0.065651
vt 0.447043 0.071149
vt 0.176107 0.758250
vt 0.189223 0.741246
vt 0.189223 0.758250
vt 0.254177 0.699958
vt 0.230796 0.693989
vt 0.242721 0.686011
vt 0.608665 0.055302
vt 0.607373 0.031202
vt 0.620600 0.047334
vt 0.176107 0.777285
vt 0.189223 0.777285
vt 0.496819 0.191466
vt 0.511285 0.210783
vt 0.491324 0.204718
vt 0.301329 0.725135
vt 0.278572 0.733163
vt 0.284055 0.719903
vt 0.176107 0.797620
vt 0.189223 0.797620
vt 0.337253 0.725120
vt 0.360021 0.733128
vt 0.340060 0.739192
vt 0.466957 0.171495
vt 0.443582 0.165502
vt 0.455513 0.157538
vt 0.176107 0.818473
vt 0.189223 0.818473
vt 0.234176 0.599629
vt 0.214872 0.614111
vt 0.220920 0.594146
vt 0.395829 0.685945
vt 0.394536 0.710045
vt 0.384384 0.699902
vt 0.176107 0.839042
vt 0.189223 0.839042
vt 0.597165 0.171552
vt 0.591176 0.194928
vt 0.583208 0.182996
vt 0.228959 0.652827
vt 0.220954 0.675595
vt 0.214890 0.655634
vt 0.176107 0.858539
vt 0.189223 0.858539
vt 0.283983 0.549779
vt 0.298449 0.530463
vt 0.301253 0.544533
vt 0.532049 0.198490
vt 0.552807 0.210801
vt 0.532055 0.212829
vt 0.176107 0.876212
vt 0.189223 0.876212
vt 0.624160 0.106460
vt 0.636473 0.085703
vt 0.638509 0.106465
vt 0.254122 0.569750
vt 0.230746 0.575743
vt 0.243974 0.559611
vt 0.176107 0.891383
vt 0.189223 0.891383
vt 0.480971 0.029844
vt 0.456875 0.031136
vt 0.473007 0.017909
vt 0.617136 0.141691
vt 0.620549 0.165580
vt 0.608621 0.157605
vt 0.229710 0.758773
vt 0.242622 0.741268
vt 0.242824 0.758795
vt 0.384329 0.569695
vt 0.378340 0.546319
vt 0.394472 0.559546
vt 0.319214 0.542756
vt 0.339971 0.530445
vt 0.337177 0.544517
vt 0.229834 0.778171
vt 0.242948 0.778193
vt 0.583274 0.029888
vt 0.572858 0.008118
vt 0.591252 0.017961
vt 0.532129 0.014349
vt 0.511375 0.002036
vt 0.532137 0.000000
vt 0.229876 0.798694
vt 0.242990 0.798716
vt 0.441780 0.124342
vt 0.425673 0.106372
vt 0.440019 0.106380
vt 0.617166 0.071223
vt 0.630426 0.065737
vt 0.229834 0.819553
vt 0.242948 0.819575
vt 0.411323 0.634787
vt 0.423637 0.655544
vt 0.409562 0.652750
vt 0.443633 0.047257
vt 0.455558 0.055235
vt 0.229710 0.839946
vt 0.242824 0.839968
vt 0.268134 0.711402
vt 0.244038 0.710109
vt 0.404300 0.599556
vt 0.407713 0.575667
vt 0.417555 0.594061
vt 0.229508 0.859091
vt 0.242622 0.859113
vt 0.472930 0.194876
vt 0.480905 0.182951
vt 0.447012 0.141616
vt 0.433756 0.147100
vt 0.511208 0.387548
vt 0.370437 0.711358
vt 0.354523 0.719873
vt 0.404330 0.670024
vt 0.407763 0.693913
vt 0.985732 0.403181
vt 0.998352 0.263311
vt 0.998848 0.403134
vt 0.228944 0.616903
vt 0.212837 0.634874
vt 0.234206 0.670097
vt 0.971755 0.270001
vt 0.984911 0.253028
vt 0.984872 0.270031
vt 0.567286 0.191497
vt 0.572773 0.204754
vt 0.514088 0.196713
vt 0.971711 0.289036
vt 0.984828 0.289066
vt 0.260094 0.546370
vt 0.278488 0.536528
vt 0.319292 0.726897
vt 0.298538 0.739210
vt 0.971664 0.309371
vt 0.984780 0.309401
vt 0.622383 0.124421
vt 0.636455 0.127225
vt 0.552897 0.002054
vt 0.550090 0.016126
vt 0.971615 0.330224
vt 0.984732 0.330254
vt 0.496892 0.021342
vt 0.491409 0.008083
vt 0.242677 0.583707
vt 0.971568 0.350793
vt 0.984684 0.350824
vt 0.354451 0.549749
vt 0.370372 0.558250
vt 0.607308 0.181700
vt 0.971523 0.370289
vt 0.984639 0.370320
vt 0.597221 0.041344
vt 0.319300 0.741246
vt 0.971482 0.387963
vt 0.984598 0.387993
vt 0.427727 0.085612
vt 0.319222 0.528422
vt 0.971446 0.403134
vt 0.984563 0.403165
vt 0.409547 0.616825
vt 0.425673 0.634782
vt 0.622398 0.088497
vt 0.149623 0.874229
vt 0.136760 0.891330
vt 0.136509 0.874248
vt 0.260170 0.723337
vt 0.467014 0.041288
vt 0.149437 0.855138
vt 0.136323 0.855157
vt 0.456810 0.181635
vt 0.395785 0.583642
vt 0.149322 0.834773
vt 0.136208 0.834792
vt 0.378415 0.723286
vt 0.567360 0.021373
vt 0.149284 0.813917
vt 0.136170 0.813936
vt 0.227183 0.634866
vt 0.427709 0.127134
vt 0.149322 0.793370
vt 0.136208 0.793389
vt 0.550012 0.196729
vt 0.417590 0.675510
vt 0.149437 0.773923
vt 0.136323 0.773942
vt 0.268069 0.558294
vt 0.149623 0.756323
vt 0.136509 0.756342
vt 0.630391 0.147186
vt 0.423619 0.614022
vt 0.149874 0.741246
vt 0.136760 0.741265
vt 0.514166 0.016111
vt 0.359937 0.536493
vt 0.474913 0.858048
vt 0.486042 0.871076
vt 0.474696 0.871092
vt 0.475074 0.842821
vt 0.486259 0.858032
vt 0.475173 0.825996
vt 0.486420 0.842805
vt 0.475207 0.808220
vt 0.486519 0.825980
vt 0.475173 0.790175
vt 0.486553 0.808203
vt 0.475074 0.772556
vt 0.486519 0.790159
vt 0.474913 0.756039
vt 0.486420 0.772540
vt 0.474696 0.741260
vt 0.486259 0.756023
vt 0.531945 0.754369
vt 0.520597 0.741243
vt 0.531945 0.741243
vt 0.531945 0.769660
vt 0.520597 0.754369
vt 0.531945 0.786527
vt 0.520597 0.769660
vt 0.531945 0.804324
vt 0.520597 0.786527
vt 0.531945 0.822365
vt 0.520597 0.804324
vt 0.531945 0.839959
vt 0.520597 0.822365
vt 0.531945 0.856427
vt 0.520597 0.839959
vt 0.531945 0.871138
vt 0.520597 0.856427
vt 0.278923 0.858076
vt 0.290033 0.870609
vt 0.278687 0.870636
vt 0.279098 0.843228
vt 0.290269 0.858049
vt 0.279206 0.826664
vt 0.290444 0.843202
vt 0.279242 0.809020
vt 0.290551 0.826638
vt 0.279206 0.790973
vt 0.290588 0.808993
vt 0.279098 0.773218
vt 0.290551 0.790947
vt 0.278923 0.756436
vt 0.290444 0.773191
vt 0.278687 0.741273
vt 0.290269 0.756409
vt 0.335980 0.754372
vt 0.324632 0.741246
vt 0.335980 0.741246
vt 0.335980 0.769663
vt 0.324632 0.754372
vt 0.335980 0.786530
vt 0.324632 0.769663
vt 0.335980 0.804327
vt 0.324632 0.786530
vt 0.335980 0.822368
vt 0.324632 0.804327
vt 0.335980 0.839961
vt 0.324632 0.822368
vt 0.335980 0.856430
vt 0.324632 0.839961
vt 0.335980 0.871141
vt 0.324632 0.856430
vt 0.441796 0.616825
vt 0.433791 0.594058
vt 0.447043 0.599555
vt 0.998825 0.133133
vt 0.985769 0.150183
vt 0.985708 0.133179
vt 0.254177 0.171548
vt 0.230796 0.165579
vt 0.242721 0.157601
vt 0.608665 0.583708
vt 0.607373 0.559609
vt 0.620600 0.575741
vt 0.998757 0.114098
vt 0.985641 0.114144
vt 0.514088 0.725120
vt 0.491324 0.733125
vt 0.496819 0.719873
vt 0.301329 0.196726
vt 0.278572 0.204753
vt 0.284055 0.191494
vt 0.998685 0.093763
vt 0.985568 0.093810
vt 0.354523 0.191463
vt 0.340060 0.210783
vt 0.337253 0.196710
vt 0.455513 0.685945
vt 0.456810 0.710041
vt 0.443582 0.693909
vt 0.998611 0.072910
vt 0.985494 0.072957
vt 0.228944 0.088493
vt 0.220920 0.065736
vt 0.234176 0.071219
vt 0.395829 0.157535
vt 0.394536 0.181635
vt 0.384384 0.171492
vt 0.998538 0.052341
vt 0.985421 0.052387
vt 0.597165 0.699958
vt 0.591176 0.723334
vt 0.583208 0.711402
vt 0.228959 0.124417
vt 0.220954 0.147185
vt 0.214890 0.127224
vt 0.998468 0.032845
vt 0.985352 0.032891
vt 0.301252 0.016123
vt 0.278488 0.008118
vt 0.298449 0.002054
vt 0.550012 0.725136
vt 0.532045 0.741243
vt 0.532049 0.726897
vt 0.998406 0.015171
vt 0.985289 0.015218
vt 0.622398 0.616904
vt 0.638509 0.634871
vt 0.624160 0.634867
vt 0.242677 0.055298
vt 0.243974 0.031201
vt 0.254122 0.041341
vt 0.998352 0.000000
vt 0.985235 0.000047
vt 0.467014 0.569694
vt 0.473007 0.546316
vt 0.480971 0.558250
vt 0.617136 0.670097
vt 0.620549 0.693986
vt 0.608621 0.686011
vt 0.135897 0.873242
vt 0.123056 0.890799
vt 0.122784 0.873273
vt 0.384329 0.041285
vt 0.378340 0.017909
vt 0.394472 0.031137
vt 0.337177 0.016108
vt 0.319209 -0.000000
vt 0.339971 0.002036
vt 0.135695 0.853845
vt 0.122581 0.853876
vt 0.567360 0.549780
vt 0.591252 0.546367
vt 0.583274 0.558295
vt 0.532129 0.542756
vt 0.511375 0.530442
vt 0.532148 0.528399
vt 0.135570 0.833323
vt 0.122457 0.833353
vt 0.441780 0.652749
vt 0.425673 0.634778
vt 0.440019 0.634786
vt 0.617166 0.599630
vt 0.630426 0.594143
vt 0.135528 0.812464
vt 0.122414 0.812494
vt 0.411323 0.106377
vt 0.423637 0.127135
vt 0.409562 0.124340
vt 0.443633 0.575664
vt 0.455558 0.583641
vt 0.135570 0.792070
vt 0.122457 0.792100
vt 0.260170 0.194927
vt 0.244038 0.181699
vt 0.404300 0.071146
vt 0.407713 0.047257
vt 0.417555 0.065652
vt 0.135695 0.772924
vt 0.122581 0.772955
vt 0.472930 0.723283
vt 0.480905 0.711358
vt 0.447012 0.670023
vt 0.433756 0.675507
vt 0.135897 0.755763
vt 0.122784 0.755794
vt 0.378415 0.194876
vt 0.360021 0.204718
vt 0.404330 0.141614
vt 0.407763 0.165503
vt 0.136170 0.741246
vt 0.123056 0.741277
vt 0.212836 0.106464
vt 0.214872 0.085702
vt 0.234206 0.141687
vt 0.189223 0.758250
vt 0.202340 0.741246
vt 0.202340 0.758250
vt 0.567286 0.719904
vt 0.572773 0.733160
vt 0.511285 0.739189
vt 0.189223 0.777285
vt 0.202340 0.777285
vt 0.283983 0.021370
vt 0.260094 0.017960
vt 0.319292 0.198487
vt 0.298538 0.210801
vt 0.189223 0.797620
vt 0.202340 0.797620
vt 0.622383 0.652828
vt 0.636456 0.655632
vt 0.552897 0.530461
vt 0.550090 0.544533
vt 0.189223 0.818473
vt 0.202340 0.818473
vt 0.496892 0.549749
vt 0.491409 0.536489
vt 0.230746 0.047333
vt 0.189223 0.839042
vt 0.202340 0.839042
vt 0.354451 0.021339
vt 0.370372 0.029841
vt 0.607308 0.710107
vt 0.189223 0.858539
vt 0.202340 0.858539
vt 0.597221 0.569751
vt 0.319313 0.212849
vt 0.189223 0.876212
vt 0.202340 0.876212
vt 0.427727 0.614018
vt 0.319214 0.014346
vt 0.189223 0.891383
vt 0.202340 0.891383
vt 0.409547 0.088416
vt 0.425673 0.106373
vt 0.636473 0.614109
vt 0.425860 0.758327
vt 0.438787 0.741273
vt 0.438974 0.758357
vt 0.268134 0.182992
vt 0.456875 0.559543
vt 0.425975 0.777418
vt 0.439089 0.777448
vt 0.466957 0.699902
vt 0.395785 0.055232
vt 0.426014 0.797783
vt 0.439128 0.797813
vt 0.370437 0.182948
vt 0.572858 0.536525
vt 0.425975 0.818640
vt 0.439089 0.818670
vt 0.227183 0.106456
vt 0.427709 0.655541
vt 0.425860 0.839186
vt 0.438974 0.839216
vt 0.552807 0.739208
vt 0.417590 0.147100
vt 0.425673 0.858632
vt 0.438787 0.858662
vt 0.268069 0.029885
vt 0.998885 0.150136
vt 0.630391 0.675592
vt 0.423619 0.085612
vt 0.552731 0.387566
vt 0.531979 0.389594
vt 0.514166 0.544517
vt 0.359937 0.008083
vt 0.463056 0.858048
vt 0.474185 0.871076
vt 0.462839 0.871093
vt 0.463217 0.842821
vt 0.474402 0.858032
vt 0.463316 0.825996
vt 0.474563 0.842805
vt 0.463350 0.808220
vt 0.474662 0.825980
vt 0.463316 0.790175
vt 0.474696 0.808203
vt 0.463217 0.772556
vt 0.474662 0.790159
vt 0.463056 0.756039
vt 0.474563 0.772540
vt 0.462839 0.741260
vt 0.474402 0.756023
vt 0.324632 0.754372
vt 0.313284 0.741246
vt 0.324632 0.741246
vt 0.324632 0.769663
vt 0.313284 0.754372
vt 0.324632 0.786530
vt 0.313284 0.769663
vt 0.324632 0.804327
vt 0.313284 0.786530
vt 0.324632 0.822368
vt 0.313284 0.804327
vt 0.313284 0.822368
vt 0.324632 0.856430
vt 0.313284 0.839961
vt 0.324632 0.871141
vt 0.313284 0.856430
vt 0.267022 0.858076
vt 0.278132 0.870609
vt 0.266787 0.870636
vt 0.267197 0.843229
vt 0.278368 0.858049
vt 0.267305 0.826664
vt 0.278543 0.843202
vt 0.267342 0.809020
vt 0.278651 0.826638
vt 0.267305 0.790973
vt 0.278687 0.808993
vt 0.267197 0.773218
vt 0.278651 0.790947
vt 0.267022 0.756436
vt 0.278543 0.773191
vt 0.266787 0.741273
vt 0.278368 0.756409
vt 0.520597 0.754369
vt 0.509249 0.741243
vt 0.520597 0.769660
vt 0.509249 0.754369
vt 0.509249 0.769660
vt 0.520597 0.804324
vt 0.509249 0.786527
vt 0.520597 0.822365
vt 0.509249 0.804324
vt 0.520597 0.839958
vt 0.509249 0.822365
vt 0.509249 0.839958
vt 0.520597 0.871138
vt 0.509249 0.856427
vt 0.556446 0.755760
vt 0.538252 0.772920
vt 0.531945 0.755760
vt 0.538801 0.741243
vt 0.298374 0.353698
vt 0.319147 0.351657
vt 0.339896 0.353681
vt 0.971795 0.252997
vt 0.985236 0.113204
vt 0.972119 0.113174
vt 0.984563 0.000030
vt 0.000000 0.836297
vt 0.067439 0.741246
vt 0.094959 0.836297
vt 0.946940 0.216190
vt 0.851346 0.256990
vt 0.851346 0.770892
vt 0.986355 0.513796
vt 0.986355 0.554613
vt 0.946900 0.512832
vt 0.335980 0.751961
vt 0.884216 0.257388
vt 0.878732 0.513796
vt 0.966607 0.366455
vt 0.229508 0.874338
vt 0.149874 0.741246
vt 0.122414 0.891662
vt 0.462330 0.741243
vt 0.301936 0.871408
vt 0.266234 0.741246
vt 0.497901 0.871405
vt 0.215904 0.875108
vt 0.162990 0.741246
vt 0.108711 0.891364
vt 0.986884 0.513796
vt 0.450474 0.741243
vt 0.486553 0.871405
vt 0.254336 0.741246
vt 0.290588 0.871408
vt 0.364880 0.746330
vt 0.176107 0.741246
vt 0.229508 0.741246
vt 0.985235 0.263357
vt 0.149874 0.891312
vt 0.486042 0.741243
vt 0.290033 0.741246
vt 0.136170 0.890768
vt 0.189223 0.741246
vt 0.425673 0.741243
vt 0.474185 0.741243
vt 0.313284 0.871141
vt 0.278132 0.741246
vt 0.509249 0.871138
vt 0.551365 0.772920
vt 0.551914 0.741243
vt 0.971446 0.000000
vt 0.027520 0.741246
vt 0.946940 0.257007
vt 0.946397 0.770892
vt 0.946397 0.513796
s 0
f 5/1/1 3/2/1 1/3/1
f 3/4/2 8/5/2 4/6/2
f 6/7/3 540/8/3 5/9/3
f 2/10/4 8/11/4 6/12/4
f 3/4/5 12/13/5 11/14/5
f 5/9/3 2/15/3 6/7/3
f 9/16/6 12/17/6 10/18/6
f 1/19/7 10/20/7 2/15/7
f 2/10/8 12/21/8 4/22/8
f 1/3/9 11/23/9 9/24/9
s 1
f 30/25/10 90/26/11 28/27/12
f 138/28/13 139/29/14 137/30/15
f 23/31/16 87/32/17 25/33/18
f 72/34/19 132/35/20 70/36/21
f 136/37/22 137/30/15 135/38/23
f 46/39/24 106/40/25 44/41/26
f 19/42/27 13/43/28 81/44/29
f 134/45/30 135/38/23 133/46/31
f 77/47/32 137/48/15 139/49/14
f 40/50/33 100/51/34 38/52/35
f 132/53/20 133/46/31 131/54/36
f 35/55/37 95/56/38 97/57/39
f 69/58/40 133/59/31 71/60/41
f 130/61/42 131/54/36 129/62/43
f 56/63/44 116/64/45 54/65/46
f 29/66/47 89/67/48 91/68/49
f 128/69/50 129/62/43 127/70/51
f 45/71/52 105/72/53 107/73/54
f 48/74/55 112/75/56 110/76/57
f 126/77/58 127/70/51 125/78/59
f 64/79/60 128/80/50 126/81/58
f 37/82/61 101/83/62 39/84/63
f 124/85/64 125/86/59 123/87/65
f 22/88/66 86/89/67 84/90/68
f 60/91/69 120/92/70 58/93/71
f 122/94/72 123/87/65 121/95/73
f 55/96/74 115/97/75 117/98/76
f 47/99/77 111/100/78 49/101/79
f 120/102/70 121/95/73 119/103/80
f 74/104/81 138/105/13 136/106/22
f 18/107/82 80/108/83 16/109/84
f 118/110/85 119/103/80 117/111/76
f 34/112/86 94/113/87 32/114/88
f 68/115/89 132/35/20 130/116/42
f 116/117/45 117/111/76 115/118/75
f 63/119/90 127/120/51 65/121/91
f 28/27/12 88/122/92 26/123/93
f 114/124/94 115/118/75 113/125/95
f 21/126/96 85/127/97 23/31/16
f 57/128/98 121/129/73 59/130/99
f 112/131/56 113/125/95 111/132/78
f 44/41/26 104/133/100 42/134/101
f 36/135/102 100/51/34 98/136/103
f 110/76/57 273/137/104 108/138/105
f 73/139/106 137/48/15 75/140/107
f 67/141/108 131/142/36 69/58/40
f 111/132/78 269/143/109 112/131/56
f 33/144/110 93/145/111 95/56/38
f 27/146/112 87/32/17 89/67/48
f 106/147/25 107/148/54 105/149/53
f 52/150/113 116/64/45 114/151/94
f 48/74/55 108/138/105 46/39/24
f 104/152/100 105/149/53 103/153/114
f 43/154/115 103/155/114 105/72/53
f 15/156/116 13/43/28 17/157/117
f 102/158/118 103/153/114 101/159/62
f 62/160/119 126/81/58 124/161/64
f 16/109/84 140/162/120 78/163/121
f 100/164/34 101/159/62 99/165/122
f 20/166/123 84/90/68 82/167/124
f 35/55/37 99/168/122 37/82/61
f 98/169/103 99/165/122 97/170/39
f 51/171/125 115/97/75 53/172/126
f 58/93/71 118/173/85 56/63/44
f 96/174/127 97/170/39 95/175/38
f 74/104/81 134/176/30 72/34/19
f 77/47/32 14/177/128 15/156/116
f 94/178/87 95/175/38 93/179/111
f 32/114/88 92/180/129 30/25/10
f 47/99/77 107/73/54 109/181/130
f 92/182/129 93/183/111 91/184/49
f 63/119/90 123/185/65 125/186/59
f 66/187/131 130/116/42 128/80/50
f 90/188/11 91/184/49 89/189/48
f 19/42/27 83/190/132 21/126/96
f 24/191/133 88/122/92 86/89/67
f 88/192/92 89/189/48 87/193/17
f 42/134/101 102/194/118 40/50/33
f 57/128/98 117/98/76 119/195/80
f 86/196/67 87/193/17 85/197/97
f 71/60/41 135/198/23 73/139/106
f 78/163/121 138/105/13 76/199/134
f 84/200/68 85/197/97 83/201/132
f 29/66/47 93/145/111 31/202/135
f 36/135/102 96/203/127 34/112/86
f 82/204/124 83/201/132 81/205/29
f 52/150/113 112/75/56 50/206/136
f 65/121/91 129/207/43 67/141/108
f 79/208/137 81/205/29 13/209/28
f 41/210/138 101/83/62 103/155/114
f 80/211/83 13/209/28 14/212/128
f 60/91/69 124/161/64 122/213/72
f 59/130/99 123/185/65 61/214/139
f 140/215/120 14/216/128 139/29/14
f 18/107/82 82/167/124 79/217/137
f 49/101/79 113/218/95 51/171/125
f 47/219/77 46/220/24 45/221/52
f 49/222/79 48/223/55 47/224/77
f 51/225/125 50/226/136 49/222/79
f 53/227/126 52/228/113 51/225/125
f 55/229/74 54/230/46 53/227/126
f 57/231/98 56/232/44 55/229/74
f 59/233/99 58/234/71 57/231/98
f 61/235/139 60/236/69 59/233/99
f 63/237/90 62/238/119 61/235/139
f 65/239/91 64/240/60 63/241/90
f 67/242/108 66/243/131 65/239/91
f 69/244/40 68/245/89 67/242/108
f 71/246/41 70/247/21 69/244/40
f 73/248/106 72/249/19 71/246/41
f 75/250/107 74/251/81 73/248/106
f 77/252/32 76/253/134 75/250/107
f 15/254/116 78/255/121 77/252/32
f 17/256/117 16/257/84 15/258/116
f 19/259/27 18/260/82 17/256/117
f 21/261/96 20/262/123 19/259/27
f 23/263/16 22/264/66 21/261/96
f 25/265/18 24/266/133 23/263/16
f 27/267/112 26/268/93 25/265/18
f 29/269/47 28/270/12 27/267/112
f 31/271/135 30/272/10 29/269/47
f 33/273/110 32/274/88 31/275/135
f 35/276/37 34/277/86 33/273/110
f 37/278/61 36/279/102 35/276/37
f 39/280/63 38/281/35 37/278/61
f 41/282/138 40/283/33 39/280/63
f 43/284/115 42/285/101 41/282/138
f 45/221/52 44/286/26 43/284/115
f 158/287/10 218/288/11 156/289/12
f 266/290/13 267/291/140 265/292/15
f 151/293/16 215/294/17 153/295/18
f 198/296/21 262/297/30 260/298/20
f 264/299/22 265/292/15 263/300/23
f 172/301/26 236/302/141 234/303/25
f 145/304/142 209/305/29 147/306/27
f 262/307/30 263/300/23 261/308/31
f 205/309/32 265/310/15 267/311/140
f 166/312/35 230/313/118 228/314/34
f 260/315/20 261/308/31 259/316/36
f 161/317/110 225/318/39 163/319/37
f 197/320/40 261/321/31 199/322/41
f 258/323/42 259/316/36 257/324/43
f 184/325/44 244/326/45 182/327/46
f 155/328/112 219/329/49 157/330/47
f 256/331/50 257/324/43 255/332/51
f 171/333/115 235/334/143 173/335/52
f 178/336/144 238/337/145 176/338/146
f 254/339/58 255/332/51 253/340/59
f 194/341/131 254/342/58 192/343/60
f 165/344/61 229/345/62 167/346/63
f 252/347/64 253/348/59 251/349/65
f 150/350/66 214/351/67 212/352/68
f 188/353/69 248/354/70 186/355/71
f 250/356/72 251/349/65 249/357/73
f 183/358/74 243/359/75 245/360/76
f 177/361/79 237/362/147 239/363/148
f 248/364/70 249/357/73 247/365/80
f 204/366/134 264/367/22 202/368/81
f 144/369/149 207/370/150 208/371/151
f 246/372/85 247/365/80 245/373/76
f 160/374/88 224/375/127 222/376/87
f 196/377/89 260/298/20 258/378/42
f 244/379/45 245/373/76 243/380/75
f 191/381/90 255/382/51 193/383/91
f 156/289/12 216/384/92 154/385/93
f 242/386/94 243/380/75 241/387/95
f 151/293/16 211/388/132 213/389/97
f 187/390/99 247/391/80 249/392/73
f 240/393/152 241/387/95 239/394/148
f 172/301/26 232/395/100 170/396/101
f 164/397/102 228/314/34 226/398/103
f 238/399/145 239/394/148 237/400/147
f 203/401/107 263/402/23 265/310/15
f 195/403/108 259/404/36 197/320/40
f 236/405/141 237/406/147 235/407/143
f 159/408/135 223/409/38 161/317/110
f 155/328/112 215/294/17 217/410/48
f 234/411/25 235/407/143 233/412/53
f 180/413/153 244/326/45 242/414/94
f 176/338/146 236/302/141 174/415/24
f 232/416/100 233/412/53 231/417/114
f 171/333/115 231/418/114 233/419/53
f 143/420/154 141/421/155 145/304/142
f 230/422/118 231/417/114 229/423/62
f 190/424/119 254/342/58 252/425/64
f 144/369/149 268/426/156 206/427/121
f 228/428/34 229/423/62 227/429/122
f 148/430/123 212/352/68 210/431/124
f 163/319/37 227/432/122 165/344/61
f 226/433/103 227/429/122 225/434/39
f 179/435/125 243/359/75 181/436/126
f 186/355/71 246/437/85 184/325/44
f 224/438/127 225/434/39 223/439/38
f 200/440/19 264/367/22 262/297/30
f 143/420/154 267/311/140 142/441/157
f 222/442/87 223/439/38 221/443/111
f 158/287/10 222/376/87 220/444/129
f 175/445/158 235/334/143 237/362/147
f 220/446/129 221/447/111 219/448/49
f 189/449/139 253/450/59 191/381/90
f 196/377/89 256/451/50 194/341/131
f 218/452/11 219/448/49 217/453/48
f 147/306/27 211/388/132 149/454/96
f 152/455/133 216/384/92 214/351/67
f 216/456/92 217/453/48 215/457/17
f 168/458/33 232/395/100 230/313/118
f 185/459/98 245/360/76 247/391/80
f 214/460/67 215/457/17 213/461/97
f 199/322/41 263/402/23 201/462/106
f 206/427/121 266/463/13 204/366/134
f 212/464/68 213/461/97 211/465/132
f 157/330/47 221/466/111 159/408/135
f 162/467/86 226/398/103 224/375/127
f 210/468/124 211/465/132 209/469/29
f 180/413/153 240/470/152 178/336/144
f 193/383/91 257/471/43 195/403/108
f 207/472/150 209/469/29 141/473/155
f 167/346/63 231/418/114 169/474/138
f 269/143/159 267/475/140 268/476/156
f 188/353/69 252/425/64 250/477/72
f 187/390/99 251/478/65 189/449/139
f 269/479/159 208/371/151 271/480/160
f 146/481/82 210/431/124 207/370/150
f 177/361/79 241/482/95 179/435/125
f 175/483/158 174/484/24 173/485/52
f 177/486/79 176/487/146 175/488/158
f 179/489/125 178/490/144 177/486/79
f 181/491/126 180/492/153 179/489/125
f 183/493/74 182/494/46 181/491/126
f 185/495/98 184/496/44 183/493/74
f 187/497/99 186/498/71 185/495/98
f 189/499/139 188/500/69 187/497/99
f 191/501/90 190/502/119 189/499/139
f 193/503/91 192/504/60 191/505/90
f 195/506/108 194/507/131 193/503/91
f 197/508/40 196/509/89 195/506/108
f 199/510/41 198/511/21 197/508/40
f 201/512/106 200/513/19 199/510/41
f 203/514/107 202/515/81 201/512/106
f 205/516/32 204/517/134 203/514/107
f 143/518/154 206/519/121 205/516/32
f 145/520/142 144/521/149 143/522/154
f 147/523/27 146/524/82 145/520/142
f 149/525/96 148/526/123 147/523/27
f 151/527/16 150/528/66 149/525/96
f 153/529/18 152/530/133 151/527/16
f 155/531/112 154/532/93 153/529/18
f 157/533/47 156/534/12 155/531/112
f 159/535/135 158/536/10 157/533/47
f 161/537/110 160/538/88 159/539/135
f 163/540/37 162/541/86 161/537/110
f 165/542/61 164/543/102 163/540/37
f 167/544/63 166/545/35 165/542/61
f 169/546/138 168/547/33 167/544/63
f 171/548/115 170/549/101 169/546/138
f 173/485/52 172/550/26 171/548/115
f 271/551/161 270/552/162 272/553/161
f 274/554/163 271/555/161 272/556/161
f 110/76/57 269/479/109 271/480/1
f 109/181/130 274/557/164 272/558/4
f 109/181/130 270/559/165 111/100/78
f 108/560/105 274/561/164 107/562/54
f 270/559/166 142/441/157 267/311/140
f 142/441/157 274/557/167 141/421/155
f 273/563/168 141/473/155 274/561/167
f 271/480/160 207/370/150 273/137/168
f 292/564/169 352/565/170 290/566/171
f 400/567/172 401/568/173 399/569/174
f 285/570/175 349/571/176 287/572/177
f 332/573/178 396/574/179 394/575/180
f 398/576/181 399/569/174 397/577/182
f 306/578/183 370/579/184 368/580/185
f 279/581/186 343/582/187 281/583/188
f 396/584/179 397/577/182 395/585/189
f 339/586/190 399/587/174 401/588/173
f 302/589/191 362/590/192 300/591/193
f 394/592/180 395/585/189 393/593/194
f 297/594/195 357/595/196 359/596/197
f 331/597/198 395/598/189 333/599/199
f 392/600/200 393/593/194 391/601/201
f 318/602/202 378/603/203 316/604/204
f 291/605/205 351/606/206 353/607/207
f 390/608/208 391/601/201 389/609/209
f 305/610/210 369/611/211 307/612/212
f 310/613/213 374/614/214 372/615/215
f 388/616/216 389/609/209 387/617/217
f 326/618/218 390/619/208 388/620/216
f 301/621/219 361/622/220 363/623/221
f 386/624/222 387/617/217 385/625/223
f 284/626/224 348/627/225 346/628/226
f 322/629/227 382/630/228 320/631/229
f 384/632/230 385/633/223 383/634/231
f 317/635/232 377/636/233 379/637/234
f 309/638/235 373/639/236 311/640/237
f 382/641/228 383/634/231 381/642/238
f 336/643/239 400/644/172 398/645/181
f 278/646/240 341/647/241 342/648/242
f 380/649/243 381/642/238 379/650/234
f 296/651/244 356/652/245 294/653/246
f 330/654/247 394/575/180 392/655/200
f 378/656/203 379/650/234 377/657/233
f 325/658/248 389/659/209 327/660/249
f 290/566/171 350/661/250 288/662/251
f 376/663/252 377/657/233 375/664/253
f 283/665/254 347/666/255 285/570/175
f 321/667/256 381/668/238 383/669/231
f 374/670/214 375/664/253 373/671/236
f 306/578/183 366/672/257 304/673/258
f 298/674/259 362/590/192 360/675/260
f 372/615/215 535/676/261 370/579/184
f 335/677/262 399/587/174 337/678/263
f 329/679/264 393/680/194 331/597/198
f 373/681/236 531/682/265 374/683/214
f 295/684/266 355/685/267 357/595/196
f 289/686/268 349/571/176 351/606/206
f 368/687/185 369/688/211 367/689/269
f 314/690/270 378/603/203 376/691/252
f 310/613/213 370/579/184 308/692/271
f 366/693/257 367/689/269 365/694/272
f 305/610/210 365/695/272 367/696/269
f 277/697/273 275/698/274 279/581/186
f 364/699/275 365/694/272 363/700/221
f 324/701/276 388/620/216 386/702/222
f 278/646/240 402/703/277 340/704/278
f 362/705/192 363/700/221 361/706/220
f 282/707/279 346/628/226 344/708/280
f 297/594/195 361/622/220 299/709/281
f 360/710/260 361/706/220 359/711/197
f 313/712/282 377/636/233 315/713/283
f 320/631/229 380/714/243 318/602/202
f 358/715/284 359/711/197 357/716/196
f 336/643/239 396/574/179 334/717/285
f 339/586/190 276/718/286 277/697/273
f 356/719/245 357/716/196 355/720/267
f 292/564/169 356/652/245 354/721/287
f 309/638/235 369/611/211 371/722/288
f 354/723/287 355/720/267 353/724/207
f 323/725/289 387/726/217 325/658/248
f 328/727/290 392/655/200 390/619/208
f 352/728/170 353/729/207 351/730/206
f 281/583/188 345/731/291 283/665/254
f 286/732/292 350/661/250 348/627/225
f 350/733/250 351/730/206 349/734/176
f 304/673/258 364/735/275 302/589/191
f 319/736/293 379/637/234 381/668/238
f 348/737/225 349/734/176 347/738/255
f 333/599/199 397/739/182 335/677/262
f 340/704/278 400/644/172 338/740/294
f 346/741/226 347/738/255 345/742/291
f 291/605/205 355/685/267 293/743/295
f 298/674/259 358/744/284 296/651/244
f 344/745/280 345/742/291 343/746/187
f 314/690/270 374/614/214 312/747/296
f 327/660/249 391/748/201 329/679/264
f 341/749/241 343/746/187 275/750/274
f 303/751/297 363/623/221 365/695/272
f 342/752/242 275/750/274 276/753/286
f 322/629/227 386/702/222 384/754/230
f 321/667/256 385/755/223 323/725/289
f 402/756/277 276/753/286 401/757/173
f 280/758/298 344/708/280 341/647/241
f 311/640/237 375/759/253 313/712/282
f 309/760/235 308/761/271 307/762/212
f 311/763/237 310/764/213 309/760/235
f 313/765/282 312/766/296 311/763/237
f 315/767/283 314/768/270 313/765/282
f 317/769/232 316/770/204 315/767/283
f 319/771/293 318/772/202 317/769/232
f 321/773/256 320/774/229 319/771/293
f 323/775/289 322/776/227 321/773/256
f 325/777/248 324/778/276 323/779/289
f 327/780/249 326/781/218 325/777/248
f 329/782/264 328/783/290 327/780/249
f 331/784/198 330/785/247 329/782/264
f 333/786/199 332/787/178 331/784/198
f 335/788/262 334/789/285 333/786/199
f 337/790/263 336/791/239 335/788/262
f 339/792/190 338/793/294 337/790/263
f 277/794/273 340/795/278 339/796/190
f 279/797/186 278/798/240 277/794/273
f 281/799/188 280/800/298 279/797/186
f 283/801/254 282/802/279 281/799/188
f 285/803/175 284/804/224 283/801/254
f 287/805/177 286/806/292 285/803/175
f 289/807/268 288/808/251 287/805/177
f 291/809/205 290/810/171 289/807/268
f 293/811/295 292/812/169 291/813/205
f 295/814/266 294/815/246 293/811/295
f 297/816/195 296/817/244 295/814/266
f 299/818/281 298/819/259 297/816/195
f 301/820/219 300/821/193 299/818/281
f 303/822/297 302/823/191 301/820/219
f 305/824/210 304/825/258 303/822/297
f 307/826/212 306/827/183 305/824/210
f 420/828/169 480/829/170 418/830/171
f 528/831/299 529/832/300 527/833/301
f 413/834/175 477/835/176 415/836/177
f 460/837/178 524/838/179 522/839/180
f 526/840/181 527/833/301 525/841/302
f 436/842/271 496/843/303 434/844/304
f 407/845/186 471/846/187 409/847/188
f 524/848/179 525/841/302 523/849/189
f 465/850/305 529/851/300 467/852/190
f 428/853/193 492/854/275 490/855/192
f 522/856/180 523/849/189 521/857/194
f 423/858/266 487/859/197 425/860/195
f 459/861/198 523/862/189 461/863/199
f 520/864/200 521/857/194 519/865/201
f 446/866/202 506/867/203 444/868/204
f 419/869/205 479/870/206 481/871/207
f 518/872/208 519/865/201 517/873/209
f 435/874/212 495/875/306 497/876/307
f 440/877/296 500/878/308 438/879/309
f 516/880/216 517/873/209 515/881/217
f 456/882/290 516/883/216 454/884/218
f 427/885/281 491/886/221 429/887/219
f 514/888/222 515/881/217 513/889/223
f 414/890/292 474/891/226 412/892/224
f 450/893/227 510/894/228 448/895/229
f 512/896/230 513/897/223 511/898/231
f 445/899/232 505/900/233 507/901/234
f 439/902/237 499/903/310 501/904/311
f 510/905/228 511/898/231 509/906/238
f 466/907/312 526/908/181 464/909/313
f 406/910/314 469/911/315 470/912/316
f 508/913/243 509/906/238 507/914/234
f 424/915/244 484/916/245 422/917/246
f 458/918/247 522/839/180 520/919/200
f 506/920/203 507/914/234 505/921/233
f 453/922/248 517/923/209 455/924/249
f 418/830/171 478/925/250 416/926/251
f 504/927/252 505/921/233 503/928/253
f 413/834/175 473/929/291 475/930/255
f 449/931/256 509/932/238 511/933/231
f 502/934/317 503/928/253 501/935/311
f 434/844/304 494/936/257 432/937/258
f 426/938/259 490/855/192 488/939/260
f 500/940/308 501/935/311 499/941/310
f 465/850/305 525/942/302 527/943/301
f 457/944/264 521/945/194 459/861/198
f 498/946/318 499/941/310 497/947/307
f 423/858/266 483/948/267 485/949/196
f 417/950/268 477/835/176 479/870/206
f 496/951/303 497/952/307 495/953/306
f 442/954/319 506/867/203 504/955/252
f 436/842/271 500/878/308 498/956/318
f 494/957/257 495/953/306 493/958/272
f 433/959/320 493/960/272 495/875/306
f 405/961/321 403/962/322 407/845/186
f 492/963/275 493/958/272 491/964/221
f 452/965/276 516/883/216 514/966/222
f 406/910/314 530/967/323 468/968/278
f 490/969/192 491/964/221 489/970/220
f 410/971/279 474/891/226 472/972/280
f 425/860/195 489/973/220 427/885/281
f 488/974/260 489/970/220 487/975/197
f 441/976/324 505/900/233 443/977/283
f 448/895/229 508/978/243 446/866/202
f 486/979/284 487/975/197 485/980/196
f 462/981/285 526/908/181 524/838/179
f 405/961/321 529/851/300 404/982/325
f 484/983/245 485/980/196 483/984/267
f 420/828/169 484/916/245 482/985/287
f 437/986/326 497/876/307 499/903/310
f 482/987/287 483/984/267 481/988/207
f 451/989/289 515/990/217 453/922/248
f 458/918/247 518/991/208 456/882/290
f 480/992/170 481/993/207 479/994/206
f 409/847/188 473/929/291 411/995/254
f 414/890/292 478/925/250 476/996/225
f 478/997/250 479/994/206 477/998/176
f 430/999/191 494/936/257 492/854/275
f 447/1000/293 507/901/234 509/932/238
f 476/1001/225 477/998/176 475/1002/255
f 461/863/199 525/942/302 463/1003/262
f 466/907/312 530/967/323 528/1004/299
f 474/1005/226 475/1002/255 473/1006/291
f 419/869/205 483/948/267 421/1007/295
f 424/915/244 488/939/260 486/1008/284
f 472/1009/280 473/1006/291 471/1010/187
f 442/954/319 502/1011/317 440/877/296
f 457/944/264 517/923/209 519/1012/201
f 469/1013/315 471/1010/187 403/1014/322
f 429/887/219 493/960/272 431/1015/297
f 531/682/327 529/832/300 530/1016/323
f 450/893/227 514/966/222 512/1017/230
f 449/931/256 513/1018/223 451/989/289
f 531/1019/327 470/912/316 533/1020/328
f 408/1021/298 472/972/280 469/911/315
f 441/976/324 501/904/311 503/1022/253
f 437/1023/326 436/1024/271 435/1025/212
f 439/1026/237 438/1027/309 437/1023/326
f 441/1028/324 440/1029/296 439/1026/237
f 443/1030/283 442/1031/319 441/1028/324
f 445/1032/232 444/1033/204 443/1030/283
f 447/1034/293 446/1035/202 445/1032/232
f 449/1036/256 448/1037/229 447/1034/293
f 451/1038/289 450/1039/227 449/1036/256
f 453/1040/248 452/1041/276 451/1042/289
f 455/1043/249 454/1044/218 453/1040/248
f 457/1045/264 456/1046/290 455/1043/249
f 459/1047/198 458/1048/247 457/1045/264
f 461/1049/199 460/1050/178 459/1047/198
f 463/825/262 462/1051/285 461/1049/199
f 465/1052/305 464/1053/313 463/825/262
f 467/1054/190 466/1055/312 465/1052/305
f 405/1056/321 468/1057/278 467/1058/190
f 407/1059/186 406/1060/314 405/1056/321
f 409/1061/188 408/1062/298 407/1059/186
f 411/1063/254 410/1064/279 409/1061/188
f 413/1065/175 412/1066/224 411/1063/254
f 415/1067/177 414/1068/292 413/1065/175
f 417/1069/268 416/1070/251 415/1067/177
f 419/1071/205 418/1072/171 417/1069/268
f 421/1073/295 420/1074/169 419/778/205
f 423/1075/266 422/1076/246 421/1073/295
f 425/785/195 424/1077/244 423/1075/266
f 427/1078/281 426/1079/259 425/785/195
f 429/1080/219 428/1081/193 427/1078/281
f 431/1082/297 430/1083/191 429/1080/219
f 433/793/320 432/1084/258 431/1082/297
f 435/1085/212 434/1086/304 433/793/320
f 533/1087/329 532/1088/330 534/1089/329
f 536/1090/331 533/1087/329 534/1089/329
f 372/615/215 531/1019/265 533/1020/1
f 371/722/288 536/1091/332 534/1092/4
f 371/722/288 532/1093/333 373/639/236
f 370/1094/184 536/1095/332 369/688/211
f 532/1093/334 404/982/325 529/851/300
f 404/982/325 536/1091/335 403/962/322
f 535/1096/336 403/1097/322 536/1095/335
f 533/1020/328 469/911/315 535/676/336
s 0
f 538/1098/337 540/1099/337 537/1100/337
f 7/1101/2 538/1102/2 8/5/2
f 8/11/4 537/1103/4 6/12/4
f 5/1/1 539/1104/1 7/1105/1
f 5/1/1 7/1105/1 3/2/1
f 3/4/2 7/1101/2 8/5/2
f 6/7/3 537/1106/3 540/8/3
f 2/10/4 4/22/4 8/11/4
f 3/4/338 4/6/338 12/13/338
f 5/9/3 1/19/3 2/15/3
f 9/16/6 11/1107/6 12/17/6
f 1/19/339 9/1108/339 10/20/339
f 2/10/8 10/1109/8 12/21/8
f 1/3/9 3/2/9 11/23/9
s 1
f 30/25/10 92/180/129 90/26/11
f 138/28/13 140/215/120 139/29/14
f 23/31/16 85/127/97 87/32/17
f 72/34/19 134/176/30 132/35/20
f 136/37/22 138/28/13 137/30/15
f 46/39/24 108/138/105 106/40/25
f 19/42/27 17/157/117 13/43/28
f 134/45/30 136/37/22 135/38/23
f 77/47/32 75/140/107 137/48/15
f 40/50/33 102/194/118 100/51/34
f 132/53/20 134/45/30 133/46/31
f 35/55/37 33/144/110 95/56/38
f 69/58/40 131/142/36 133/59/31
f 130/61/42 132/53/20 131/54/36
f 56/63/44 118/173/85 116/64/45
f 29/66/47 27/146/112 89/67/48
f 128/69/50 130/61/42 129/62/43
f 45/71/52 43/154/115 105/72/53
f 48/74/55 50/206/136 112/75/56
f 126/77/58 128/69/50 127/70/51
f 64/79/60 66/187/131 128/80/50
f 37/82/61 99/168/122 101/83/62
f 124/85/64 126/1110/58 125/86/59
f 22/88/66 24/191/133 86/89/67
f 60/91/69 122/213/72 120/92/70
f 122/94/72 124/85/64 123/87/65
f 55/96/74 53/172/126 115/97/75
f 47/99/77 109/181/130 111/100/78
f 120/102/70 122/94/72 121/95/73
f 74/104/81 76/199/134 138/105/13
f 18/107/82 79/217/137 80/108/83
f 118/110/85 120/102/70 119/103/80
f 34/112/86 96/203/127 94/113/87
f 68/115/89 70/36/21 132/35/20
f 116/117/45 118/110/85 117/111/76
f 63/119/90 125/186/59 127/120/51
f 28/27/12 90/26/11 88/122/92
f 114/124/94 116/117/45 115/118/75
f 21/126/96 83/190/132 85/127/97
f 57/128/98 119/195/80 121/129/73
f 112/131/56 114/124/94 113/125/95
f 44/41/26 106/40/25 104/133/100
f 36/135/102 38/52/35 100/51/34
f 110/76/57 271/480/1 273/137/104
f 73/139/106 135/198/23 137/48/15
f 67/141/108 129/207/43 131/142/36
f 111/132/78 270/552/165 269/143/109
f 33/144/110 31/202/135 93/145/111
f 27/146/112 25/33/18 87/32/17
f 106/147/25 108/1111/105 107/148/54
f 52/150/113 54/65/46 116/64/45
f 48/74/55 110/76/57 108/138/105
f 104/152/100 106/147/25 105/149/53
f 43/154/115 41/210/138 103/155/114
f 15/156/116 14/177/128 13/43/28
f 102/158/118 104/152/100 103/153/114
f 62/160/119 64/79/60 126/81/58
f 16/109/84 80/108/83 140/162/120
f 100/164/34 102/158/118 101/159/62
f 20/166/123 22/88/66 84/90/68
f 35/55/37 97/57/39 99/168/122
f 98/169/103 100/164/34 99/165/122
f 51/171/125 113/218/95 115/97/75
f 58/93/71 120/92/70 118/173/85
f 96/174/127 98/169/103 97/170/39
f 74/104/81 136/106/22 134/176/30
f 77/47/32 139/49/14 14/177/128
f 94/178/87 96/174/127 95/175/38
f 32/114/88 94/113/87 92/180/129
f 47/99/77 45/71/52 107/73/54
f 92/182/129 94/1112/87 93/183/111
f 63/119/90 61/214/139 123/185/65
f 66/187/131 68/115/89 130/116/42
f 90/188/11 92/182/129 91/184/49
f 19/42/27 81/44/29 83/190/132
f 24/191/133 26/123/93 88/122/92
f 88/192/92 90/188/11 89/189/48
f 42/134/101 104/133/100 102/194/118
f 57/128/98 55/96/74 117/98/76
f 86/196/67 88/192/92 87/193/17
f 71/60/41 133/59/31 135/198/23
f 78/163/121 140/162/120 138/105/13
f 84/200/68 86/196/67 85/197/97
f 29/66/47 91/68/49 93/145/111
f 36/135/102 98/136/103 96/203/127
f 82/204/124 84/200/68 83/201/132
f 52/150/113 114/151/94 112/75/56
f 65/121/91 127/120/51 129/207/43
f 79/208/137 82/204/124 81/205/29
f 41/210/138 39/84/63 101/83/62
f 80/211/83 79/208/137 13/209/28
f 60/91/69 62/160/119 124/161/64
f 59/130/99 121/129/73 123/185/65
f 140/215/120 80/1113/83 14/216/128
f 18/107/82 20/166/123 82/167/124
f 49/101/79 111/100/78 113/218/95
f 47/219/77 48/1114/55 46/220/24
f 49/222/79 50/226/136 48/223/55
f 51/225/125 52/228/113 50/226/136
f 53/227/126 54/230/46 52/228/113
f 55/229/74 56/232/44 54/230/46
f 57/231/98 58/234/71 56/232/44
f 59/233/99 60/236/69 58/234/71
f 61/235/139 62/238/119 60/236/69
f 63/237/90 64/1115/60 62/238/119
f 65/239/91 66/243/131 64/240/60
f 67/242/108 68/245/89 66/243/131
f 69/244/40 70/247/21 68/245/89
f 71/246/41 72/249/19 70/247/21
f 73/248/106 74/251/81 72/249/19
f 75/250/107 76/253/134 74/251/81
f 77/252/32 78/255/121 76/253/134
f 15/254/116 16/1116/84 78/255/121
f 17/256/117 18/260/82 16/257/84
f 19/259/27 20/262/123 18/260/82
f 21/261/96 22/264/66 20/262/123
f 23/263/16 24/266/133 22/264/66
f 25/265/18 26/268/93 24/266/133
f 27/267/112 28/270/12 26/268/93
f 29/269/47 30/272/10 28/270/12
f 31/271/135 32/1117/88 30/272/10
f 33/273/110 34/277/86 32/274/88
f 35/276/37 36/279/102 34/277/86
f 37/278/61 38/281/35 36/279/102
f 39/280/63 40/283/33 38/281/35
f 41/282/138 42/285/101 40/283/33
f 43/284/115 44/286/26 42/285/101
f 45/221/52 46/220/24 44/286/26
f 158/287/10 220/444/129 218/288/11
f 266/290/13 268/1118/156 267/291/140
f 151/293/16 213/389/97 215/294/17
f 198/296/21 200/440/19 262/297/30
f 264/299/22 266/290/13 265/292/15
f 172/301/26 174/415/24 236/302/141
f 145/304/142 141/421/155 209/305/29
f 262/307/30 264/299/22 263/300/23
f 205/309/32 203/401/107 265/310/15
f 166/312/35 168/458/33 230/313/118
f 260/315/20 262/307/30 261/308/31
f 161/317/110 223/409/38 225/318/39
f 197/320/40 259/404/36 261/321/31
f 258/323/42 260/315/20 259/316/36
f 184/325/44 246/437/85 244/326/45
f 155/328/112 217/410/48 219/329/49
f 256/331/50 258/323/42 257/324/43
f 171/333/115 233/419/53 235/334/143
f 178/336/144 240/470/152 238/337/145
f 254/339/58 256/331/50 255/332/51
f 194/341/131 256/451/50 254/342/58
f 165/344/61 227/432/122 229/345/62
f 252/347/64 254/1119/58 253/348/59
f 150/350/66 152/455/133 214/351/67
f 188/353/69 250/477/72 248/354/70
f 250/356/72 252/347/64 251/349/65
f 183/358/74 181/436/126 243/359/75
f 177/361/79 175/445/158 237/362/147
f 248/364/70 250/356/72 249/357/73
f 204/366/134 266/463/13 264/367/22
f 144/369/149 146/481/82 207/370/150
f 246/372/85 248/364/70 247/365/80
f 160/374/88 162/467/86 224/375/127
f 196/377/89 198/296/21 260/298/20
f 244/379/45 246/372/85 245/373/76
f 191/381/90 253/450/59 255/382/51
f 156/289/12 218/288/11 216/384/92
f 242/386/94 244/379/45 243/380/75
f 151/293/16 149/454/96 211/388/132
f 187/390/99 185/459/98 247/391/80
f 240/393/152 242/386/94 241/387/95
f 172/301/26 234/303/25 232/395/100
f 164/397/102 166/312/35 228/314/34
f 238/399/145 240/393/152 239/394/148
f 203/401/107 201/462/106 263/402/23
f 195/403/108 257/471/43 259/404/36
f 236/405/141 238/1120/145 237/406/147
f 159/408/135 221/466/111 223/409/38
f 155/328/112 153/295/18 215/294/17
f 234/411/25 236/405/141 235/407/143
f 180/413/153 182/327/46 244/326/45
f 176/338/146 238/337/145 236/302/141
f 232/416/100 234/411/25 233/412/53
f 171/333/115 169/474/138 231/418/114
f 143/420/154 142/441/157 141/421/155
f 230/422/118 232/416/100 231/417/114
f 190/424/119 192/343/60 254/342/58
f 144/369/149 208/371/151 268/426/156
f 228/428/34 230/422/118 229/423/62
f 148/430/123 150/350/66 212/352/68
f 163/319/37 225/318/39 227/432/122
f 226/433/103 228/428/34 227/429/122
f 179/435/125 241/482/95 243/359/75
f 186/355/71 248/354/70 246/437/85
f 224/438/127 226/433/103 225/434/39
f 200/440/19 202/368/81 264/367/22
f 143/420/154 205/309/32 267/311/140
f 222/442/87 224/438/127 223/439/38
f 158/287/10 160/374/88 222/376/87
f 175/445/158 173/335/52 235/334/143
f 220/446/129 222/1121/87 221/447/111
f 189/449/139 251/478/65 253/450/59
f 196/377/89 258/378/42 256/451/50
f 218/452/11 220/446/129 219/448/49
f 147/306/27 209/305/29 211/388/132
f 152/455/133 154/385/93 216/384/92
f 216/456/92 218/452/11 217/453/48
f 168/458/33 170/396/101 232/395/100
f 185/459/98 183/358/74 245/360/76
f 214/460/67 216/456/92 215/457/17
f 199/322/41 261/321/31 263/402/23
f 206/427/121 268/426/156 266/463/13
f 212/464/68 214/460/67 213/461/97
f 157/330/47 219/329/49 221/466/111
f 162/467/86 164/397/102 226/398/103
f 210/468/124 212/464/68 211/465/132
f 180/413/153 242/414/94 240/470/152
f 193/383/91 255/382/51 257/471/43
f 207/472/150 210/468/124 209/469/29
f 167/346/63 229/345/62 231/418/114
f 269/143/159 270/552/166 267/475/140
f 188/353/69 190/424/119 252/425/64
f 187/390/99 249/392/73 251/478/65
f 269/479/159 268/426/156 208/371/151
f 146/481/82 148/430/123 210/431/124
f 177/361/79 239/363/148 241/482/95
f 175/483/158 176/1122/146 174/484/24
f 177/486/79 178/490/144 176/487/146
f 179/489/125 180/492/153 178/490/144
f 181/491/126 182/494/46 180/492/153
f 183/493/74 184/496/44 182/494/46
f 185/495/98 186/498/71 184/496/44
f 187/497/99 188/500/69 186/498/71
f 189/499/139 190/502/119 188/500/69
f 191/501/90 192/1123/60 190/502/119
f 193/503/91 194/507/131 192/504/60
f 195/506/108 196/509/89 194/507/131
f 197/508/40 198/511/21 196/509/89
f 199/510/41 200/513/19 198/511/21
f 201/512/106 202/515/81 200/513/19
f 203/514/107 204/517/134 202/515/81
f 205/516/32 206/519/121 204/517/134
f 143/518/154 144/1124/149 206/519/121
f 145/520/142 146/524/82 144/521/149
f 147/523/27 148/526/123 146/524/82
f 149/525/96 150/528/66 148/526/123
f 151/527/16 152/530/133 150/528/66
f 153/529/18 154/532/93 152/530/133
f 155/531/112 156/534/12 154/532/93
f 157/533/47 158/536/10 156/534/12
f 159/535/135 160/1125/88 158/536/10
f 161/537/110 162/541/86 160/538/88
f 163/540/37 164/543/102 162/541/86
f 165/542/61 166/545/35 164/543/102
f 167/544/63 168/547/33 166/545/35
f 169/546/138 170/549/101 168/547/33
f 171/548/115 172/550/26 170/549/101
f 173/485/52 174/484/24 172/550/26
f 271/551/161 269/143/162 270/552/162
f 274/554/163 273/1126/163 271/555/161
f 110/76/57 112/75/56 269/479/109
f 109/181/130 107/73/54 274/557/164
f 109/181/130 272/558/4 270/559/165
f 108/560/105 273/563/104 274/561/164
f 270/559/166 272/558/340 142/441/157
f 142/441/157 272/558/340 274/557/167
f 273/563/168 207/472/150 141/473/155
f 271/480/160 208/371/151 207/370/150
f 292/564/169 354/721/287 352/565/170
f 400/567/172 402/1127/277 401/568/173
f 285/570/175 347/666/255 349/571/176
f 332/573/178 334/717/285 396/574/179
f 398/576/181 400/567/172 399/569/174
f 306/578/183 308/692/271 370/579/184
f 279/581/186 275/698/274 343/582/187
f 396/584/179 398/576/181 397/577/182
f 339/586/190 337/678/263 399/587/174
f 302/589/191 364/735/275 362/590/192
f 394/592/180 396/584/179 395/585/189
f 297/594/195 295/684/266 357/595/196
f 331/597/198 393/680/194 395/598/189
f 392/600/200 394/592/180 393/593/194
f 318/602/202 380/714/243 378/603/203
f 291/605/205 289/686/268 351/606/206
f 390/608/208 392/600/200 391/601/201
f 305/610/210 367/696/269 369/611/211
f 310/613/213 312/747/296 374/614/214
f 388/616/216 390/608/208 389/609/209
f 326/618/218 328/727/290 390/619/208
f 301/621/219 299/709/281 361/622/220
f 386/624/222 388/616/216 387/617/217
f 284/626/224 286/732/292 348/627/225
f 322/629/227 384/754/230 382/630/228
f 384/632/230 386/1128/222 385/633/223
f 317/635/232 315/713/283 377/636/233
f 309/638/235 371/722/288 373/639/236
f 382/641/228 384/632/230 383/634/231
f 336/643/239 338/740/294 400/644/172
f 278/646/240 280/758/298 341/647/241
f 380/649/243 382/641/228 381/642/238
f 296/651/244 358/744/284 356/652/245
f 330/654/247 332/573/178 394/575/180
f 378/656/203 380/649/243 379/650/234
f 325/658/248 387/726/217 389/659/209
f 290/566/171 352/565/170 350/661/250
f 376/663/252 378/656/203 377/657/233
f 283/665/254 345/731/291 347/666/255
f 321/667/256 319/736/293 381/668/238
f 374/670/214 376/663/252 375/664/253
f 306/578/183 368/580/185 366/672/257
f 298/674/259 300/591/193 362/590/192
f 372/615/215 533/1020/1 535/676/261
f 335/677/262 397/739/182 399/587/174
f 329/679/264 391/748/201 393/680/194
f 373/681/236 532/1129/333 531/682/265
f 295/684/266 293/743/295 355/685/267
f 289/686/268 287/572/177 349/571/176
f 368/687/185 370/1094/184 369/688/211
f 314/690/270 316/604/204 378/603/203
f 310/613/213 372/615/215 370/579/184
f 366/693/257 368/687/185 367/689/269
f 305/610/210 303/751/297 365/695/272
f 277/697/273 276/718/286 275/698/274
f 364/699/275 366/693/257 365/694/272
f 324/701/276 326/618/218 388/620/216
f 278/646/240 342/648/242 402/703/277
f 362/705/192 364/699/275 363/700/221
f 282/707/279 284/626/224 346/628/226
f 297/594/195 359/596/197 361/622/220
f 360/710/260 362/705/192 361/706/220
f 313/712/282 375/759/253 377/636/233
f 320/631/229 382/630/228 380/714/243
f 358/715/284 360/710/260 359/711/197
f 336/643/239 398/645/181 396/574/179
f 339/586/190 401/588/173 276/718/286
f 356/719/245 358/715/284 357/716/196
f 292/564/169 294/653/246 356/652/245
f 309/638/235 307/612/212 369/611/211
f 354/723/287 356/719/245 355/720/267
f 323/725/289 385/755/223 387/726/217
f 328/727/290 330/654/247 392/655/200
f 352/728/170 354/1130/287 353/729/207
f 281/583/188 343/582/187 345/731/291
f 286/732/292 288/662/251 350/661/250
f 350/733/250 352/728/170 351/730/206
f 304/673/258 366/672/257 364/735/275
f 319/736/293 317/635/232 379/637/234
f 348/737/225 350/733/250 349/734/176
f 333/599/199 395/598/189 397/739/182
f 340/704/278 402/703/277 400/644/172
f 346/741/226 348/737/225 347/738/255
f 291/605/205 353/607/207 355/685/267
f 298/674/259 360/675/260 358/744/284
f 344/745/280 346/741/226 345/742/291
f 314/690/270 376/691/252 374/614/214
f 327/660/249 389/659/209 391/748/201
f 341/749/241 344/745/280 343/746/187
f 303/751/297 301/621/219 363/623/221
f 342/752/242 341/749/241 275/750/274
f 322/629/227 324/701/276 386/702/222
f 321/667/256 383/669/231 385/755/223
f 402/756/277 342/752/242 276/753/286
f 280/758/298 282/707/279 344/708/280
f 311/640/237 373/639/236 375/759/253
f 309/760/235 310/764/213 308/761/271
f 311/763/237 312/766/296 310/764/213
f 313/765/282 314/768/270 312/766/296
f 315/767/283 316/770/204 314/768/270
f 317/769/232 318/772/202 316/770/204
f 319/771/293 320/774/229 318/772/202
f 321/773/256 322/776/227 320/774/229
f 323/775/289 324/1131/276 322/776/227
f 325/777/248 326/781/218 324/778/276
f 327/780/249 328/783/290 326/781/218
f 329/782/264 330/785/247 328/783/290
f 331/784/198 332/787/178 330/785/247
f 333/786/199 334/789/285 332/787/178
f 335/788/262 336/791/239 334/789/285
f 337/790/263 338/793/294 336/791/239
f 339/792/190 340/1085/278 338/793/294
f 277/794/273 278/798/240 340/795/278
f 279/797/186 280/800/298 278/798/240
f 281/799/188 282/802/279 280/800/298
f 283/801/254 284/804/224 282/802/279
f 285/803/175 286/806/292 284/804/224
f 287/805/177 288/808/251 286/806/292
f 289/807/268 290/810/171 288/808/251
f 291/809/205 292/1132/169 290/810/171
f 293/811/295 294/815/246 292/812/169
f 295/814/266 296/817/244 294/815/246
f 297/816/195 298/819/259 296/817/244
f 299/818/281 300/821/193 298/819/259
f 301/820/219 302/823/191 300/821/193
f 303/822/297 304/825/258 302/823/191
f 305/824/210 306/827/183 304/825/258
f 307/826/212 308/1054/271 306/827/183
f 420/828/169 482/985/287 480/829/170
f 528/831/299 530/1016/323 529/832/300
f 413/834/175 475/930/255 477/835/176
f 460/837/178 462/981/285 524/838/179
f 526/840/181 528/831/299 527/833/301
f 436/842/271 498/956/318 496/843/303
f 407/845/186 403/962/322 471/846/187
f 524/848/179 526/840/181 525/841/302
f 465/850/305 527/943/301 529/851/300
f 428/853/193 430/999/191 492/854/275
f 522/856/180 524/848/179 523/849/189
f 423/858/266 485/949/196 487/859/197
f 459/861/198 521/945/194 523/862/189
f 520/864/200 522/856/180 521/857/194
f 446/866/202 508/978/243 506/867/203
f 419/869/205 417/950/268 479/870/206
f 518/872/208 520/864/200 519/865/201
f 435/874/212 433/959/320 495/875/306
f 440/877/296 502/1011/317 500/878/308
f 516/880/216 518/872/208 517/873/209
f 456/882/290 518/991/208 516/883/216
f 427/885/281 489/973/220 491/886/221
f 514/888/222 516/880/216 515/881/217
f 414/890/292 476/996/225 474/891/226
f 450/893/227 512/1017/230 510/894/228
f 512/896/230 514/1133/222 513/897/223
f 445/899/232 443/977/283 505/900/233
f 439/902/237 437/986/326 499/903/310
f 510/905/228 512/896/230 511/898/231
f 466/907/312 528/1004/299 526/908/181
f 406/910/314 408/1021/298 469/911/315
f 508/913/243 510/905/228 509/906/238
f 424/915/244 486/1008/284 484/916/245
f 458/918/247 460/837/178 522/839/180
f 506/920/203 508/913/243 507/914/234
f 453/922/248 515/990/217 517/923/209
f 418/830/171 480/829/170 478/925/250
f 504/927/252 506/920/203 505/921/233
f 413/834/175 411/995/254 473/929/291
f 449/931/256 447/1000/293 509/932/238
f 502/934/317 504/927/252 503/928/253
f 434/844/304 496/843/303 494/936/257
f 426/938/259 428/853/193 490/855/192
f 500/940/308 502/934/317 501/935/311
f 465/850/305 463/1003/262 525/942/302
f 457/944/264 519/1012/201 521/945/194
f 498/946/318 500/940/308 499/941/310
f 423/858/266 421/1007/295 483/948/267
f 417/950/268 415/836/177 477/835/176
f 496/951/303 498/1134/318 497/952/307
f 442/954/319 444/868/204 506/867/203
f 436/842/271 438/879/309 500/878/308
f 494/957/257 496/951/303 495/953/306
f 433/959/320 431/1015/297 493/960/272
f 405/961/321 404/982/325 403/962/322
f 492/963/275 494/957/257 493/958/272
f 452/965/276 454/884/218 516/883/216
f 406/910/314 470/912/316 530/967/323
f 490/969/192 492/963/275 491/964/221
f 410/971/279 412/892/224 474/891/226
f 425/860/195 487/859/197 489/973/220
f 488/974/260 490/969/192 489/970/220
f 441/976/324 503/1022/253 505/900/233
f 448/895/229 510/894/228 508/978/243
f 486/979/284 488/974/260 487/975/197
f 462/981/285 464/909/313 526/908/181
f 405/961/321 467/852/190 529/851/300
f 484/983/245 486/979/284 485/980/196
f 420/828/169 422/917/246 484/916/245
f 437/986/326 435/874/212 497/876/307
f 482/987/287 484/983/245 483/984/267
f 451/989/289 513/1018/223 515/990/217
f 458/918/247 520/919/200 518/991/208
f 480/992/170 482/1135/287 481/993/207
f 409/847/188 471/846/187 473/929/291
f 414/890/292 416/926/251 478/925/250
f 478/997/250 480/992/170 479/994/206
f 430/999/191 432/937/258 494/936/257
f 447/1000/293 445/899/232 507/901/234
f 476/1001/225 478/997/250 477/998/176
f 461/863/199 523/862/189 525/942/302
f 466/907/312 468/968/278 530/967/323
f 474/1005/226 476/1001/225 475/1002/255
f 419/869/205 481/871/207 483/948/267
f 424/915/244 426/938/259 488/939/260
f 472/1009/280 474/1005/226 473/1006/291
f 442/954/319 504/955/252 502/1011/317
f 457/944/264 455/924/249 517/923/209
f 469/1013/315 472/1009/280 471/1010/187
f 429/887/219 491/886/221 493/960/272
f 531/682/327 532/1129/334 529/832/300
f 450/893/227 452/965/276 514/966/222
f 449/931/256 511/933/231 513/1018/223
f 531/1019/327 530/967/323 470/912/316
f 408/1021/298 410/971/279 472/972/280
f 441/976/324 439/902/237 501/904/311
f 437/1023/326 438/1027/309 436/1024/271
f 439/1026/237 440/1029/296 438/1027/309
f 441/1028/324 442/1031/319 440/1029/296
f 443/1030/283 444/1033/204 442/1031/319
f 445/1032/232 446/1035/202 444/1033/204
f 447/1034/293 448/1037/229 446/1035/202
f 449/1036/256 450/1039/227 448/1037/229
f 451/1038/289 452/1136/276 450/1039/227
f 453/1040/248 454/1044/218 452/1041/276
f 455/1043/249 456/1046/290 454/1044/218
f 457/1045/264 458/1048/247 456/1046/290
f 459/1047/198 460/1050/178 458/1048/247
f 461/1049/199 462/1051/285 460/1050/178
f 463/825/262 464/1053/313 462/1051/285
f 465/1052/305 466/1055/312 464/1053/313
f 467/1054/190 468/1137/278 466/1055/312
f 405/1056/321 406/1060/314 468/1057/278
f 407/1059/186 408/1062/298 406/1060/314
f 409/1061/188 410/1064/279 408/1062/298
f 411/1063/254 412/1066/224 410/1064/279
f 413/1065/175 414/1068/292 412/1066/224
f 415/1067/177 416/1070/251 414/1068/292
f 417/1069/268 418/1072/171 416/1070/251
f 419/1071/205 420/1138/169 418/1072/171
f 421/1073/295 422/1076/246 420/1074/169
f 423/1075/266 424/1077/244 422/1076/246
f 425/785/195 426/1079/259 424/1077/244
f 427/1078/281 428/1081/193 426/1079/259
f 429/1080/219 430/1083/191 428/1081/193
f 431/1082/297 432/1084/258 430/1083/191
f 433/793/320 434/1086/304 432/1084/258
f 435/1085/212 436/1139/271 434/1086/304
f 533/1087/329 531/1140/330 532/1088/330
f 536/1090/331 535/1141/331 533/1087/329
f 372/615/215 374/614/214 531/1019/265
f 371/722/288 369/611/211 536/1091/332
f 371/722/288 534/1092/4 532/1093/333
f 370/1094/184 535/1096/261 536/1095/332
f 532/1093/334 534/1092/341 404/982/325
f 404/982/325 534/1092/341 536/1091/335
f 535/1096/336 469/1142/315 403/1097/322
f 533/1020/328 470/912/316 469/911/315
s 0
f 538/1098/337 539/1143/337 540/1099/337
f 7/1101/2 539/1144/2 538/1102/2
f 8/11/4 538/1145/4 537/1103/4
f 5/1/1 540/1146/1 539/1104/1
