# Blender 5.0.1
# www.blender.org
mtllib Untitled.mtl
o Suzanne
v 0.437500 0.164062 0.765625
v -0.437500 0.164062 0.765625
v 0.500000 0.093750 0.687500
v -0.500000 0.093750 0.687500
v 0.546875 0.054688 0.578125
v -0.546875 0.054688 0.578125
v 0.351562 -0.023438 0.617188
v -0.351562 -0.023438 0.617188
v 0.351562 0.031250 0.718750
v -0.351562 0.031250 0.718750
v 0.351562 0.132812 0.781250
v -0.351562 0.132812 0.781250
v 0.273438 0.164062 0.796875
v -0.273438 0.164062 0.796875
v 0.203125 0.093750 0.742188
v -0.203125 0.093750 0.742188
v 0.156250 0.054688 0.648438
v -0.156250 0.054688 0.648438
v 0.078125 0.242188 0.656250
v -0.078125 0.242188 0.656250
v 0.140625 0.242188 0.742188
v -0.140625 0.242188 0.742188
v 0.242188 0.242188 0.796875
v -0.242188 0.242188 0.796875
v 0.273438 0.328125 0.796875
v -0.273438 0.328125 0.796875
v 0.203125 0.390625 0.742188
v -0.203125 0.390625 0.742188
v 0.156250 0.437500 0.648438
v -0.156250 0.437500 0.648438
v 0.351562 0.515625 0.617188
v -0.351562 0.515625 0.617188
v 0.351562 0.453125 0.718750
v -0.351562 0.453125 0.718750
v 0.351562 0.359375 0.781250
v -0.351562 0.359375 0.781250
v 0.437500 0.328125 0.765625
v -0.437500 0.328125 0.765625
v 0.500000 0.390625 0.687500
v -0.500000 0.390625 0.687500
v 0.546875 0.437500 0.578125
v -0.546875 0.437500 0.578125
v 0.625000 0.242188 0.562500
v -0.625000 0.242188 0.562500
v 0.562500 0.242188 0.671875
v -0.562500 0.242188 0.671875
v 0.468750 0.242188 0.757812
v -0.468750 0.242188 0.757812
v 0.476562 0.242188 0.773438
v -0.476562 0.242188 0.773438
v 0.445312 0.335938 0.781250
v -0.445312 0.335938 0.781250
v 0.351562 0.375000 0.804688
v -0.351562 0.375000 0.804688
v 0.265625 0.335938 0.820312
v -0.265625 0.335938 0.820312
v 0.226562 0.242188 0.820312
v -0.226562 0.242188 0.820312
v 0.265625 0.156250 0.820312
v -0.265625 0.156250 0.820312
v 0.351562 0.242188 0.828125
v -0.351562 0.242188 0.828125
v 0.351562 0.117188 0.804688
v -0.351562 0.117188 0.804688
v 0.445312 0.156250 0.781250
v -0.445312 0.156250 0.781250
v 0.000000 0.429688 0.742188
v 0.000000 0.351562 0.820312
v 0.000000 -0.679688 0.734375
v 0.000000 -0.320312 0.781250
v 0.000000 -0.187500 0.796875
v 0.000000 -0.773438 0.718750
v 0.000000 0.406250 0.601562
v 0.000000 0.570312 0.570312
v 0.000000 0.898438 -0.546875
v 0.000000 0.562500 -0.851562
v 0.000000 0.070312 -0.828125
v 0.000000 -0.382812 -0.351562
v 0.203125 -0.187500 0.562500
v -0.203125 -0.187500 0.562500
v 0.312500 -0.437500 0.570312
v -0.312500 -0.437500 0.570312
v 0.351562 -0.695312 0.570312
v -0.351562 -0.695312 0.570312
v 0.367188 -0.890625 0.531250
v -0.367188 -0.890625 0.531250
v 0.328125 -0.945312 0.523438
v -0.328125 -0.945312 0.523438
v 0.179688 -0.968750 0.554688
v -0.179688 -0.968750 0.554688
v 0.000000 -0.984375 0.578125
v 0.437500 -0.140625 0.531250
v -0.437500 -0.140625 0.531250
v 0.632812 -0.039062 0.539062
v -0.632812 -0.039062 0.539062
v 0.828125 0.148438 0.445312
v -0.828125 0.148438 0.445312
v 0.859375 0.429688 0.593750
v -0.859375 0.429688 0.593750
v 0.710938 0.484375 0.625000
v -0.710938 0.484375 0.625000
v 0.492188 0.601562 0.687500
v -0.492188 0.601562 0.687500
v 0.320312 0.757812 0.734375
v -0.320312 0.757812 0.734375
v 0.156250 0.718750 0.757812
v -0.156250 0.718750 0.757812
v 0.062500 0.492188 0.750000
v -0.062500 0.492188 0.750000
v 0.164062 0.414062 0.773438
v -0.164062 0.414062 0.773438
v 0.125000 0.304688 0.765625
v -0.125000 0.304688 0.765625
v 0.203125 0.093750 0.742188
v -0.203125 0.093750 0.742188
v 0.375000 0.015625 0.703125
v -0.375000 0.015625 0.703125
v 0.492188 0.062500 0.671875
v -0.492188 0.062500 0.671875
v 0.625000 0.187500 0.648438
v -0.625000 0.187500 0.648438
v 0.640625 0.296875 0.648438
v -0.640625 0.296875 0.648438
v 0.601562 0.375000 0.664062
v -0.601562 0.375000 0.664062
v 0.429688 0.437500 0.718750
v -0.429688 0.437500 0.718750
v 0.250000 0.468750 0.757812
v -0.250000 0.468750 0.757812
v 0.000000 -0.765625 0.734375
v 0.109375 -0.718750 0.734375
v -0.109375 -0.718750 0.734375
v 0.117188 -0.835938 0.710938
v -0.117188 -0.835938 0.710938
v 0.062500 -0.882812 0.695312
v -0.062500 -0.882812 0.695312
v 0.000000 -0.890625 0.687500
v 0.000000 -0.195312 0.750000
v 0.000000 -0.140625 0.742188
v 0.101562 -0.148438 0.742188
v -0.101562 -0.148438 0.742188
v 0.125000 -0.226562 0.750000
v -0.125000 -0.226562 0.750000
v 0.085938 -0.289062 0.742188
v -0.085938 -0.289062 0.742188
v 0.398438 -0.046875 0.671875
v -0.398438 -0.046875 0.671875
v 0.617188 0.054688 0.625000
v -0.617188 0.054688 0.625000
v 0.726562 0.203125 0.601562
v -0.726562 0.203125 0.601562
v 0.742188 0.375000 0.656250
v -0.742188 0.375000 0.656250
v 0.687500 0.414062 0.726562
v -0.687500 0.414062 0.726562
v 0.437500 0.546875 0.796875
v -0.437500 0.546875 0.796875
v 0.312500 0.640625 0.835938
v -0.312500 0.640625 0.835938
v 0.203125 0.617188 0.851562
v -0.203125 0.617188 0.851562
v 0.101562 0.429688 0.843750
v -0.101562 0.429688 0.843750
v 0.125000 -0.101562 0.812500
v -0.125000 -0.101562 0.812500
v 0.210938 -0.445312 0.710938
v -0.210938 -0.445312 0.710938
v 0.250000 -0.703125 0.687500
v -0.250000 -0.703125 0.687500
v 0.265625 -0.820312 0.664062
v -0.265625 -0.820312 0.664062
v 0.234375 -0.914062 0.632812
v -0.234375 -0.914062 0.632812
v 0.164062 -0.929688 0.632812
v -0.164062 -0.929688 0.632812
v 0.000000 -0.945312 0.640625
v 0.000000 0.046875 0.726562
v 0.000000 0.210938 0.765625
v 0.328125 0.476562 0.742188
v -0.328125 0.476562 0.742188
v 0.164062 0.140625 0.750000
v -0.164062 0.140625 0.750000
v 0.132812 0.210938 0.757812
v -0.132812 0.210938 0.757812
v 0.117188 -0.687500 0.734375
v -0.117188 -0.687500 0.734375
v 0.078125 -0.445312 0.750000
v -0.078125 -0.445312 0.750000
v 0.000000 -0.445312 0.750000
v 0.000000 -0.328125 0.742188
v 0.093750 -0.273438 0.781250
v -0.093750 -0.273438 0.781250
v 0.132812 -0.226562 0.796875
v -0.132812 -0.226562 0.796875
v 0.109375 -0.132812 0.781250
v -0.109375 -0.132812 0.781250
v 0.039062 -0.125000 0.781250
v -0.039062 -0.125000 0.781250
v 0.000000 -0.203125 0.828125
v 0.046875 -0.148438 0.812500
v -0.046875 -0.148438 0.812500
v 0.093750 -0.156250 0.812500
v -0.093750 -0.156250 0.812500
v 0.109375 -0.226562 0.828125
v -0.109375 -0.226562 0.828125
v 0.078125 -0.250000 0.804688
v -0.078125 -0.250000 0.804688
v 0.000000 -0.289062 0.804688
v 0.257812 -0.312500 0.554688
v -0.257812 -0.312500 0.554688
v 0.164062 -0.242188 0.710938
v -0.164062 -0.242188 0.710938
v 0.179688 -0.312500 0.710938
v -0.179688 -0.312500 0.710938
v 0.234375 -0.250000 0.554688
v -0.234375 -0.250000 0.554688
v 0.000000 -0.875000 0.687500
v 0.046875 -0.867188 0.687500
v -0.046875 -0.867188 0.687500
v 0.093750 -0.820312 0.710938
v -0.093750 -0.820312 0.710938
v 0.093750 -0.742188 0.726562
v -0.093750 -0.742188 0.726562
v 0.000000 -0.781250 0.656250
v 0.093750 -0.750000 0.664062
v -0.093750 -0.750000 0.664062
v 0.093750 -0.812500 0.640625
v -0.093750 -0.812500 0.640625
v 0.046875 -0.851562 0.632812
v -0.046875 -0.851562 0.632812
v 0.000000 -0.859375 0.632812
v 0.171875 0.218750 0.781250
v -0.171875 0.218750 0.781250
v 0.187500 0.156250 0.773438
v -0.187500 0.156250 0.773438
v 0.335938 0.429688 0.757812
v -0.335938 0.429688 0.757812
v 0.273438 0.421875 0.773438
v -0.273438 0.421875 0.773438
v 0.421875 0.398438 0.773438
v -0.421875 0.398438 0.773438
v 0.562500 0.351562 0.695312
v -0.562500 0.351562 0.695312
v 0.585938 0.289062 0.687500
v -0.585938 0.289062 0.687500
v 0.578125 0.195312 0.679688
v -0.578125 0.195312 0.679688
v 0.476562 0.101562 0.718750
v -0.476562 0.101562 0.718750
v 0.375000 0.062500 0.742188
v -0.375000 0.062500 0.742188
v 0.226562 0.109375 0.781250
v -0.226562 0.109375 0.781250
v 0.179688 0.296875 0.781250
v -0.179688 0.296875 0.781250
v 0.210938 0.375000 0.781250
v -0.210938 0.375000 0.781250
v 0.234375 0.359375 0.757812
v -0.234375 0.359375 0.757812
v 0.195312 0.296875 0.757812
v -0.195312 0.296875 0.757812
v 0.242188 0.125000 0.757812
v -0.242188 0.125000 0.757812
v 0.375000 0.085938 0.726562
v -0.375000 0.085938 0.726562
v 0.460938 0.117188 0.703125
v -0.460938 0.117188 0.703125
v 0.546875 0.210938 0.671875
v -0.546875 0.210938 0.671875
v 0.554688 0.281250 0.671875
v -0.554688 0.281250 0.671875
v 0.531250 0.335938 0.679688
v -0.531250 0.335938 0.679688
v 0.414062 0.390625 0.750000
v -0.414062 0.390625 0.750000
v 0.281250 0.398438 0.765625
v -0.281250 0.398438 0.765625
v 0.335938 0.406250 0.750000
v -0.335938 0.406250 0.750000
v 0.203125 0.171875 0.750000
v -0.203125 0.171875 0.750000
v 0.195312 0.226562 0.750000
v -0.195312 0.226562 0.750000
v 0.109375 0.460938 0.609375
v -0.109375 0.460938 0.609375
v 0.195312 0.664062 0.617188
v -0.195312 0.664062 0.617188
v 0.335938 0.687500 0.593750
v -0.335938 0.687500 0.593750
v 0.484375 0.554688 0.554688
v -0.484375 0.554688 0.554688
v 0.679688 0.453125 0.492188
v -0.679688 0.453125 0.492188
v 0.796875 0.406250 0.460938
v -0.796875 0.406250 0.460938
v 0.773438 0.164062 0.375000
v -0.773438 0.164062 0.375000
v 0.601562 0.000000 0.414062
v -0.601562 0.000000 0.414062
v 0.437500 -0.093750 0.468750
v -0.437500 -0.093750 0.468750
v 0.000000 0.898438 0.289062
v 0.000000 0.984375 -0.078125
v 0.000000 -0.195312 -0.671875
v 0.000000 -0.460938 0.187500
v 0.000000 -0.976562 0.460938
v 0.000000 -0.804688 0.343750
v 0.000000 -0.570312 0.320312
v 0.000000 -0.484375 0.281250
v 0.851562 0.234375 0.054688
v -0.851562 0.234375 0.054688
v 0.859375 0.320312 -0.046875
v -0.859375 0.320312 -0.046875
v 0.773438 0.265625 -0.437500
v -0.773438 0.265625 -0.437500
v 0.460938 0.437500 -0.703125
v -0.460938 0.437500 -0.703125
v 0.734375 -0.046875 0.070312
v -0.734375 -0.046875 0.070312
v 0.593750 -0.125000 -0.164062
v -0.593750 -0.125000 -0.164062
v 0.640625 -0.007812 -0.429688
v -0.640625 -0.007812 -0.429688
v 0.335938 0.054688 -0.664062
v -0.335938 0.054688 -0.664062
v 0.234375 -0.351562 0.406250
v -0.234375 -0.351562 0.406250
v 0.179688 -0.414062 0.257812
v -0.179688 -0.414062 0.257812
v 0.289062 -0.710938 0.382812
v -0.289062 -0.710938 0.382812
v 0.250000 -0.500000 0.390625
v -0.250000 -0.500000 0.390625
v 0.328125 -0.914062 0.398438
v -0.328125 -0.914062 0.398438
v 0.140625 -0.757812 0.367188
v -0.140625 -0.757812 0.367188
v 0.125000 -0.539062 0.359375
v -0.125000 -0.539062 0.359375
v 0.164062 -0.945312 0.437500
v -0.164062 -0.945312 0.437500
v 0.218750 -0.281250 0.429688
v -0.218750 -0.281250 0.429688
v 0.210938 -0.226562 0.468750
v -0.210938 -0.226562 0.468750
v 0.203125 -0.171875 0.500000
v -0.203125 -0.171875 0.500000
v 0.210938 -0.390625 0.164062
v -0.210938 -0.390625 0.164062
v 0.296875 -0.312500 -0.265625
v -0.296875 -0.312500 -0.265625
v 0.343750 -0.148438 -0.539062
v -0.343750 -0.148438 -0.539062
v 0.453125 0.867188 -0.382812
v -0.453125 0.867188 -0.382812
v 0.453125 0.929688 -0.070312
v -0.453125 0.929688 -0.070312
v 0.453125 0.851562 0.234375
v -0.453125 0.851562 0.234375
v 0.460938 0.523438 0.429688
v -0.460938 0.523438 0.429688
v 0.726562 0.406250 0.335938
v -0.726562 0.406250 0.335938
v 0.632812 0.453125 0.281250
v -0.632812 0.453125 0.281250
v 0.640625 0.703125 0.054688
v -0.640625 0.703125 0.054688
v 0.796875 0.562500 0.125000
v -0.796875 0.562500 0.125000
v 0.796875 0.617188 -0.117188
v -0.796875 0.617188 -0.117188
v 0.640625 0.750000 -0.195312
v -0.640625 0.750000 -0.195312
v 0.640625 0.679688 -0.445312
v -0.640625 0.679688 -0.445312
v 0.796875 0.539062 -0.359375
v -0.796875 0.539062 -0.359375
v 0.617188 0.328125 -0.585938
v -0.617188 0.328125 -0.585938
v 0.484375 0.023438 -0.546875
v -0.484375 0.023438 -0.546875
v 0.820312 0.328125 -0.203125
v -0.820312 0.328125 -0.203125
v 0.406250 -0.171875 0.148438
v -0.406250 -0.171875 0.148438
v 0.429688 -0.195312 -0.210938
v -0.429688 -0.195312 -0.210938
v 0.890625 0.406250 -0.234375
v -0.890625 0.406250 -0.234375
v 0.773438 -0.140625 -0.125000
v -0.773438 -0.140625 -0.125000
v 1.039062 -0.101562 -0.328125
v -1.039062 -0.101562 -0.328125
v 1.281250 0.054688 -0.429688
v -1.281250 0.054688 -0.429688
v 1.351562 0.320312 -0.421875
v -1.351562 0.320312 -0.421875
v 1.234375 0.507812 -0.421875
v -1.234375 0.507812 -0.421875
v 1.023438 0.476562 -0.312500
v -1.023438 0.476562 -0.312500
v 1.015625 0.414062 -0.289062
v -1.015625 0.414062 -0.289062
v 1.187500 0.437500 -0.390625
v -1.187500 0.437500 -0.390625
v 1.265625 0.289062 -0.406250
v -1.265625 0.289062 -0.406250
v 1.210938 0.078125 -0.406250
v -1.210938 0.078125 -0.406250
v 1.031250 -0.039062 -0.304688
v -1.031250 -0.039062 -0.304688
v 0.828125 -0.070312 -0.132812
v -0.828125 -0.070312 -0.132812
v 0.921875 0.359375 -0.218750
v -0.921875 0.359375 -0.218750
v 0.945312 0.304688 -0.289062
v -0.945312 0.304688 -0.289062
v 0.882812 -0.023438 -0.210938
v -0.882812 -0.023438 -0.210938
v 1.039062 0.000000 -0.367188
v -1.039062 0.000000 -0.367188
v 1.187500 0.093750 -0.445312
v -1.187500 0.093750 -0.445312
v 1.234375 0.250000 -0.445312
v -1.234375 0.250000 -0.445312
v 1.171875 0.359375 -0.437500
v -1.171875 0.359375 -0.437500
v 1.023438 0.343750 -0.359375
v -1.023438 0.343750 -0.359375
v 0.843750 0.289062 -0.210938
v -0.843750 0.289062 -0.210938
v 0.835938 0.171875 -0.273438
v -0.835938 0.171875 -0.273438
v 0.757812 0.093750 -0.273438
v -0.757812 0.093750 -0.273438
v 0.820312 0.085938 -0.273438
v -0.820312 0.085938 -0.273438
v 0.843750 0.015625 -0.273438
v -0.843750 0.015625 -0.273438
v 0.812500 -0.015625 -0.273438
v -0.812500 -0.015625 -0.273438
v 0.726562 0.000000 -0.070312
v -0.726562 0.000000 -0.070312
v 0.718750 -0.023438 -0.171875
v -0.718750 -0.023438 -0.171875
v 0.718750 0.039062 -0.187500
v -0.718750 0.039062 -0.187500
v 0.796875 0.203125 -0.210938
v -0.796875 0.203125 -0.210938
v 0.890625 0.242188 -0.265625
v -0.890625 0.242188 -0.265625
v 0.890625 0.234375 -0.320312
v -0.890625 0.234375 -0.320312
v 0.812500 -0.015625 -0.320312
v -0.812500 -0.015625 -0.320312
v 0.851562 0.015625 -0.320312
v -0.851562 0.015625 -0.320312
v 0.828125 0.078125 -0.320312
v -0.828125 0.078125 -0.320312
v 0.765625 0.093750 -0.320312
v -0.765625 0.093750 -0.320312
v 0.843750 0.171875 -0.320312
v -0.843750 0.171875 -0.320312
v 1.039062 0.328125 -0.414062
v -1.039062 0.328125 -0.414062
v 1.187500 0.343750 -0.484375
v -1.187500 0.343750 -0.484375
v 1.257812 0.242188 -0.492188
v -1.257812 0.242188 -0.492188
v 1.210938 0.085938 -0.484375
v -1.210938 0.085938 -0.484375
v 1.046875 0.000000 -0.421875
v -1.046875 0.000000 -0.421875
v 0.882812 -0.015625 -0.265625
v -0.882812 -0.015625 -0.265625
v 0.953125 0.289062 -0.343750
v -0.953125 0.289062 -0.343750
v 0.890625 0.109375 -0.328125
v -0.890625 0.109375 -0.328125
v 0.937500 0.062500 -0.335938
v -0.937500 0.062500 -0.335938
v 1.000000 0.125000 -0.367188
v -1.000000 0.125000 -0.367188
v 0.960938 0.171875 -0.351562
v -0.960938 0.171875 -0.351562
v 1.015625 0.234375 -0.375000
v -1.015625 0.234375 -0.375000
v 1.054688 0.187500 -0.382812
v -1.054688 0.187500 -0.382812
v 1.109375 0.210938 -0.390625
v -1.109375 0.210938 -0.390625
v 1.085938 0.273438 -0.390625
v -1.085938 0.273438 -0.390625
v 1.023438 0.437500 -0.484375
v -1.023438 0.437500 -0.484375
v 1.250000 0.468750 -0.546875
v -1.250000 0.468750 -0.546875
v 1.367188 0.296875 -0.500000
v -1.367188 0.296875 -0.500000
v 1.312500 0.054688 -0.531250
v -1.312500 0.054688 -0.531250
v 1.039062 -0.085938 -0.492188
v -1.039062 -0.085938 -0.492188
v 0.789062 -0.125000 -0.328125
v -0.789062 -0.125000 -0.328125
v 0.859375 0.382812 -0.382812
v -0.859375 0.382812 -0.382812
vn 0.7290 -0.6566 0.1934
vn -0.7290 -0.6566 0.1934
vn 0.6076 -0.5104 0.6085
vn -0.6076 -0.5104 0.6085
vn 0.6802 -0.5463 0.4888
vn -0.6802 -0.5463 0.4888
vn 0.1193 -0.8712 0.4763
vn -0.1193 -0.8712 0.4763
vn 0.0995 -0.7515 0.6522
vn -0.0995 -0.7515 0.6522
vn 0.0314 -0.9670 0.2529
vn -0.0314 -0.9670 0.2529
vn -0.6506 -0.6883 0.3210
vn 0.6506 -0.6883 0.3210
vn -0.4563 -0.5362 0.7101
vn 0.4563 -0.5362 0.7101
vn -0.5539 -0.6332 0.5406
vn 0.5539 -0.6332 0.5406
vn -0.8097 -0.0070 0.5868
vn 0.8097 -0.0070 0.5868
vn -0.6899 -0.0041 0.7239
vn 0.6899 -0.0041 0.7239
vn -0.9521 -0.0102 0.3057
vn 0.9521 -0.0102 0.3057
vn -0.6644 0.6821 0.3056
vn 0.6644 0.6821 0.3056
vn -0.4560 0.5222 0.7207
vn 0.4560 0.5222 0.7207
vn -0.5306 0.6258 0.5717
vn 0.5306 0.6258 0.5717
vn 0.1258 0.8416 0.5253
vn -0.1258 0.8416 0.5253
vn 0.1031 0.7402 0.6644
vn -0.1031 0.7402 0.6644
vn 0.0258 0.9726 0.2312
vn -0.0258 0.9726 0.2312
vn 0.7364 0.6521 0.1803
vn -0.7364 0.6521 0.1803
vn 0.6102 0.4956 0.6181
vn -0.6102 0.4956 0.6181
vn 0.6682 0.5371 0.5148
vn -0.6682 0.5371 0.5148
vn 0.8682 -0.0047 0.4961
vn -0.8682 -0.0047 0.4961
vn 0.8001 -0.0029 0.5999
vn -0.8001 -0.0029 0.5999
vn 0.9693 -0.0118 0.2456
vn -0.9693 -0.0118 0.2456
vn 0.9645 -0.0127 0.2639
vn -0.9645 -0.0127 0.2639
vn 0.7216 0.6556 0.2224
vn -0.7216 0.6556 0.2224
vn 0.0432 0.9389 0.3415
vn -0.0432 0.9389 0.3415
vn -0.6237 0.6285 0.4647
vn 0.6237 0.6285 0.4647
vn -0.9270 -0.0130 0.3749
vn 0.9270 -0.0130 0.3749
vn -0.6159 -0.6366 0.4641
vn 0.6159 -0.6366 0.4641
vn 0.1836 -0.0053 0.9830
vn -0.1836 -0.0053 0.9830
vn 0.0426 -0.9404 0.3375
vn -0.0426 -0.9404 0.3375
vn 0.7152 -0.6625 0.2227
vn -0.7152 -0.6625 0.2227
vn -0.0000 0.9636 0.2673
vn -0.0000 -0.0827 0.9966
vn -0.0000 -0.0341 0.9994
vn -0.0000 -0.8654 0.5011
vn -0.1950 0.8128 0.5489
vn -0.0000 -0.9619 0.2732
vn -0.0000 0.8592 0.5116
vn -0.0000 0.5293 0.8485
vn -0.0000 0.8342 -0.5514
vn -0.0000 0.3650 -0.9310
vn -0.0000 -0.3049 -0.9524
vn -0.0000 -0.9417 -0.3365
vn 0.8916 -0.3307 0.3095
vn -0.8916 -0.3307 0.3095
vn 0.9557 0.2492 0.1565
vn -0.9557 0.2492 0.1565
vn 0.9728 0.1003 0.2087
vn -0.9728 0.1003 0.2087
vn 0.9457 -0.2579 0.1977
vn -0.9457 -0.2579 0.1977
vn 0.5267 -0.8347 0.1611
vn -0.5267 -0.8347 0.1611
vn 0.1596 -0.9753 0.1529
vn -0.1596 -0.9753 0.1529
vn -0.0000 -0.9677 0.2523
vn 0.3489 -0.9371 -0.0082
vn -0.3489 -0.9371 -0.0082
vn 0.5875 -0.7849 0.1970
vn -0.5875 -0.7849 0.1970
vn 0.9070 -0.4009 -0.1290
vn -0.9070 -0.4009 -0.1290
vn 0.8451 0.4434 0.2985
vn -0.8451 0.4434 0.2985
vn 0.5171 0.8291 0.2125
vn -0.5171 0.8291 0.2125
vn 0.5976 0.7847 0.1646
vn -0.5976 0.7847 0.1646
vn 0.2313 0.9570 0.1751
vn -0.2313 0.9570 0.1751
vn -0.6051 0.7680 0.2098
vn 0.6051 0.7680 0.2098
vn -0.8242 0.5468 0.1473
vn 0.8242 0.5468 0.1473
vn 0.3679 -0.2836 0.8856
vn -0.3679 -0.2836 0.8856
vn 0.0316 -0.1782 0.9835
vn -0.0316 -0.1782 0.9835
vn -0.1522 -0.2548 0.9549
vn 0.1522 -0.2548 0.9549
vn 0.3322 -0.3667 0.8690
vn -0.3322 -0.3667 0.8690
vn 0.4279 -0.3895 0.8156
vn -0.4279 -0.3895 0.8156
vn 0.4602 -0.1651 0.8723
vn -0.4602 -0.1651 0.8723
vn 0.3588 -0.1192 0.9258
vn -0.3588 -0.1192 0.9258
vn 0.2254 -0.3608 0.9050
vn -0.2254 -0.3608 0.9050
vn 0.2190 0.0372 0.9750
vn -0.2190 0.0372 0.9750
vn 0.2582 -0.1265 0.9578
vn -0.2582 -0.1265 0.9578
vn -0.0000 -0.5870 0.8096
vn 0.1460 -0.1202 0.9820
vn -0.1460 -0.1202 0.9820
vn 0.1307 -0.3187 0.9388
vn -0.1307 -0.3187 0.9388
vn -0.0589 -0.3784 0.9238
vn 0.0589 -0.3784 0.9238
vn -0.0000 -0.3465 0.9380
vn -1.0000 -0.0000 -0.0000
vn -0.1770 0.5084 0.8427
vn 0.4931 -0.3412 0.8002
vn -0.4931 -0.3412 0.8002
vn 0.9304 -0.1242 0.3448
vn -0.9304 -0.1242 0.3448
vn 0.5003 -0.4293 0.7520
vn -0.5003 -0.4293 0.7520
vn 0.3842 -0.5671 0.7286
vn -0.3842 -0.5671 0.7286
vn 0.4991 -0.3761 0.7807
vn -0.4991 -0.3761 0.7807
vn 0.5666 -0.3188 0.7598
vn -0.5666 -0.3188 0.7598
vn 0.4607 -0.1448 0.8757
vn -0.4607 -0.1448 0.8757
vn 0.4801 -0.1833 0.8578
vn -0.4801 -0.1833 0.8578
vn 0.3085 0.0039 0.9512
vn -0.3085 0.0039 0.9512
vn 0.2666 0.2166 0.9392
vn -0.2666 0.2166 0.9392
vn -0.1574 0.1660 0.9735
vn 0.1574 0.1660 0.9735
vn -0.0611 -0.0253 0.9978
vn 0.0611 -0.0253 0.9978
vn 0.0402 -0.2722 0.9614
vn -0.0402 -0.2722 0.9614
vn 0.5937 0.1082 0.7974
vn -0.5937 0.1082 0.7974
vn 0.5652 -0.0297 0.8244
vn -0.5652 -0.0297 0.8244
vn 0.5557 -0.2264 0.8000
vn -0.5557 -0.2264 0.8000
vn 0.3502 -0.6392 0.6847
vn -0.3502 -0.6392 0.6847
vn 0.1554 -0.7590 0.6323
vn -0.1554 -0.7590 0.6323
vn -0.0000 -0.7753 0.6316
vn -0.0000 0.0643 0.9979
vn -0.0000 -0.2220 0.9750
vn 0.1490 -0.1542 0.9767
vn -0.1490 -0.1542 0.9767
vn -0.2393 -0.3012 0.9230
vn 0.2393 -0.3012 0.9230
vn -0.2006 -0.1350 0.9703
vn 0.2006 -0.1350 0.9703
vn 0.1815 -0.0452 0.9823
vn -0.1815 -0.0452 0.9823
vn 0.1341 0.0063 0.9909
vn -0.1341 0.0063 0.9909
vn -0.0000 -0.0000 1.0000
vn -0.0000 -0.4760 0.8795
vn 0.5836 -0.6929 0.4235
vn -0.5836 -0.6929 0.4235
vn 0.9306 -0.2353 0.2804
vn -0.9306 -0.2353 0.2804
vn 0.6286 0.7688 0.1177
vn -0.6286 0.7688 0.1177
vn -0.2405 0.9491 0.2036
vn 0.2405 0.9491 0.2036
vn -0.0000 0.1578 0.9875
vn -0.1858 0.5956 0.7815
vn 0.1858 0.5956 0.7815
vn 0.3611 0.4713 0.8047
vn -0.3611 0.4713 0.8047
vn 0.4488 -0.3147 0.8364
vn -0.4488 -0.3147 0.8364
vn 0.1833 -0.5864 0.7890
vn -0.1833 -0.5864 0.7890
vn -0.0000 -0.4815 0.8764
vn 0.9278 0.3530 0.1209
vn -0.9278 0.3530 0.1209
vn 0.7752 0.0387 0.6306
vn -0.7752 0.0387 0.6306
vn 0.6507 0.1488 0.7447
vn -0.6507 0.1488 0.7447
vn 0.9306 0.3435 0.1263
vn -0.9306 0.3435 0.1263
vn -0.0000 0.5588 0.8293
vn -0.4141 0.5798 0.7016
vn 0.4141 0.5798 0.7016
vn -0.6351 0.0428 0.7712
vn 0.6351 0.0428 0.7712
vn -0.1369 -0.5273 0.8386
vn 0.1369 -0.5273 0.8386
vn -0.0000 -0.6990 0.7152
vn -0.5177 -0.7041 0.4860
vn 0.5177 -0.7041 0.4860
vn -0.6738 0.1155 0.7299
vn 0.6738 0.1155 0.7299
vn -0.2959 0.4750 0.8288
vn 0.2959 0.4750 0.8288
vn -0.0000 0.5334 0.8458
vn 0.1581 -0.0843 0.9838
vn -0.1581 -0.0843 0.9838
vn -0.0101 -0.0700 0.9975
vn 0.0101 -0.0700 0.9975
vn 0.2036 0.1032 0.9736
vn -0.2036 0.1032 0.9736
vn 0.1435 0.0966 0.9849
vn -0.1435 0.0966 0.9849
vn 0.0887 -0.1272 0.9879
vn -0.0887 -0.1272 0.9879
vn 0.2944 0.0047 0.9557
vn -0.2944 0.0047 0.9557
vn 0.1776 -0.0608 0.9822
vn -0.1776 -0.0608 0.9822
vn 0.2943 -0.1021 0.9502
vn -0.2943 -0.1021 0.9502
vn 0.2990 -0.0356 0.9536
vn -0.2990 -0.0356 0.9536
vn 0.1845 -0.1863 0.9650
vn -0.1845 -0.1863 0.9650
vn -0.0317 -0.2198 0.9750
vn 0.0317 -0.2198 0.9750
vn 0.2934 -0.0602 0.9541
vn -0.2934 -0.0602 0.9541
vn 0.1588 -0.1065 0.9816
vn -0.1588 -0.1065 0.9816
vn 0.4508 -0.4658 0.7614
vn -0.4508 -0.4658 0.7614
vn 0.7894 -0.2032 0.5793
vn -0.7894 -0.2032 0.5793
vn 0.4323 0.5833 0.6876
vn -0.4323 0.5833 0.6876
vn 0.1431 0.5587 0.8169
vn -0.1431 0.5587 0.8169
vn -0.1653 0.6098 0.7751
vn 0.1653 0.6098 0.7751
vn -0.1921 0.1914 0.9625
vn 0.1921 0.1914 0.9625
vn -0.4229 -0.1078 0.8997
vn 0.4229 -0.1078 0.8997
vn -0.1423 -0.5826 0.8002
vn 0.1423 -0.5826 0.8002
vn -0.2741 -0.8556 0.4391
vn 0.2741 -0.8556 0.4391
vn 0.2886 -0.2786 0.9160
vn -0.2886 -0.2786 0.9160
vn 0.1133 -0.3142 0.9426
vn -0.1133 -0.3142 0.9426
vn 0.6881 0.2985 0.6614
vn -0.6881 0.2985 0.6614
vn 0.8016 0.0110 0.5977
vn -0.8016 0.0110 0.5977
vn -0.4603 0.8619 0.2127
vn 0.4603 0.8619 0.2127
vn -0.4792 0.5120 -0.7129
vn 0.4792 0.5120 -0.7129
vn 0.1217 0.6503 -0.7498
vn -0.1217 0.6503 -0.7498
vn 0.2275 0.8745 -0.4283
vn -0.2275 0.8745 -0.4283
vn 0.3456 0.9125 -0.2192
vn -0.3456 0.9125 -0.2192
vn 0.6957 0.5814 -0.4218
vn -0.6957 0.5814 -0.4218
vn 0.9302 -0.3062 -0.2024
vn -0.9302 -0.3062 -0.2024
vn 0.5444 -0.8372 -0.0533
vn -0.5444 -0.8372 -0.0533
vn 0.4720 -0.8637 -0.1768
vn -0.4720 -0.8637 -0.1768
vn -0.0000 0.8306 0.5568
vn -0.0000 0.9997 0.0226
vn -0.0000 -0.6913 -0.7226
vn -0.0000 -0.9831 -0.1833
vn -0.0000 -0.8818 -0.4716
vn -0.0000 -0.2974 -0.9548
vn -0.0000 -0.2133 -0.9770
vn -0.0000 -0.7711 -0.6367
vn 0.9850 -0.1605 0.0631
vn -0.9850 -0.1605 0.0631
vn 0.9983 -0.0283 -0.0502
vn -0.9983 -0.0283 -0.0502
vn 0.6708 -0.0453 -0.7403
vn -0.6708 -0.0453 -0.7403
vn 0.4730 0.1763 -0.8632
vn -0.4730 0.1763 -0.8632
vn 0.7211 -0.6898 0.0651
vn -0.7211 -0.6898 0.0651
vn 0.3123 -0.9500 0.0012
vn -0.3123 -0.9500 0.0012
vn 0.3255 -0.6029 -0.7284
vn -0.3255 -0.6029 -0.7284
vn 0.4455 -0.3584 -0.8204
vn -0.4455 -0.3584 -0.8204
vn 0.8957 0.2578 -0.3624
vn -0.8957 0.2578 -0.3624
vn 0.6893 -0.6687 -0.2786
vn -0.6893 -0.6687 -0.2786
vn 0.6204 0.0835 -0.7798
vn -0.6204 0.0835 -0.7798
vn 0.7799 -0.0105 -0.6259
vn -0.7799 -0.0105 -0.6259
vn 0.5551 -0.4762 -0.6820
vn -0.5551 -0.4762 -0.6820
vn 0.1514 -0.1510 -0.9769
vn -0.1514 -0.1510 -0.9769
vn 0.2771 -0.3147 -0.9078
vn -0.2771 -0.3147 -0.9078
vn 0.0675 -0.7832 -0.6181
vn -0.0675 -0.7832 -0.6181
vn 0.9787 -0.1959 0.0615
vn -0.9787 -0.1959 0.0615
vn 0.8872 -0.1577 0.4336
vn -0.8872 -0.1577 0.4336
vn 0.7857 -0.5715 0.2367
vn -0.7857 -0.5715 0.2367
vn 0.5727 -0.8197 0.0120
vn -0.5727 -0.8197 0.0120
vn 0.5071 -0.8376 -0.2033
vn -0.5071 -0.8376 -0.2033
vn 0.5223 -0.6536 -0.5477
vn -0.5223 -0.6536 -0.5477
vn 0.3913 0.8153 -0.4268
vn -0.3913 0.8153 -0.4268
vn 0.4135 0.9096 0.0395
vn -0.4135 0.9096 0.0395
vn 0.4442 0.7244 0.5271
vn -0.4442 0.7244 0.5271
vn 0.3407 0.8832 0.3223
vn -0.3407 0.8832 0.3223
vn 0.7717 0.6311 0.0785
vn -0.7717 0.6311 0.0785
vn 0.4444 0.7886 0.4251
vn -0.4444 0.7886 0.4251
vn 0.6682 0.6719 0.3195
vn -0.6682 0.6719 0.3195
vn 0.7418 0.5164 0.4279
vn -0.7418 0.5164 0.4279
vn 0.8486 0.5288 -0.0140
vn -0.8486 0.5288 -0.0140
vn 0.6784 0.7314 -0.0695
vn -0.6784 0.7314 -0.0695
vn 0.6075 0.5696 -0.5536
vn -0.6075 0.5696 -0.5536
vn 0.8722 0.3146 -0.3747
vn -0.8722 0.3146 -0.3747
vn 0.6197 -0.0605 -0.7825
vn -0.6197 -0.0605 -0.7825
vn 0.5292 -0.5051 -0.6817
vn -0.5292 -0.5051 -0.6817
vn 0.8403 0.4934 0.2246
vn -0.8403 0.4934 0.2246
vn 0.5790 -0.8027 0.1427
vn -0.5790 -0.8027 0.1427
vn 0.5633 -0.8173 -0.1213
vn -0.5633 -0.8173 -0.1213
vn -0.2793 0.7683 0.5759
vn 0.2793 0.7683 0.5759
vn 0.0296 -0.6350 0.7719
vn -0.0296 -0.6350 0.7719
vn 0.5029 -0.7810 0.3703
vn -0.5029 -0.7810 0.3703
vn 0.6526 -0.4768 0.5888
vn -0.6526 -0.4768 0.5888
vn 0.7788 0.1678 0.6044
vn -0.7788 0.1678 0.6044
vn 0.3836 0.8630 0.3288
vn -0.3836 0.8630 0.3288
vn 0.0188 0.8723 0.4886
vn -0.0188 0.8723 0.4886
vn 0.5512 -0.0788 0.8306
vn -0.5512 -0.0788 0.8306
vn 0.3215 -0.0923 0.9424
vn -0.3215 -0.0923 0.9424
vn -0.1545 -0.1239 0.9802
vn 0.1545 -0.1239 0.9802
vn -0.0411 0.3109 0.9496
vn 0.0411 0.3109 0.9496
vn 0.5384 0.2953 0.7893
vn -0.5384 0.2953 0.7893
vn 0.3300 0.3157 0.8896
vn -0.3300 0.3157 0.8896
vn 0.4493 -0.0383 0.8926
vn -0.4493 -0.0383 0.8926
vn 0.6842 -0.5558 0.4722
vn -0.6842 -0.5558 0.4722
vn 0.1629 0.8581 0.4870
vn -0.1629 0.8581 0.4870
vn -0.1868 0.9538 0.2351
vn 0.1868 0.9538 0.2351
vn -0.7622 0.6471 -0.0193
vn 0.7622 0.6471 -0.0193
vn -0.9848 -0.0996 0.1426
vn 0.9848 -0.0996 0.1426
vn -0.1496 -0.7455 0.6495
vn 0.1496 -0.7455 0.6495
vn 0.5605 -0.6609 0.4991
vn -0.5605 -0.6609 0.4991
vn 0.7949 -0.2332 0.5601
vn -0.7949 -0.2332 0.5601
vn 0.6864 -0.6234 0.3746
vn -0.6864 -0.6234 0.3746
vn 0.8515 0.0414 0.5228
vn -0.8515 0.0414 0.5228
vn 0.4814 0.6344 0.6048
vn -0.4814 0.6344 0.6048
vn 0.8420 -0.1763 0.5098
vn -0.8420 -0.1763 0.5098
vn 0.5998 0.5132 0.6139
vn -0.5998 0.5132 0.6139
vn 0.8572 -0.4931 -0.1483
vn -0.8572 -0.4931 -0.1483
vn 0.7312 0.1144 0.6725
vn -0.7312 0.1144 0.6725
vn 0.9610 -0.1188 0.2499
vn -0.9610 -0.1188 0.2499
vn 0.8303 -0.4790 0.2850
vn -0.8303 -0.4790 0.2850
vn 0.7261 -0.4989 0.4731
vn -0.7261 -0.4989 0.4731
vn 0.6593 -0.4685 0.5881
vn -0.6593 -0.4685 0.5881
vn 0.6450 0.3101 0.6984
vn -0.6450 0.3101 0.6984
vn 0.2929 0.3709 0.8813
vn -0.2929 0.3709 0.8813
vn 0.4492 0.3799 0.8086
vn -0.4492 0.3799 0.8086
vn 0.7584 0.2666 0.5948
vn -0.7584 0.2666 0.5948
vn 0.5725 -0.4189 0.7048
vn -0.5725 -0.4189 0.7048
vn 0.4618 -0.3291 0.8237
vn -0.4618 -0.3291 0.8237
vn -0.2624 -0.5331 0.8043
vn 0.2624 -0.5331 0.8043
vn -0.7529 -0.0338 0.6573
vn 0.7529 -0.0338 0.6573
vn -0.5831 0.4999 0.6403
vn 0.5831 0.4999 0.6403
vn 0.0650 0.7039 0.7074
vn -0.0650 0.7039 0.7074
vn -0.0331 0.9449 0.3256
vn 0.0331 0.9449 0.3256
vn 0.6482 -0.4206 0.6348
vn -0.6482 -0.4206 0.6348
vn 0.1951 0.0390 0.9800
vn -0.1951 0.0390 0.9800
vn 0.4085 0.1273 0.9039
vn -0.4085 0.1273 0.9039
vn 0.4448 -0.0937 0.8907
vn -0.4448 -0.0937 0.8907
vn 0.3347 -0.0046 0.9423
vn -0.3347 -0.0046 0.9423
vn 0.3343 0.1068 0.9364
vn -0.3343 0.1068 0.9364
vn 0.3144 -0.1038 0.9436
vn -0.3144 -0.1038 0.9436
vn 0.3831 -0.0685 0.9211
vn -0.3831 -0.0685 0.9211
vn 0.2896 0.3158 0.9035
vn -0.2896 0.3158 0.9035
vn -0.4142 0.5509 -0.7245
vn 0.4142 0.5509 -0.7245
vn 0.2870 0.5978 -0.7485
vn -0.2870 0.5978 -0.7485
vn 0.9253 0.0918 -0.3680
vn -0.9253 0.0918 -0.3680
vn 0.6366 -0.5043 -0.5834
vn -0.6366 -0.5043 -0.5834
vn -0.0253 -0.6796 -0.7331
vn 0.0253 -0.6796 -0.7331
vn -0.0989 -0.8409 -0.5322
vn 0.0989 -0.8409 -0.5322
vn -0.6501 0.5847 -0.4854
vn 0.6501 0.5847 -0.4854
vt 0.346058 0.874985
vt 0.344782 0.910455
vt 0.318469 0.884305
vt 0.678893 0.861126
vt 0.644139 0.857078
vt 0.662193 0.832954
vt 0.326709 0.923851
vt 0.294099 0.890724
vt 0.706043 0.849450
vt 0.684150 0.814245
vt 0.243764 0.929698
vt 0.221355 0.971931
vt 0.221355 0.925783
vt 0.706043 0.900118
vt 0.359549 0.888907
vt 0.381782 0.909671
vt 0.679033 0.900012
vt 0.653037 0.871538
vt 0.202855 0.896098
vt 0.229994 0.876590
vt 0.223316 0.913632
vt 0.663147 0.926553
vt 0.652896 0.893454
vt 0.256486 0.877636
vt 0.247439 0.925783
vt 0.685638 0.935455
vt 0.224609 0.843303
vt 0.728136 0.892888
vt 0.733392 0.932940
vt 0.706043 0.897574
vt 0.205870 0.876715
vt 0.765802 0.899736
vt 0.750625 0.920862
vt 0.954110 0.280482
vt 0.969854 0.257615
vt 0.971376 0.294242
vt 0.730111 0.854743
vt 0.754288 0.884879
vt 0.994170 0.301590
vt 0.706939 0.847682
vt 0.969213 0.223736
vt 0.994170 0.253833
vt 0.752152 0.828637
vt 0.736178 0.814245
vt 0.360876 0.838247
vt 0.381782 0.817405
vt 0.380114 0.837481
vt 0.765802 0.849807
vt 0.345509 0.853319
vt 0.345679 0.818159
vt 0.152723 0.880141
vt 0.166584 0.845150
vt 0.174602 0.879563
vt 0.319377 0.846057
vt 0.328673 0.805003
vt 0.192629 0.835426
vt 0.202855 0.879928
vt 0.293949 0.840812
vt 0.173944 0.916215
vt 0.200752 0.927451
vt 0.151951 0.900590
vt 0.568915 0.879457
vt 0.568943 0.898022
vt 0.564967 0.897408
vt 0.148470 0.901533
vt 0.149537 0.879669
vt 0.564967 0.858329
vt 0.573410 0.879008
vt 0.372115 0.941673
vt 0.367604 0.923851
vt 0.378759 0.941000
vt 0.953449 0.260002
vt 0.948542 0.240019
vt 0.953863 0.242405
vt 0.373123 0.961941
vt 0.378997 0.963689
vt 0.948410 0.260209
vt 0.363627 0.976866
vt 0.368731 0.981035
vt 0.751337 0.260931
vt 0.738608 0.278362
vt 0.746520 0.257422
vt 0.574198 0.833576
vt 0.564967 0.816052
vt 0.570636 0.812858
vt 0.743550 0.279303
vt 0.746269 0.299215
vt 0.571153 0.854937
vt 0.568270 0.834162
vt 0.767634 0.833669
vt 0.773079 0.814662
vt 0.773079 0.837232
vt 0.935643 0.167718
vt 0.946726 0.185432
vt 0.941827 0.187514
vt 0.768998 0.813981
vt 0.772786 0.794684
vt 0.943712 0.147531
vt 0.939742 0.167927
vt 0.782982 0.282210
vt 0.766536 0.309611
vt 0.752774 0.293641
vt 0.187330 0.930644
vt 0.196060 0.946608
vt 0.172354 0.958670
vt 0.790301 0.309611
vt 0.193390 0.971179
vt 0.805417 0.293220
vt 0.837488 0.310393
vt 0.819748 0.308928
vt 0.831274 0.282721
vt 0.806013 0.270845
vt 0.806013 0.293098
vt 0.791028 0.253867
vt 0.806948 0.269030
vt 0.769655 0.253148
vt 0.819122 0.253148
vt 0.752146 0.270258
vt 0.837488 0.253935
vt 0.172354 0.927451
vt 0.919968 0.124480
vt 0.930212 0.087446
vt 0.940033 0.121319
vt 0.904506 0.056706
vt 0.913479 0.092178
vt 0.920742 0.138246
vt 0.948410 0.147531
vt 0.898652 0.041426
vt 0.923098 0.047090
vt 0.293949 0.794546
vt 0.333536 0.795441
vt 0.302995 0.805003
vt 0.905456 0.002093
vt 0.917484 0.011983
vt 0.294819 0.749570
vt 0.327389 0.776095
vt 0.876748 0.033742
vt 0.867953 0.000000
vt 0.293949 0.688131
vt 0.329197 0.748792
vt 0.018251 0.773750
vt 0.071486 0.777171
vt 0.026775 0.806372
vt 0.155255 0.340229
vt 0.217806 0.341311
vt 0.178676 0.387734
vt 0.702398 0.748532
vt 0.731751 0.802628
vt 0.668265 0.814245
vt 0.610159 0.287704
vt 0.645509 0.257422
vt 0.645986 0.297926
vt 0.738920 0.696443
vt 0.709658 0.690719
vt 0.575010 0.372311
vt 0.623558 0.349075
vt 0.596020 0.380866
vt 0.701137 0.650555
vt 0.667249 0.310652
vt 0.607293 0.313269
vt 0.680982 0.596893
vt 0.669805 0.628707
vt 0.688398 0.341746
vt 0.660986 0.344083
vt 0.161166 0.644394
vt 0.182965 0.659246
vt 0.163878 0.672137
vt 0.727662 0.387727
vt 0.672161 0.361341
vt 0.103926 0.649057
vt 0.098715 0.677290
vt 0.745300 0.439217
vt 0.716798 0.413815
vt 0.061219 0.678861
vt 0.774029 0.458358
vt 0.773208 0.420597
vt 0.058309 0.865078
vt 0.101890 0.852995
vt 0.090492 0.872875
vt 0.024924 0.890098
vt 0.001834 0.845039
vt 0.028239 0.834551
vt 0.076639 0.920275
vt 0.101890 0.922168
vt 0.026240 0.911031
vt 0.000000 0.894657
vt 0.075543 0.941161
vt 0.095497 0.952282
vt 0.711136 0.451049
vt 0.709997 0.492751
vt 0.703694 0.472811
vt 0.614138 0.721550
vt 0.594895 0.758512
vt 0.575010 0.716132
vt 0.746442 0.464270
vt 0.580512 0.690548
vt 0.745570 0.634921
vt 0.773896 0.627325
vt 0.770808 0.652464
vt 0.605951 0.674744
vt 0.620053 0.704207
vt 0.743520 0.702653
vt 0.768183 0.695034
vt 0.648494 0.637000
vt 0.634479 0.687268
vt 0.754551 0.720980
vt 0.773627 0.714217
vt 0.661386 0.657861
vt 0.649527 0.367445
vt 0.625504 0.375732
vt 0.676081 0.658477
vt 0.604766 0.411179
vt 0.688925 0.674307
vt 0.585561 0.435308
vt 0.600786 0.440689
vt 0.693382 0.716600
vt 0.587689 0.509307
vt 0.628610 0.476328
vt 0.603106 0.560001
vt 0.647038 0.592770
vt 0.634704 0.596893
vt 0.630677 0.517933
vt 0.653663 0.558704
vt 0.681242 0.484963
vt 0.626898 0.766397
vt 0.604231 0.787943
vt 0.667534 0.514697
vt 0.659468 0.486878
vt 0.632440 0.802969
vt 0.640476 0.775424
vt 0.641603 0.482943
vt 0.661838 0.549478
vt 0.675849 0.540739
vt 0.897179 0.107856
vt 0.891289 0.082037
vt 0.889541 0.118537
vt 0.878496 0.070127
vt 0.363758 0.773193
vt 0.363958 0.746286
vt 0.330969 0.687868
vt 0.361271 0.739476
vt 0.409499 0.727578
vt 0.417780 0.666451
vt 0.432084 0.723408
vt 0.854541 0.033777
vt 0.855921 0.068548
vt 0.850473 0.065421
vt 0.373848 0.650822
vt 0.362702 0.681985
vt 0.354815 0.646176
vt 0.394854 0.674052
vt 0.378778 0.678019
vt 0.385115 0.731725
vt 0.388084 0.751544
vt 0.408971 0.735181
vt 0.556374 0.774781
vt 0.565016 0.787328
vt 0.556458 0.791849
vt 0.311528 0.946649
vt 0.309349 0.934185
vt 0.321081 0.946211
vt 0.401666 0.959765
vt 0.407030 0.975175
vt 0.396838 0.973575
vt 0.687708 0.968302
vt 0.698412 0.947378
vt 0.698113 0.965488
vt 0.408677 0.944082
vt 0.396838 0.937778
vt 0.899839 0.580658
vt 0.889673 0.566670
vt 0.899529 0.566185
vt 0.278912 0.669341
vt 0.290822 0.658058
vt 0.289734 0.668529
vt 0.648455 0.943163
vt 0.660517 0.935455
vt 0.665169 0.947386
vt 0.565109 0.810952
vt 0.556374 0.812858
vt 0.320423 0.969755
vt 0.314862 0.986233
vt 0.311402 0.969461
vt 0.303990 0.950206
vt 0.271964 0.656277
vt 0.279291 0.651548
vt 0.659436 0.953290
vt 0.732844 0.939548
vt 0.739370 0.950295
vt 0.731238 0.954643
vt 0.681777 0.950234
vt 0.685952 0.935455
vt 0.689763 0.947019
vt 0.751985 0.964922
vt 0.679229 0.966055
vt 0.567423 0.772720
vt 0.569123 0.785731
vt 0.300805 0.936366
vt 0.755298 0.957246
vt 0.739864 0.940041
vt 0.755298 0.932940
vt 0.644139 0.970515
vt 0.659951 0.963209
vt 0.293949 0.965301
vt 0.306768 0.983192
vt 0.299507 0.990048
vt 0.295618 0.943868
vt 0.989693 0.430066
vt 0.960318 0.446471
vt 0.975083 0.404001
vt 0.587595 0.528485
vt 0.980723 0.450371
vt 0.989693 0.476176
vt 0.575010 0.562952
vt 0.592074 0.549445
vt 0.333597 0.638645
vt 0.345498 0.633918
vt 0.318068 0.923851
vt 0.328632 0.925523
vt 0.332811 0.655653
vt 0.406761 0.637409
vt 0.299121 0.656184
vt 0.098949 0.761614
vt 0.059522 0.740286
vt 0.083642 0.723923
vt 0.301785 0.640581
vt 0.111152 0.752878
vt 0.096321 0.715370
vt 0.306936 0.624753
vt 0.122971 0.741794
vt 0.868695 0.093411
vt 0.870601 0.110811
vt 0.866230 0.113731
vt 0.861765 0.072083
vt 0.872561 0.092133
vt 0.885897 0.112940
vt 0.203993 0.932552
vt 0.221355 0.944457
vt 0.215647 0.945871
vt 0.895201 0.103044
vt 0.220574 0.961910
vt 0.215086 0.962428
vt 0.212946 0.974008
vt 0.202855 0.978087
vt 0.210295 0.971508
vt 0.757584 0.963794
vt 0.770496 0.972353
vt 0.757008 0.972353
vt 0.900372 0.957433
vt 0.894234 0.967698
vt 0.890379 0.957627
vt 0.771857 0.949418
vt 0.771072 0.963794
vt 0.890459 0.943120
vt 0.755298 0.947286
vt 0.770491 0.937399
vt 0.754249 0.797306
vt 0.743520 0.811354
vt 0.743520 0.794684
vt 0.918059 0.962552
vt 0.904226 0.945109
vt 0.918059 0.941253
vt 0.873418 0.065837
vt 0.884214 0.085887
vt 0.155348 0.948812
vt 0.170540 0.962714
vt 0.148470 0.967190
vt 0.170540 0.942844
vt 0.148470 0.927451
vt 0.161848 0.970988
vt 0.430452 0.817943
vt 0.424943 0.831444
vt 0.424943 0.805003
vt 0.288329 0.576844
vt 0.282516 0.593824
vt 0.278505 0.581093
vt 0.666479 0.556165
vt 0.679669 0.550960
vt 0.281123 0.560650
vt 0.271964 0.570417
vt 0.696659 0.535656
vt 0.697998 0.548888
vt 0.691755 0.466023
vt 0.717772 0.551568
vt 0.290967 0.607826
vt 0.290967 0.593466
vt 0.658055 0.567168
vt 0.271964 0.642216
vt 0.279556 0.607336
vt 0.673869 0.742279
vt 0.661562 0.774102
vt 0.653115 0.768317
vt 0.613906 0.417850
vt 0.610872 0.442938
vt 0.678575 0.716334
vt 0.687353 0.746835
vt 0.629682 0.388426
vt 0.679536 0.683745
vt 0.650492 0.383342
vt 0.666723 0.671497
vt 0.669534 0.373486
vt 0.572002 0.670928
vt 0.559424 0.680297
vt 0.564147 0.666045
vt 0.693539 0.411633
vt 0.666090 0.386058
vt 0.570670 0.630134
vt 0.555429 0.630429
vt 0.696913 0.435451
vt 0.684225 0.421265
vt 0.564074 0.613796
vt 0.708352 0.433064
vt 0.698734 0.450267
vt 0.732459 0.561159
vt 0.748823 0.566135
vt 0.738347 0.571690
vt 0.741971 0.552436
vt 0.693022 0.448892
vt 0.967185 0.857309
vt 0.967277 0.839412
vt 0.974028 0.852337
vt 0.691684 0.435660
vt 0.964651 0.824596
vt 0.969507 0.826210
vt 0.569005 0.690731
vt 0.562871 0.710393
vt 0.556955 0.709039
vt 0.972371 0.811056
vt 0.564385 0.742874
vt 0.556375 0.744697
vt 0.966900 0.810105
vt 0.994393 0.786911
vt 0.558884 0.758878
vt 0.566383 0.755832
vt 0.271964 0.486718
vt 0.287396 0.491002
vt 0.280559 0.496030
vt 0.572002 0.765527
vt 0.567501 0.772720
vt 0.285736 0.511836
vt 0.635303 0.393142
vt 0.618688 0.418510
vt 0.288394 0.542028
vt 0.282241 0.540443
vt 0.616475 0.440064
vt 0.271964 0.555784
vt 0.633091 0.468721
vt 0.630111 0.475287
vt 0.143656 0.894780
vt 0.141940 0.862781
vt 0.148464 0.891121
vt 0.643353 0.480125
vt 0.646333 0.473560
vt 0.139387 0.848323
vt 0.145757 0.848707
vt 0.675245 0.470182
vt 0.687114 0.459336
vt 0.982761 0.866153
vt 0.675835 0.476016
vt 0.659307 0.472584
vt 0.994393 0.871927
vt 0.978237 0.870857
vt 0.658470 0.481257
vt 0.140609 0.834552
vt 0.148464 0.837779
vt 0.055572 0.890027
vt 0.058309 0.916646
vt 0.472011 0.900235
vt 0.504877 0.923550
vt 0.473655 0.929187
vt 0.058309 0.839934
vt 0.485204 0.857736
vt 0.507390 0.903093
vt 0.794350 0.020201
vt 0.752146 0.030052
vt 0.771253 -0.000000
vt 0.508527 0.818682
vt 0.472011 0.826938
vt 0.810901 0.073576
vt 0.771171 0.049264
vt 0.070503 0.620852
vt 0.118302 0.622133
vt 0.833041 0.129564
vt 0.785752 0.094876
vt 0.169263 0.616239
vt 0.816971 0.172524
vt 0.804419 0.145179
vt 0.197071 0.613147
vt 0.814351 0.217524
vt 0.850473 0.162532
vt 0.957345 0.061551
vt 0.997483 0.018633
vt 0.975825 0.069492
vt 0.293949 0.256305
vt 0.232768 0.273797
vt 0.280200 0.242146
vt 0.973103 0.123092
vt 0.244721 0.302809
vt 0.197924 0.301437
vt 0.977593 0.162141
vt 0.948410 0.120730
vt 0.052918 0.318685
vt 0.073642 0.335482
vt 0.044793 0.335486
vt 0.282598 0.748394
vt 0.259259 0.719323
vt 0.292099 0.708806
vt 0.260696 0.750888
vt 0.221872 0.788752
vt 0.207187 0.765655
vt 0.209693 0.731260
vt 0.176218 0.800413
vt 0.160458 0.766898
vt 0.162010 0.733340
vt 0.985026 0.657830
vt 0.952377 0.683680
vt 0.957225 0.651284
vt 0.948410 0.074646
vt 0.939492 0.036761
vt 0.987116 0.628915
vt 0.958497 0.618218
vt 0.731238 0.942722
vt 0.707909 0.963435
vt 0.706043 0.932940
vt 0.991309 0.613703
vt 0.952377 0.589047
vt 0.164731 0.701279
vt 0.158270 0.678861
vt 0.212446 0.696016
vt 0.424943 0.901879
vt 0.381782 0.916024
vt 0.381782 0.877850
vt 0.057921 0.834552
vt 0.094050 0.808397
vt 0.237481 0.814194
vt 0.270085 0.770427
vt 0.281784 0.790148
vt 0.260132 0.687940
vt 0.193148 0.835426
vt 0.102814 0.333051
vt 0.090144 0.299336
vt 0.122376 0.322236
vt 0.424632 0.857555
vt 0.385432 0.851588
vt 0.116829 0.789556
vt 0.388683 0.836157
vt 0.413825 0.819802
vt 0.416102 0.832587
vt 0.126068 0.776740
vt 0.129772 0.763496
vt 0.401060 0.809641
vt 0.411691 0.805003
vt 0.134623 0.751674
vt 0.151323 0.325468
vt 0.197515 0.319306
vt 0.997482 0.209601
vt 0.963610 0.168233
vt 0.091108 0.051472
vt 0.000000 0.088524
vt 0.021646 0.029091
vt 0.464588 0.481359
vt 0.560852 0.478693
vt 0.489700 0.529803
vt 0.076388 0.097764
vt 0.005230 0.174858
vt 0.574357 0.544916
vt 0.509582 0.580951
vt 0.089418 0.275906
vt 0.047019 0.296543
vt 0.667447 0.206839
vt 0.747887 0.257422
vt 0.649825 0.256246
vt 0.648407 0.213953
vt 0.633712 0.257422
vt 0.131847 0.320841
vt 0.134042 0.816024
vt 0.148470 0.834552
vt 0.214672 0.200343
vt 0.271621 0.164245
vt 0.701956 0.061320
vt 0.625794 0.017494
vt 0.689096 0.000000
vt 0.535394 0.310652
vt 0.525953 0.417452
vt 0.447186 0.333109
vt 0.383886 0.429608
vt 0.516317 0.259310
vt 0.538605 0.127654
vt 0.580030 0.182361
vt 0.080711 0.528766
vt 0.006069 0.445810
vt 0.084578 0.454272
vt 0.427229 0.168830
vt 0.456168 0.060054
vt 0.524285 -0.000000
vt 0.314022 0.128334
vt 0.360276 0.019316
vt 0.376431 0.310652
vt 0.784014 0.176977
vt 0.760357 0.162914
vt 0.193364 0.584352
vt 0.174027 0.568107
vt 0.861471 0.558020
vt 0.821606 0.601216
vt 0.790281 0.567303
vt 0.189300 0.526164
vt 0.145163 0.499491
vt 0.447189 0.269648
vt 0.392007 0.274592
vt 0.417228 0.232534
vt 0.193646 0.467464
vt 0.151292 0.439560
vt 0.344320 0.240051
vt 0.369564 0.196760
vt 0.220787 0.417950
vt 0.177535 0.387734
vt 0.298130 0.175839
vt 0.293949 0.227381
vt 0.369776 0.480773
vt 0.293949 0.493717
vt 0.301322 0.440781
vt 0.113024 0.387734
vt 0.482974 0.213838
vt 0.774029 0.502460
vt 0.759740 0.110700
vt 0.127155 0.595800
vt 0.860422 0.503836
vt 0.781265 0.399633
vt 0.873354 0.391142
vt 0.889672 0.310652
vt 0.802783 0.312550
vt 0.988418 0.583209
vt 0.949920 0.526429
vt 0.988418 0.497635
vt 0.854505 0.929410
vt 0.820025 0.994810
vt 0.820025 0.916124
vt 0.743520 0.794684
vt 0.773079 0.728825
vt 0.758638 0.790366
vt 0.073721 0.638612
vt 0.040372 0.621487
vt 0.711700 0.286481
vt 0.704349 0.263106
vt 0.738608 0.257422
vt 0.738608 0.294345
vt 0.793676 0.215526
vt 0.239914 0.610262
vt 0.258002 0.533267
vt 0.889673 0.637853
vt 0.872572 0.575064
vt 0.350885 0.299918
vt 0.419631 0.310652
vt 0.250209 0.504343
vt 0.774029 0.971578
vt 0.814985 0.936392
vt 0.820025 0.993261
vt 0.251731 0.468121
vt 0.072537 0.173793
vt 0.150616 0.242804
vt 0.752146 0.189224
vt 0.667881 0.139429
vt 0.742673 0.146339
vt 0.157651 0.164378
vt 0.742139 0.104258
vt 0.617737 0.072262
vt 0.605717 0.184058
vt 0.600629 0.115343
vt 0.842959 0.253148
vt 0.850228 0.307538
vt 0.837488 0.307538
vt 0.592109 0.177003
vt 0.580030 0.170124
vt 0.155752 0.094660
vt 0.183286 0.029202
vt 0.214965 0.060346
vt 0.412253 0.556720
vt 0.439063 0.518536
vt 0.161172 -0.000000
vt 0.116145 0.168224
vt 0.465807 0.584605
vt 0.122784 0.073227
vt 0.555429 0.699655
vt 0.541431 0.670513
vt 0.552947 0.659576
vt 0.499708 0.958457
vt 0.512765 0.941459
vt 0.512765 0.962617
vt 0.524334 0.626049
vt 0.532740 0.606465
vt 0.137051 0.932070
vt 0.148169 0.894780
vt 0.148169 0.936726
vt 0.480485 0.606465
vt 0.436168 0.838228
vt 0.472011 0.852897
vt 0.458367 0.866167
vt 0.484411 0.626861
vt 0.434027 0.647306
vt 0.472011 0.917846
vt 0.459306 0.917733
vt 0.447491 0.659795
vt 0.432084 0.718842
vt 0.921262 0.368574
vt 0.931890 0.425440
vt 0.918364 0.423100
vt 0.466621 0.774812
vt 0.458724 0.793114
vt 0.889673 0.479450
vt 0.898157 0.497635
vt 0.446246 0.715985
vt 0.468484 0.751113
vt 0.010159 0.948581
vt -0.000000 0.983426
vt -0.000000 0.930026
vt 0.970612 0.925751
vt 0.975128 0.966099
vt 0.962361 0.978034
vt 0.433792 0.947895
vt 0.441573 0.957980
vt 0.974160 0.888631
vt 0.962361 0.879443
vt 0.449851 0.876760
vt 0.449273 0.915403
vt 0.396837 0.951302
vt 0.381782 0.975117
vt 0.381782 0.937778
vt 0.432084 0.856478
vt 0.524852 0.668910
vt 0.876295 0.196327
vt 0.850473 0.159022
vt 0.871673 0.156749
vt 0.527206 0.694998
vt 0.879811 0.221618
vt 0.855158 0.206451
vt 0.206159 0.166287
vt 0.724272 0.059399
vt 0.745665 0.066451
vt 0.488395 0.784516
vt 0.482322 0.818682
vt 0.645986 0.299598
vt 0.673385 0.281931
vt 0.664154 0.309610
vt 0.274936 0.133915
vt 0.293949 0.469864
vt 0.271964 0.407736
vt 0.289059 0.387734
vt 0.548166 0.724239
vt 0.542407 0.701084
vt 0.502310 0.982065
vt 0.889180 0.931464
vt 0.864189 0.940162
vt 0.863826 0.916124
vt 0.026668 0.954169
vt 0.025401 0.924508
vt 0.936165 0.933330
vt 0.913674 0.911705
vt 0.916949 0.902915
vt 0.674048 0.936018
vt 0.669693 0.967631
vt 0.665169 0.935455
vt 0.942645 0.910982
vt 0.934322 0.900304
vt 0.499179 0.940435
vt 0.472011 0.942680
vt 0.482730 0.940319
vt 0.232287 0.113473
vt 0.204521 0.112751
vt 0.228308 0.101763
vt 0.898955 0.262460
vt 0.929701 0.263021
vt 0.930221 0.283155
vt 0.525100 0.741285
vt 0.521185 0.714212
vt 0.537258 0.723525
vt 0.891858 0.236300
vt 0.909644 0.246807
vt 0.880319 0.252157
vt 0.251986 0.102996
vt 0.254296 0.101729
vt 0.262477 0.469202
vt 0.919569 0.298310
vt 0.191691 0.147477
vt 0.198849 0.137960
vt 0.564967 0.898022
vt 0.574462 0.906303
vt 0.564967 0.927374
vt 0.263341 0.080748
vt 0.241467 0.083389
vt 0.257122 0.070423
vt 0.900910 0.228908
vt 0.889497 0.212834
vt 0.247893 0.094169
vt 0.915585 0.238866
vt 0.201236 0.102524
vt 0.225024 0.091536
vt 0.935643 0.255080
vt 0.714742 0.308473
vt 0.705044 0.294345
vt 0.714518 0.294345
vt 0.472539 0.931432
vt 0.484700 0.929187
vt 0.931335 0.894281
vt 0.499708 0.929187
vt 0.620846 0.299827
vt 0.610159 0.310538
vt 0.610159 0.298746
vt 0.665169 0.975685
vt 0.679229 0.971568
vt 0.675790 0.980871
vt 0.877803 0.947785
vt 0.856736 0.946465
vt 0.126015 0.949880
vt 0.122754 0.964294
vt 0.113665 0.960736
vt 0.274834 0.058785
vt 0.269909 0.048138
vt 0.885295 0.186036
vt 0.293949 0.034605
vt 0.289787 0.025609
vt 0.879569 0.147531
vt 0.038740 0.951897
vt 0.035121 0.927135
vt 0.048922 0.952997
vt 0.935643 0.193064
vt 0.946902 0.216341
vt 0.935643 0.221903
vt 0.035936 0.987784
vt 0.026668 0.986423
vt 0.135570 0.842565
vt 0.105385 0.856111
vt 0.126014 0.834552
vt 0.980704 0.923810
vt 0.986968 0.961804
vt 0.113426 0.863531
vt 0.101890 0.901903
vt 0.889180 0.978350
vt 0.886481 0.941615
vt 0.112300 0.907722
vt 0.915614 0.896124
vt 0.931191 0.878875
vt 0.984722 0.392622
vt 0.977050 0.369781
vt 0.990093 0.372214
vt 0.916190 0.874000
vt 0.936657 0.857184
vt 0.976928 0.348909
vt 0.987878 0.352707
vt 0.929622 0.834910
vt 0.943790 0.838354
vt 0.986146 0.333781
vt 0.974337 0.330244
vt 0.944381 0.819858
vt 0.978321 0.313509
vt 0.990683 0.321922
vt 0.960701 0.820392
vt 0.960761 0.310652
vt 0.962361 0.848004
vt 0.957715 0.867497
vt 0.909719 0.211979
vt 0.897672 0.197297
vt 0.949497 0.882216
vt 0.961842 0.364416
vt 0.941310 0.904191
vt 0.972360 0.384208
vt 0.960318 0.390104
vt 0.411781 0.961186
vt 0.426254 0.959388
vt 0.427286 0.970956
vt 1.000000 0.392246
vt 0.890379 0.850280
vt 0.906254 0.899724
vt 0.267013 0.928558
vt 0.292746 0.905499
vt 0.264965 0.951284
vt 0.890379 0.804655
vt 0.258163 0.889974
vt 0.264069 0.907955
vt 0.928660 0.821702
vt 0.918343 0.779839
vt 0.256486 0.875871
vt 0.292746 0.859413
vt 0.947412 0.783637
vt 0.673385 0.267843
vt 0.698047 0.285690
vt 0.673385 0.301384
vt 0.686830 0.261174
vt 0.704349 0.257422
vt 0.932828 0.717973
vt 0.909942 0.758330
vt 0.897519 0.701932
vt 0.933978 0.480428
vt 0.960318 0.413953
vt 0.936731 0.648089
vt 0.917369 0.635237
vt 0.929432 0.354276
vt 0.948604 0.341388
vt 0.936057 0.589047
vt 0.952377 0.593762
vt 0.907788 0.310652
vt 0.564569 0.906906
vt 0.537274 0.875488
vt 0.562769 0.859553
vt 0.590964 0.308275
vt 0.610159 0.260026
vt 0.610159 0.310538
vt 0.522074 0.834642
vt 0.558671 0.818682
vt 0.890379 0.797789
vt 0.851819 0.833501
vt 0.865359 0.779839
vt 0.895962 0.501512
vt 0.925863 0.536520
vt 0.889673 0.537499
vt 0.885861 0.854363
vt 0.846497 0.880495
vt 0.895419 0.708438
vt 0.781946 0.745681
vt 0.774029 0.698782
vt 0.774029 0.844609
vt 0.774029 0.916124
vt 0.874441 0.644386
vt 0.591036 0.909986
vt 0.644139 0.828449
vt 0.644139 0.949466
vt 0.549359 0.917799
vt 0.522074 0.943286
vt 0.575010 0.854038
vt 0.603948 0.814245
vt 0.889673 0.563396
vt 0.947300 0.566185
vt 0.864579 0.912795
vt 0.877008 0.892638
vt 0.173962 0.121659
vt 0.401525 0.606465
vt 0.346390 0.527571
vt 0.332227 0.942338
vt 0.363627 0.971837
vt 0.328632 0.984439
vt 0.952377 0.720055
vt 0.992316 0.758156
vt 0.960747 0.767611
vt 0.244164 0.965345
vt 0.380265 0.887393
vt 0.644139 0.907747
vt 0.248085 0.835426
vt 0.202855 0.859492
vt 0.754465 0.863196
vt 0.993387 0.210007
vt 0.148470 0.861151
vt 0.570719 0.854937
vt 0.363627 0.925722
vt 0.949353 0.283282
vt 0.751337 0.297589
vt 0.564967 0.852916
vt 0.768736 0.795338
vt 0.946726 0.149196
vt 0.743520 0.748239
vt 0.610178 0.257422
vt 0.743520 0.632538
vt 0.195113 0.642044
vt 0.048063 0.647776
vt 0.074831 0.834551
vt 0.005420 0.924508
vt 0.613672 0.745906
vt 0.743520 0.596893
vt 0.698787 0.514336
vt 0.896802 0.094497
vt 0.390182 0.637450
vt 0.411781 0.959580
vt 0.889673 0.587851
vt 0.328632 0.967115
vt 0.271964 0.673729
vt 0.644139 0.947199
vt 0.679229 0.942042
vt 0.574198 0.776197
vt 0.984316 0.465631
vt 0.575547 0.558742
vt 0.348224 0.606465
vt 0.107535 0.678861
vt 0.202855 0.925783
vt 0.204265 0.982789
vt 0.904226 0.967503
vt 0.904226 0.941253
vt 0.756714 0.932940
vt 0.756681 0.811458
vt 0.904226 0.966408
vt 0.172354 0.952949
vt 0.723929 0.539346
vt 0.282710 0.651548
vt 0.567099 0.690731
vt 0.572002 0.606465
vt 0.962361 0.839452
vt 0.572002 0.694878
vt 0.989441 0.779839
vt 0.278065 0.480024
vt 0.293886 0.511874
vt 0.275961 0.560650
vt 0.135570 0.862398
vt 0.989470 0.879443
vt 0.522074 0.856132
vt 0.976293 0.000000
vt 0.979196 0.690038
vt 0.731238 0.971021
vt 0.148470 0.691565
vt 0.416111 0.937778
vt 0.000000 0.833942
vt 0.292417 0.678861
vt 0.395558 0.822463
vt 0.988021 0.210007
vt 0.575010 0.394663
vt 0.000000 0.535016
vt 0.580030 0.045008
vt 0.298346 0.392277
vt 0.947300 0.558377
vt 0.856736 0.957535
vt 0.743520 0.720980
vt 0.752146 0.253148
vt 0.863537 0.644386
vt 0.333097 0.269690
vt 0.774029 0.916124
vt 0.268551 0.418998
vt 0.141966 0.323980
vt 0.424930 0.599225
vt 0.503045 0.929187
vt 0.135570 0.895420
vt 0.438013 0.818682
vt 0.452270 0.703199
vt 0.012668 0.994669
vt 0.395466 0.979323
vt 0.509304 0.632107
vt 0.862686 0.234986
vt 0.645986 0.257422
vt 0.271964 0.480024
vt 0.510466 0.986532
vt 0.923112 0.941253
vt 0.477456 0.965095
vt 0.513017 0.730741
vt 0.270030 0.474845
vt 0.850473 0.271206
vt 0.704349 0.309219
vt 0.621069 0.310305
vt 0.135570 0.954580
vt 0.026668 0.924508
vt 0.946402 0.187514
vt 0.988116 0.919717
vt 0.881860 0.986667
vt 0.922406 0.852846
vt 0.960318 0.327770
vt 0.960592 0.346073
vt 0.427286 0.937778
vt 0.982878 0.404001
vt 0.271681 0.835426
vt 0.952377 0.779839
vt 0.889673 0.316743
vt 0.580030 0.257422
vt 0.935601 0.497635
vt 0.897519 0.779839
vt 0.775496 0.644386
vt 0.812822 0.893875
vt 0.250813 0.056709
vt 0.310318 0.525177
vt 0.363627 0.923850
vt 0.992316 0.690038
s 1
f 47/1/47 3/2/3 45/3/45
f 4/4/4 48/5/48 46/6/46
f 45/3/45 5/7/5 43/8/43
f 6/9/6 46/6/46 44/10/44
f 3/11/3 7/12/7 5/13/5
f 8/14/8 4/4/4 6/9/6
f 1/15/1 9/16/9 3/2/3
f 10/17/10 2/18/2 4/4/4
f 11/19/11 15/20/15 9/21/9
f 16/22/16 12/23/12 10/17/10
f 9/21/9 17/24/17 7/25/7
f 18/26/18 10/17/10 8/14/8
f 21/27/21 17/24/17 15/20/15
f 22/28/22 18/29/18 20/30/20
f 13/31/13 21/27/21 15/20/15
f 22/28/22 14/32/14 16/33/16
f 23/34/23 27/35/27 21/36/21
f 28/37/28 24/38/24 22/28/22
f 27/35/27 19/39/19 21/36/21
f 28/37/28 20/30/20 30/40/30
f 33/41/33 29/42/29 27/35/27
f 34/43/34 30/40/30 32/44/32
f 35/45/35 27/46/27 25/47/25
f 36/48/36 28/37/28 34/43/34
f 37/49/37 33/50/33 35/45/35
f 38/51/38 34/52/34 40/53/40
f 39/54/39 31/55/31 33/50/33
f 40/53/40 32/56/32 42/57/42
f 45/3/45 41/58/41 39/54/39
f 46/59/46 42/57/42 44/60/44
f 47/1/47 39/54/39 37/49/37
f 48/61/48 40/53/40 46/59/46
f 37/62/37 49/63/49 47/64/47
f 38/51/38 50/65/50 52/66/52
f 35/67/35 51/68/51 37/62/37
f 36/69/36 52/70/52 54/71/54
f 25/72/25 53/73/53 35/74/35
f 26/75/26 54/71/54 56/76/56
f 23/34/23 55/77/55 25/72/25
f 24/78/24 56/76/56 58/79/58
f 23/80/23 59/81/59 57/82/57
f 60/83/60 24/84/24 58/85/58
f 13/86/13 63/87/63 59/81/59
f 64/88/64 14/89/14 60/83/60
f 11/90/11 65/91/65 63/92/63
f 66/93/66 12/94/12 64/95/64
f 1/96/1 49/97/49 65/91/65
f 50/98/50 2/99/2 66/93/66
f 61/100/61 65/101/65 49/102/49
f 50/103/50 66/104/66 62/105/62
f 63/106/63 65/101/65 61/100/61
f 62/105/62 66/104/66 64/107/64
f 61/100/61 59/108/59 63/106/63
f 64/109/64 60/110/60 62/111/62
f 61/100/61 57/112/57 59/108/59
f 60/110/60 58/113/58 62/111/62
f 61/100/61 55/114/55 57/112/57
f 58/113/58 56/115/56 62/111/62
f 61/100/61 53/116/53 55/114/55
f 56/115/56 54/117/54 62/111/62
f 61/100/61 51/118/51 53/116/53
f 54/117/54 52/119/52 62/111/62
f 61/100/61 49/102/49 51/118/51
f 52/120/52 50/103/50 62/105/62
f 174/121/174 91/122/91 89/123/89
f 175/124/175 91/122/91 176/125/176
f 172/126/172 89/123/89 87/127/87
f 173/128/173 90/129/90 175/124/175
f 85/130/85 172/131/172 87/132/87
f 173/128/173 86/133/86 88/134/88
f 83/135/83 170/136/170 85/130/85
f 171/137/171 84/138/84 86/133/86
f 81/139/81 168/140/168 83/135/83
f 169/141/169 82/142/82 84/143/84
f 79/144/79 146/145/146 164/146/164
f 147/147/147 80/148/80 165/149/165
f 94/150/94 146/151/146 92/152/92
f 95/153/95 147/147/147 149/154/149
f 94/155/94 150/156/150 148/157/148
f 151/158/151 95/153/95 149/154/149
f 98/159/98 150/156/150 96/160/96
f 99/161/99 151/158/151 153/162/153
f 100/163/100 152/164/152 98/159/98
f 101/165/101 153/166/153 155/167/155
f 102/168/102 154/169/154 100/163/100
f 103/170/103 155/167/155 157/171/157
f 102/168/102 158/172/158 156/173/156
f 159/174/159 103/170/103 157/171/157
f 106/175/106 158/172/158 104/176/104
f 107/177/107 159/178/159 161/179/161
f 108/180/108 160/181/160 106/182/106
f 109/183/109 161/179/161 163/184/163
f 67/185/67 162/186/162 108/180/108
f 67/187/67 163/184/163 68/188/68
f 128/189/128 162/190/162 110/191/110
f 129/192/129 163/193/163 161/194/161
f 128/189/128 158/172/158 160/195/160
f 159/196/159 129/192/129 161/194/161
f 156/197/156 179/198/179 126/199/126
f 157/200/157 180/201/180 159/196/159
f 154/202/154 126/199/126 124/203/124
f 155/204/155 127/205/127 157/200/157
f 152/206/152 124/203/124 122/207/122
f 153/162/153 125/208/125 155/204/155
f 150/156/150 122/209/122 120/210/120
f 151/158/151 123/211/123 153/162/153
f 148/157/148 120/210/120 118/212/118
f 149/154/149 121/213/121 151/158/151
f 146/214/146 118/212/118 116/215/116
f 147/147/147 119/216/119 149/154/149
f 164/217/164 116/215/116 114/218/114
f 165/219/165 117/220/117 147/221/147
f 114/218/114 177/222/177 164/217/164
f 177/222/177 115/223/115 165/219/165
f 162/190/162 112/224/112 110/191/110
f 163/193/163 113/225/113 68/226/68
f 112/224/112 178/227/178 183/228/183
f 178/229/178 113/225/113 184/230/184
f 181/231/181 178/227/178 177/222/177
f 182/232/182 178/227/178 184/233/184
f 135/234/135 176/125/176 174/121/174
f 176/125/176 136/235/136 175/124/175
f 133/236/133 174/121/174 172/126/172
f 175/124/175 134/237/134 173/128/173
f 133/238/133 170/136/170 131/239/131
f 134/237/134 171/137/171 173/128/173
f 166/240/166 185/241/185 168/140/168
f 186/242/186 167/243/167 169/244/169
f 131/239/131 168/140/168 185/241/185
f 169/245/169 132/246/132 186/247/186
f 190/248/190 187/249/187 144/250/144
f 190/248/190 188/251/188 189/252/189
f 187/249/187 69/253/69 185/241/185
f 188/251/188 69/253/69 189/252/189
f 131/239/131 69/253/69 130/254/130
f 132/255/132 69/253/69 186/242/186
f 142/256/142 191/257/191 144/258/144
f 192/259/192 143/260/143 145/261/145
f 140/262/140 193/263/193 142/264/142
f 194/265/194 141/266/141 143/267/143
f 197/268/197 140/262/140 139/269/139
f 198/270/198 141/271/141 196/272/196
f 71/273/71 139/274/139 138/275/138
f 71/276/71 139/277/139 198/278/198
f 144/258/144 70/279/70 190/280/190
f 145/261/145 70/281/70 192/259/192
f 191/282/191 208/283/208 70/281/70
f 192/259/192 208/283/208 207/284/207
f 71/273/71 200/285/200 197/286/197
f 201/287/201 71/276/71 198/278/198
f 197/288/197 202/289/202 195/290/195
f 203/291/203 198/292/198 196/293/196
f 202/289/202 193/294/193 195/290/195
f 203/291/203 194/265/194 205/295/205
f 193/296/193 206/297/206 191/257/191
f 207/284/207 194/298/194 192/259/192
f 204/299/204 200/300/200 199/301/199
f 205/302/205 201/287/201 203/303/203
f 199/304/199 206/305/206 204/306/204
f 207/284/207 199/304/199 205/307/205
f 139/308/139 164/309/164 177/310/177
f 165/219/165 139/311/139 177/222/177
f 140/312/140 211/313/211 164/309/164
f 212/314/212 141/315/141 165/219/165
f 144/250/144 211/316/211 142/317/142
f 145/261/145 212/318/212 214/319/214
f 187/249/187 213/320/213 144/250/144
f 188/251/188 214/321/214 167/243/167
f 209/322/209 166/240/166 81/139/81
f 210/323/210 167/324/167 214/325/214
f 215/326/215 213/320/213 209/322/209
f 216/327/216 214/325/214 212/328/212
f 79/329/79 211/316/211 215/326/215
f 212/328/212 80/330/80 216/327/216
f 130/331/130 222/332/222 131/333/131
f 130/331/130 223/334/223 72/335/72
f 133/236/133 222/332/222 220/336/220
f 223/337/223 134/338/134 221/339/221
f 135/234/135 220/336/220 218/340/218
f 221/339/221 136/341/136 219/342/219
f 137/343/137 218/344/218 217/345/217
f 219/342/219 137/343/137 217/345/217
f 218/346/218 231/347/231 217/348/217
f 219/349/219 231/350/231 230/351/230
f 218/346/218 227/352/227 229/353/229
f 228/354/228 219/349/219 230/351/230
f 220/355/220 225/356/225 227/352/227
f 226/357/226 221/358/221 228/359/228
f 72/360/72 225/361/225 222/362/222
f 72/335/72 226/363/226 224/364/224
f 224/365/224 229/366/229 225/367/225
f 230/368/230 224/365/224 226/369/226
f 225/367/225 229/366/229 227/370/227
f 228/371/228 230/372/230 226/373/226
f 183/374/183 234/375/234 232/376/232
f 235/377/235 184/233/184 233/378/233
f 112/379/112 232/376/232 254/380/254
f 233/378/233 113/381/113 255/382/255
f 112/224/112 256/383/256 110/191/110
f 113/381/113 257/384/257 255/382/255
f 114/385/114 234/375/234 181/386/181
f 115/223/115 235/377/235 253/387/253
f 114/385/114 250/388/250 252/389/252
f 251/390/251 115/391/115 253/392/253
f 116/215/116 248/393/248 250/394/250
f 249/395/249 117/396/117 251/390/251
f 118/212/118 246/397/246 248/393/248
f 247/398/247 119/216/119 249/395/249
f 120/210/120 244/399/244 246/397/246
f 245/400/245 121/213/121 247/398/247
f 124/401/124 244/399/244 122/209/122
f 125/402/125 245/403/245 243/404/243
f 126/405/126 242/406/242 124/401/124
f 127/407/127 243/404/243 241/408/241
f 126/405/126 236/409/236 240/410/240
f 237/411/237 127/407/127 241/408/241
f 179/412/179 238/413/238 236/409/236
f 239/414/239 180/415/180 237/416/237
f 128/189/128 256/383/256 238/413/238
f 257/384/257 129/417/129 239/414/239
f 256/383/256 276/418/276 238/413/238
f 257/419/257 277/420/277 259/421/259
f 236/409/236 276/418/276 278/422/278
f 277/420/277 237/423/237 279/424/279
f 236/425/236 274/426/274 240/427/240
f 237/423/237 275/428/275 279/424/279
f 240/427/240 272/429/272 242/430/242
f 241/431/241 273/432/273 275/428/275
f 244/433/244 272/429/272 270/434/270
f 273/435/273 245/436/245 271/437/271
f 244/433/244 268/438/268 246/439/246
f 245/436/245 269/440/269 271/437/271
f 248/393/248 268/441/268 266/442/266
f 269/440/269 249/443/249 267/444/267
f 248/393/248 264/445/264 250/394/250
f 249/443/249 265/446/265 267/444/267
f 250/394/250 262/447/262 252/448/252
f 251/449/251 263/450/263 265/451/265
f 234/452/234 262/447/262 280/453/280
f 263/450/263 235/454/235 281/455/281
f 256/383/256 260/456/260 258/457/258
f 261/458/261 257/419/257 259/421/259
f 254/459/254 282/460/282 260/456/260
f 283/461/283 255/462/255 261/458/261
f 232/463/232 280/453/280 282/460/282
f 281/455/281 233/464/233 283/465/283
f 67/185/67 284/466/284 73/467/73
f 285/468/285 67/469/67 73/470/73
f 108/180/108 286/471/286 284/466/284
f 287/472/287 109/473/109 285/468/285
f 104/474/104 286/475/286 106/476/106
f 105/477/105 287/472/287 289/478/289
f 102/479/102 288/480/288 104/474/104
f 103/170/103 289/481/289 291/482/291
f 100/483/100 290/484/290 102/479/102
f 101/165/101 291/482/291 293/485/293
f 100/483/100 294/486/294 292/487/292
f 295/488/295 101/165/101 293/485/293
f 96/489/96 294/486/294 98/490/98
f 97/491/97 295/492/295 297/493/297
f 96/494/96 298/495/298 296/496/296
f 299/497/299 97/491/97 297/493/297
f 94/498/94 300/499/300 298/495/298
f 301/500/301 95/501/95 299/497/299
f 309/502/309 338/503/338 308/504/308
f 309/505/309 339/506/339 329/507/329
f 308/508/308 336/509/336 307/510/307
f 308/508/308 337/511/337 339/506/339
f 307/510/307 340/512/340 306/513/306
f 307/510/307 341/514/341 337/511/337
f 89/515/89 306/516/306 340/517/340
f 306/518/306 90/129/90 341/519/341
f 87/520/87 340/517/340 334/521/334
f 341/522/341 88/523/88 335/524/335
f 85/525/85 334/521/334 330/526/330
f 335/527/335 86/528/86 331/529/331
f 83/530/83 330/531/330 332/532/332
f 331/533/331 84/143/84 333/534/333
f 330/535/330 338/536/338 332/537/332
f 339/506/339 331/529/331 333/538/333
f 334/539/334 336/509/336 330/535/330
f 335/527/335 337/511/337 341/514/341
f 332/540/332 328/541/328 326/542/326
f 333/538/333 329/507/329 339/506/339
f 81/543/81 332/532/332 326/544/326
f 333/534/333 82/142/82 327/545/327
f 342/546/342 215/547/215 209/548/209
f 343/549/343 216/327/216 345/550/345
f 326/544/326 209/548/209 81/543/81
f 327/545/327 210/323/210 343/549/343
f 215/547/215 346/551/346 79/552/79
f 216/327/216 347/553/347 345/550/345
f 346/554/346 92/555/92 79/144/79
f 347/556/347 93/557/93 301/500/301
f 324/558/324 304/559/304 77/560/77
f 325/561/325 304/562/304 353/563/353
f 352/564/352 78/565/78 304/559/304
f 353/563/353 78/566/78 351/567/351
f 78/565/78 348/568/348 305/569/305
f 349/570/349 78/571/78 305/572/305
f 305/569/305 328/541/328 309/502/309
f 329/573/329 305/572/305 309/574/309
f 328/541/328 342/575/342 326/542/326
f 329/576/329 343/549/343 349/577/349
f 296/496/296 318/578/318 310/579/310
f 319/580/319 297/581/297 311/582/311
f 316/583/316 77/584/77 76/585/76
f 317/586/317 77/584/77 325/561/325
f 358/587/358 303/588/303 302/589/302
f 359/590/359 303/591/303 357/592/357
f 303/588/303 354/593/354 75/594/75
f 355/595/355 303/588/303 75/594/75
f 75/594/75 316/596/316 76/597/76
f 317/586/317 75/598/75 76/585/76
f 292/487/292 362/599/362 364/600/364
f 363/601/363 293/485/293 365/602/365
f 364/603/364 368/604/368 366/605/366
f 369/606/369 365/602/365 367/607/367
f 366/608/366 370/609/370 372/610/372
f 371/611/371 367/607/367 373/612/373
f 372/610/372 376/613/376 374/614/374
f 377/615/377 373/612/373 375/616/375
f 378/617/378 376/613/376 314/618/314
f 379/619/379 377/620/377 375/621/375
f 316/596/316 374/614/374 378/617/378
f 375/621/375 317/586/317 379/619/379
f 354/593/354 372/610/372 374/614/374
f 373/612/373 355/622/355 375/616/375
f 356/623/356 366/608/366 372/610/372
f 367/607/367 357/592/357 373/612/373
f 358/624/358 364/603/364 366/605/366
f 365/602/365 359/590/359 367/607/367
f 292/487/292 360/625/360 290/484/290
f 293/485/293 361/626/361 365/602/365
f 360/627/360 302/628/302 74/629/74
f 361/630/361 302/628/302 359/631/359
f 284/632/284 288/633/288 290/634/290
f 289/635/289 285/636/285 291/637/291
f 284/638/284 360/639/360 74/640/74
f 361/626/361 285/641/285 74/642/74
f 73/643/73 284/644/284 74/645/74
f 74/645/74 285/646/285 73/643/73
f 296/647/296 362/599/362 294/486/294
f 297/648/297 363/601/363 311/649/311
f 310/650/310 368/604/368 362/651/362
f 369/606/369 311/649/311 363/601/363
f 312/652/312 370/609/370 368/653/368
f 371/611/371 313/654/313 369/606/369
f 376/655/376 382/656/382 314/657/314
f 377/615/377 383/658/383 371/611/371
f 350/659/350 384/660/384 348/568/348
f 351/661/351 385/662/385 387/663/387
f 384/660/384 320/664/320 318/578/318
f 385/662/385 321/665/321 387/663/387
f 298/495/298 384/660/384 318/578/318
f 385/662/385 299/666/299 319/580/319
f 300/499/300 342/575/342 384/660/384
f 343/667/343 301/668/301 385/662/385
f 342/575/342 348/568/348 384/660/384
f 385/662/385 349/570/349 343/667/343
f 300/669/300 346/670/346 344/671/344
f 345/672/345 347/673/347 301/668/301
f 322/674/322 378/675/378 314/676/314
f 323/677/323 379/619/379 381/678/381
f 378/675/378 324/558/324 316/679/316
f 379/619/379 325/561/325 381/678/381
f 386/680/386 322/674/322 320/664/320
f 387/681/387 323/677/323 381/678/381
f 352/564/352 386/680/386 350/659/350
f 353/563/353 387/681/387 381/678/381
f 324/558/324 380/682/380 352/564/352
f 353/563/353 381/678/381 325/561/325
f 388/683/388 402/684/402 400/685/400
f 389/686/389 403/687/403 415/688/415
f 400/685/400 404/689/404 398/690/398
f 405/691/405 401/692/401 399/693/399
f 404/689/404 396/694/396 398/690/398
f 405/695/405 397/696/397 407/697/407
f 406/698/406 394/699/394 396/694/396
f 407/697/407 395/700/395 409/701/409
f 408/702/408 392/703/392 394/699/394
f 409/704/409 393/705/393 411/706/411
f 392/703/392 412/707/412 390/708/390
f 413/709/413 393/705/393 391/710/391
f 410/711/410 418/712/418 412/707/412
f 419/713/419 411/714/411 413/715/413
f 408/716/408 420/717/420 410/718/410
f 421/719/421 409/701/409 411/720/411
f 424/721/424 408/716/408 406/722/406
f 425/723/425 409/701/409 423/724/423
f 426/725/426 406/726/406 404/727/404
f 427/728/427 407/697/407 425/723/425
f 428/729/428 404/689/404 402/684/402
f 429/730/429 405/731/405 427/732/427
f 402/684/402 416/733/416 428/729/428
f 417/734/417 403/735/403 429/730/429
f 320/664/320 442/736/442 318/578/318
f 321/665/321 443/737/443 445/738/445
f 390/708/390 444/739/444 320/740/320
f 391/741/391 445/742/445 413/743/413
f 310/579/310 442/736/442 312/744/312
f 443/745/443 311/746/311 313/747/313
f 382/748/382 414/749/414 388/683/388
f 415/688/415 383/750/383 389/686/389
f 412/751/412 440/752/440 444/753/444
f 441/754/441 413/715/413 445/755/445
f 446/756/446 440/757/440 438/758/438
f 447/759/447 441/760/441 445/761/445
f 434/762/434 438/758/438 436/763/436
f 439/764/439 435/765/435 437/766/437
f 448/767/448 434/768/434 432/769/432
f 449/770/449 435/771/435 447/772/447
f 448/773/448 450/774/450 430/775/430
f 449/770/449 451/776/451 433/777/433
f 430/775/430 416/733/416 414/749/414
f 431/778/431 417/734/417 451/776/451
f 312/744/312 430/779/430 382/780/382
f 431/781/431 313/654/313 383/658/383
f 442/736/442 448/767/448 312/744/312
f 443/782/443 449/770/449 447/772/447
f 442/736/442 444/783/444 446/784/446
f 447/785/447 445/786/445 443/787/443
f 416/788/416 452/789/452 476/790/476
f 453/791/453 417/734/417 477/792/477
f 432/769/432 452/789/452 450/793/450
f 433/777/433 453/791/453 463/794/463
f 432/769/432 460/795/460 462/796/462
f 461/797/461 433/777/433 463/794/463
f 436/798/436 460/799/460 434/800/434
f 437/766/437 461/801/461 459/802/459
f 438/758/438 458/803/458 436/763/436
f 439/764/439 459/802/459 457/804/457
f 438/805/438 454/806/454 456/807/456
f 455/808/455 439/809/439 457/810/457
f 440/752/440 474/811/474 454/812/454
f 475/813/475 441/814/441 455/815/455
f 428/816/428 476/790/476 464/817/464
f 477/792/477 429/730/429 465/818/465
f 426/819/426 464/817/464 466/820/466
f 465/818/465 427/732/427 467/821/467
f 424/822/424 466/823/466 468/824/468
f 467/825/467 425/826/425 469/827/469
f 424/822/424 470/828/470 422/829/422
f 425/830/425 471/831/471 469/832/469
f 422/833/422 472/834/472 420/717/420
f 423/835/423 473/836/473 471/831/471
f 420/837/420 474/811/474 418/838/418
f 421/839/421 475/813/475 473/836/473
f 456/840/456 478/841/478 458/803/458
f 457/842/457 479/843/479 481/844/481
f 480/845/480 484/846/484 478/841/478
f 481/844/481 485/847/485 483/848/483
f 484/846/484 488/849/488 486/850/486
f 489/851/489 485/847/485 487/852/487
f 488/849/488 492/853/492 486/850/486
f 489/851/489 493/854/493 491/855/491
f 464/856/464 486/850/486 492/853/492
f 487/852/487 465/857/465 493/854/493
f 484/846/484 476/858/476 452/859/452
f 485/860/485 477/792/477 487/861/487
f 462/862/462 484/846/484 452/859/452
f 463/863/463 485/847/485 479/843/479
f 458/803/458 462/862/462 460/864/460
f 463/863/463 459/865/459 461/866/461
f 474/867/474 456/868/456 454/869/454
f 475/870/475 457/842/457 481/844/481
f 472/871/472 480/845/480 474/872/474
f 481/873/481 473/874/473 475/875/475
f 488/849/488 472/871/472 470/876/470
f 489/877/489 473/874/473 483/878/483
f 490/879/490 470/876/470 468/880/468
f 491/881/491 471/882/471 489/877/489
f 466/883/466 490/879/490 468/880/468
f 491/884/491 467/885/467 469/886/469
f 464/856/464 492/853/492 466/883/466
f 467/885/467 493/887/493 465/888/465
f 392/889/392 504/890/504 502/891/502
f 505/892/505 393/705/393 503/893/503
f 394/894/394 502/891/502 500/895/500
f 503/893/503 395/896/395 501/897/501
f 394/894/394 498/898/498 396/899/396
f 395/896/395 499/900/499 501/897/501
f 396/901/396 496/902/496 398/903/398
f 397/904/397 497/905/497 499/906/499
f 398/903/398 494/907/494 400/908/400
f 399/909/399 495/910/495 497/911/497
f 400/912/400 506/913/506 388/914/388
f 401/915/401 507/916/507 495/910/495
f 502/917/502 506/918/506 494/919/494
f 503/920/503 507/916/507 505/921/505
f 494/919/494 500/922/500 502/917/502
f 501/923/501 495/924/495 503/925/503
f 496/902/496 498/926/498 500/927/500
f 501/923/501 499/928/499 497/929/497
f 382/930/382 506/913/506 314/931/314
f 383/932/383 507/916/507 389/933/389
f 314/676/314 504/934/504 322/674/322
f 505/935/505 315/936/315 323/677/323
f 320/937/320 504/938/504 390/939/390
f 505/940/505 321/941/321 391/942/391
f 47/1/47 1/15/1 3/2/3
f 4/4/4 2/18/2 48/5/48
f 45/3/45 3/2/3 5/7/5
f 6/9/6 4/4/4 46/6/46
f 3/11/3 9/943/9 7/12/7
f 8/14/8 10/17/10 4/4/4
f 1/15/1 11/944/11 9/16/9
f 10/17/10 12/23/12 2/18/2
f 11/19/11 13/31/13 15/20/15
f 16/22/16 14/945/14 12/23/12
f 9/21/9 15/20/15 17/24/17
f 18/26/18 16/22/16 10/17/10
f 21/27/21 19/946/19 17/24/17
f 22/28/22 16/33/16 18/29/18
f 13/31/13 23/947/23 21/27/21
f 22/28/22 24/38/24 14/32/14
f 23/34/23 25/72/25 27/35/27
f 28/37/28 26/948/26 24/38/24
f 27/35/27 29/42/29 19/39/19
f 28/37/28 22/28/22 20/30/20
f 33/41/33 31/949/31 29/42/29
f 34/43/34 28/37/28 30/40/30
f 35/45/35 33/50/33 27/46/27
f 36/48/36 26/948/26 28/37/28
f 37/49/37 39/54/39 33/50/33
f 38/51/38 36/950/36 34/52/34
f 39/54/39 41/58/41 31/55/31
f 40/53/40 34/52/34 32/56/32
f 45/3/45 43/8/43 41/58/41
f 46/59/46 40/53/40 42/57/42
f 47/1/47 45/3/45 39/54/39
f 48/61/48 38/51/38 40/53/40
f 37/62/37 51/68/51 49/63/49
f 38/51/38 48/61/48 50/65/50
f 35/67/35 53/951/53 51/68/51
f 36/69/36 38/952/38 52/70/52
f 25/72/25 55/77/55 53/73/53
f 26/75/26 36/69/36 54/71/54
f 23/34/23 57/953/57 55/77/55
f 24/78/24 26/75/26 56/76/56
f 23/80/23 13/86/13 59/81/59
f 60/83/60 14/89/14 24/84/24
f 13/86/13 11/954/11 63/87/63
f 64/88/64 12/955/12 14/89/14
f 11/90/11 1/96/1 65/91/65
f 66/93/66 2/99/2 12/94/12
f 1/96/1 47/956/47 49/97/49
f 50/98/50 48/957/48 2/99/2
f 174/121/174 176/125/176 91/122/91
f 175/124/175 90/129/90 91/122/91
f 172/126/172 174/121/174 89/123/89
f 173/128/173 88/134/88 90/129/90
f 85/130/85 170/136/170 172/131/172
f 173/128/173 171/137/171 86/133/86
f 83/135/83 168/140/168 170/136/170
f 171/137/171 169/245/169 84/138/84
f 81/139/81 166/240/166 168/140/168
f 169/141/169 167/324/167 82/142/82
f 79/144/79 92/555/92 146/145/146
f 147/147/147 93/958/93 80/148/80
f 94/150/94 148/959/148 146/151/146
f 95/153/95 93/958/93 147/147/147
f 94/155/94 96/160/96 150/156/150
f 151/158/151 97/960/97 95/153/95
f 98/159/98 152/164/152 150/156/150
f 99/161/99 97/960/97 151/158/151
f 100/163/100 154/169/154 152/164/152
f 101/165/101 99/961/99 153/166/153
f 102/168/102 156/173/156 154/169/154
f 103/170/103 101/165/101 155/167/155
f 102/168/102 104/176/104 158/172/158
f 159/174/159 105/962/105 103/170/103
f 106/175/106 160/195/160 158/172/158
f 107/177/107 105/963/105 159/178/159
f 108/180/108 162/186/162 160/181/160
f 109/183/109 107/177/107 161/179/161
f 67/185/67 68/964/68 162/186/162
f 67/187/67 109/183/109 163/184/163
f 128/189/128 160/195/160 162/190/162
f 129/192/129 111/965/111 163/193/163
f 128/189/128 179/412/179 158/172/158
f 159/196/159 180/201/180 129/192/129
f 156/197/156 158/966/158 179/198/179
f 157/200/157 127/205/127 180/201/180
f 154/202/154 156/197/156 126/199/126
f 155/204/155 125/208/125 127/205/127
f 152/206/152 154/202/154 124/203/124
f 153/162/153 123/211/123 125/208/125
f 150/156/150 152/164/152 122/209/122
f 151/158/151 121/213/121 123/211/123
f 148/157/148 150/156/150 120/210/120
f 149/154/149 119/216/119 121/213/121
f 146/214/146 148/157/148 118/212/118
f 147/147/147 117/396/117 119/216/119
f 164/217/164 146/214/146 116/215/116
f 165/219/165 115/223/115 117/220/117
f 114/218/114 181/231/181 177/222/177
f 177/222/177 182/232/182 115/223/115
f 162/190/162 68/967/68 112/224/112
f 163/193/163 111/965/111 113/225/113
f 112/224/112 68/967/68 178/227/178
f 178/229/178 68/226/68 113/225/113
f 181/231/181 183/228/183 178/227/178
f 182/232/182 177/222/177 178/227/178
f 135/234/135 137/968/137 176/125/176
f 176/125/176 137/968/137 136/235/136
f 133/236/133 135/234/135 174/121/174
f 175/124/175 136/235/136 134/237/134
f 133/238/133 172/131/172 170/136/170
f 134/237/134 132/246/132 171/137/171
f 166/240/166 187/249/187 185/241/185
f 186/242/186 188/251/188 167/243/167
f 131/239/131 170/136/170 168/140/168
f 169/245/169 171/137/171 132/246/132
f 190/248/190 189/252/189 187/249/187
f 190/248/190 145/969/145 188/251/188
f 187/249/187 189/252/189 69/253/69
f 188/251/188 186/242/186 69/253/69
f 131/239/131 185/241/185 69/253/69
f 132/255/132 130/254/130 69/253/69
f 142/256/142 193/296/193 191/257/191
f 192/259/192 194/298/194 143/260/143
f 140/262/140 195/970/195 193/263/193
f 194/265/194 196/293/196 141/266/141
f 197/268/197 195/970/195 140/262/140
f 198/270/198 139/971/139 141/271/141
f 71/273/71 197/286/197 139/274/139
f 144/258/144 191/257/191 70/279/70
f 145/261/145 190/972/190 70/281/70
f 191/282/191 206/305/206 208/283/208
f 192/259/192 70/281/70 208/283/208
f 71/273/71 199/973/199 200/285/200
f 201/287/201 199/974/199 71/276/71
f 197/288/197 200/300/200 202/289/202
f 203/291/203 201/975/201 198/292/198
f 202/289/202 204/299/204 193/294/193
f 203/291/203 196/293/196 194/265/194
f 193/296/193 204/976/204 206/297/206
f 207/284/207 205/307/205 194/298/194
f 204/299/204 202/289/202 200/300/200
f 205/302/205 199/974/199 201/287/201
f 199/304/199 208/283/208 206/305/206
f 207/284/207 208/283/208 199/304/199
f 139/308/139 140/312/140 164/309/164
f 165/219/165 141/315/141 139/311/139
f 140/312/140 142/977/142 211/313/211
f 212/314/212 143/978/143 141/315/141
f 144/250/144 213/320/213 211/316/211
f 145/261/145 143/260/143 212/318/212
f 187/249/187 166/240/166 213/320/213
f 188/251/188 145/969/145 214/321/214
f 209/322/209 213/320/213 166/240/166
f 210/323/210 82/142/82 167/324/167
f 215/326/215 211/316/211 213/320/213
f 216/327/216 210/323/210 214/325/214
f 79/329/79 164/979/164 211/316/211
f 212/328/212 165/980/165 80/330/80
f 130/331/130 72/335/72 222/332/222
f 130/331/130 132/246/132 223/334/223
f 133/236/133 131/333/131 222/332/222
f 223/337/223 132/981/132 134/338/134
f 135/234/135 133/236/133 220/336/220
f 221/339/221 134/338/134 136/341/136
f 137/343/137 135/982/135 218/344/218
f 219/342/219 136/341/136 137/343/137
f 218/346/218 229/353/229 231/347/231
f 219/349/219 217/983/217 231/350/231
f 218/346/218 220/355/220 227/352/227
f 228/354/228 221/984/221 219/349/219
f 220/355/220 222/985/222 225/356/225
f 226/357/226 223/986/223 221/358/221
f 72/360/72 224/987/224 225/361/225
f 72/335/72 223/334/223 226/363/226
f 224/365/224 231/988/231 229/366/229
f 230/368/230 231/988/231 224/365/224
f 183/374/183 181/386/181 234/375/234
f 235/377/235 182/232/182 184/233/184
f 112/379/112 183/374/183 232/376/232
f 233/378/233 184/233/184 113/381/113
f 112/224/112 254/459/254 256/383/256
f 113/381/113 111/989/111 257/384/257
f 114/385/114 252/389/252 234/375/234
f 115/223/115 182/232/182 235/377/235
f 114/385/114 116/990/116 250/388/250
f 251/390/251 117/396/117 115/391/115
f 116/215/116 118/212/118 248/393/248
f 249/395/249 119/216/119 117/396/117
f 118/212/118 120/210/120 246/397/246
f 247/398/247 121/213/121 119/216/119
f 120/210/120 122/209/122 244/399/244
f 245/400/245 123/211/123 121/213/121
f 124/401/124 242/406/242 244/399/244
f 125/402/125 123/991/123 245/403/245
f 126/405/126 240/410/240 242/406/242
f 127/407/127 125/402/125 243/404/243
f 126/405/126 179/412/179 236/409/236
f 237/411/237 180/992/180 127/407/127
f 179/412/179 128/189/128 238/413/238
f 239/414/239 129/417/129 180/415/180
f 128/189/128 110/191/110 256/383/256
f 257/384/257 111/989/111 129/417/129
f 256/383/256 258/457/258 276/418/276
f 257/419/257 239/993/239 277/420/277
f 236/409/236 238/413/238 276/418/276
f 277/420/277 239/993/239 237/423/237
f 236/425/236 278/994/278 274/426/274
f 237/423/237 241/431/241 275/428/275
f 240/427/240 274/426/274 272/429/272
f 241/431/241 243/995/243 273/432/273
f 244/433/244 242/430/242 272/429/272
f 273/435/273 243/996/243 245/436/245
f 244/433/244 270/434/270 268/438/268
f 245/436/245 247/997/247 269/440/269
f 248/393/248 246/397/246 268/441/268
f 269/440/269 247/997/247 249/443/249
f 248/393/248 266/442/266 264/445/264
f 249/443/249 251/998/251 265/446/265
f 250/394/250 264/445/264 262/447/262
f 251/449/251 253/999/253 263/450/263
f 234/452/234 252/448/252 262/447/262
f 263/450/263 253/999/253 235/454/235
f 256/383/256 254/459/254 260/456/260
f 261/458/261 255/462/255 257/419/257
f 254/459/254 232/463/232 282/460/282
f 283/461/283 233/1000/233 255/462/255
f 232/463/232 234/452/234 280/453/280
f 281/455/281 235/454/235 233/464/233
f 67/185/67 108/180/108 284/466/284
f 285/468/285 109/473/109 67/469/67
f 108/180/108 106/182/106 286/471/286
f 287/472/287 107/1001/107 109/473/109
f 104/474/104 288/480/288 286/475/286
f 105/477/105 107/1001/107 287/472/287
f 102/479/102 290/484/290 288/480/288
f 103/170/103 105/962/105 289/481/289
f 100/483/100 292/487/292 290/484/290
f 101/165/101 103/170/103 291/482/291
f 100/483/100 98/490/98 294/486/294
f 295/488/295 99/961/99 101/165/101
f 96/489/96 296/647/296 294/486/294
f 97/491/97 99/1002/99 295/492/295
f 96/494/96 94/498/94 298/495/298
f 299/497/299 95/501/95 97/491/97
f 94/498/94 92/555/92 300/499/300
f 301/500/301 93/557/93 95/501/95
f 309/502/309 328/541/328 338/503/338
f 309/505/309 308/508/308 339/506/339
f 308/508/308 338/536/338 336/509/336
f 308/508/308 307/510/307 337/511/337
f 307/510/307 336/509/336 340/512/340
f 307/510/307 306/513/306 341/514/341
f 89/515/89 91/1003/91 306/516/306
f 306/518/306 91/122/91 90/129/90
f 87/520/87 89/515/89 340/517/340
f 341/522/341 90/1004/90 88/523/88
f 85/525/85 87/520/87 334/521/334
f 335/527/335 88/1005/88 86/528/86
f 83/530/83 85/1006/85 330/531/330
f 331/533/331 86/1007/86 84/143/84
f 330/535/330 336/509/336 338/536/338
f 339/506/339 337/511/337 331/529/331
f 334/539/334 340/512/340 336/509/336
f 335/527/335 331/529/331 337/511/337
f 332/540/332 338/503/338 328/541/328
f 333/538/333 327/1008/327 329/507/329
f 81/543/81 83/530/83 332/532/332
f 333/534/333 84/143/84 82/142/82
f 342/546/342 344/1009/344 215/547/215
f 343/549/343 210/323/210 216/327/216
f 326/544/326 342/546/342 209/548/209
f 327/545/327 82/142/82 210/323/210
f 215/547/215 344/1009/344 346/551/346
f 216/327/216 80/330/80 347/553/347
f 346/554/346 300/499/300 92/555/92
f 347/556/347 80/1010/80 93/557/93
f 324/558/324 352/564/352 304/559/304
f 325/561/325 77/584/77 304/562/304
f 352/564/352 350/659/350 78/565/78
f 353/563/353 304/562/304 78/566/78
f 78/565/78 350/659/350 348/568/348
f 349/570/349 351/661/351 78/571/78
f 305/569/305 348/568/348 328/541/328
f 329/573/329 349/570/349 305/572/305
f 328/541/328 348/568/348 342/575/342
f 329/576/329 327/545/327 343/549/343
f 296/496/296 298/495/298 318/578/318
f 319/580/319 299/666/299 297/581/297
f 316/583/316 324/1011/324 77/584/77
f 317/586/317 76/585/76 77/584/77
f 358/587/358 356/623/356 303/588/303
f 359/590/359 302/1012/302 303/591/303
f 303/588/303 356/623/356 354/593/354
f 355/595/355 357/1013/357 303/588/303
f 75/594/75 354/593/354 316/596/316
f 317/586/317 355/1014/355 75/598/75
f 292/487/292 294/486/294 362/599/362
f 363/601/363 295/488/295 293/485/293
f 364/603/364 362/651/362 368/604/368
f 369/606/369 363/601/363 365/602/365
f 366/608/366 368/653/368 370/609/370
f 371/611/371 369/606/369 367/607/367
f 372/610/372 370/609/370 376/613/376
f 377/615/377 371/611/371 373/612/373
f 378/617/378 374/614/374 376/613/376
f 379/619/379 315/936/315 377/620/377
f 316/596/316 354/593/354 374/614/374
f 375/621/375 355/1014/355 317/586/317
f 354/593/354 356/623/356 372/610/372
f 373/612/373 357/592/357 355/622/355
f 356/623/356 358/587/358 366/608/366
f 367/607/367 359/590/359 357/592/357
f 358/624/358 360/627/360 364/603/364
f 365/602/365 361/626/361 359/590/359
f 292/487/292 364/600/364 360/625/360
f 293/485/293 291/482/291 361/626/361
f 360/627/360 358/624/358 302/628/302
f 361/630/361 74/629/74 302/628/302
f 284/632/284 286/1015/286 288/633/288
f 289/635/289 287/1016/287 285/636/285
f 284/638/284 290/1017/290 360/639/360
f 361/626/361 291/482/291 285/641/285
f 296/647/296 310/1018/310 362/599/362
f 297/648/297 295/488/295 363/601/363
f 310/650/310 312/1019/312 368/604/368
f 369/606/369 313/654/313 311/649/311
f 312/652/312 382/1020/382 370/609/370
f 371/611/371 383/658/383 313/654/313
f 376/655/376 370/1021/370 382/656/382
f 377/615/377 315/1022/315 383/658/383
f 350/659/350 386/680/386 384/660/384
f 351/661/351 349/570/349 385/662/385
f 384/660/384 386/680/386 320/664/320
f 385/662/385 319/580/319 321/665/321
f 298/495/298 300/499/300 384/660/384
f 385/662/385 301/668/301 299/666/299
f 300/499/300 344/1023/344 342/575/342
f 343/667/343 345/672/345 301/668/301
f 322/674/322 380/682/380 378/675/378
f 323/677/323 315/936/315 379/619/379
f 378/675/378 380/682/380 324/558/324
f 379/619/379 317/586/317 325/561/325
f 386/680/386 380/682/380 322/674/322
f 387/681/387 321/1024/321 323/677/323
f 352/564/352 380/682/380 386/680/386
f 353/563/353 351/567/351 387/681/387
f 388/683/388 414/749/414 402/684/402
f 389/686/389 401/1025/401 403/687/403
f 400/685/400 402/684/402 404/689/404
f 405/691/405 403/1026/403 401/692/401
f 404/689/404 406/698/406 396/694/396
f 405/695/405 399/1027/399 397/696/397
f 406/698/406 408/702/408 394/699/394
f 407/697/407 397/696/397 395/700/395
f 408/702/408 410/711/410 392/703/392
f 409/704/409 395/896/395 393/705/393
f 392/703/392 410/711/410 412/707/412
f 413/709/413 411/706/411 393/705/393
f 410/711/410 420/1028/420 418/712/418
f 419/713/419 421/1029/421 411/714/411
f 408/716/408 422/833/422 420/717/420
f 421/719/421 423/724/423 409/701/409
f 424/721/424 422/833/422 408/716/408
f 425/723/425 407/697/407 409/701/409
f 426/725/426 424/1030/424 406/726/406
f 427/728/427 405/695/405 407/697/407
f 428/729/428 426/1031/426 404/689/404
f 429/730/429 403/735/403 405/731/405
f 402/684/402 414/749/414 416/733/416
f 417/734/417 415/1032/415 403/735/403
f 320/664/320 444/783/444 442/736/442
f 321/665/321 319/580/319 443/737/443
f 390/708/390 412/707/412 444/739/444
f 391/741/391 321/1033/321 445/742/445
f 310/579/310 318/578/318 442/736/442
f 443/745/443 319/1034/319 311/746/311
f 382/748/382 430/775/430 414/749/414
f 415/688/415 431/1035/431 383/750/383
f 412/751/412 418/838/418 440/752/440
f 441/754/441 419/713/419 413/715/413
f 446/756/446 444/1036/444 440/757/440
f 447/759/447 439/809/439 441/760/441
f 434/762/434 446/756/446 438/758/438
f 439/764/439 447/1037/447 435/765/435
f 448/767/448 446/784/446 434/768/434
f 449/770/449 433/777/433 435/771/435
f 448/773/448 432/1038/432 450/774/450
f 449/770/449 431/778/431 451/776/451
f 430/775/430 450/774/450 416/733/416
f 431/778/431 415/1032/415 417/734/417
f 312/744/312 448/767/448 430/779/430
f 431/781/431 449/1039/449 313/654/313
f 442/736/442 446/784/446 448/767/448
f 443/782/443 313/1040/313 449/770/449
f 416/788/416 450/793/450 452/789/452
f 453/791/453 451/776/451 417/734/417
f 432/769/432 462/796/462 452/789/452
f 433/777/433 451/776/451 453/791/453
f 432/769/432 434/768/434 460/795/460
f 461/797/461 435/771/435 433/777/433
f 436/798/436 458/1041/458 460/799/460
f 437/766/437 435/765/435 461/801/461
f 438/758/438 456/840/456 458/803/458
f 439/764/439 437/766/437 459/802/459
f 438/805/438 440/1042/440 454/806/454
f 455/808/455 441/760/441 439/809/439
f 440/752/440 418/838/418 474/811/474
f 475/813/475 419/1043/419 441/814/441
f 428/816/428 416/788/416 476/790/476
f 477/792/477 417/734/417 429/730/429
f 426/819/426 428/816/428 464/817/464
f 465/818/465 429/730/429 427/732/427
f 424/822/424 426/1044/426 466/823/466
f 467/825/467 427/1045/427 425/826/425
f 424/822/424 468/824/468 470/828/470
f 425/830/425 423/835/423 471/831/471
f 422/833/422 470/1046/470 472/834/472
f 423/835/423 421/839/421 473/836/473
f 420/837/420 472/1047/472 474/811/474
f 421/839/421 419/1043/419 475/813/475
f 456/840/456 480/845/480 478/841/478
f 457/842/457 459/865/459 479/843/479
f 480/845/480 482/1048/482 484/846/484
f 481/844/481 479/843/479 485/847/485
f 484/846/484 482/1048/482 488/849/488
f 489/851/489 483/848/483 485/847/485
f 488/849/488 490/879/490 492/853/492
f 489/851/489 487/852/487 493/854/493
f 464/856/464 476/858/476 486/850/486
f 487/852/487 477/1049/477 465/857/465
f 484/846/484 486/850/486 476/858/476
f 485/860/485 453/791/453 477/792/477
f 462/862/462 478/841/478 484/846/484
f 463/863/463 453/1050/453 485/847/485
f 458/803/458 478/841/478 462/862/462
f 463/863/463 479/843/479 459/865/459
f 474/867/474 480/1051/480 456/868/456
f 475/870/475 455/1052/455 457/842/457
f 472/871/472 482/1048/482 480/845/480
f 481/873/481 483/878/483 473/874/473
f 488/849/488 482/1048/482 472/871/472
f 489/877/489 471/882/471 473/874/473
f 490/879/490 488/849/488 470/876/470
f 491/881/491 469/1053/469 471/882/471
f 466/883/466 492/853/492 490/879/490
f 491/884/491 493/887/493 467/885/467
f 392/889/392 390/1054/390 504/890/504
f 505/892/505 391/710/391 393/705/393
f 394/894/394 392/889/392 502/891/502
f 503/893/503 393/705/393 395/896/395
f 394/894/394 500/895/500 498/898/498
f 395/896/395 397/1055/397 499/900/499
f 396/901/396 498/926/498 496/902/496
f 397/904/397 399/1056/399 497/905/497
f 398/903/398 496/902/496 494/907/494
f 399/909/399 401/915/401 495/910/495
f 400/912/400 494/1057/494 506/913/506
f 401/915/401 389/933/389 507/916/507
f 502/917/502 504/1058/504 506/918/506
f 503/920/503 495/910/495 507/916/507
f 494/919/494 496/1059/496 500/922/500
f 501/923/501 497/929/497 495/924/495
f 382/930/382 388/914/388 506/913/506
f 383/932/383 315/1060/315 507/916/507
f 314/676/314 506/1061/506 504/934/504
f 505/935/505 507/1062/507 315/936/315
f 320/937/320 322/1063/322 504/938/504
f 505/940/505 323/1064/323 321/941/321
