# Blender 5.0.1
# www.blender.org
o Cube.001
v -0.118385 0.054215 1.788181
v -0.095692 0.088302 1.788181
v -0.118385 0.054215 0.087150
v -0.095692 0.088302 0.087150
v 0.095692 -0.088303 1.788181
v 0.118385 -0.054215 1.788181
v 0.095692 -0.088303 0.087150
v 0.118385 -0.054215 0.087150
v 0.000000 -0.157042 -0.442967
v 0.000000 0.157042 -0.442967
v 0.086419 -0.157042 -0.434455
v 0.086419 0.157042 -0.434455
v 0.169516 -0.157042 -0.409248
v 0.169516 0.157042 -0.409248
v 0.246099 -0.157042 -0.368313
v 0.246099 0.157042 -0.368313
v 0.313225 -0.157042 -0.313225
v 0.313225 0.157042 -0.313225
v 0.368313 -0.157042 -0.246099
v 0.368313 0.157042 -0.246099
v 0.409248 -0.157042 -0.169516
v 0.409248 0.157042 -0.169516
v 0.434455 -0.157042 -0.086419
v 0.434455 0.157042 -0.086419
v 0.442967 -0.157042 -0.000000
v 0.442967 0.157042 -0.000000
v 0.434455 -0.157042 0.086419
v 0.434455 0.157042 0.086419
v 0.409248 -0.157042 0.169516
v 0.409248 0.157042 0.169516
v 0.368313 -0.157042 0.246099
v 0.368313 0.157042 0.246099
v 0.313225 -0.157042 0.313225
v 0.313225 0.157042 0.313225
v 0.246099 -0.157042 0.368313
v 0.246099 0.157042 0.368313
v 0.169516 -0.157042 0.409248
v 0.169516 0.157042 0.409248
v 0.086419 -0.157042 0.434455
v 0.086419 0.157042 0.434455
v 0.000000 -0.157042 0.442967
v 0.000000 0.157042 0.442967
v -0.086419 -0.157042 0.434455
v -0.086419 0.157042 0.434455
v -0.169516 -0.157042 0.409248
v -0.169516 0.157042 0.409248
v -0.246099 -0.157042 0.368313
v -0.246099 0.157042 0.368313
v -0.313225 -0.157042 0.313225
v -0.313225 0.157042 0.313225
v -0.368313 -0.157042 0.246099
v -0.368313 0.157042 0.246099
v -0.409248 -0.157042 0.169516
v -0.409248 0.157042 0.169516
v -0.434455 -0.157042 0.086419
v -0.434455 0.157042 0.086419
v -0.442967 -0.157042 -0.000000
v -0.442967 0.157042 -0.000000
v -0.434455 -0.157042 -0.086419
v -0.434455 0.157042 -0.086419
v -0.409248 -0.157042 -0.169516
v -0.409248 0.157042 -0.169516
v -0.368313 -0.157042 -0.246099
v -0.368313 0.157042 -0.246099
v -0.313225 -0.157042 -0.313225
v -0.313225 0.157042 -0.313225
v -0.246099 -0.157042 -0.368313
v -0.246099 0.157042 -0.368313
v -0.169516 -0.157042 -0.409248
v -0.169516 0.157042 -0.409248
v -0.086419 -0.157042 -0.434455
v -0.086419 0.157042 -0.434455
v 0.111185 0.054215 -1.805684
v 0.088493 0.088302 -1.805492
v 0.125576 0.054215 -0.104714
v 0.102884 0.088302 -0.104522
v -0.102884 -0.088303 -1.803873
v -0.125576 -0.054215 -1.803681
v -0.088493 -0.088303 -0.102902
v -0.111185 -0.054215 -0.102710
vn -0.1607 0.8005 0.5773
vn -0.8005 -0.1606 -0.5773
vn -0.8005 -0.1606 0.5774
vn -0.1606 0.8005 -0.5773
vn 0.1606 -0.8005 -0.5773
vn 0.8005 0.1606 -0.5773
vn 0.1607 -0.8005 0.5773
vn 0.8005 0.1606 0.5774
vn -0.0000 -0.0000 -1.0000
vn 0.1951 -0.0000 -0.9808
vn 0.3827 -0.0000 -0.9239
vn 0.5556 -0.0000 -0.8315
vn 0.7071 -0.0000 -0.7071
vn 0.8315 -0.0000 -0.5556
vn 0.9239 -0.0000 -0.3827
vn 0.9808 -0.0000 -0.1951
vn 1.0000 -0.0000 -0.0000
vn 0.9808 -0.0000 0.1951
vn 0.9239 -0.0000 0.3827
vn 0.8315 -0.0000 0.5556
vn 0.7071 -0.0000 0.7071
vn 0.5556 -0.0000 0.8315
vn 0.3827 -0.0000 0.9239
vn 0.1951 -0.0000 0.9808
vn -0.0000 -0.0000 1.0000
vn -0.1951 -0.0000 0.9808
vn -0.3827 -0.0000 0.9239
vn -0.5556 -0.0000 0.8315
vn -0.7071 -0.0000 0.7071
vn -0.8315 -0.0000 0.5556
vn -0.9239 -0.0000 0.3827
vn -0.9808 -0.0000 0.1951
vn -1.0000 -0.0000 -0.0000
vn -0.9808 -0.0000 -0.1951
vn -0.9239 -0.0000 -0.3827
vn -0.8315 -0.0000 -0.5556
vn -0.7071 -0.0000 -0.7071
vn -0.5556 -0.0000 -0.8315
vn -0.3827 -0.0000 -0.9239
vn -0.0000 1.0000 -0.0000
vn -0.1951 -0.0000 -0.9808
vn -0.0000 -1.0000 -0.0000
vn 0.1558 0.8005 -0.5787
vn 0.9804 -0.1967 -0.0083
vn 0.7956 -0.1606 -0.5841
vn -0.9804 0.1967 0.0083
vn -0.1655 -0.8005 -0.5760
vn -0.1967 -0.9805 0.0017
vn -0.8054 0.1606 -0.5706
vn 0.1967 0.9805 -0.0017
vt 0.897474 0.728271
vt 0.912139 0.000957
vt 0.912139 0.729228
vt 0.532037 0.731795
vt 0.514420 0.842434
vt 0.514420 0.731795
vt 0.882809 0.729228
vt 0.897474 0.000000
vt 0.897474 0.728271
vt 0.563494 0.842235
vt 0.545895 0.731795
vt 0.563494 0.731849
vt 0.563494 0.731795
vt 0.655591 0.000000
vt 0.655591 0.731795
vt 0.747689 0.000000
vt 0.747689 0.731795
vt 0.747689 0.134690
vt 0.882809 0.097516
vt 0.882809 0.134690
vt 0.747689 0.097516
vt 0.882809 0.061779
vt 0.747689 0.061779
vt 0.882809 0.028852
vt 0.747689 0.028852
vt 0.882809 0.000000
vt 0.747689 0.806320
vt 0.882809 0.779905
vt 0.882809 0.806320
vt 0.747689 0.779905
vt 0.882809 0.748843
vt 0.747689 0.748843
vt 0.882809 0.714329
vt 0.747689 0.714329
vt 0.882809 0.677689
vt 0.747689 0.677689
vt 0.882809 0.640331
vt 0.747689 0.640331
vt 0.882809 0.603691
vt 0.747689 0.603691
vt 0.882809 0.569177
vt 0.747689 0.569177
vt 0.882809 0.538115
vt 0.747689 0.538115
vt 0.882809 0.511257
vt 0.882809 0.538116
vt 0.747689 0.511257
vt 0.882809 0.479850
vt 0.747689 0.479850
vt 0.882809 0.445099
vt 0.747689 0.445099
vt 0.882809 0.408341
vt 0.747689 0.408341
vt 0.882809 0.370989
vt 0.747689 0.370989
vt 0.882809 0.334477
vt 0.747689 0.334477
vt 0.882809 0.300210
vt 0.747689 0.300210
vt 0.882809 0.269503
vt 0.379299 1.000000
vt 0.514420 0.973584
vt 0.514420 1.000000
vt 0.379299 0.973584
vt 0.514420 0.942522
vt 0.379299 0.942522
vt 0.514420 0.908008
vt 0.379299 0.908008
vt 0.514420 0.871368
vt 0.379299 0.871368
vt 0.514420 0.834011
vt 0.379299 0.834011
vt 0.514420 0.797371
vt 0.379299 0.797371
vt 0.514420 0.762857
vt 0.379299 0.762857
vt 0.514420 0.731795
vt 0.747689 0.269503
vt 0.882809 0.240599
vt 0.882809 0.269503
vt 0.747689 0.240599
vt 0.882809 0.207633
vt 0.310544 0.042339
vt 0.336960 0.310544
vt 0.068755 0.336960
vt 0.747689 0.207633
vt 0.882809 0.171872
vt 0.747689 0.171872
vt 0.336960 0.448054
vt 0.310544 0.716259
vt 0.042339 0.689843
vt 0.926803 0.727638
vt 0.941468 0.001039
vt 0.941468 0.728677
vt 0.912139 0.728677
vt 0.926803 0.000000
vt 0.926803 0.727638
vt 0.581111 0.842433
vt 0.563494 0.731795
vt 0.581111 0.731795
vt 0.563494 -0.000000
vt 0.471397 0.731795
vt 0.471397 0.000000
vt 0.379299 0.000000
vt 0.471397 0.731795
vt 0.379299 0.731795
vt 0.897474 0.000000
vt 0.532037 0.842434
vt 0.882809 0.000957
vt 0.545895 0.842181
vt 0.563494 0.000000
vt 0.747689 -0.000000
vt 0.747689 0.269503
vt 0.379299 0.731795
vt 0.042339 0.310544
vt 0.021584 0.279482
vt 0.007288 0.244968
vt -0.000000 0.208328
vt -0.000000 0.170971
vt 0.007288 0.134331
vt 0.021584 0.099817
vt 0.042339 0.068755
vt 0.068755 0.042339
vt 0.099817 0.021584
vt 0.134331 0.007288
vt 0.170971 -0.000000
vt 0.208329 0.000000
vt 0.244968 0.007288
vt 0.279482 0.021584
vt 0.336960 0.068755
vt 0.357715 0.099817
vt 0.372011 0.134331
vt 0.379299 0.170971
vt 0.379299 0.208329
vt 0.372011 0.244968
vt 0.357715 0.279482
vt 0.310544 0.336960
vt 0.279482 0.357715
vt 0.244968 0.372011
vt 0.208328 0.379299
vt 0.170971 0.379299
vt 0.134331 0.372011
vt 0.099817 0.357715
vt 0.021584 0.658782
vt 0.007288 0.624268
vt 0.000000 0.587628
vt 0.000000 0.550270
vt 0.007288 0.513630
vt 0.021584 0.479116
vt 0.042339 0.448054
vt 0.068755 0.421638
vt 0.099817 0.400884
vt 0.134331 0.386587
vt 0.170971 0.379299
vt 0.208329 0.379299
vt 0.244968 0.386587
vt 0.279482 0.400884
vt 0.310544 0.421638
vt 0.357715 0.479116
vt 0.372011 0.513630
vt 0.379299 0.550270
vt 0.379299 0.587628
vt 0.372011 0.624268
vt 0.357715 0.658782
vt 0.336960 0.689844
vt 0.279482 0.737014
vt 0.244968 0.751310
vt 0.208328 0.758599
vt 0.170971 0.758599
vt 0.134331 0.751310
vt 0.099817 0.737014
vt 0.068755 0.716259
vt 0.926803 0.000000
vt 0.912139 0.001039
vt 0.563494 0.842432
vt 0.563494 0.731795
vt 0.471397 0.000000
s 1
f 2/1/1 3/2/2 1/3/3
f 4/4/4 7/5/5 3/6/2
f 8/7/6 5/8/7 7/9/5
f 5/10/7 2/11/1 1/12/3
f 7/13/5 1/14/3 3/15/2
f 4/15/4 6/16/8 8/17/6
f 10/18/9 11/19/10 9/20/9
f 12/21/10 13/22/11 11/19/10
f 14/23/11 15/24/12 13/22/11
f 16/25/12 17/26/13 15/24/12
f 18/27/13 19/28/14 17/29/13
f 20/30/14 21/31/15 19/28/14
f 22/32/15 23/33/16 21/31/15
f 24/34/16 25/35/17 23/33/16
f 26/36/17 27/37/18 25/35/17
f 28/38/18 29/39/19 27/37/18
f 30/40/19 31/41/20 29/39/19
f 32/42/20 33/43/21 31/41/20
f 34/44/21 35/45/22 33/46/21
f 36/47/22 37/48/23 35/45/22
f 38/49/23 39/50/24 37/48/23
f 40/51/24 41/52/25 39/50/24
f 42/53/25 43/54/26 41/52/25
f 44/55/26 45/56/27 43/54/26
f 46/57/27 47/58/28 45/56/27
f 48/59/28 49/60/29 47/58/28
f 50/61/29 51/62/30 49/63/29
f 52/64/30 53/65/31 51/62/30
f 54/66/31 55/67/32 53/65/31
f 56/68/32 57/69/33 55/67/32
f 58/70/33 59/71/34 57/69/33
f 60/72/34 61/73/35 59/71/34
f 62/74/35 63/75/36 61/73/35
f 64/76/36 65/77/37 63/75/36
f 66/78/37 67/79/38 65/80/37
f 68/81/38 69/82/39 67/79/38
s 0
f 46/83/40 30/84/40 14/85/40
s 1
f 70/86/39 71/87/41 69/82/39
f 72/88/41 9/20/9 71/87/41
s 0
f 39/89/42 55/90/42 71/91/42
s 1
f 74/92/43 75/93/44 73/94/45
f 80/95/46 77/96/47 79/97/48
f 77/98/47 74/99/43 73/100/45
f 79/101/48 73/102/45 75/103/44
f 80/104/46 74/105/43 78/106/49
f 2/1/1 4/107/4 3/2/2
f 4/4/4 8/108/6 7/5/5
f 8/7/6 6/109/8 5/8/7
f 5/10/7 6/110/8 2/11/1
f 7/13/5 5/111/7 1/14/3
f 4/15/4 2/14/1 6/16/8
f 10/18/9 12/21/10 11/19/10
f 12/21/10 14/23/11 13/22/11
f 14/23/11 16/25/12 15/24/12
f 16/25/12 18/112/13 17/26/13
f 18/27/13 20/30/14 19/28/14
f 20/30/14 22/32/15 21/31/15
f 22/32/15 24/34/16 23/33/16
f 24/34/16 26/36/17 25/35/17
f 26/36/17 28/38/18 27/37/18
f 28/38/18 30/40/19 29/39/19
f 30/40/19 32/42/20 31/41/20
f 32/42/20 34/44/21 33/43/21
f 34/44/21 36/47/22 35/45/22
f 36/47/22 38/49/23 37/48/23
f 38/49/23 40/51/24 39/50/24
f 40/51/24 42/53/25 41/52/25
f 42/53/25 44/55/26 43/54/26
f 44/55/26 46/57/27 45/56/27
f 46/57/27 48/59/28 47/58/28
f 48/59/28 50/113/29 49/60/29
f 50/61/29 52/64/30 51/62/30
f 52/64/30 54/66/31 53/65/31
f 54/66/31 56/68/32 55/67/32
f 56/68/32 58/70/33 57/69/33
f 58/70/33 60/72/34 59/71/34
f 60/72/34 62/74/35 61/73/35
f 62/74/35 64/76/36 63/75/36
f 64/76/36 66/114/37 65/77/37
f 66/78/37 68/81/38 67/79/38
f 68/81/38 70/86/39 69/82/39
s 0
f 14/85/40 12/115/40 10/116/40
f 10/116/40 72/117/40 70/118/40
f 70/118/40 68/119/40 66/120/40
f 66/120/40 64/121/40 62/122/40
f 62/122/40 60/123/40 58/124/40
f 58/124/40 56/125/40 54/126/40
f 54/126/40 52/127/40 50/128/40
f 50/128/40 48/129/40 46/83/40
f 46/83/40 44/130/40 42/131/40
f 42/131/40 40/132/40 38/133/40
f 38/133/40 36/134/40 34/135/40
f 34/135/40 32/136/40 30/84/40
f 30/84/40 28/137/40 26/138/40
f 26/138/40 24/139/40 22/140/40
f 22/140/40 20/141/40 18/142/40
f 18/142/40 16/143/40 14/85/40
f 14/85/40 10/116/40 70/118/40
f 70/118/40 66/120/40 62/122/40
f 62/122/40 58/124/40 54/126/40
f 54/126/40 50/128/40 46/83/40
f 46/83/40 42/131/40 38/133/40
f 38/133/40 34/135/40 30/84/40
f 30/84/40 26/138/40 22/140/40
f 22/140/40 18/142/40 14/85/40
f 14/85/40 70/118/40 62/122/40
f 62/122/40 54/126/40 46/83/40
f 46/83/40 38/133/40 30/84/40
f 30/84/40 22/140/40 14/85/40
f 14/85/40 62/122/40 46/83/40
s 1
f 70/86/39 72/88/41 71/87/41
f 72/88/41 10/18/9 9/20/9
s 0
f 71/91/42 9/144/42 11/145/42
f 11/145/42 13/146/42 15/147/42
f 15/147/42 17/148/42 19/149/42
f 19/149/42 21/150/42 23/151/42
f 23/151/42 25/152/42 27/153/42
f 27/153/42 29/154/42 31/155/42
f 31/155/42 33/156/42 35/157/42
f 35/157/42 37/158/42 39/89/42
f 39/89/42 41/159/42 43/160/42
f 43/160/42 45/161/42 47/162/42
f 47/162/42 49/163/42 51/164/42
f 51/164/42 53/165/42 55/90/42
f 55/90/42 57/166/42 59/167/42
f 59/167/42 61/168/42 63/169/42
f 63/169/42 65/170/42 67/171/42
f 67/171/42 69/172/42 71/91/42
f 71/91/42 11/145/42 15/147/42
f 15/147/42 19/149/42 23/151/42
f 23/151/42 27/153/42 31/155/42
f 31/155/42 35/157/42 39/89/42
f 39/89/42 43/160/42 47/162/42
f 47/162/42 51/164/42 55/90/42
f 55/90/42 59/167/42 63/169/42
f 63/169/42 67/171/42 71/91/42
f 71/91/42 15/147/42 23/151/42
f 23/151/42 31/155/42 39/89/42
f 39/89/42 47/162/42 55/90/42
f 55/90/42 63/169/42 71/91/42
f 71/91/42 23/151/42 39/89/42
s 1
f 74/92/43 76/173/50 75/93/44
f 80/95/46 78/174/49 77/96/47
f 77/98/47 78/175/49 74/99/43
f 79/101/48 77/176/47 73/102/45
f 80/104/46 76/177/50 74/105/43
